<?xml version="1.0" encoding="utf-8"?>
<!-- Generator: Adobe Illustrator 25.1.0, SVG Export Plug-In . SVG Version: 6.00 Build 0)  -->
<svg version="1.1"  width="16px" height ="16px" id="Layer_1" xmlns="http://www.w3.org/2000/svg" xmlns:xlink="http://www.w3.org/1999/xlink" x="0px" y="0px"
	 viewBox="0 0 300 300"   style="enable-background:new 0 0 300 300;" xml:space="preserve">
<style type="text/css">
	.st0{clip-path:url(#SVGID_2_);}
	.st1{fill:#231F20;}
	.st2{fill:#FF0000;}
	.st3{fill:#FB8538;}
	.st4{fill:#91D050;}
	.st5{fill:#FF8F2A;}
	.st6{fill:#E22024;}
	.st7{fill:#FF2500;}
	.st8{fill:#FFFFFF;}
	.st9{fill:#006FC0;}
	.st10{fill:#FFFF01;}
	.st11{fill:#231F20;stroke:#231F20;stroke-width:0.25;stroke-miterlimit:10;}
	.st12{fill:#FF29FF;}
	.st13{opacity:0.24;fill:none;stroke:#231F20;stroke-width:0.25;stroke-miterlimit:10;}
	.st14{fill:#D0CECE;}
	.st15{fill:#02A0E3;}
	.st16{fill:#58585A;}
	.st17{fill:#AEB1B3;}
	.st18{fill:#7F7F7F;}
	.st19{fill:#888888;}
	.st20{fill:none;stroke:#231F20;stroke-miterlimit:10;}
	.st21{fill:#C46321;}
	.st22{fill:#231F20;stroke:#888888;stroke-width:0.25;stroke-miterlimit:10;}
	.st23{fill:#484949;}
	.st24{fill:#B4B6B6;}
	.st25{fill:none;stroke:#231F20;stroke-width:0.25;stroke-miterlimit:10;}
	.st26{clip-path:url(#SVGID_6_);}
	.st27{fill:#0A0A0A;}
	.st28{fill:#FDFDFD;}
	.st29{fill:none;}
	.st30{fill:#040404;stroke:#FFFFFF;stroke-width:0.25;stroke-miterlimit:10;}
	.st31{clip-path:url(#SVGID_8_);}
	.st32{fill:#161616;}
	.st33{fill:#323232;}
	.st34{fill:#C1C1C1;}
	.st35{fill:#AEB1B3;stroke:#161616;stroke-width:0.25;stroke-miterlimit:10;}
	.st36{fill:#0D0D0D;}
	.st37{fill:#FFFFFF;stroke:#161616;stroke-miterlimit:10;}
	.st38{fill:#6E6E6E;}
	.st39{fill:#D9D9D9;}
	.st40{fill:#161616;stroke:#161616;stroke-width:0.5;stroke-miterlimit:10;}
	.st41{fill:#888888;stroke:#58585A;stroke-width:0.25;stroke-miterlimit:10;}
	.st42{fill:#040404;stroke:#FFFFFF;stroke-width:0.5;stroke-miterlimit:10;}
	.st43{fill:#2B2B2B;}
	.st44{fill:#C2C2C2;}
	.st45{fill:url(#SVGID_11_);}
	.st46{fill:url(#SVGID_12_);}
	.st47{opacity:0.2;fill:#E0E47C;}
	.st48{fill:url(#SVGID_13_);}
	.st49{opacity:0.4;fill:url(#SVGID_14_);}
	.st50{fill:url(#SVGID_15_);}
	.st51{opacity:0.4;fill:url(#SVGID_16_);}
	.st52{fill:url(#SVGID_17_);}
	.st53{opacity:0.4;fill:url(#SVGID_18_);}
	.st54{fill:url(#SVGID_19_);}
	.st55{opacity:0.4;fill:url(#SVGID_20_);}
	.st56{fill:url(#SVGID_21_);}
	.st57{opacity:0.4;fill:url(#SVGID_22_);}
	.st58{fill:url(#SVGID_23_);}
	.st59{opacity:0.4;fill:url(#SVGID_24_);}
	.st60{fill:url(#SVGID_25_);}
	.st61{opacity:0.4;fill:url(#SVGID_26_);}
	.st62{fill:url(#SVGID_27_);}
	.st63{opacity:0.4;fill:url(#SVGID_28_);}
	.st64{fill:url(#SVGID_29_);}
	.st65{opacity:0.4;fill:url(#SVGID_30_);}
	.st66{fill:url(#SVGID_31_);}
	.st67{opacity:0.4;fill:url(#SVGID_32_);}
	.st68{fill:url(#SVGID_33_);}
	.st69{opacity:0.4;fill:url(#SVGID_34_);}
	.st70{fill:#654209;}
	.st71{opacity:0.5;}
	.st72{opacity:0.5;fill:#654209;}
	.st73{opacity:0.3;fill:#654209;}
	.st74{fill:#326613;}
	.st75{fill:#4F8821;}
	.st76{opacity:0.5;fill:url(#SVGID_35_);}
	.st77{opacity:0.2;fill:#E0E481;}
	.st78{fill:url(#SVGID_36_);}
	.st79{opacity:0.4;fill:#E3DC3D;}
	.st80{opacity:0.4;fill:url(#SVGID_37_);}
	.st81{opacity:0.3;fill:url(#SVGID_38_);}
	.st82{fill:url(#SVGID_39_);}
	.st83{opacity:0.7;fill:url(#SVGID_40_);}
	.st84{opacity:0.7;}
	.st85{opacity:0.8;fill:url(#SVGID_41_);}
	.st86{opacity:0.3;fill:url(#SVGID_42_);}
	.st87{opacity:0.5;fill:url(#SVGID_43_);}
	.st88{opacity:0.3;fill:url(#SVGID_44_);}
	.st89{opacity:0.6;fill:#E3DC3D;}
	.st90{fill:url(#SVGID_45_);}
	.st91{opacity:0.6;fill:url(#SVGID_46_);}
	.st92{opacity:0.3;fill:#77BE7F;}
	.st93{opacity:0.2;fill:#ECEA85;}
	.st94{fill:url(#SVGID_47_);}
	.st95{opacity:0.5;fill:#E3DC3D;}
	.st96{fill:url(#SVGID_48_);}
	.st97{opacity:0.7;fill:url(#SVGID_49_);}
	.st98{opacity:0.8;fill:url(#SVGID_50_);}
	.st99{opacity:0.3;fill:url(#SVGID_51_);}
	.st100{opacity:0.5;fill:url(#SVGID_52_);}
	.st101{opacity:0.3;fill:url(#SVGID_53_);}
	.st102{fill:url(#SVGID_54_);}
	.st103{opacity:0.8;fill:url(#SVGID_55_);}
	.st104{opacity:0.4;fill:url(#SVGID_56_);}
	.st105{fill:url(#SVGID_57_);}
	.st106{opacity:0.4;fill:url(#SVGID_58_);}
	.st107{fill:url(#SVGID_59_);}
	.st108{fill:url(#SVGID_60_);}
	.st109{fill:url(#SVGID_61_);}
	.st110{opacity:0.5;fill:url(#SVGID_62_);}
	.st111{opacity:0.3;fill:#7D9567;}
	.st112{opacity:0.3;fill:#00713A;}
	.st113{opacity:0.8;fill:#E3DC3D;}
	.st114{opacity:0.5;fill:url(#SVGID_63_);}
	.st115{fill:url(#SVGID_64_);}
	.st116{fill:url(#SVGID_65_);}
	.st117{fill:url(#SVGID_66_);}
	.st118{opacity:0.7;fill:url(#SVGID_67_);}
	.st119{opacity:0.8;fill:url(#SVGID_68_);}
	.st120{opacity:0.3;fill:url(#SVGID_69_);}
	.st121{opacity:0.5;fill:url(#SVGID_70_);}
	.st122{opacity:0.3;fill:url(#SVGID_71_);}
	.st123{fill:#E3DC3D;}
	.st124{fill:url(#SVGID_72_);}
	.st125{opacity:0.4;fill:url(#SVGID_73_);}
	.st126{fill:url(#SVGID_74_);}
	.st127{opacity:0.8;fill:url(#SVGID_75_);}
	.st128{opacity:0.4;fill:url(#SVGID_76_);}
	.st129{fill:url(#SVGID_77_);}
	.st130{opacity:0.8;fill:url(#SVGID_78_);}
	.st131{opacity:0.2;fill:url(#SVGID_79_);}
	.st132{opacity:0.6;fill:url(#SVGID_80_);}
	.st133{opacity:0.3;fill:url(#SVGID_81_);}
	.st134{fill:url(#SVGID_82_);}
	.st135{opacity:0.4;fill:url(#SVGID_83_);}
	.st136{opacity:0.3;fill:url(#SVGID_84_);}
	.st137{opacity:0.5;fill:url(#SVGID_85_);}
	.st138{fill:url(#SVGID_86_);}
	.st139{opacity:0.8;fill:url(#SVGID_87_);}
	.st140{opacity:0.4;fill:url(#SVGID_88_);}
	.st141{opacity:0.5;fill:url(#SVGID_89_);}
	.st142{fill:url(#SVGID_90_);}
	.st143{fill:url(#SVGID_91_);}
	.st144{fill:url(#SVGID_92_);}
	.st145{opacity:0.7;fill:url(#SVGID_93_);}
	.st146{opacity:0.8;fill:url(#SVGID_94_);}
	.st147{opacity:0.3;fill:url(#SVGID_95_);}
	.st148{opacity:0.5;fill:url(#SVGID_96_);}
	.st149{opacity:0.3;fill:url(#SVGID_97_);}
	.st150{fill:url(#SVGID_98_);}
	.st151{opacity:0.4;fill:url(#SVGID_99_);}
	.st152{fill:url(#SVGID_100_);}
	.st153{opacity:0.8;fill:url(#SVGID_101_);}
	.st154{opacity:0.4;fill:url(#SVGID_102_);}
	.st155{fill:url(#SVGID_103_);}
	.st156{opacity:0.8;fill:url(#SVGID_104_);}
	.st157{opacity:0.2;fill:url(#SVGID_105_);}
	.st158{opacity:0.6;fill:url(#SVGID_106_);}
	.st159{opacity:0.3;fill:url(#SVGID_107_);}
	.st160{fill:url(#SVGID_108_);}
	.st161{opacity:0.4;fill:url(#SVGID_109_);}
	.st162{opacity:0.3;fill:url(#SVGID_110_);}
	.st163{opacity:0.5;fill:url(#SVGID_111_);}
	.st164{fill:url(#SVGID_112_);}
	.st165{opacity:0.8;fill:url(#SVGID_113_);}
	.st166{opacity:0.4;fill:url(#SVGID_114_);}
	.st167{opacity:0.5;fill:url(#SVGID_115_);}
	.st168{fill:url(#SVGID_116_);}
	.st169{fill:url(#SVGID_117_);}
	.st170{fill:url(#SVGID_118_);}
	.st171{opacity:0.7;fill:url(#SVGID_119_);}
	.st172{opacity:0.8;fill:url(#SVGID_120_);}
	.st173{opacity:0.3;fill:url(#SVGID_121_);}
	.st174{opacity:0.5;fill:url(#SVGID_122_);}
	.st175{opacity:0.3;fill:url(#SVGID_123_);}
	.st176{fill:url(#SVGID_124_);}
	.st177{opacity:0.4;fill:url(#SVGID_125_);}
	.st178{fill:url(#SVGID_126_);}
	.st179{opacity:0.8;fill:url(#SVGID_127_);}
	.st180{opacity:0.4;fill:url(#SVGID_128_);}
	.st181{fill:url(#SVGID_129_);}
	.st182{opacity:0.8;fill:url(#SVGID_130_);}
	.st183{opacity:0.2;fill:url(#SVGID_131_);}
	.st184{opacity:0.6;fill:url(#SVGID_132_);}
	.st185{opacity:0.3;fill:url(#SVGID_133_);}
	.st186{fill:url(#SVGID_134_);}
	.st187{opacity:0.4;fill:url(#SVGID_135_);}
	.st188{opacity:0.3;fill:url(#SVGID_136_);}
	.st189{opacity:0.5;fill:url(#SVGID_137_);}
	.st190{fill:url(#SVGID_138_);}
	.st191{opacity:0.8;fill:url(#SVGID_139_);}
	.st192{opacity:0.4;fill:url(#SVGID_140_);}
	.st193{opacity:0.5;fill:url(#SVGID_141_);}
	.st194{fill:url(#SVGID_142_);}
	.st195{opacity:0.4;fill:url(#SVGID_143_);}
	.st196{fill:url(#SVGID_144_);}
	.st197{opacity:0.8;fill:url(#SVGID_145_);}
	.st198{opacity:0.4;fill:url(#SVGID_146_);}
	.st199{fill:url(#SVGID_147_);}
	.st200{opacity:0.8;fill:url(#SVGID_148_);}
	.st201{opacity:0.2;fill:url(#SVGID_149_);}
	.st202{opacity:0.6;fill:url(#SVGID_150_);}
	.st203{opacity:0.3;fill:url(#SVGID_151_);}
	.st204{fill:url(#SVGID_152_);}
	.st205{opacity:0.4;fill:url(#SVGID_153_);}
	.st206{opacity:0.3;fill:url(#SVGID_154_);}
	.st207{fill:#917305;}
	.st208{fill:#B49000;}
	.st209{fill:#6B5203;}
	.st210{opacity:0.6;}
	.st211{opacity:0.5;fill:#B49000;}
	.st212{fill:#6EBA00;}
	.st213{fill:#2D5B00;}
	.st214{opacity:0.3;}
	.st215{fill:#4E9200;}
	.st216{fill:#3E6B03;}
	.st217{fill:#8BD506;}
	.st218{opacity:0.3;fill:#4E9200;}
	.st219{opacity:0.3;fill:#3E6B03;}
	.st220{opacity:0.6;fill:#3E6B03;}
	.st221{fill:#1D1D1B;}
	.st222{fill:#9CB558;}
	.st223{fill:#729918;}
	.st224{fill:#A9D13D;}
	.st225{fill:#AAD03D;}
	.st226{fill:#7DB500;}
	.st227{fill:#7EB500;}
	.st228{fill:#99CA00;}
	.st229{fill:#02B050;}
	.st230{fill:#D2D2D2;}
	.st231{fill:#FFE090;}
	.st232{fill:#9ED6F7;}
	.st233{fill:#9FD7F7;}
	.st234{fill:#DA9458;}
	.st235{fill:#CCCCCC;}
	.st236{fill:#F1CA1E;}
	.st237{fill:#FFACF8;}
	.st238{fill:url(#SVGID_155_);}
	.st239{fill:url(#SVGID_156_);}
	.st240{fill:url(#SVGID_157_);}
	.st241{opacity:0.4;fill:url(#SVGID_158_);}
	.st242{fill:url(#SVGID_159_);}
	.st243{opacity:0.4;fill:url(#SVGID_160_);}
	.st244{fill:url(#SVGID_161_);}
	.st245{opacity:0.4;fill:url(#SVGID_162_);}
	.st246{fill:url(#SVGID_163_);}
	.st247{opacity:0.4;fill:url(#SVGID_164_);}
	.st248{fill:url(#SVGID_165_);}
	.st249{opacity:0.4;fill:url(#SVGID_166_);}
	.st250{fill:url(#SVGID_167_);}
	.st251{opacity:0.4;fill:url(#SVGID_168_);}
	.st252{fill:url(#SVGID_169_);}
	.st253{opacity:0.4;fill:url(#SVGID_170_);}
	.st254{fill:url(#SVGID_171_);}
	.st255{opacity:0.4;fill:url(#SVGID_172_);}
	.st256{fill:url(#SVGID_173_);}
	.st257{opacity:0.4;fill:url(#SVGID_174_);}
	.st258{fill:url(#SVGID_175_);}
	.st259{opacity:0.4;fill:url(#SVGID_176_);}
	.st260{fill:url(#SVGID_177_);}
	.st261{opacity:0.4;fill:url(#SVGID_178_);}
	.st262{opacity:0.5;fill:url(#SVGID_179_);}
	.st263{fill:url(#SVGID_180_);}
	.st264{opacity:0.4;fill:url(#SVGID_181_);}
	.st265{opacity:0.3;fill:url(#SVGID_182_);}
	.st266{fill:url(#SVGID_183_);}
	.st267{opacity:0.7;fill:url(#SVGID_184_);}
	.st268{opacity:0.8;fill:url(#SVGID_185_);}
	.st269{opacity:0.3;fill:url(#SVGID_186_);}
	.st270{opacity:0.5;fill:url(#SVGID_187_);}
	.st271{opacity:0.3;fill:url(#SVGID_188_);}
	.st272{fill:url(#SVGID_189_);}
	.st273{opacity:0.6;fill:url(#SVGID_190_);}
	.st274{fill:url(#SVGID_191_);}
	.st275{fill:url(#SVGID_192_);}
	.st276{opacity:0.7;fill:url(#SVGID_193_);}
	.st277{opacity:0.8;fill:url(#SVGID_194_);}
	.st278{opacity:0.3;fill:url(#SVGID_195_);}
	.st279{opacity:0.5;fill:url(#SVGID_196_);}
	.st280{opacity:0.3;fill:url(#SVGID_197_);}
	.st281{fill:url(#SVGID_198_);}
	.st282{opacity:0.8;fill:url(#SVGID_199_);}
	.st283{opacity:0.4;fill:url(#SVGID_200_);}
	.st284{fill:url(#SVGID_201_);}
	.st285{opacity:0.4;fill:url(#SVGID_202_);}
	.st286{fill:url(#SVGID_203_);}
	.st287{fill:url(#SVGID_204_);}
	.st288{fill:url(#SVGID_205_);}
	.st289{opacity:0.5;fill:url(#SVGID_206_);}
	.st290{opacity:0.5;fill:url(#SVGID_207_);}
	.st291{fill:url(#SVGID_208_);}
	.st292{fill:url(#SVGID_209_);}
	.st293{fill:url(#SVGID_210_);}
	.st294{opacity:0.7;fill:url(#SVGID_211_);}
	.st295{opacity:0.8;fill:url(#SVGID_212_);}
	.st296{opacity:0.3;fill:url(#SVGID_213_);}
	.st297{opacity:0.5;fill:url(#SVGID_214_);}
	.st298{opacity:0.3;fill:url(#SVGID_215_);}
	.st299{fill:url(#SVGID_216_);}
	.st300{opacity:0.4;fill:url(#SVGID_217_);}
	.st301{fill:url(#SVGID_218_);}
	.st302{opacity:0.8;fill:url(#SVGID_219_);}
	.st303{opacity:0.4;fill:url(#SVGID_220_);}
	.st304{fill:url(#SVGID_221_);}
	.st305{opacity:0.8;fill:url(#SVGID_222_);}
	.st306{opacity:0.2;fill:url(#SVGID_223_);}
	.st307{opacity:0.6;fill:url(#SVGID_224_);}
	.st308{opacity:0.3;fill:url(#SVGID_225_);}
	.st309{fill:url(#SVGID_226_);}
	.st310{opacity:0.4;fill:url(#SVGID_227_);}
	.st311{opacity:0.3;fill:url(#SVGID_228_);}
	.st312{opacity:0.5;fill:url(#SVGID_229_);}
	.st313{fill:url(#SVGID_230_);}
	.st314{opacity:0.8;fill:url(#SVGID_231_);}
	.st315{opacity:0.4;fill:url(#SVGID_232_);}
	.st316{opacity:0.5;fill:url(#SVGID_233_);}
	.st317{fill:url(#SVGID_234_);}
	.st318{fill:url(#SVGID_235_);}
	.st319{fill:url(#SVGID_236_);}
	.st320{opacity:0.7;fill:url(#SVGID_237_);}
	.st321{opacity:0.8;fill:url(#SVGID_238_);}
	.st322{opacity:0.3;fill:url(#SVGID_239_);}
	.st323{opacity:0.5;fill:url(#SVGID_240_);}
	.st324{opacity:0.3;fill:url(#SVGID_241_);}
	.st325{fill:url(#SVGID_242_);}
	.st326{opacity:0.4;fill:url(#SVGID_243_);}
	.st327{fill:url(#SVGID_244_);}
	.st328{opacity:0.8;fill:url(#SVGID_245_);}
	.st329{opacity:0.4;fill:url(#SVGID_246_);}
	.st330{fill:url(#SVGID_247_);}
	.st331{opacity:0.8;fill:url(#SVGID_248_);}
	.st332{opacity:0.2;fill:url(#SVGID_249_);}
	.st333{opacity:0.6;fill:url(#SVGID_250_);}
	.st334{opacity:0.3;fill:url(#SVGID_251_);}
	.st335{fill:url(#SVGID_252_);}
	.st336{opacity:0.4;fill:url(#SVGID_253_);}
	.st337{opacity:0.3;fill:url(#SVGID_254_);}
	.st338{opacity:0.5;fill:url(#SVGID_255_);}
	.st339{fill:url(#SVGID_256_);}
	.st340{opacity:0.8;fill:url(#SVGID_257_);}
	.st341{opacity:0.4;fill:url(#SVGID_258_);}
	.st342{opacity:0.5;fill:url(#SVGID_259_);}
	.st343{fill:url(#SVGID_260_);}
	.st344{fill:url(#SVGID_261_);}
	.st345{fill:url(#SVGID_262_);}
	.st346{opacity:0.7;fill:url(#SVGID_263_);}
	.st347{opacity:0.8;fill:url(#SVGID_264_);}
	.st348{opacity:0.3;fill:url(#SVGID_265_);}
	.st349{opacity:0.5;fill:url(#SVGID_266_);}
	.st350{opacity:0.3;fill:url(#SVGID_267_);}
	.st351{fill:url(#SVGID_268_);}
	.st352{opacity:0.4;fill:url(#SVGID_269_);}
	.st353{fill:url(#SVGID_270_);}
	.st354{opacity:0.8;fill:url(#SVGID_271_);}
	.st355{opacity:0.4;fill:url(#SVGID_272_);}
	.st356{fill:url(#SVGID_273_);}
	.st357{opacity:0.8;fill:url(#SVGID_274_);}
	.st358{opacity:0.2;fill:url(#SVGID_275_);}
	.st359{opacity:0.6;fill:url(#SVGID_276_);}
	.st360{opacity:0.3;fill:url(#SVGID_277_);}
	.st361{fill:url(#SVGID_278_);}
	.st362{opacity:0.4;fill:url(#SVGID_279_);}
	.st363{opacity:0.3;fill:url(#SVGID_280_);}
	.st364{opacity:0.5;fill:url(#SVGID_281_);}
	.st365{fill:url(#SVGID_282_);}
	.st366{opacity:0.8;fill:url(#SVGID_283_);}
	.st367{opacity:0.4;fill:url(#SVGID_284_);}
	.st368{opacity:0.5;fill:url(#SVGID_285_);}
	.st369{fill:url(#SVGID_286_);}
	.st370{opacity:0.4;fill:url(#SVGID_287_);}
	.st371{fill:url(#SVGID_288_);}
	.st372{opacity:0.8;fill:url(#SVGID_289_);}
	.st373{opacity:0.4;fill:url(#SVGID_290_);}
	.st374{fill:url(#SVGID_291_);}
	.st375{opacity:0.8;fill:url(#SVGID_292_);}
	.st376{opacity:0.2;fill:url(#SVGID_293_);}
	.st377{opacity:0.6;fill:url(#SVGID_294_);}
	.st378{opacity:0.3;fill:url(#SVGID_295_);}
	.st379{fill:url(#SVGID_296_);}
	.st380{opacity:0.4;fill:url(#SVGID_297_);}
	.st381{opacity:0.3;fill:url(#SVGID_298_);}
	.st382{fill:#EB974F;}
	.st383{fill:#F19B54;}
	.st384{fill:#DF8F4E;}
	.st385{fill:#1C7240;}
</style>
<g>
	<defs>
		<rect id="SVGID_1_" x="-257691104" y="-257699840" width="515396064" height="515396064"/>
	</defs>
	<clipPath id="SVGID_2_">
		<use xlink:href="#SVGID_1_"  style="overflow:visible;"/>
	</clipPath>
</g>
<g>
	<path d="M60.35,106.32c0-5.18,1.05-10.2,3.16-15.04c2.11-4.85,5.1-8.55,8.97-11.1c3.87-2.55,8.19-3.83,12.96-3.83
		c7.37,0,13.41,2.9,18.12,8.69c4.71,5.79,7.06,13.11,7.06,21.95c0,8.92-2.38,16.31-7.13,22.18c-4.75,5.87-10.74,8.8-17.96,8.8
		c-4.46,0-8.72-1.22-12.77-3.66c-4.05-2.44-7.13-6.02-9.24-10.74C61.4,118.84,60.35,113.09,60.35,106.32z M73.56,107.15
		c0,5.85,1.15,10.32,3.44,13.43c2.29,3.11,5.12,4.66,8.48,4.66c3.36,0,6.18-1.55,8.46-4.66c2.28-3.11,3.42-7.62,3.42-13.54
		c0-5.77-1.14-10.21-3.42-13.32c-2.28-3.11-5.1-4.66-8.46-4.66c-3.36,0-6.19,1.55-8.48,4.66C74.7,96.83,73.56,101.3,73.56,107.15z"
		/>
	<path d="M165.01,136.63h-12.89v-30.09c0-6.37-0.28-10.48-0.83-12.35s-1.44-3.32-2.68-4.36c-1.24-1.04-2.73-1.55-4.47-1.55
		c-2.23,0-4.23,0.74-6.01,2.22c-1.77,1.48-2.99,3.44-3.65,5.88s-0.99,6.96-0.99,13.54v26.7h-12.89V77.68h11.97v8.66
		c4.25-6.66,9.6-9.99,16.05-9.99c2.84,0,5.44,0.62,7.8,1.86c2.35,1.24,4.14,2.82,5.34,4.75c1.21,1.92,2.05,4.11,2.52,6.55
		c0.47,2.44,0.71,5.94,0.71,10.49V136.63z"/>
	<path d="M178.54,136.63V55.92h13.58v67h33.75v13.71H178.54z"/>
	<path d="M61.93,211.17c0-5.39,1.05-10.61,3.15-15.65c2.1-5.04,5.08-8.89,8.94-11.55c3.85-2.66,8.16-3.98,12.91-3.98
		c7.34,0,13.36,3.01,18.06,9.04s7.04,13.64,7.04,22.84c0,9.28-2.37,16.97-7.11,23.07c-4.74,6.1-10.7,9.15-17.9,9.15
		c-4.45,0-8.69-1.27-12.73-3.81s-7.11-6.27-9.21-11.17C62.98,224.19,61.93,218.21,61.93,211.17z M75.09,212.03
		c0,6.08,1.14,10.74,3.43,13.97c2.29,3.23,5.1,4.85,8.46,4.85c3.35,0,6.16-1.62,8.43-4.85c2.27-3.23,3.41-7.93,3.41-14.09
		c0-6.01-1.14-10.63-3.41-13.86c-2.27-3.23-5.08-4.85-8.43-4.85c-3.35,0-6.17,1.62-8.46,4.85
		C76.24,201.29,75.09,205.95,75.09,212.03z"/>
	<path d="M166.24,242.7H153.4v-31.3c0-6.62-0.27-10.9-0.82-12.85c-0.55-1.94-1.44-3.46-2.67-4.53s-2.72-1.62-4.46-1.62
		c-2.22,0-4.22,0.77-5.99,2.31s-2.98,3.58-3.63,6.12c-0.66,2.54-0.98,7.24-0.98,14.09v27.78h-12.84v-61.33h11.93v9.01
		c4.24-6.93,9.57-10.39,16-10.39c2.83,0,5.42,0.64,7.77,1.93c2.35,1.29,4.12,2.94,5.33,4.94c1.2,2,2.04,4.27,2.51,6.81
		c0.47,2.54,0.71,6.18,0.71,10.91V242.7z"/>
	<path d="M179.41,242.7v-84.66h28.48c7.16,0,12.36,0.76,15.61,2.28c3.25,1.52,5.84,4.23,7.79,8.11c1.95,3.89,2.93,8.33,2.93,13.34
		c0,6.35-1.48,11.6-4.43,15.74c-2.96,4.14-7.37,6.75-13.26,7.82c2.93,2.16,5.34,4.52,7.25,7.1s4.47,7.16,7.7,13.74l8.18,16.52
		h-16.18l-9.78-18.42c-3.47-6.58-5.85-10.73-7.13-12.44c-1.28-1.71-2.64-2.89-4.07-3.52c-1.43-0.64-3.7-0.95-6.81-0.95h-2.74v35.34
		H179.41z M192.94,193.84h10.01c6.49,0,10.54-0.35,12.16-1.04c1.62-0.69,2.88-1.89,3.79-3.58c0.91-1.69,1.37-3.81,1.37-6.35
		c0-2.85-0.6-5.15-1.81-6.9c-1.2-1.75-2.9-2.86-5.1-3.32c-1.1-0.19-4.39-0.29-9.87-0.29h-10.56V193.84z"/>
</g>
</svg>
