<?xml version="1.0" encoding="utf-8"?>
<!-- Generator: Adobe Illustrator 25.1.0, SVG Export Plug-In . SVG Version: 6.00 Build 0)  -->
<svg version="1.1"  width="16px" height ="16px" id="Layer_1" xmlns="http://www.w3.org/2000/svg" xmlns:xlink="http://www.w3.org/1999/xlink" x="0px" y="0px"
	 viewBox="0 0 300 300"   style="enable-background:new 0 0 300 300;" xml:space="preserve">
<style type="text/css">
	.st0{clip-path:url(#SVGID_2_);}
	.st1{fill:#231F20;}
	.st2{fill:#FF0000;}
	.st3{fill:#FB8538;}
	.st4{fill:#91D050;}
	.st5{fill:#FF8F2A;}
	.st6{fill:#E22024;}
	.st7{fill:#FF2500;}
	.st8{fill:#FFFFFF;}
	.st9{fill:#006FC0;}
</style>
<g>
	<defs>
		<rect id="SVGID_1_" x="-257691104" y="-257698816" width="515396064" height="515396064"/>
	</defs>
	<clipPath id="SVGID_2_">
		<use xlink:href="#SVGID_1_"  style="overflow:visible;"/>
	</clipPath>
</g>
<g>
	<g>
		<circle class="st8" cx="150" cy="150" r="71.13"/>
		<path class="st9" d="M150,225c-41.35,0-75-33.65-75-75.01c0-41.35,33.65-75,75-75s75,33.65,75,75C225,191.36,191.35,225,150,225z
			 M150,82.74c-37.09,0-67.26,30.18-67.26,67.26c0,37.09,30.17,67.27,67.26,67.27s67.26-30.18,67.26-67.27
			C217.26,112.91,187.09,82.74,150,82.74z"/>
	</g>
	<path class="st9" d="M118.19,190.1v-80.2h15.76l32.82,53.56V109.9h15.04v80.2h-16.25l-32.33-52.3v52.3H118.19z"/>
</g>
</svg>
