<?xml version="1.0" encoding="utf-8"?>
<!-- Generator: Adobe Illustrator 25.1.0, SVG Export Plug-In . SVG Version: 6.00 Build 0)  -->
<svg version="1.1"  width="16px" height ="16px" id="Layer_1" xmlns="http://www.w3.org/2000/svg" xmlns:xlink="http://www.w3.org/1999/xlink" x="0px" y="0px"
	 viewBox="0 0 300 300"   style="enable-background:new 0 0 300 300;" xml:space="preserve">
<style type="text/css">
	.st0{clip-path:url(#SVGID_2_);}
	.st1{fill:#231F20;}
	.st2{fill:#FF0000;}
	.st3{fill:#FB8538;}
	.st4{fill:#91D050;}
	.st5{fill:#FF8F2A;}
	.st6{fill:#E22024;}
	.st7{fill:#FF2500;}
	.st8{fill:#FFFFFF;}
	.st9{fill:#006FC0;}
</style>
<g>
	<defs>
		<rect id="SVGID_1_" x="-257691424" y="-257698816" width="515396064" height="515396064"/>
	</defs>
	<clipPath id="SVGID_2_">
		<use xlink:href="#SVGID_1_"  style="overflow:visible;"/>
	</clipPath>
</g>
<g>
	<circle class="st2" cx="140.38" cy="150" r="71.13"/>
	<path class="st1" d="M140.38,225c-41.35,0-75-33.65-75-75.01c0-41.35,33.65-75,75-75s75,33.65,75,75
		C215.38,191.36,181.74,225,140.38,225z M140.38,82.74c-37.09,0-67.26,30.18-67.26,67.26c0,37.09,30.17,67.27,67.26,67.27
		s67.26-30.18,67.26-67.27C207.64,112.91,177.47,82.74,140.38,82.74z"/>
</g>
<g>
	<path d="M106.6,164.48l16.32-1.59c0.98,5.48,2.98,9.5,5.98,12.07c3,2.57,7.06,3.85,12.16,3.85c5.4,0,9.47-1.14,12.21-3.43
		s4.11-4.96,4.11-8.02c0-1.96-0.58-3.64-1.73-5.02c-1.15-1.38-3.16-2.58-6.04-3.6c-1.96-0.68-6.44-1.89-13.43-3.63
		c-8.99-2.23-15.3-4.97-18.93-8.22c-5.1-4.57-7.65-10.15-7.65-16.72c0-4.23,1.2-8.19,3.6-11.87s5.86-6.49,10.37-8.42
		c4.52-1.93,9.97-2.89,16.35-2.89c10.43,0,18.28,2.29,23.55,6.86s8.04,10.67,8.3,18.31L155,132.91c-0.72-4.27-2.26-7.34-4.62-9.21
		s-5.9-2.81-10.63-2.81c-4.87,0-8.69,1-11.45,3c-1.78,1.28-2.66,3-2.66,5.16c0,1.96,0.83,3.65,2.49,5.04
		c2.12,1.78,7.25,3.63,15.42,5.55c8.16,1.93,14.2,3.92,18.11,5.98c3.91,2.06,6.97,4.87,9.18,8.44s3.32,7.98,3.32,13.23
		c0,4.76-1.32,9.22-3.97,13.38c-2.64,4.16-6.39,7.25-11.22,9.27c-4.84,2.02-10.86,3.03-18.08,3.03c-10.5,0-18.57-2.43-24.2-7.28
		C111.06,180.85,107.7,173.78,106.6,164.48z"/>
</g>
</svg>
