<?xml version="1.0" encoding="utf-8"?>
<!-- Generator: Adobe Illustrator 25.1.0, SVG Export Plug-In . SVG Version: 6.00 Build 0)  -->
<svg version="1.1"  width="16px" height ="16px" id="Layer_1" xmlns="http://www.w3.org/2000/svg" xmlns:xlink="http://www.w3.org/1999/xlink" x="0px" y="0px"
	 viewBox="0 0 300 300"   style="enable-background:new 0 0 300 300;" xml:space="preserve">
<style type="text/css">
	.st0{clip-path:url(#SVGID_2_);}
	.st1{fill:#231F20;}
	.st2{fill:#FF0000;}
	.st3{fill:#FB8538;}
	.st4{fill:#91D050;}
	.st5{fill:#FF8F2A;}
	.st6{fill:#E22024;}
	.st7{fill:#FF2500;}
</style>
<g>
	<defs>
		<rect id="SVGID_1_" x="-257704672" y="-257698528" width="515396064" height="515396064"/>
	</defs>
	<clipPath id="SVGID_2_">
		<use xlink:href="#SVGID_1_"  style="overflow:visible;"/>
	</clipPath>
</g>
<g>
	<g>
		
			<rect x="112.05" y="112.05" transform="matrix(0.7071 -0.7071 0.7071 0.7071 -62.1313 149.9992)" class="st7" width="75.9" height="75.9"/>
		<path class="st1" d="M150,205.7L94.3,150L150,94.3L205.7,150L150,205.7z M98.35,150L150,201.65L201.65,150L150,98.35L98.35,150z"
			/>
	</g>
	<g>
		<path d="M118.09,153.35l2.97-0.35c0.18,1.21,0.54,2.11,1.09,2.68c0.55,0.57,1.28,0.85,2.21,0.85c0.98,0,1.72-0.25,2.22-0.76
			c0.5-0.51,0.75-1.1,0.75-1.78c0-0.44-0.1-0.81-0.31-1.11c-0.21-0.31-0.57-0.57-1.1-0.8c-0.36-0.15-1.17-0.42-2.44-0.8
			c-1.63-0.49-2.78-1.1-3.44-1.82c-0.93-1.01-1.39-2.25-1.39-3.71c0-0.94,0.22-1.82,0.65-2.63c0.44-0.82,1.06-1.44,1.88-1.87
			c0.82-0.43,1.81-0.64,2.97-0.64c1.89,0,3.32,0.51,4.28,1.52c0.96,1.01,1.46,2.37,1.51,4.06l-3.05,0.16
			c-0.13-0.95-0.41-1.63-0.84-2.04c-0.43-0.41-1.07-0.62-1.93-0.62c-0.89,0-1.58,0.22-2.08,0.67c-0.32,0.28-0.48,0.67-0.48,1.14
			c0,0.44,0.15,0.81,0.45,1.12c0.38,0.39,1.32,0.8,2.8,1.23c1.48,0.43,2.58,0.87,3.29,1.33c0.71,0.46,1.27,1.08,1.67,1.87
			c0.4,0.79,0.6,1.77,0.6,2.93c0,1.06-0.24,2.04-0.72,2.97s-1.16,1.61-2.04,2.05s-1.97,0.67-3.29,0.67c-1.91,0-3.37-0.54-4.4-1.62
			C118.9,156.98,118.29,155.41,118.09,153.35z"/>
		<path d="M135.57,159.34v-18.27h3.05v15.17h7.58v3.1H135.57z"/>
		<path d="M148.72,150.24c0-1.88,0.23-3.45,0.69-4.73c0.34-0.94,0.81-1.78,1.41-2.53c0.59-0.75,1.24-1.3,1.95-1.66
			c0.94-0.49,2.03-0.73,3.25-0.73c2.22,0,4,0.84,5.34,2.53s2,4.03,2,7.03c0,2.97-0.66,5.3-1.99,6.98s-3.1,2.52-5.31,2.52
			c-2.24,0-4.03-0.84-5.35-2.51C149.39,155.48,148.72,153.18,148.72,150.24z M151.87,150.12c0,2.09,0.39,3.67,1.18,4.74
			c0.79,1.08,1.79,1.62,3.01,1.62s2.21-0.53,2.99-1.6c0.78-1.07,1.17-2.67,1.17-4.81c0-2.11-0.38-3.69-1.14-4.73
			s-1.77-1.56-3.02-1.56c-1.26,0-2.27,0.53-3.04,1.58C152.25,146.41,151.87,148,151.87,150.12z"/>
		<path d="M169.47,159.34l-3.6-18.43h3.12l2.28,12.66l2.76-12.66h3.62l2.65,12.87l2.32-12.87h3.07l-3.67,18.43h-3.23l-3.01-13.78
			l-3,13.78H169.47z"/>
	</g>
</g>
</svg>
