<?xml version="1.0" encoding="UTF-8"?>
<!DOCTYPE svg PUBLIC "-//W3C//DTD SVG 1.1//EN" "http://www.w3.org/Graphics/SVG/1.1/DTD/svg11.dtd">
<!-- Creator: CorelDRAW 2020 (64-Bit) -->
<svg xmlns="http://www.w3.org/2000/svg" xml:space="preserve" width="3.93701in" height="3.93701in" version="1.1" style="shape-rendering:geometricPrecision; text-rendering:geometricPrecision; image-rendering:optimizeQuality; fill-rule:evenodd; clip-rule:evenodd"
viewBox="0 0 3934.02 3934.02"
 xmlns:xlink="http://www.w3.org/1999/xlink"
 xmlns:xodm="http://www.corel.com/coreldraw/odm/2003">
 <defs>
  <style type="text/css">
   <![CDATA[
    .fil0 {fill:none}
    .fil1 {fill:#2B2A29;fill-rule:nonzero}
   ]]>
  </style>
 </defs>
 <g id="Layer_x0020_1">
  <metadata id="CorelCorpID_0Corel-Layer"/>
  <rect class="fil0" width="3934.02" height="3934.02"/>
  <g id="_2071721374128">
   <path class="fil1" d="M2024.62 1101.24l322.72 351.19 9.83 -8.92 0 -162.71 179.34 0 308.22 -279.62 169.03 185.73 -389.05 352.95 0 214.41 202.54 220.35 -290.98 0 0 831.37 -1134.29 0 0 -156.85 -312.72 283.7 -169.03 -185.73 481.74 -437.05 0 -335.44 -295.24 0 888.83 -905 29.03 31.61zm518.3 512.82l-23.41 21.25 23.41 26.03 0 -47.28zm-86.12 78.14l-221.12 200.61 405.48 0 -184.36 -200.61zm-311.31 282.43l-299.76 271.95 316.32 0 0 477.6 292.42 0 0 -749.56 -308.97 0zm-369.29 335.02l-292.42 265.28 0 149.25 292.42 0 0 -414.54zm-292.42 -73.8l287.94 -261.22 -287.94 0 0 261.22zm378.13 -343.04l424.95 -385.52 -293.31 -319.17 -692.1 704.69 560.45 0zm577.07 -523.54l7.36 -6.68 -7.36 0 0 6.68zm-580.96 1354.91l222.21 0 0 -395.79 -222.21 0 0 395.79z"/>
   <path class="fil1" d="M1909.4 1101.24l-322.72 351.19 -9.83 -8.92 0 -162.71 -179.34 0 -308.22 -279.62 -169.03 185.73 389.05 352.95 0 214.41 -202.54 220.35 290.98 0 0 831.37 1134.29 0 0 -156.85 312.72 283.7 169.03 -185.73 -481.74 -437.05 0 -335.44 295.24 0 -888.83 -905 -29.03 31.61zm-518.3 512.82l23.41 21.25 -23.41 26.03 0 -47.28zm86.12 78.14l221.12 200.61 -405.48 0 184.36 -200.61zm311.31 282.43l299.76 271.95 -316.32 0 0 477.6 -292.42 0 0 -749.56 308.97 0zm369.29 335.02l292.42 265.28 0 149.25 -292.42 0 0 -414.54zm292.42 -73.8l-287.94 -261.22 287.94 0 0 261.22zm-378.13 -343.04l-424.95 -385.52 293.31 -319.17 692.1 704.69 -560.45 0zm-577.07 -523.54l-7.36 -6.68 7.36 0 0 6.68zm580.96 1354.91l-222.21 0 0 -395.79 222.21 0 0 395.79z"/>
  </g>
 </g>
</svg>
