<?xml version="1.0" encoding="utf-8"?>
<!-- Generator: Adobe Illustrator 25.1.0, SVG Export Plug-In . SVG Version: 6.00 Build 0)  -->
<svg version="1.1"  width="16px" height ="16px" id="Layer_1" xmlns="http://www.w3.org/2000/svg" xmlns:xlink="http://www.w3.org/1999/xlink" x="0px" y="0px"
	 viewBox="0 0 300 300"   style="enable-background:new 0 0 300 300;" xml:space="preserve">
<style type="text/css">
	.st0{clip-path:url(#SVGID_2_);}
	.st1{fill:#231F20;}
	.st2{fill:#FF0000;}
	.st3{fill:#FB8538;}
	.st4{fill:#91D050;}
	.st5{fill:#FF8F2A;}
	.st6{fill:#E22024;}
	.st7{fill:#FF2500;}
	.st8{fill:#FFFFFF;}
	.st9{fill:#006FC0;}
	.st10{fill:#FFFF01;}
	.st11{fill:#231F20;stroke:#231F20;stroke-width:0.25;stroke-miterlimit:10;}
	.st12{fill:#FF29FF;}
	.st13{opacity:0.24;fill:none;stroke:#231F20;stroke-width:0.25;stroke-miterlimit:10;}
	.st14{fill:#D0CECE;}
	.st15{fill:#02A0E3;}
	.st16{fill:#58585A;}
	.st17{fill:#AEB1B3;}
	.st18{fill:#7F7F7F;}
	.st19{fill:#888888;}
	.st20{fill:none;stroke:#231F20;stroke-miterlimit:10;}
	.st21{fill:#C46321;}
	.st22{fill:#231F20;stroke:#888888;stroke-width:0.25;stroke-miterlimit:10;}
	.st23{fill:#484949;}
	.st24{fill:#B4B6B6;}
	.st25{fill:none;stroke:#231F20;stroke-width:0.25;stroke-miterlimit:10;}
	.st26{clip-path:url(#SVGID_6_);}
	.st27{fill:#0A0A0A;}
	.st28{fill:#FDFDFD;}
	.st29{fill:none;}
	.st30{fill:#040404;stroke:#FFFFFF;stroke-width:0.25;stroke-miterlimit:10;}
	.st31{clip-path:url(#SVGID_8_);}
	.st32{fill:#161616;}
	.st33{fill:#323232;}
	.st34{fill:#C1C1C1;}
	.st35{fill:#AEB1B3;stroke:#161616;stroke-width:0.25;stroke-miterlimit:10;}
	.st36{fill:#0D0D0D;}
	.st37{fill:#FFFFFF;stroke:#161616;stroke-miterlimit:10;}
	.st38{fill:#6E6E6E;}
	.st39{fill:#D9D9D9;}
	.st40{fill:#161616;stroke:#161616;stroke-width:0.5;stroke-miterlimit:10;}
	.st41{fill:#888888;stroke:#58585A;stroke-width:0.25;stroke-miterlimit:10;}
	.st42{fill:#040404;stroke:#FFFFFF;stroke-width:0.5;stroke-miterlimit:10;}
</style>
<g>
	<defs>
		<rect id="SVGID_1_" x="-257690784" y="-257699136" width="515396064" height="515396064"/>
	</defs>
	<clipPath id="SVGID_2_">
		<use xlink:href="#SVGID_1_"  style="overflow:visible;"/>
	</clipPath>
</g>
<g>
	<path class="st1" d="M162,148.51l0.21-0.28l-0.61-2.7h-0.23l-7.81-36.74c3.84-1.45,6.6-5.09,6.6-9.44c0-5.39-4.24-9.7-9.54-10.03
		l0.33-48.5l-3.02-0.02l-0.33,48.89c-4.41,1.11-7.74,4.91-7.74,9.67c0,4.35,2.76,7.99,6.6,9.44l-22.56,106.1h-0.01l-0.23,1.15
		l-9.18,43.17h0.13h70.01h0.94L162,148.51z M172.85,214.03l-20.82-17.38l14.88-10.55L172.85,214.03z M163.09,181.77h-26.66
		l13.26-18.04L163.09,181.77z M142.55,148.55h15.6l-8.39,10.81L142.55,148.55z M163.52,184.79l-14.38,10.2l-12.35-10.2H163.52z
		 M169.16,214.89h-38.67l18.63-16.73L169.16,214.89z M170.93,217.91l-22.48,13.66l-19.3-13.66H170.93z M165.64,180.15l-13.79-18.57
		l7.73-9.95L165.64,180.15z M149.41,109.39c0.21,0.01,0.38,0.12,0.59,0.12c0.21,0,0.38-0.11,0.59-0.12l7.69,36.14h-16.55
		L149.41,109.39z M140.56,151.01l7.01,10.52l-13.01,17.7L140.56,151.01z M133.18,185.73l13.16,10.87l-19.13,17.18L133.18,185.73z
		 M126.02,219.39L145.24,233l-26.45,20.36L126.02,219.39z M120.07,256.19l28.37-21.84l30.52,21.84H120.07z M151.82,233.05
		l22.2-13.49l7.37,34.65L151.82,233.05z"/>
	<path class="st1" d="M175.83,99.38c0,9.87-1.14,14.21-9.35,21.24l-0.05,5.53c9.3-5.85,16.53-15.86,16.53-26.78
		c0-11.05-7.24-21.06-16.54-26.78l0.06,4.93C174.7,83.41,175.83,89.39,175.83,99.38z"/>
	<path class="st1" d="M131.54,125.02v-3.79c-6.61-9.37-9.31-12.64-9.31-21.85c0-9.32,2.97-14.38,9.31-20.98l0.01-4.67
		c-8.35,5.74-15.78,15.33-15.78,25.65C115.78,109.57,123.2,119.15,131.54,125.02z"/>
</g>
</svg>
