<?xml version="1.0" encoding="UTF-8"?>
<!DOCTYPE svg PUBLIC "-//W3C//DTD SVG 1.1//EN" "http://www.w3.org/Graphics/SVG/1.1/DTD/svg11.dtd">
<!-- Creator: CorelDRAW 2020 (64-Bit) -->
<svg xmlns="http://www.w3.org/2000/svg" xml:space="preserve" width="3.93701in" height="3.93701in" version="1.1" style="shape-rendering:geometricPrecision; text-rendering:geometricPrecision; image-rendering:optimizeQuality; fill-rule:evenodd; clip-rule:evenodd"
viewBox="0 0 3934.02 3934.02"
 xmlns:xlink="http://www.w3.org/1999/xlink"
 xmlns:xodm="http://www.corel.com/coreldraw/odm/2003">
 <defs>
  <style type="text/css">
   <![CDATA[
    .fil0 {fill:none}
    .fil1 {fill:black;fill-rule:nonzero}
   ]]>
  </style>
 </defs>
 <g id="Layer_x0020_1">
  <metadata id="CorelCorpID_0Corel-Layer"/>
  <rect class="fil0" width="3934.02" height="3934.02"/>
  <path class="fil1" d="M1967.01 1076.17l-684.09 405.85 1368.14 0 -684.05 -405.85zm-87.54 1719.02l0 -472.11 -228.73 0 0 -175.06 632.52 0 0 175.06 -228.73 0 0 472.11 625.54 0c8.12,-36.34 -2.77,-76.77 -87.69,-132.33 -213.9,-139.93 -175.2,-274.26 -91.31,-402.49 14.9,-22.47 31.61,-44.71 48.03,-66.67 38.33,-51.17 74.81,-99.9 47.92,-122.85 -209.14,-178.56 -193.17,-281.45 -104.11,-385.82 5.39,-6.27 11.07,-12.43 17.05,-18.56l-1210.03 0c52.35,116.18 27.82,205.27 3.4,293.7 -17.89,64.86 -35.64,129.34 25.64,216.93 29.84,42.61 59.21,76.66 83.45,104.74 135.43,156.83 166.27,192.69 -76.99,480.89 -6.24,7.38 -6.46,18.93 -3.21,32.46l547.26 0zm-1048.14 0l312.22 0c-4.24,-48.51 7.79,-99.68 51.39,-151.33 141.89,-168.08 130.08,-181.81 78.4,-241.68 -26.45,-30.65 -58.51,-67.77 -94.96,-119.86 -110.94,-158.53 -81.72,-264.52 -52.28,-371.13 19,-68.77 38.07,-138.2 -42.5,-244.71l-472.4 0 798.97 -474.03 556.88 -330.33 1355.78 804.36 -549.88 0c-29.62,35.38 -60.95,63.53 -89.87,89.43 -19.29,17.3 -37.37,33.53 -50.36,48.73 -16.38,19.22 -8.64,47.4 83.89,126.39 157.79,134.73 70.91,250.83 -20.55,372.91 -14.02,18.74 -28.33,37.81 -40.8,56.92 -30,46.19 -43.09,94.78 37.96,147.79 169.01,110.6 195.97,201.69 180.07,286.54l229.36 0 0 276.69 -2271.33 0 0 -276.69z"/>
 </g>
</svg>
