<?xml version="1.0" encoding="utf-8"?>
<!-- Generator: Adobe Illustrator 25.1.0, SVG Export Plug-In . SVG Version: 6.00 Build 0)  -->
<svg version="1.1"  width="16px" height ="16px" id="Layer_1" xmlns="http://www.w3.org/2000/svg" xmlns:xlink="http://www.w3.org/1999/xlink" x="0px" y="0px"
	 viewBox="0 0 300 300"   style="enable-background:new 0 0 300 300;" xml:space="preserve">
<style type="text/css">
	.st0{clip-path:url(#SVGID_2_);}
	.st1{fill:#231F20;}
	.st2{fill:#FF0000;}
	.st3{fill:#FB8538;}
	.st4{fill:#91D050;}
	.st5{fill:#FF8F2A;}
	.st6{fill:#E22024;}
	.st7{fill:#FF2500;}
	.st8{fill:#FFFFFF;}
	.st9{fill:#006FC0;}
	.st10{fill:#FFFF01;}
	.st11{fill:#231F20;stroke:#231F20;stroke-width:0.25;stroke-miterlimit:10;}
	.st12{fill:#FF29FF;}
	.st13{opacity:0.24;fill:none;stroke:#231F20;stroke-width:0.25;stroke-miterlimit:10;}
	.st14{fill:#D0CECE;}
	.st15{fill:#02A0E3;}
	.st16{fill:#58585A;}
	.st17{fill:#AEB1B3;}
	.st18{fill:#7F7F7F;}
	.st19{fill:#888888;}
	.st20{fill:none;stroke:#231F20;stroke-miterlimit:10;}
	.st21{fill:#C46321;}
	.st22{fill:#231F20;stroke:#888888;stroke-width:0.25;stroke-miterlimit:10;}
	.st23{fill:#484949;}
	.st24{fill:#B4B6B6;}
	.st25{fill:none;stroke:#231F20;stroke-width:0.25;stroke-miterlimit:10;}
	.st26{clip-path:url(#SVGID_6_);}
	.st27{fill:#0A0A0A;}
	.st28{fill:#FDFDFD;}
	.st29{fill:none;}
	.st30{fill:#040404;stroke:#FFFFFF;stroke-width:0.25;stroke-miterlimit:10;}
	.st31{clip-path:url(#SVGID_8_);}
	.st32{fill:#161616;}
	.st33{fill:#323232;}
	.st34{fill:#C1C1C1;}
	.st35{fill:#AEB1B3;stroke:#161616;stroke-width:0.25;stroke-miterlimit:10;}
	.st36{fill:#0D0D0D;}
	.st37{fill:#FFFFFF;stroke:#161616;stroke-miterlimit:10;}
	.st38{fill:#6E6E6E;}
	.st39{fill:#D9D9D9;}
	.st40{fill:#161616;stroke:#161616;stroke-width:0.5;stroke-miterlimit:10;}
	.st41{fill:#888888;stroke:#58585A;stroke-width:0.25;stroke-miterlimit:10;}
	.st42{fill:#040404;stroke:#FFFFFF;stroke-width:0.5;stroke-miterlimit:10;}
</style>
<g>
	<defs>
		<rect id="SVGID_1_" x="-257702832" y="-257698816" width="515396064" height="515396064"/>
	</defs>
	<clipPath id="SVGID_2_">
		<use xlink:href="#SVGID_1_"  style="overflow:visible;"/>
	</clipPath>
</g>
<g>
	<g>
		<rect x="30.34" y="146.01" class="st1" width="239.31" height="5"/>
	</g>
	<polygon class="st1" points="80.06,135.15 76.06,131.14 60.71,146.49 46.08,131.87 42.08,135.87 56.7,150.5 43.16,164.04 
		47.17,168.04 60.71,154.5 75.06,168.86 79.07,164.85 64.71,150.5 	"/>
	<polygon class="st1" points="125.31,135.15 121.31,131.14 105.96,146.49 91.33,131.87 87.33,135.87 101.95,150.5 88.41,164.04 
		92.41,168.04 105.96,154.5 120.31,168.86 124.32,164.85 109.96,150.5 	"/>
	<polygon class="st1" points="170.41,135.15 166.4,131.14 151.05,146.49 136.43,131.87 132.42,135.87 147.05,150.5 133.51,164.04 
		137.51,168.04 151.05,154.5 165.41,168.86 169.41,164.85 155.06,150.5 	"/>
	<polygon class="st1" points="212.58,135.15 208.58,131.14 193.23,146.49 178.6,131.87 174.6,135.87 189.22,150.5 175.68,164.04 
		179.69,168.04 193.23,154.5 207.58,168.86 211.59,164.85 197.23,150.5 	"/>
	<polygon class="st1" points="257.41,135.15 253.41,131.14 238.06,146.49 223.43,131.87 219.43,135.87 234.05,150.5 220.51,164.04 
		224.51,168.04 238.06,154.5 252.41,168.86 256.42,164.85 242.06,150.5 	"/>
</g>
</svg>
