<?xml version="1.0" encoding="utf-8"?>
<!-- Generator: Adobe Illustrator 25.1.0, SVG Export Plug-In . SVG Version: 6.00 Build 0)  -->
<svg version="1.1"  width="16px" height ="16px" id="Layer_1" xmlns="http://www.w3.org/2000/svg" xmlns:xlink="http://www.w3.org/1999/xlink" x="0px" y="0px"
	 viewBox="0 0 300 300"   style="enable-background:new 0 0 300 300;" xml:space="preserve">
<style type="text/css">
	.st0{clip-path:url(#SVGID_2_);}
	.st1{fill:#231F20;}
	.st2{fill:#FF0000;}
	.st3{fill:#FB8538;}
	.st4{fill:#91D050;}
	.st5{fill:#FF8F2A;}
	.st6{fill:#E22024;}
	.st7{fill:#FF2500;}
	.st8{fill:#FFFFFF;}
	.st9{fill:#006FC0;}
	.st10{fill:#FFFF01;}
	.st11{fill:#231F20;stroke:#231F20;stroke-width:0.25;stroke-miterlimit:10;}
	.st12{fill:#FF29FF;}
	.st13{opacity:0.24;fill:none;stroke:#231F20;stroke-width:0.25;stroke-miterlimit:10;}
	.st14{fill:#D0CECE;}
	.st15{fill:#02A0E3;}
	.st16{fill:#58585A;}
	.st17{fill:#AEB1B3;}
	.st18{fill:#7F7F7F;}
	.st19{fill:#888888;}
	.st20{fill:none;stroke:#231F20;stroke-miterlimit:10;}
	.st21{fill:#C46321;}
	.st22{fill:#231F20;stroke:#888888;stroke-width:0.25;stroke-miterlimit:10;}
	.st23{fill:#484949;}
	.st24{fill:#B4B6B6;}
	.st25{fill:none;stroke:#231F20;stroke-width:0.25;stroke-miterlimit:10;}
	.st26{clip-path:url(#SVGID_6_);}
	.st27{fill:#0A0A0A;}
	.st28{fill:#FDFDFD;}
	.st29{fill:none;}
	.st30{fill:#040404;stroke:#FFFFFF;stroke-width:0.25;stroke-miterlimit:10;}
	.st31{clip-path:url(#SVGID_8_);}
	.st32{fill:#161616;}
	.st33{fill:#323232;}
	.st34{fill:#C1C1C1;}
	.st35{fill:#AEB1B3;stroke:#161616;stroke-width:0.25;stroke-miterlimit:10;}
	.st36{fill:#0D0D0D;}
	.st37{fill:#FFFFFF;stroke:#161616;stroke-miterlimit:10;}
	.st38{fill:#6E6E6E;}
	.st39{fill:#D9D9D9;}
	.st40{fill:#161616;stroke:#161616;stroke-width:0.5;stroke-miterlimit:10;}
	.st41{fill:#888888;stroke:#58585A;stroke-width:0.25;stroke-miterlimit:10;}
	.st42{fill:#040404;stroke:#FFFFFF;stroke-width:0.5;stroke-miterlimit:10;}
</style>
<g>
	<defs>
		<rect id="SVGID_1_" x="-257691744" y="-257699136" width="515396064" height="515396064"/>
	</defs>
	<clipPath id="SVGID_2_">
		<use xlink:href="#SVGID_1_"  style="overflow:visible;"/>
	</clipPath>
</g>
<path class="st1" d="M250.03,104.47c-4.69-4.93-22.6-7.5-40.42-7.5s-35.73,2.58-40.42,7.5h-1.28v58.96h-0.51
	c0,0.48,0.33,0.91,0.51,1.37v26.09c0,1.07,0.36,2.05,1.16,2.94c4.55,5.98,23.01,9.19,40.58,9.19c17.48,0,35.94-3.21,40.49-9.19
	c0.8-0.89,1.16-1.87,1.16-2.94v-86.43H250.03z M249.07,163.44h-0.6c0,3.77-14.98,9.03-39.38,9.03c-22.2,0-36.49-4.32-38.96-7.95
	v-26.96c5.77,4.97,22.97,7.65,39.51,7.65c16.51,0,33.66-2.68,39.42-7.65V163.44z M249.03,133.96c0,3.77-14.98,9.03-39.38,9.03
	c-24.45,0-39.47-5.26-39.47-9.03h-0.04v-23.61c5.72,4.44,22.58,6.78,39.47,6.78c16.88,0,33.73-2.34,39.46-6.77v23.6H249.03z
	 M209.61,99.2c24.44,0,39.45,4.57,39.45,7.85c0,3.28-15.01,7.85-39.45,7.85s-39.45-4.57-39.45-7.85
	C170.16,103.77,185.17,99.2,209.61,99.2z M248.89,191.61c-0.27,0.71-0.98,1.52-2.14,2.23c-5.08,3.48-18.28,6.78-37.1,6.78
	c-18.82,0-32.11-3.3-37.19-6.78c-1.16-0.71-1.87-1.52-2.14-2.23c-0.09-0.27-0.18-0.45-0.18-0.71v-23.4
	c6.28,4.67,22.93,7.19,38.96,7.19c17.03,0,34.8-2.84,39.98-8.12v24.32C249.07,191.17,248.98,191.35,248.89,191.61z"/>
<path class="st1" d="M143.87,188.66c4.93-3.94,7.5-18.99,7.5-33.95s-2.58-30.02-7.5-33.95v-1.08H84.9v-0.43
	c-0.48,0-0.91,0.28-1.37,0.43l-26.09,0c-1.07,0-2.05,0.3-2.94,0.97c-5.98,3.82-9.19,19.33-9.19,34.09c0,14.68,3.21,30.19,9.19,34.01
	c0.89,0.67,1.87,0.97,2.94,0.97h86.43V188.66z M84.9,187.85v-0.5c-3.77,0-9.03-12.58-9.03-33.08c0-18.65,4.32-30.65,7.95-32.72
	h26.96c-4.97,4.85-7.65,19.29-7.65,33.19c0,13.87,2.68,28.28,7.65,33.11H84.9z M114.38,187.81c-3.77,0-9.03-12.58-9.03-33.08
	c0-20.54,5.26-33.15,9.03-33.15v-0.04l23.61,0c-4.44,4.8-6.78,18.97-6.78,33.16c0,14.18,2.34,28.33,6.77,33.15h-23.6V187.81z
	 M149.14,154.7c0,20.53-4.57,33.14-7.85,33.14c-3.28,0-7.85-12.61-7.85-33.14c0-20.53,4.57-33.14,7.85-33.14
	C144.57,121.56,149.14,134.17,149.14,154.7z M56.73,187.7c-0.71-0.22-1.52-0.82-2.23-1.8c-3.48-4.27-6.78-15.36-6.78-31.17
	c0-15.81,3.3-26.97,6.78-31.24c0.71-0.97,1.52-1.57,2.23-1.8c0.27-0.07,0.45-0.15,0.71-0.15h23.4c-4.67,5.27-7.19,19.26-7.19,32.72
	c0,14.3,2.84,29.24,8.12,33.58H57.44C57.17,187.85,56.99,187.77,56.73,187.7z"/>
</svg>
