<?xml version="1.0" encoding="utf-8"?>
<!-- Generator: Adobe Illustrator 25.1.0, SVG Export Plug-In . SVG Version: 6.00 Build 0)  -->
<svg version="1.1"  width="16px" height ="16px" id="Layer_1" xmlns="http://www.w3.org/2000/svg" xmlns:xlink="http://www.w3.org/1999/xlink" x="0px" y="0px"
	 viewBox="0 0 300 300"   style="enable-background:new 0 0 300 300;" xml:space="preserve">
<style type="text/css">
	.st0{clip-path:url(#SVGID_2_);}
	.st1{fill:#231F20;}
	.st2{fill:#FF0000;}
	.st3{fill:#FB8538;}
	.st4{fill:#91D050;}
	.st5{fill:#FF8F2A;}
	.st6{fill:#E22024;}
	.st7{fill:#FF2500;}
	.st8{fill:#FFFFFF;}
	.st9{fill:#006FC0;}
	.st10{fill:#FFFF01;}
	.st11{fill:#231F20;stroke:#231F20;stroke-width:0.25;stroke-miterlimit:10;}
	.st12{fill:#FF29FF;}
	.st13{opacity:0.24;fill:none;stroke:#231F20;stroke-width:0.25;stroke-miterlimit:10;}
	.st14{fill:#D0CECE;}
	.st15{fill:#02A0E3;}
	.st16{fill:#58585A;}
	.st17{fill:#AEB1B3;}
	.st18{fill:#7F7F7F;}
	.st19{fill:#888888;}
	.st20{fill:none;stroke:#231F20;stroke-miterlimit:10;}
	.st21{fill:#C46321;}
	.st22{fill:#231F20;stroke:#888888;stroke-width:0.25;stroke-miterlimit:10;}
	.st23{fill:#484949;}
	.st24{fill:#B4B6B6;}
	.st25{fill:none;stroke:#231F20;stroke-width:0.25;stroke-miterlimit:10;}
	.st26{clip-path:url(#SVGID_6_);}
	.st27{fill:#0A0A0A;}
	.st28{fill:#FDFDFD;}
	.st29{fill:none;}
	.st30{fill:#040404;stroke:#FFFFFF;stroke-width:0.25;stroke-miterlimit:10;}
	.st31{clip-path:url(#SVGID_8_);}
	.st32{fill:#161616;}
	.st33{fill:#323232;}
	.st34{fill:#C1C1C1;}
	.st35{fill:#AEB1B3;stroke:#161616;stroke-width:0.25;stroke-miterlimit:10;}
	.st36{fill:#0D0D0D;}
	.st37{fill:#FFFFFF;stroke:#161616;stroke-miterlimit:10;}
	.st38{fill:#6E6E6E;}
	.st39{fill:#D9D9D9;}
	.st40{fill:#161616;stroke:#161616;stroke-width:0.5;stroke-miterlimit:10;}
	.st41{fill:#888888;stroke:#58585A;stroke-width:0.25;stroke-miterlimit:10;}
	.st42{fill:#040404;stroke:#FFFFFF;stroke-width:0.5;stroke-miterlimit:10;}
	.st43{fill:#2B2B2B;}
	.st44{fill:#C2C2C2;}
	.st45{fill:url(#SVGID_11_);}
	.st46{fill:url(#SVGID_12_);}
	.st47{opacity:0.2;fill:#E0E47C;}
	.st48{fill:url(#SVGID_13_);}
	.st49{opacity:0.4;fill:url(#SVGID_14_);}
	.st50{fill:url(#SVGID_15_);}
	.st51{opacity:0.4;fill:url(#SVGID_16_);}
	.st52{fill:url(#SVGID_17_);}
	.st53{opacity:0.4;fill:url(#SVGID_18_);}
	.st54{fill:url(#SVGID_19_);}
	.st55{opacity:0.4;fill:url(#SVGID_20_);}
	.st56{fill:url(#SVGID_21_);}
	.st57{opacity:0.4;fill:url(#SVGID_22_);}
	.st58{fill:url(#SVGID_23_);}
	.st59{opacity:0.4;fill:url(#SVGID_24_);}
	.st60{fill:url(#SVGID_25_);}
	.st61{opacity:0.4;fill:url(#SVGID_26_);}
	.st62{fill:url(#SVGID_27_);}
	.st63{opacity:0.4;fill:url(#SVGID_28_);}
	.st64{fill:url(#SVGID_29_);}
	.st65{opacity:0.4;fill:url(#SVGID_30_);}
	.st66{fill:url(#SVGID_31_);}
	.st67{opacity:0.4;fill:url(#SVGID_32_);}
	.st68{fill:url(#SVGID_33_);}
	.st69{opacity:0.4;fill:url(#SVGID_34_);}
	.st70{fill:#654209;}
	.st71{opacity:0.5;}
	.st72{opacity:0.5;fill:#654209;}
	.st73{opacity:0.3;fill:#654209;}
	.st74{fill:#326613;}
	.st75{fill:#4F8821;}
	.st76{opacity:0.5;fill:url(#SVGID_35_);}
	.st77{opacity:0.2;fill:#E0E481;}
	.st78{fill:url(#SVGID_36_);}
	.st79{opacity:0.4;fill:#E3DC3D;}
	.st80{opacity:0.4;fill:url(#SVGID_37_);}
	.st81{opacity:0.3;fill:url(#SVGID_38_);}
	.st82{fill:url(#SVGID_39_);}
	.st83{opacity:0.7;fill:url(#SVGID_40_);}
	.st84{opacity:0.7;}
	.st85{opacity:0.8;fill:url(#SVGID_41_);}
	.st86{opacity:0.3;fill:url(#SVGID_42_);}
	.st87{opacity:0.5;fill:url(#SVGID_43_);}
	.st88{opacity:0.3;fill:url(#SVGID_44_);}
	.st89{opacity:0.6;fill:#E3DC3D;}
	.st90{fill:url(#SVGID_45_);}
	.st91{opacity:0.6;fill:url(#SVGID_46_);}
	.st92{opacity:0.3;fill:#77BE7F;}
	.st93{opacity:0.2;fill:#ECEA85;}
	.st94{fill:url(#SVGID_47_);}
	.st95{opacity:0.5;fill:#E3DC3D;}
	.st96{fill:url(#SVGID_48_);}
	.st97{opacity:0.7;fill:url(#SVGID_49_);}
	.st98{opacity:0.8;fill:url(#SVGID_50_);}
	.st99{opacity:0.3;fill:url(#SVGID_51_);}
	.st100{opacity:0.5;fill:url(#SVGID_52_);}
	.st101{opacity:0.3;fill:url(#SVGID_53_);}
	.st102{fill:url(#SVGID_54_);}
	.st103{opacity:0.8;fill:url(#SVGID_55_);}
	.st104{opacity:0.4;fill:url(#SVGID_56_);}
	.st105{fill:url(#SVGID_57_);}
	.st106{opacity:0.4;fill:url(#SVGID_58_);}
	.st107{fill:url(#SVGID_59_);}
	.st108{fill:url(#SVGID_60_);}
	.st109{fill:url(#SVGID_61_);}
	.st110{opacity:0.5;fill:url(#SVGID_62_);}
	.st111{opacity:0.3;fill:#7D9567;}
	.st112{opacity:0.3;fill:#00713A;}
	.st113{opacity:0.8;fill:#E3DC3D;}
	.st114{opacity:0.5;fill:url(#SVGID_63_);}
	.st115{fill:url(#SVGID_64_);}
	.st116{fill:url(#SVGID_65_);}
	.st117{fill:url(#SVGID_66_);}
	.st118{opacity:0.7;fill:url(#SVGID_67_);}
	.st119{opacity:0.8;fill:url(#SVGID_68_);}
	.st120{opacity:0.3;fill:url(#SVGID_69_);}
	.st121{opacity:0.5;fill:url(#SVGID_70_);}
	.st122{opacity:0.3;fill:url(#SVGID_71_);}
	.st123{fill:#E3DC3D;}
	.st124{fill:url(#SVGID_72_);}
	.st125{opacity:0.4;fill:url(#SVGID_73_);}
	.st126{fill:url(#SVGID_74_);}
	.st127{opacity:0.8;fill:url(#SVGID_75_);}
	.st128{opacity:0.4;fill:url(#SVGID_76_);}
	.st129{fill:url(#SVGID_77_);}
	.st130{opacity:0.8;fill:url(#SVGID_78_);}
	.st131{opacity:0.2;fill:url(#SVGID_79_);}
	.st132{opacity:0.6;fill:url(#SVGID_80_);}
	.st133{opacity:0.3;fill:url(#SVGID_81_);}
	.st134{fill:url(#SVGID_82_);}
	.st135{opacity:0.4;fill:url(#SVGID_83_);}
	.st136{opacity:0.3;fill:url(#SVGID_84_);}
	.st137{opacity:0.5;fill:url(#SVGID_85_);}
	.st138{fill:url(#SVGID_86_);}
	.st139{opacity:0.8;fill:url(#SVGID_87_);}
	.st140{opacity:0.4;fill:url(#SVGID_88_);}
	.st141{opacity:0.5;fill:url(#SVGID_89_);}
	.st142{fill:url(#SVGID_90_);}
	.st143{fill:url(#SVGID_91_);}
	.st144{fill:url(#SVGID_92_);}
	.st145{opacity:0.7;fill:url(#SVGID_93_);}
	.st146{opacity:0.8;fill:url(#SVGID_94_);}
	.st147{opacity:0.3;fill:url(#SVGID_95_);}
	.st148{opacity:0.5;fill:url(#SVGID_96_);}
	.st149{opacity:0.3;fill:url(#SVGID_97_);}
	.st150{fill:url(#SVGID_98_);}
	.st151{opacity:0.4;fill:url(#SVGID_99_);}
	.st152{fill:url(#SVGID_100_);}
	.st153{opacity:0.8;fill:url(#SVGID_101_);}
	.st154{opacity:0.4;fill:url(#SVGID_102_);}
	.st155{fill:url(#SVGID_103_);}
	.st156{opacity:0.8;fill:url(#SVGID_104_);}
	.st157{opacity:0.2;fill:url(#SVGID_105_);}
	.st158{opacity:0.6;fill:url(#SVGID_106_);}
	.st159{opacity:0.3;fill:url(#SVGID_107_);}
	.st160{fill:url(#SVGID_108_);}
	.st161{opacity:0.4;fill:url(#SVGID_109_);}
	.st162{opacity:0.3;fill:url(#SVGID_110_);}
	.st163{opacity:0.5;fill:url(#SVGID_111_);}
	.st164{fill:url(#SVGID_112_);}
	.st165{opacity:0.8;fill:url(#SVGID_113_);}
	.st166{opacity:0.4;fill:url(#SVGID_114_);}
	.st167{opacity:0.5;fill:url(#SVGID_115_);}
	.st168{fill:url(#SVGID_116_);}
	.st169{fill:url(#SVGID_117_);}
	.st170{fill:url(#SVGID_118_);}
	.st171{opacity:0.7;fill:url(#SVGID_119_);}
	.st172{opacity:0.8;fill:url(#SVGID_120_);}
	.st173{opacity:0.3;fill:url(#SVGID_121_);}
	.st174{opacity:0.5;fill:url(#SVGID_122_);}
	.st175{opacity:0.3;fill:url(#SVGID_123_);}
	.st176{fill:url(#SVGID_124_);}
	.st177{opacity:0.4;fill:url(#SVGID_125_);}
	.st178{fill:url(#SVGID_126_);}
	.st179{opacity:0.8;fill:url(#SVGID_127_);}
	.st180{opacity:0.4;fill:url(#SVGID_128_);}
	.st181{fill:url(#SVGID_129_);}
	.st182{opacity:0.8;fill:url(#SVGID_130_);}
	.st183{opacity:0.2;fill:url(#SVGID_131_);}
	.st184{opacity:0.6;fill:url(#SVGID_132_);}
	.st185{opacity:0.3;fill:url(#SVGID_133_);}
	.st186{fill:url(#SVGID_134_);}
	.st187{opacity:0.4;fill:url(#SVGID_135_);}
	.st188{opacity:0.3;fill:url(#SVGID_136_);}
	.st189{opacity:0.5;fill:url(#SVGID_137_);}
	.st190{fill:url(#SVGID_138_);}
	.st191{opacity:0.8;fill:url(#SVGID_139_);}
	.st192{opacity:0.4;fill:url(#SVGID_140_);}
	.st193{opacity:0.5;fill:url(#SVGID_141_);}
	.st194{fill:url(#SVGID_142_);}
	.st195{opacity:0.4;fill:url(#SVGID_143_);}
	.st196{fill:url(#SVGID_144_);}
	.st197{opacity:0.8;fill:url(#SVGID_145_);}
	.st198{opacity:0.4;fill:url(#SVGID_146_);}
	.st199{fill:url(#SVGID_147_);}
	.st200{opacity:0.8;fill:url(#SVGID_148_);}
	.st201{opacity:0.2;fill:url(#SVGID_149_);}
	.st202{opacity:0.6;fill:url(#SVGID_150_);}
	.st203{opacity:0.3;fill:url(#SVGID_151_);}
	.st204{fill:url(#SVGID_152_);}
	.st205{opacity:0.4;fill:url(#SVGID_153_);}
	.st206{opacity:0.3;fill:url(#SVGID_154_);}
	.st207{fill:#917305;}
	.st208{fill:#B49000;}
	.st209{fill:#6B5203;}
	.st210{opacity:0.6;}
	.st211{opacity:0.5;fill:#B49000;}
	.st212{fill:#6EBA00;}
	.st213{fill:#2D5B00;}
	.st214{opacity:0.3;}
	.st215{fill:#4E9200;}
	.st216{fill:#3E6B03;}
	.st217{fill:#8BD506;}
	.st218{opacity:0.3;fill:#4E9200;}
	.st219{opacity:0.3;fill:#3E6B03;}
	.st220{opacity:0.6;fill:#3E6B03;}
	.st221{fill:#1D1D1B;}
	.st222{fill:#9CB558;}
	.st223{fill:#729918;}
	.st224{fill:#A9D13D;}
	.st225{fill:#AAD03D;}
	.st226{fill:#7DB500;}
	.st227{fill:#7EB500;}
	.st228{fill:#99CA00;}
	.st229{fill:#02B050;}
	.st230{fill:#D2D2D2;}
	.st231{fill:#FFE090;}
	.st232{fill:#9ED6F7;}
	.st233{fill:#9FD7F7;}
	.st234{fill:#DA9458;}
	.st235{fill:#CCCCCC;}
	.st236{fill:#F1CA1E;}
	.st237{fill:#FFACF8;}
	.st238{fill:url(#SVGID_155_);}
	.st239{fill:url(#SVGID_156_);}
	.st240{fill:url(#SVGID_157_);}
	.st241{opacity:0.4;fill:url(#SVGID_158_);}
	.st242{fill:url(#SVGID_159_);}
	.st243{opacity:0.4;fill:url(#SVGID_160_);}
	.st244{fill:url(#SVGID_161_);}
	.st245{opacity:0.4;fill:url(#SVGID_162_);}
	.st246{fill:url(#SVGID_163_);}
	.st247{opacity:0.4;fill:url(#SVGID_164_);}
	.st248{fill:url(#SVGID_165_);}
	.st249{opacity:0.4;fill:url(#SVGID_166_);}
	.st250{fill:url(#SVGID_167_);}
	.st251{opacity:0.4;fill:url(#SVGID_168_);}
	.st252{fill:url(#SVGID_169_);}
	.st253{opacity:0.4;fill:url(#SVGID_170_);}
	.st254{fill:url(#SVGID_171_);}
	.st255{opacity:0.4;fill:url(#SVGID_172_);}
	.st256{fill:url(#SVGID_173_);}
	.st257{opacity:0.4;fill:url(#SVGID_174_);}
	.st258{fill:url(#SVGID_175_);}
	.st259{opacity:0.4;fill:url(#SVGID_176_);}
	.st260{fill:url(#SVGID_177_);}
	.st261{opacity:0.4;fill:url(#SVGID_178_);}
	.st262{opacity:0.5;fill:url(#SVGID_179_);}
	.st263{fill:url(#SVGID_180_);}
	.st264{opacity:0.4;fill:url(#SVGID_181_);}
	.st265{opacity:0.3;fill:url(#SVGID_182_);}
	.st266{fill:url(#SVGID_183_);}
	.st267{opacity:0.7;fill:url(#SVGID_184_);}
	.st268{opacity:0.8;fill:url(#SVGID_185_);}
	.st269{opacity:0.3;fill:url(#SVGID_186_);}
	.st270{opacity:0.5;fill:url(#SVGID_187_);}
	.st271{opacity:0.3;fill:url(#SVGID_188_);}
	.st272{fill:url(#SVGID_189_);}
	.st273{opacity:0.6;fill:url(#SVGID_190_);}
	.st274{fill:url(#SVGID_191_);}
	.st275{fill:url(#SVGID_192_);}
	.st276{opacity:0.7;fill:url(#SVGID_193_);}
	.st277{opacity:0.8;fill:url(#SVGID_194_);}
	.st278{opacity:0.3;fill:url(#SVGID_195_);}
	.st279{opacity:0.5;fill:url(#SVGID_196_);}
	.st280{opacity:0.3;fill:url(#SVGID_197_);}
	.st281{fill:url(#SVGID_198_);}
	.st282{opacity:0.8;fill:url(#SVGID_199_);}
	.st283{opacity:0.4;fill:url(#SVGID_200_);}
	.st284{fill:url(#SVGID_201_);}
	.st285{opacity:0.4;fill:url(#SVGID_202_);}
	.st286{fill:url(#SVGID_203_);}
	.st287{fill:url(#SVGID_204_);}
	.st288{fill:url(#SVGID_205_);}
	.st289{opacity:0.5;fill:url(#SVGID_206_);}
	.st290{opacity:0.5;fill:url(#SVGID_207_);}
	.st291{fill:url(#SVGID_208_);}
	.st292{fill:url(#SVGID_209_);}
	.st293{fill:url(#SVGID_210_);}
	.st294{opacity:0.7;fill:url(#SVGID_211_);}
	.st295{opacity:0.8;fill:url(#SVGID_212_);}
	.st296{opacity:0.3;fill:url(#SVGID_213_);}
	.st297{opacity:0.5;fill:url(#SVGID_214_);}
	.st298{opacity:0.3;fill:url(#SVGID_215_);}
	.st299{fill:url(#SVGID_216_);}
	.st300{opacity:0.4;fill:url(#SVGID_217_);}
	.st301{fill:url(#SVGID_218_);}
	.st302{opacity:0.8;fill:url(#SVGID_219_);}
	.st303{opacity:0.4;fill:url(#SVGID_220_);}
	.st304{fill:url(#SVGID_221_);}
	.st305{opacity:0.8;fill:url(#SVGID_222_);}
	.st306{opacity:0.2;fill:url(#SVGID_223_);}
	.st307{opacity:0.6;fill:url(#SVGID_224_);}
	.st308{opacity:0.3;fill:url(#SVGID_225_);}
	.st309{fill:url(#SVGID_226_);}
	.st310{opacity:0.4;fill:url(#SVGID_227_);}
	.st311{opacity:0.3;fill:url(#SVGID_228_);}
	.st312{opacity:0.5;fill:url(#SVGID_229_);}
	.st313{fill:url(#SVGID_230_);}
	.st314{opacity:0.8;fill:url(#SVGID_231_);}
	.st315{opacity:0.4;fill:url(#SVGID_232_);}
	.st316{opacity:0.5;fill:url(#SVGID_233_);}
	.st317{fill:url(#SVGID_234_);}
	.st318{fill:url(#SVGID_235_);}
	.st319{fill:url(#SVGID_236_);}
	.st320{opacity:0.7;fill:url(#SVGID_237_);}
	.st321{opacity:0.8;fill:url(#SVGID_238_);}
	.st322{opacity:0.3;fill:url(#SVGID_239_);}
	.st323{opacity:0.5;fill:url(#SVGID_240_);}
	.st324{opacity:0.3;fill:url(#SVGID_241_);}
	.st325{fill:url(#SVGID_242_);}
	.st326{opacity:0.4;fill:url(#SVGID_243_);}
	.st327{fill:url(#SVGID_244_);}
	.st328{opacity:0.8;fill:url(#SVGID_245_);}
	.st329{opacity:0.4;fill:url(#SVGID_246_);}
	.st330{fill:url(#SVGID_247_);}
	.st331{opacity:0.8;fill:url(#SVGID_248_);}
	.st332{opacity:0.2;fill:url(#SVGID_249_);}
	.st333{opacity:0.6;fill:url(#SVGID_250_);}
	.st334{opacity:0.3;fill:url(#SVGID_251_);}
	.st335{fill:url(#SVGID_252_);}
	.st336{opacity:0.4;fill:url(#SVGID_253_);}
	.st337{opacity:0.3;fill:url(#SVGID_254_);}
	.st338{opacity:0.5;fill:url(#SVGID_255_);}
	.st339{fill:url(#SVGID_256_);}
	.st340{opacity:0.8;fill:url(#SVGID_257_);}
	.st341{opacity:0.4;fill:url(#SVGID_258_);}
	.st342{opacity:0.5;fill:url(#SVGID_259_);}
	.st343{fill:url(#SVGID_260_);}
	.st344{fill:url(#SVGID_261_);}
	.st345{fill:url(#SVGID_262_);}
	.st346{opacity:0.7;fill:url(#SVGID_263_);}
	.st347{opacity:0.8;fill:url(#SVGID_264_);}
	.st348{opacity:0.3;fill:url(#SVGID_265_);}
	.st349{opacity:0.5;fill:url(#SVGID_266_);}
	.st350{opacity:0.3;fill:url(#SVGID_267_);}
	.st351{fill:url(#SVGID_268_);}
	.st352{opacity:0.4;fill:url(#SVGID_269_);}
	.st353{fill:url(#SVGID_270_);}
	.st354{opacity:0.8;fill:url(#SVGID_271_);}
	.st355{opacity:0.4;fill:url(#SVGID_272_);}
	.st356{fill:url(#SVGID_273_);}
	.st357{opacity:0.8;fill:url(#SVGID_274_);}
	.st358{opacity:0.2;fill:url(#SVGID_275_);}
	.st359{opacity:0.6;fill:url(#SVGID_276_);}
	.st360{opacity:0.3;fill:url(#SVGID_277_);}
	.st361{fill:url(#SVGID_278_);}
	.st362{opacity:0.4;fill:url(#SVGID_279_);}
	.st363{opacity:0.3;fill:url(#SVGID_280_);}
	.st364{opacity:0.5;fill:url(#SVGID_281_);}
	.st365{fill:url(#SVGID_282_);}
	.st366{opacity:0.8;fill:url(#SVGID_283_);}
	.st367{opacity:0.4;fill:url(#SVGID_284_);}
	.st368{opacity:0.5;fill:url(#SVGID_285_);}
	.st369{fill:url(#SVGID_286_);}
	.st370{opacity:0.4;fill:url(#SVGID_287_);}
	.st371{fill:url(#SVGID_288_);}
	.st372{opacity:0.8;fill:url(#SVGID_289_);}
	.st373{opacity:0.4;fill:url(#SVGID_290_);}
	.st374{fill:url(#SVGID_291_);}
	.st375{opacity:0.8;fill:url(#SVGID_292_);}
	.st376{opacity:0.2;fill:url(#SVGID_293_);}
	.st377{opacity:0.6;fill:url(#SVGID_294_);}
	.st378{opacity:0.3;fill:url(#SVGID_295_);}
	.st379{fill:url(#SVGID_296_);}
	.st380{opacity:0.4;fill:url(#SVGID_297_);}
	.st381{opacity:0.3;fill:url(#SVGID_298_);}
	.st382{fill:#EB974F;}
	.st383{fill:#F19B54;}
	.st384{fill:#DF8F4E;}
</style>
<g>
	<defs>
		<rect id="SVGID_1_" x="-257705184" y="-257699136" width="515396064" height="515396064"/>
	</defs>
	<clipPath id="SVGID_2_">
		<use xlink:href="#SVGID_1_"  style="overflow:visible;"/>
	</clipPath>
</g>
<g>
	<g>
		<path class="st236" d="M230.91,153.59c0.76-7.8-1.41-6.74-3.58-9.27c-5.11-5.96-9.46-12.45-9.27-18.33c0.12-3.9-4.88-4.44-4-8.85
			c3.11-15.65-6.84-17.56-30.13-15.17c-4.32,0.44-9.65-0.3-14.33,0.42c-2.94,0.45-6.17-0.1-8.22,2.53
			c-4.42,5.69-12.01,1.26-20.72,3.16c-4.3,0.94-7.73,3.37-13.02,3.49c-7.49,0.17-16.7,1.2-18.3,4.73
			c-5.27,11.59-22.74,14.74-32.87,22.33c-6.31,4.73-8.33,15.79-8.01,21.56c1.5,26.52,29.68,47.85,74.84,52.18
			c12.37,1.19,26.24,0.67,37.78-0.67c12.4-1.43,46.57-9.42,46.25-19.56c-0.42-13.06-0.21-15.78,3.27-15.5
			C232.82,176.83,230.38,159.11,230.91,153.59z"/>
		<path class="st1" d="M158.15,215.56c-5.31,0-10.42-0.22-15.08-0.67c-45.22-4.34-75.49-25.75-77.11-54.55
			c-0.36-6.29,1.77-18.3,9.01-23.73c3.83-2.87,8.61-5.12,13.23-7.3c7.79-3.67,15.85-7.46,18.85-14.06c0.66-1.43,2.64-5.8,20.54-6.21
			c2.87-0.07,5.15-0.93,7.56-1.83c1.63-0.62,3.25-1.22,4.99-1.6c3.78-0.83,7.26-0.58,10.33-0.36c4.65,0.34,7.15,0.39,8.92-1.89
			c2.26-2.89,5.38-3.11,7.9-3.29c0.64-0.05,1.3-0.09,1.93-0.19c2.81-0.43,5.71-0.37,8.55-0.33c2.05,0.04,4.08,0.07,5.91-0.11
			c15.21-1.55,25.59-1.43,30.51,3.97c2.86,3.14,3.63,7.78,2.35,14.2c-0.2,0.97,0.05,1.34,1.3,2.62c1.2,1.24,2.85,2.94,2.75,5.82
			c-0.13,4.21,2.7,9.64,8.67,16.61c0.36,0.41,0.73,0.7,1.16,1.03c2.58,1.97,3.62,3.89,3.02,10.13l0,0c-0.18,1.93,0.05,5.88,0.28,9.7
			c0.59,9.85,0.64,13.17-1.01,14.79l-0.82,0.81l-1.48,0.03c-0.93,0.95-0.7,8.14-0.54,12.9c0.44,13.6-40.41,21.22-48.48,22.15
			C173.71,215.1,165.72,215.56,158.15,215.56z M145.83,110.09c-1.51,0-3.06,0.11-4.62,0.45c-1.5,0.33-2.88,0.86-4.29,1.39
			c-2.57,0.97-5.49,2.08-9.22,2.16c-12.08,0.28-15.69,2.44-16.06,3.25c-3.76,8.29-12.68,12.48-21.29,16.54
			c-4.6,2.16-8.94,4.21-12.36,6.77c-5.3,3.98-7.3,13.92-7,19.4c1.48,26.17,29.96,45.72,72.56,49.81c10.96,1.05,24.54,0.8,37.24-0.66
			c17.13-1.99,44.22-10.57,44.01-16.98c-0.36-11.01-0.28-14.75,1.92-16.85c0.72-0.68,1.53-1.01,2.26-1.16
			c0.17-2.24-0.11-7.02-0.32-10.37c-0.25-4.2-0.49-8.17-0.26-10.49c0.43-4.5-0.09-4.9-1.05-5.63c-0.55-0.41-1.23-0.93-1.93-1.76
			c-4.35-5.09-10.11-12.7-9.88-20.06c0.03-0.68-0.33-1.1-1.33-2.14c-1.33-1.38-3.35-3.46-2.62-7.12c0.94-4.73,0.57-7.94-1.13-9.82
			c-3.69-4.06-14.79-3.52-26.26-2.35c-2.01,0.2-4.21,0.17-6.52,0.13c-2.6-0.04-5.29-0.1-7.68,0.27c-0.78,0.12-1.56,0.18-2.35,0.24
			c-2.17,0.15-3.44,0.29-4.27,1.35c-3.51,4.51-8.44,4.17-13.27,3.82C148.71,110.2,147.29,110.09,145.83,110.09z"/>
	</g>
	<g>
		<polygon class="st1" points="110.53,160.29 72.41,141.15 73.16,139.65 111.28,158.79 		"/>
	</g>
	<g>
		
			<rect x="103.99" y="123" transform="matrix(0.62 -0.7846 0.7846 0.62 -71.7636 136.3122)" class="st1" width="1.68" height="38.48"/>
	</g>
	<g>
		<polygon class="st1" points="126.81,149.14 103.23,122.31 104.49,121.2 128.08,148.02 		"/>
	</g>
	<g>
		<polygon class="st1" points="137.06,144.1 116.03,112.05 117.44,111.13 138.46,143.18 		"/>
	</g>
	<g>
		<polygon class="st1" points="153.37,142.67 133.83,109.51 135.28,108.66 154.81,141.81 		"/>
	</g>
	<g>
		
			<rect x="162.52" y="105.59" transform="matrix(0.9433 -0.332 0.332 0.9433 -31.5576 61.218)" class="st1" width="1.69" height="34.73"/>
	</g>
	<g>
		<polygon class="st1" points="177.92,136.58 176.24,136.51 177.75,100.98 179.43,101.05 		"/>
	</g>
	<g>
		
			<rect x="180.74" y="117.74" transform="matrix(0.2737 -0.9618 0.9618 0.2737 30.9524 278.1476)" class="st1" width="37.81" height="1.68"/>
	</g>
	<g>
		<polygon class="st1" points="201.66,146.67 200.63,145.34 219.94,130.39 220.97,131.72 		"/>
	</g>
	<g>
		<polygon class="st1" points="208.65,156.62 207.81,155.16 228.44,143.34 229.28,144.8 		"/>
	</g>
	<g>
		<polygon class="st1" points="233.13,164.24 203.69,163.17 203.75,161.49 233.2,162.56 		"/>
	</g>
	<g>
		<polygon class="st1" points="229.41,178.85 203.85,168.91 204.46,167.35 230.01,177.28 		"/>
	</g>
	<g>
		<polygon class="st1" points="228.2,194.34 207.92,178.24 208.97,176.93 229.26,193.02 		"/>
	</g>
	<g>
		<polygon class="st1" points="213.97,204.9 197.42,177.81 198.85,176.93 215.4,204.02 		"/>
	</g>
	<g>
		<polygon class="st1" points="198.84,209.5 190.45,181.05 192.07,180.58 200.45,209.02 		"/>
	</g>
	<g>
		<polygon class="st1" points="181.9,212.81 176.04,180.1 177.69,179.8 183.56,212.51 		"/>
	</g>
	<g>
		<rect x="167" y="182.1" class="st1" width="1.68" height="32.04"/>
	</g>
	<g>
		
			<rect x="136.07" y="198.14" transform="matrix(0.0856 -0.9963 0.9963 0.0856 -59.9133 332.6781)" class="st1" width="30.44" height="1.69"/>
	</g>
	<g>
		<polygon class="st1" points="123.27,210.6 121.92,209.6 139.81,185.13 141.17,186.13 		"/>
	</g>
	<g>
		
			<rect x="101.44" y="192.21" transform="matrix(0.7981 -0.6025 0.6025 0.7981 -92.4557 110.1807)" class="st1" width="33.49" height="1.68"/>
	</g>
	<g>
		
			<rect x="84.37" y="185.64" transform="matrix(0.8944 -0.4472 0.4472 0.8944 -72.7962 64.5957)" class="st1" width="32.09" height="1.68"/>
	</g>
	<g>
		
			<rect x="87.92" y="156.59" transform="matrix(7.732191e-03 -1 1 7.732191e-03 -86.7886 262.2693)" class="st1" width="1.68" height="36.56"/>
	</g>
	<g>
		
			<rect x="85.87" y="141.15" transform="matrix(0.2185 -0.9758 0.9758 0.2185 -89.8641 210.8531)" class="st1" width="1.68" height="40.77"/>
	</g>
</g>
</svg>
