<?xml version="1.0" encoding="utf-8"?>
<!-- Generator: Adobe Illustrator 25.1.0, SVG Export Plug-In . SVG Version: 6.00 Build 0)  -->
<svg version="1.1"  width="16px" height ="16px" id="Layer_1" xmlns="http://www.w3.org/2000/svg" xmlns:xlink="http://www.w3.org/1999/xlink" x="0px" y="0px"
	 viewBox="0 0 300 300"   style="enable-background:new 0 0 300 300;" xml:space="preserve">
<style type="text/css">
	.st0{clip-path:url(#SVGID_2_);}
	.st1{fill:#231F20;}
	.st2{fill:#FF0000;}
	.st3{fill:#FB8538;}
	.st4{fill:#91D050;}
	.st5{fill:#FF8F2A;}
	.st6{fill:#E22024;}
	.st7{fill:#FF2500;}
	.st8{fill:#FFFFFF;}
	.st9{fill:#006FC0;}
	.st10{fill:#FFFF01;}
	.st11{fill:#231F20;stroke:#231F20;stroke-width:0.25;stroke-miterlimit:10;}
	.st12{fill:#FF29FF;}
	.st13{opacity:0.24;fill:none;stroke:#231F20;stroke-width:0.25;stroke-miterlimit:10;}
	.st14{fill:#D0CECE;}
	.st15{fill:#02A0E3;}
	.st16{fill:#58585A;}
	.st17{fill:#AEB1B3;}
	.st18{fill:#7F7F7F;}
	.st19{fill:#888888;}
	.st20{fill:none;stroke:#231F20;stroke-miterlimit:10;}
	.st21{fill:#C46321;}
	.st22{fill:#231F20;stroke:#888888;stroke-width:0.25;stroke-miterlimit:10;}
	.st23{fill:#484949;}
	.st24{fill:#B4B6B6;}
	.st25{fill:none;stroke:#231F20;stroke-width:0.25;stroke-miterlimit:10;}
	.st26{clip-path:url(#SVGID_6_);}
	.st27{fill:#0A0A0A;}
	.st28{fill:#FDFDFD;}
	.st29{fill:none;}
	.st30{fill:#040404;stroke:#FFFFFF;stroke-width:0.25;stroke-miterlimit:10;}
	.st31{clip-path:url(#SVGID_8_);}
	.st32{fill:#161616;}
	.st33{fill:#323232;}
	.st34{fill:#C1C1C1;}
	.st35{fill:#AEB1B3;stroke:#161616;stroke-width:0.25;stroke-miterlimit:10;}
	.st36{fill:#0D0D0D;}
	.st37{fill:#FFFFFF;stroke:#161616;stroke-miterlimit:10;}
	.st38{fill:#6E6E6E;}
	.st39{fill:#D9D9D9;}
	.st40{fill:#161616;stroke:#161616;stroke-width:0.5;stroke-miterlimit:10;}
	.st41{fill:#888888;stroke:#58585A;stroke-width:0.25;stroke-miterlimit:10;}
	.st42{fill:#040404;stroke:#FFFFFF;stroke-width:0.5;stroke-miterlimit:10;}
</style>
<g>
	<defs>
		<rect id="SVGID_1_" x="-257695264" y="-257699136" width="515396064" height="515396064"/>
	</defs>
	<clipPath id="SVGID_2_">
		<use xlink:href="#SVGID_1_"  style="overflow:visible;"/>
	</clipPath>
</g>
<g>
	<g>
		<circle class="st8" cx="159.41" cy="150" r="91.14"/>
		<path class="st32" d="M159.41,245.07c-52.42,0-95.07-42.65-95.07-95.07s42.65-95.07,95.07-95.07c52.42,0,95.07,42.65,95.07,95.07
			S211.83,245.07,159.41,245.07z M159.41,62.79c-48.09,0-87.21,39.12-87.21,87.21s39.12,87.21,87.21,87.21
			c48.09,0,87.21-39.12,87.21-87.21S207.49,62.79,159.41,62.79z"/>
	</g>
	<g>
		<path d="M119.1,101.89h38.46c7.61,0,13.29,0.32,17.03,0.95c3.74,0.63,7.09,1.96,10.04,3.97s5.42,4.69,7.38,8.04
			c1.97,3.35,2.95,7.1,2.95,11.26c0,4.51-1.21,8.64-3.64,12.41c-2.43,3.76-5.72,6.59-9.88,8.47c5.86,1.71,10.37,4.62,13.52,8.73
			s4.73,8.95,4.73,14.51c0,4.38-1.02,8.63-3.05,12.77c-2.03,4.14-4.81,7.44-8.34,9.91c-3.52,2.47-7.87,3.99-13.03,4.56
			c-3.24,0.35-11.05,0.57-23.43,0.66H119.1V101.89z M138.53,117.9v22.25h12.73c7.57,0,12.27-0.11,14.11-0.33
			c3.33-0.39,5.94-1.54,7.84-3.45s2.86-4.41,2.86-7.52c0-2.98-0.82-5.39-2.46-7.25c-1.64-1.86-4.08-2.99-7.32-3.38
			c-1.93-0.22-7.46-0.33-16.61-0.33H138.53z M138.53,156.17v25.73h17.98c7,0,11.44-0.2,13.32-0.59c2.89-0.53,5.24-1.81,7.06-3.84
			c1.82-2.03,2.72-4.76,2.72-8.17c0-2.89-0.7-5.34-2.1-7.35c-1.4-2.01-3.42-3.48-6.07-4.4c-2.65-0.92-8.39-1.38-17.23-1.38H138.53z"
			/>
	</g>
</g>
</svg>
