<?xml version="1.0" encoding="utf-8"?>
<!-- Generator: Adobe Illustrator 25.1.0, SVG Export Plug-In . SVG Version: 6.00 Build 0)  -->
<svg version="1.1"  width="16px" height ="16px" id="Layer_1" xmlns="http://www.w3.org/2000/svg" xmlns:xlink="http://www.w3.org/1999/xlink" x="0px" y="0px"
	 viewBox="0 0 300 300"   style="enable-background:new 0 0 300 300;" xml:space="preserve">
<style type="text/css">
	.st0{clip-path:url(#SVGID_2_);}
	.st1{fill:#231F20;}
	.st2{fill:#FF0000;}
	.st3{fill:#FB8538;}
	.st4{fill:#91D050;}
	.st5{fill:#FF8F2A;}
	.st6{fill:#E22024;}
	.st7{fill:#FF2500;}
	.st8{fill:#FFFFFF;}
	.st9{fill:#006FC0;}
	.st10{fill:#FFFF01;}
	.st11{fill:#231F20;stroke:#231F20;stroke-width:0.25;stroke-miterlimit:10;}
	.st12{fill:#FF29FF;}
	.st13{opacity:0.24;fill:none;stroke:#231F20;stroke-width:0.25;stroke-miterlimit:10;}
	.st14{fill:#D0CECE;}
	.st15{fill:#02A0E3;}
	.st16{fill:#58585A;}
	.st17{fill:#AEB1B3;}
	.st18{fill:#7F7F7F;}
	.st19{fill:#888888;}
	.st20{fill:none;stroke:#231F20;stroke-miterlimit:10;}
	.st21{fill:#C46321;}
	.st22{fill:#231F20;stroke:#888888;stroke-width:0.25;stroke-miterlimit:10;}
	.st23{fill:#484949;}
	.st24{fill:#B4B6B6;}
	.st25{fill:none;stroke:#231F20;stroke-width:0.25;stroke-miterlimit:10;}
	.st26{clip-path:url(#SVGID_6_);}
	.st27{fill:#0A0A0A;}
	.st28{fill:#FDFDFD;}
	.st29{fill:none;}
	.st30{fill:#040404;stroke:#FFFFFF;stroke-width:0.25;stroke-miterlimit:10;}
	.st31{clip-path:url(#SVGID_8_);}
	.st32{fill:#161616;}
	.st33{fill:#323232;}
	.st34{fill:#C1C1C1;}
	.st35{fill:#AEB1B3;stroke:#161616;stroke-width:0.25;stroke-miterlimit:10;}
	.st36{fill:#0D0D0D;}
	.st37{fill:#FFFFFF;stroke:#161616;stroke-miterlimit:10;}
	.st38{fill:#6E6E6E;}
	.st39{fill:#D9D9D9;}
	.st40{fill:#161616;stroke:#161616;stroke-width:0.5;stroke-miterlimit:10;}
	.st41{fill:#888888;stroke:#58585A;stroke-width:0.25;stroke-miterlimit:10;}
	.st42{fill:#040404;stroke:#FFFFFF;stroke-width:0.5;stroke-miterlimit:10;}
</style>
<g>
	<defs>
		<rect id="SVGID_1_" x="-257693344" y="-257699136" width="515396064" height="515396064"/>
	</defs>
	<clipPath id="SVGID_2_">
		<use xlink:href="#SVGID_1_"  style="overflow:visible;"/>
	</clipPath>
</g>
<g>
	<g>
		<rect x="31.47" y="119.24" class="st8" width="87.4" height="51.69"/>
		<path class="st32" d="M119.97,172.03H30.37v-53.88h89.59V172.03z M32.57,169.83h85.21v-49.49H32.57V169.83z"/>
	</g>
	<g>
		<polygon class="st8" points="138.09,108.62 138.09,160.4 118.87,170.93 118.87,119.24 		"/>
		<path class="st32" d="M117.77,172.78V118.6l21.42-11.83v54.28L117.77,172.78z M119.97,119.89v49.19l17.03-9.33v-49.26
			L119.97,119.89z"/>
	</g>
	<path class="st32" d="M128.96,93.88l-0.61-0.97H51.21l-20.8,25.54v1.93h88.63l0.79-0.44l19.83-10.97L128.96,93.88z M118.08,118.19
		H34.37l17.9-23.08h73.89L118.08,118.19z M128.08,96.34l8.42,11.93l-15.62,8.6L128.08,96.34z"/>
	<polygon class="st33" points="126.15,95.11 118.08,118.19 34.37,118.19 52.27,95.11 	"/>
	<polygon class="st33" points="136.51,108.27 120.89,116.87 128.08,96.34 	"/>
	<g>
		<rect x="37.05" y="142.73" class="st33" width="6.35" height="17.55"/>
		<path class="st32" d="M44.5,161.38h-8.54v-19.74h8.54V161.38z M38.15,159.19h4.16v-15.36h-4.16V159.19z"/>
	</g>
	<g>
		<rect x="54.6" y="142.73" class="st33" width="5.69" height="17.55"/>
		<path class="st32" d="M61.39,161.38h-7.89v-19.74h7.89V161.38z M55.7,159.19h3.5v-15.36h-3.5V159.19z"/>
	</g>
	<g>
		<rect x="71.78" y="142.73" class="st33" width="5.69" height="17.55"/>
		<path class="st32" d="M78.57,161.38h-7.89v-19.74h7.89V161.38z M72.88,159.19h3.5v-15.36h-3.5V159.19z"/>
	</g>
	<g>
		<rect x="86.9" y="142.73" class="st33" width="7.47" height="17.55"/>
		<path class="st32" d="M95.47,161.38h-9.66v-19.74h9.66V161.38z M88,159.19h5.27v-15.36H88V159.19z"/>
	</g>
	<g>
		<rect x="104.17" y="142.73" class="st33" width="7.47" height="17.55"/>
		<path class="st32" d="M112.74,161.38h-9.66v-19.74h9.66V161.38z M105.27,159.19h5.27v-15.36h-5.27V159.19z"/>
	</g>
	<g>
		<path class="st8" d="M178.63,154.34v51.69h88.72v-51.69H178.63z M266.29,204.89h-86.61V155.4h86.61V204.89z"/>
		<path class="st32" d="M177.49,153.2v53.44l0.79,0.44h90.21V153.2H177.49z M266.29,204.89h-86.61V155.4h86.61V204.89z"/>
		<rect x="179.68" y="155.4" class="st8" width="86.61" height="49.49"/>
	</g>
	<g>
		<path class="st8" d="M177.49,153.73l-18.08-10v51.77l18.08,9.92l1.14,0.61v-51.69L177.49,153.73z M177.49,204.19l-17.02-9.3
			v-49.32l17.02,9.39V204.19z"/>
		<path class="st32" d="M178.72,153.2l-20.45-11.32v54.23l19.22,10.53l0.79,0.44h1.4v-53.35L178.72,153.2z M160.47,145.57
			l17.02,9.39v49.23l-17.02-9.3V145.57z"/>
		<polygon class="st8" points="177.49,154.96 177.49,204.19 160.47,194.88 160.47,145.57 		"/>
	</g>
	<g>
		<polygon class="st33" points="265.06,153.2 179.59,153.2 171.26,130.12 246.73,130.12 		"/>
		<path class="st32" d="M178.02,155.31v0.09h0.18L178.02,155.31z"/>
	</g>
	<g>
		<polygon class="st33" points="176.61,151.97 160.99,143.37 169.42,131.44 		"/>
		<path class="st1" d="M247.87,127.93h-78.71l-0.61,0.88l-10.79,15.27l20.27,11.23l0.18,0.09h91.44L247.87,127.93z M160.99,143.37
			l8.42-11.93l7.2,20.53L160.99,143.37z M171.26,130.12h75.47l18.34,23.08h-85.47L171.26,130.12z"/>
	</g>
</g>
</svg>
