<?xml version="1.0" encoding="utf-8"?>
<!-- Generator: Adobe Illustrator 25.1.0, SVG Export Plug-In . SVG Version: 6.00 Build 0)  -->
<svg version="1.1"  width="16px" height ="16px" id="Layer_1" xmlns="http://www.w3.org/2000/svg" xmlns:xlink="http://www.w3.org/1999/xlink" x="0px" y="0px"
	 viewBox="0 0 300 300"   style="enable-background:new 0 0 300 300;" xml:space="preserve">
<style type="text/css">
	.st0{clip-path:url(#SVGID_2_);}
	.st1{fill:#231F20;}
	.st2{fill:#FF0000;}
	.st3{fill:#FB8538;}
	.st4{fill:#91D050;}
	.st5{fill:#FF8F2A;}
	.st6{fill:#E22024;}
	.st7{fill:#FF2500;}
	.st8{fill:#FFFFFF;}
	.st9{fill:#006FC0;}
	.st10{fill:#FFFF01;}
	.st11{fill:#231F20;stroke:#231F20;stroke-width:0.25;stroke-miterlimit:10;}
	.st12{fill:#FF29FF;}
	.st13{opacity:0.24;fill:none;stroke:#231F20;stroke-width:0.25;stroke-miterlimit:10;}
	.st14{fill:#D0CECE;}
	.st15{fill:#02A0E3;}
	.st16{fill:#58585A;}
	.st17{fill:#AEB1B3;}
	.st18{fill:#7F7F7F;}
	.st19{fill:#888888;}
	.st20{fill:none;stroke:#231F20;stroke-miterlimit:10;}
	.st21{fill:#C46321;}
	.st22{fill:#231F20;stroke:#888888;stroke-width:0.25;stroke-miterlimit:10;}
	.st23{fill:#484949;}
	.st24{fill:#B4B6B6;}
	.st25{fill:none;stroke:#231F20;stroke-width:0.25;stroke-miterlimit:10;}
	.st26{clip-path:url(#SVGID_6_);}
	.st27{fill:#0A0A0A;}
	.st28{fill:#FDFDFD;}
	.st29{fill:none;}
	.st30{fill:#040404;stroke:#FFFFFF;stroke-width:0.25;stroke-miterlimit:10;}
	.st31{clip-path:url(#SVGID_8_);}
	.st32{fill:#161616;}
	.st33{fill:#323232;}
	.st34{fill:#C1C1C1;}
	.st35{fill:#AEB1B3;stroke:#161616;stroke-width:0.25;stroke-miterlimit:10;}
	.st36{fill:#0D0D0D;}
	.st37{fill:#FFFFFF;stroke:#161616;stroke-miterlimit:10;}
	.st38{fill:#6E6E6E;}
	.st39{fill:#D9D9D9;}
	.st40{fill:#161616;stroke:#161616;stroke-width:0.5;stroke-miterlimit:10;}
	.st41{fill:#888888;stroke:#58585A;stroke-width:0.25;stroke-miterlimit:10;}
	.st42{fill:#040404;stroke:#FFFFFF;stroke-width:0.5;stroke-miterlimit:10;}
</style>
<g>
	<defs>
		<rect id="SVGID_1_" x="-257704112" y="-257698816" width="515396064" height="515396064"/>
	</defs>
	<clipPath id="SVGID_2_">
		<use xlink:href="#SVGID_1_"  style="overflow:visible;"/>
	</clipPath>
</g>
<g>
	<path class="st2" d="M186.23,169.98c-11.4,0-15.92-9.92-19.91-18.69c-4.61-10.11-8.07-16.2-16.22-15.95
		c-10.08,0.34-13.26,7.32-16.94,15.4c-3.91,8.59-8.34,18.34-22.15,18.65c-11.56,0.02-16.7-9.32-21.26-17.76
		c-4.43-8.2-8.61-15.94-17.79-16.28c-7.17-0.28-10.93,6.66-15.17,14.68c-4.67,8.86-10,18.88-21.71,18.38l0.23-5.29
		c8.35,0.34,12.47-7.37,16.8-15.57c4.43-8.39,9.35-17.86,20.05-17.5c12.2,0.45,17.54,10.34,22.25,19.06
		c4.4,8.14,8.18,15.31,16.48,14.98c10.48-0.24,13.71-7.33,17.44-15.54c3.85-8.46,8.21-18.05,21.58-18.5
		c12.21-0.57,17.07,9.93,21.22,19.05c4.5,9.87,7.75,15.8,15.59,15.58c12.62-0.42,15.61-7.74,19.08-16.22
		c3.38-8.27,7.21-17.65,21.19-17.96c12.04-0.24,17.27,9.71,21.81,18.51c4.2,8.15,7.89,15.13,15.9,14.86l0.22,5.29
		c-11.58,0.44-16.43-9.19-20.83-17.72c-4.38-8.5-8.21-15.8-16.98-15.64c-10.51,0.23-13.12,6.6-16.41,14.67
		c-3.46,8.45-7.76,18.98-23.81,19.51C186.67,169.97,186.45,169.98,186.23,169.98z"/>
</g>
</svg>
