<?xml version="1.0" encoding="utf-8"?>
<!-- Generator: Adobe Illustrator 25.1.0, SVG Export Plug-In . SVG Version: 6.00 Build 0)  -->
<svg version="1.1"  width="16px" height ="16px" id="Layer_1" xmlns="http://www.w3.org/2000/svg" xmlns:xlink="http://www.w3.org/1999/xlink" x="0px" y="0px"
	 viewBox="0 0 300 300"   style="enable-background:new 0 0 300 300;" xml:space="preserve">
<style type="text/css">
	.st0{clip-path:url(#SVGID_2_);}
	.st1{fill:#231F20;}
	.st2{fill:#FF0000;}
	.st3{fill:#FB8538;}
	.st4{fill:#91D050;}
	.st5{fill:#FF8F2A;}
	.st6{fill:#E22024;}
	.st7{fill:#FF2500;}
	.st8{fill:#FFFFFF;}
	.st9{fill:#006FC0;}
	.st10{fill:#FFFF01;}
	.st11{fill:#231F20;stroke:#231F20;stroke-width:0.25;stroke-miterlimit:10;}
	.st12{fill:#FF29FF;}
	.st13{opacity:0.24;fill:none;stroke:#231F20;stroke-width:0.25;stroke-miterlimit:10;}
	.st14{fill:#D0CECE;}
	.st15{fill:#02A0E3;}
	.st16{fill:#58585A;}
	.st17{fill:#AEB1B3;}
	.st18{fill:#7F7F7F;}
	.st19{fill:#888888;}
	.st20{fill:none;stroke:#231F20;stroke-miterlimit:10;}
	.st21{fill:#C46321;}
	.st22{fill:#231F20;stroke:#888888;stroke-width:0.25;stroke-miterlimit:10;}
	.st23{fill:#484949;}
	.st24{fill:#B4B6B6;}
	.st25{fill:none;stroke:#231F20;stroke-width:0.25;stroke-miterlimit:10;}
	.st26{clip-path:url(#SVGID_6_);}
	.st27{fill:#0A0A0A;}
	.st28{fill:#FDFDFD;}
	.st29{fill:none;}
	.st30{fill:#040404;stroke:#FFFFFF;stroke-width:0.25;stroke-miterlimit:10;}
	.st31{clip-path:url(#SVGID_8_);}
	.st32{fill:#161616;}
	.st33{fill:#323232;}
	.st34{fill:#C1C1C1;}
	.st35{fill:#AEB1B3;stroke:#161616;stroke-width:0.25;stroke-miterlimit:10;}
	.st36{fill:#0D0D0D;}
	.st37{fill:#FFFFFF;stroke:#161616;stroke-miterlimit:10;}
	.st38{fill:#6E6E6E;}
	.st39{fill:#D9D9D9;}
	.st40{fill:#161616;stroke:#161616;stroke-width:0.5;stroke-miterlimit:10;}
	.st41{fill:#888888;stroke:#58585A;stroke-width:0.25;stroke-miterlimit:10;}
	.st42{fill:#040404;stroke:#FFFFFF;stroke-width:0.5;stroke-miterlimit:10;}
	.st43{fill:#2B2B2B;}
	.st44{fill:#C2C2C2;}
	.st45{fill:url(#SVGID_11_);}
	.st46{fill:url(#SVGID_12_);}
	.st47{opacity:0.2;fill:#E0E47C;}
	.st48{fill:url(#SVGID_13_);}
	.st49{opacity:0.4;fill:url(#SVGID_14_);}
	.st50{fill:url(#SVGID_15_);}
	.st51{opacity:0.4;fill:url(#SVGID_16_);}
	.st52{fill:url(#SVGID_17_);}
	.st53{opacity:0.4;fill:url(#SVGID_18_);}
	.st54{fill:url(#SVGID_19_);}
	.st55{opacity:0.4;fill:url(#SVGID_20_);}
	.st56{fill:url(#SVGID_21_);}
	.st57{opacity:0.4;fill:url(#SVGID_22_);}
	.st58{fill:url(#SVGID_23_);}
	.st59{opacity:0.4;fill:url(#SVGID_24_);}
	.st60{fill:url(#SVGID_25_);}
	.st61{opacity:0.4;fill:url(#SVGID_26_);}
	.st62{fill:url(#SVGID_27_);}
	.st63{opacity:0.4;fill:url(#SVGID_28_);}
	.st64{fill:url(#SVGID_29_);}
	.st65{opacity:0.4;fill:url(#SVGID_30_);}
	.st66{fill:url(#SVGID_31_);}
	.st67{opacity:0.4;fill:url(#SVGID_32_);}
	.st68{fill:url(#SVGID_33_);}
	.st69{opacity:0.4;fill:url(#SVGID_34_);}
	.st70{fill:#654209;}
	.st71{opacity:0.5;}
	.st72{opacity:0.5;fill:#654209;}
	.st73{opacity:0.3;fill:#654209;}
	.st74{fill:#326613;}
	.st75{fill:#4F8821;}
	.st76{opacity:0.5;fill:url(#SVGID_35_);}
	.st77{opacity:0.2;fill:#E0E481;}
	.st78{fill:url(#SVGID_36_);}
	.st79{opacity:0.4;fill:#E3DC3D;}
	.st80{opacity:0.4;fill:url(#SVGID_37_);}
	.st81{opacity:0.3;fill:url(#SVGID_38_);}
	.st82{fill:url(#SVGID_39_);}
	.st83{opacity:0.7;fill:url(#SVGID_40_);}
	.st84{opacity:0.7;}
	.st85{opacity:0.8;fill:url(#SVGID_41_);}
	.st86{opacity:0.3;fill:url(#SVGID_42_);}
	.st87{opacity:0.5;fill:url(#SVGID_43_);}
	.st88{opacity:0.3;fill:url(#SVGID_44_);}
	.st89{opacity:0.6;fill:#E3DC3D;}
	.st90{fill:url(#SVGID_45_);}
	.st91{opacity:0.6;fill:url(#SVGID_46_);}
	.st92{opacity:0.3;fill:#77BE7F;}
	.st93{opacity:0.2;fill:#ECEA85;}
	.st94{fill:url(#SVGID_47_);}
	.st95{opacity:0.5;fill:#E3DC3D;}
	.st96{fill:url(#SVGID_48_);}
	.st97{opacity:0.7;fill:url(#SVGID_49_);}
	.st98{opacity:0.8;fill:url(#SVGID_50_);}
	.st99{opacity:0.3;fill:url(#SVGID_51_);}
	.st100{opacity:0.5;fill:url(#SVGID_52_);}
	.st101{opacity:0.3;fill:url(#SVGID_53_);}
	.st102{fill:url(#SVGID_54_);}
	.st103{opacity:0.8;fill:url(#SVGID_55_);}
	.st104{opacity:0.4;fill:url(#SVGID_56_);}
	.st105{fill:url(#SVGID_57_);}
	.st106{opacity:0.4;fill:url(#SVGID_58_);}
	.st107{fill:url(#SVGID_59_);}
	.st108{fill:url(#SVGID_60_);}
	.st109{fill:url(#SVGID_61_);}
	.st110{opacity:0.5;fill:url(#SVGID_62_);}
	.st111{opacity:0.3;fill:#7D9567;}
	.st112{opacity:0.3;fill:#00713A;}
	.st113{opacity:0.8;fill:#E3DC3D;}
	.st114{opacity:0.5;fill:url(#SVGID_63_);}
	.st115{fill:url(#SVGID_64_);}
	.st116{fill:url(#SVGID_65_);}
	.st117{fill:url(#SVGID_66_);}
	.st118{opacity:0.7;fill:url(#SVGID_67_);}
	.st119{opacity:0.8;fill:url(#SVGID_68_);}
	.st120{opacity:0.3;fill:url(#SVGID_69_);}
	.st121{opacity:0.5;fill:url(#SVGID_70_);}
	.st122{opacity:0.3;fill:url(#SVGID_71_);}
	.st123{fill:#E3DC3D;}
	.st124{fill:url(#SVGID_72_);}
	.st125{opacity:0.4;fill:url(#SVGID_73_);}
	.st126{fill:url(#SVGID_74_);}
	.st127{opacity:0.8;fill:url(#SVGID_75_);}
	.st128{opacity:0.4;fill:url(#SVGID_76_);}
	.st129{fill:url(#SVGID_77_);}
	.st130{opacity:0.8;fill:url(#SVGID_78_);}
	.st131{opacity:0.2;fill:url(#SVGID_79_);}
	.st132{opacity:0.6;fill:url(#SVGID_80_);}
	.st133{opacity:0.3;fill:url(#SVGID_81_);}
	.st134{fill:url(#SVGID_82_);}
	.st135{opacity:0.4;fill:url(#SVGID_83_);}
	.st136{opacity:0.3;fill:url(#SVGID_84_);}
	.st137{opacity:0.5;fill:url(#SVGID_85_);}
	.st138{fill:url(#SVGID_86_);}
	.st139{opacity:0.8;fill:url(#SVGID_87_);}
	.st140{opacity:0.4;fill:url(#SVGID_88_);}
	.st141{opacity:0.5;fill:url(#SVGID_89_);}
	.st142{fill:url(#SVGID_90_);}
	.st143{fill:url(#SVGID_91_);}
	.st144{fill:url(#SVGID_92_);}
	.st145{opacity:0.7;fill:url(#SVGID_93_);}
	.st146{opacity:0.8;fill:url(#SVGID_94_);}
	.st147{opacity:0.3;fill:url(#SVGID_95_);}
	.st148{opacity:0.5;fill:url(#SVGID_96_);}
	.st149{opacity:0.3;fill:url(#SVGID_97_);}
	.st150{fill:url(#SVGID_98_);}
	.st151{opacity:0.4;fill:url(#SVGID_99_);}
	.st152{fill:url(#SVGID_100_);}
	.st153{opacity:0.8;fill:url(#SVGID_101_);}
	.st154{opacity:0.4;fill:url(#SVGID_102_);}
	.st155{fill:url(#SVGID_103_);}
	.st156{opacity:0.8;fill:url(#SVGID_104_);}
	.st157{opacity:0.2;fill:url(#SVGID_105_);}
	.st158{opacity:0.6;fill:url(#SVGID_106_);}
	.st159{opacity:0.3;fill:url(#SVGID_107_);}
	.st160{fill:url(#SVGID_108_);}
	.st161{opacity:0.4;fill:url(#SVGID_109_);}
	.st162{opacity:0.3;fill:url(#SVGID_110_);}
	.st163{opacity:0.5;fill:url(#SVGID_111_);}
	.st164{fill:url(#SVGID_112_);}
	.st165{opacity:0.8;fill:url(#SVGID_113_);}
	.st166{opacity:0.4;fill:url(#SVGID_114_);}
	.st167{opacity:0.5;fill:url(#SVGID_115_);}
	.st168{fill:url(#SVGID_116_);}
	.st169{fill:url(#SVGID_117_);}
	.st170{fill:url(#SVGID_118_);}
	.st171{opacity:0.7;fill:url(#SVGID_119_);}
	.st172{opacity:0.8;fill:url(#SVGID_120_);}
	.st173{opacity:0.3;fill:url(#SVGID_121_);}
	.st174{opacity:0.5;fill:url(#SVGID_122_);}
	.st175{opacity:0.3;fill:url(#SVGID_123_);}
	.st176{fill:url(#SVGID_124_);}
	.st177{opacity:0.4;fill:url(#SVGID_125_);}
	.st178{fill:url(#SVGID_126_);}
	.st179{opacity:0.8;fill:url(#SVGID_127_);}
	.st180{opacity:0.4;fill:url(#SVGID_128_);}
	.st181{fill:url(#SVGID_129_);}
	.st182{opacity:0.8;fill:url(#SVGID_130_);}
	.st183{opacity:0.2;fill:url(#SVGID_131_);}
	.st184{opacity:0.6;fill:url(#SVGID_132_);}
	.st185{opacity:0.3;fill:url(#SVGID_133_);}
	.st186{fill:url(#SVGID_134_);}
	.st187{opacity:0.4;fill:url(#SVGID_135_);}
	.st188{opacity:0.3;fill:url(#SVGID_136_);}
	.st189{opacity:0.5;fill:url(#SVGID_137_);}
	.st190{fill:url(#SVGID_138_);}
	.st191{opacity:0.8;fill:url(#SVGID_139_);}
	.st192{opacity:0.4;fill:url(#SVGID_140_);}
	.st193{opacity:0.5;fill:url(#SVGID_141_);}
	.st194{fill:url(#SVGID_142_);}
	.st195{opacity:0.4;fill:url(#SVGID_143_);}
	.st196{fill:url(#SVGID_144_);}
	.st197{opacity:0.8;fill:url(#SVGID_145_);}
	.st198{opacity:0.4;fill:url(#SVGID_146_);}
	.st199{fill:url(#SVGID_147_);}
	.st200{opacity:0.8;fill:url(#SVGID_148_);}
	.st201{opacity:0.2;fill:url(#SVGID_149_);}
	.st202{opacity:0.6;fill:url(#SVGID_150_);}
	.st203{opacity:0.3;fill:url(#SVGID_151_);}
	.st204{fill:url(#SVGID_152_);}
	.st205{opacity:0.4;fill:url(#SVGID_153_);}
	.st206{opacity:0.3;fill:url(#SVGID_154_);}
	.st207{fill:#917305;}
	.st208{fill:#B49000;}
	.st209{fill:#6B5203;}
	.st210{opacity:0.6;}
	.st211{opacity:0.5;fill:#B49000;}
	.st212{fill:#6EBA00;}
	.st213{fill:#2D5B00;}
	.st214{opacity:0.3;}
	.st215{fill:#4E9200;}
	.st216{fill:#3E6B03;}
	.st217{fill:#8BD506;}
	.st218{opacity:0.3;fill:#4E9200;}
	.st219{opacity:0.3;fill:#3E6B03;}
	.st220{opacity:0.6;fill:#3E6B03;}
	.st221{fill:#1D1D1B;}
	.st222{fill:#9CB558;}
	.st223{fill:#729918;}
	.st224{fill:#A9D13D;}
	.st225{fill:#AAD03D;}
	.st226{fill:#7DB500;}
	.st227{fill:#7EB500;}
	.st228{fill:#99CA00;}
	.st229{fill:#02B050;}
	.st230{fill:#D2D2D2;}
	.st231{fill:#FFE090;}
	.st232{fill:#9ED6F7;}
	.st233{fill:#9FD7F7;}
	.st234{fill:#CCCCCC;}
	.st235{fill:#FFACF8;}
	.st236{fill:url(#SVGID_155_);}
	.st237{fill:url(#SVGID_156_);}
	.st238{fill:url(#SVGID_157_);}
	.st239{opacity:0.4;fill:url(#SVGID_158_);}
	.st240{fill:url(#SVGID_159_);}
	.st241{opacity:0.4;fill:url(#SVGID_160_);}
	.st242{fill:url(#SVGID_161_);}
	.st243{opacity:0.4;fill:url(#SVGID_162_);}
	.st244{fill:url(#SVGID_163_);}
	.st245{opacity:0.4;fill:url(#SVGID_164_);}
	.st246{fill:url(#SVGID_165_);}
	.st247{opacity:0.4;fill:url(#SVGID_166_);}
	.st248{fill:url(#SVGID_167_);}
	.st249{opacity:0.4;fill:url(#SVGID_168_);}
	.st250{fill:url(#SVGID_169_);}
	.st251{opacity:0.4;fill:url(#SVGID_170_);}
	.st252{fill:url(#SVGID_171_);}
	.st253{opacity:0.4;fill:url(#SVGID_172_);}
	.st254{fill:url(#SVGID_173_);}
	.st255{opacity:0.4;fill:url(#SVGID_174_);}
	.st256{fill:url(#SVGID_175_);}
	.st257{opacity:0.4;fill:url(#SVGID_176_);}
	.st258{fill:url(#SVGID_177_);}
	.st259{opacity:0.4;fill:url(#SVGID_178_);}
	.st260{opacity:0.5;fill:url(#SVGID_179_);}
	.st261{fill:url(#SVGID_180_);}
	.st262{opacity:0.4;fill:url(#SVGID_181_);}
	.st263{opacity:0.3;fill:url(#SVGID_182_);}
	.st264{fill:url(#SVGID_183_);}
	.st265{opacity:0.7;fill:url(#SVGID_184_);}
	.st266{opacity:0.8;fill:url(#SVGID_185_);}
	.st267{opacity:0.3;fill:url(#SVGID_186_);}
	.st268{opacity:0.5;fill:url(#SVGID_187_);}
	.st269{opacity:0.3;fill:url(#SVGID_188_);}
	.st270{fill:url(#SVGID_189_);}
	.st271{opacity:0.6;fill:url(#SVGID_190_);}
	.st272{fill:url(#SVGID_191_);}
	.st273{fill:url(#SVGID_192_);}
	.st274{opacity:0.7;fill:url(#SVGID_193_);}
	.st275{opacity:0.8;fill:url(#SVGID_194_);}
	.st276{opacity:0.3;fill:url(#SVGID_195_);}
	.st277{opacity:0.5;fill:url(#SVGID_196_);}
	.st278{opacity:0.3;fill:url(#SVGID_197_);}
	.st279{fill:url(#SVGID_198_);}
	.st280{opacity:0.8;fill:url(#SVGID_199_);}
	.st281{opacity:0.4;fill:url(#SVGID_200_);}
	.st282{fill:url(#SVGID_201_);}
	.st283{opacity:0.4;fill:url(#SVGID_202_);}
	.st284{fill:url(#SVGID_203_);}
	.st285{fill:url(#SVGID_204_);}
	.st286{fill:url(#SVGID_205_);}
	.st287{opacity:0.5;fill:url(#SVGID_206_);}
	.st288{opacity:0.5;fill:url(#SVGID_207_);}
	.st289{fill:url(#SVGID_208_);}
	.st290{fill:url(#SVGID_209_);}
	.st291{fill:url(#SVGID_210_);}
	.st292{opacity:0.7;fill:url(#SVGID_211_);}
	.st293{opacity:0.8;fill:url(#SVGID_212_);}
	.st294{opacity:0.3;fill:url(#SVGID_213_);}
	.st295{opacity:0.5;fill:url(#SVGID_214_);}
	.st296{opacity:0.3;fill:url(#SVGID_215_);}
	.st297{fill:url(#SVGID_216_);}
	.st298{opacity:0.4;fill:url(#SVGID_217_);}
	.st299{fill:url(#SVGID_218_);}
	.st300{opacity:0.8;fill:url(#SVGID_219_);}
	.st301{opacity:0.4;fill:url(#SVGID_220_);}
	.st302{fill:url(#SVGID_221_);}
	.st303{opacity:0.8;fill:url(#SVGID_222_);}
	.st304{opacity:0.2;fill:url(#SVGID_223_);}
	.st305{opacity:0.6;fill:url(#SVGID_224_);}
	.st306{opacity:0.3;fill:url(#SVGID_225_);}
	.st307{fill:url(#SVGID_226_);}
	.st308{opacity:0.4;fill:url(#SVGID_227_);}
	.st309{opacity:0.3;fill:url(#SVGID_228_);}
	.st310{opacity:0.5;fill:url(#SVGID_229_);}
	.st311{fill:url(#SVGID_230_);}
	.st312{opacity:0.8;fill:url(#SVGID_231_);}
	.st313{opacity:0.4;fill:url(#SVGID_232_);}
	.st314{opacity:0.5;fill:url(#SVGID_233_);}
	.st315{fill:url(#SVGID_234_);}
	.st316{fill:url(#SVGID_235_);}
	.st317{fill:url(#SVGID_236_);}
	.st318{opacity:0.7;fill:url(#SVGID_237_);}
	.st319{opacity:0.8;fill:url(#SVGID_238_);}
	.st320{opacity:0.3;fill:url(#SVGID_239_);}
	.st321{opacity:0.5;fill:url(#SVGID_240_);}
	.st322{opacity:0.3;fill:url(#SVGID_241_);}
	.st323{fill:url(#SVGID_242_);}
	.st324{opacity:0.4;fill:url(#SVGID_243_);}
	.st325{fill:url(#SVGID_244_);}
	.st326{opacity:0.8;fill:url(#SVGID_245_);}
	.st327{opacity:0.4;fill:url(#SVGID_246_);}
	.st328{fill:url(#SVGID_247_);}
	.st329{opacity:0.8;fill:url(#SVGID_248_);}
	.st330{opacity:0.2;fill:url(#SVGID_249_);}
	.st331{opacity:0.6;fill:url(#SVGID_250_);}
	.st332{opacity:0.3;fill:url(#SVGID_251_);}
	.st333{fill:url(#SVGID_252_);}
	.st334{opacity:0.4;fill:url(#SVGID_253_);}
	.st335{opacity:0.3;fill:url(#SVGID_254_);}
	.st336{opacity:0.5;fill:url(#SVGID_255_);}
	.st337{fill:url(#SVGID_256_);}
	.st338{opacity:0.8;fill:url(#SVGID_257_);}
	.st339{opacity:0.4;fill:url(#SVGID_258_);}
	.st340{opacity:0.5;fill:url(#SVGID_259_);}
	.st341{fill:url(#SVGID_260_);}
	.st342{fill:url(#SVGID_261_);}
	.st343{fill:url(#SVGID_262_);}
	.st344{opacity:0.7;fill:url(#SVGID_263_);}
	.st345{opacity:0.8;fill:url(#SVGID_264_);}
	.st346{opacity:0.3;fill:url(#SVGID_265_);}
	.st347{opacity:0.5;fill:url(#SVGID_266_);}
	.st348{opacity:0.3;fill:url(#SVGID_267_);}
	.st349{fill:url(#SVGID_268_);}
	.st350{opacity:0.4;fill:url(#SVGID_269_);}
	.st351{fill:url(#SVGID_270_);}
	.st352{opacity:0.8;fill:url(#SVGID_271_);}
	.st353{opacity:0.4;fill:url(#SVGID_272_);}
	.st354{fill:url(#SVGID_273_);}
	.st355{opacity:0.8;fill:url(#SVGID_274_);}
	.st356{opacity:0.2;fill:url(#SVGID_275_);}
	.st357{opacity:0.6;fill:url(#SVGID_276_);}
	.st358{opacity:0.3;fill:url(#SVGID_277_);}
	.st359{fill:url(#SVGID_278_);}
	.st360{opacity:0.4;fill:url(#SVGID_279_);}
	.st361{opacity:0.3;fill:url(#SVGID_280_);}
	.st362{opacity:0.5;fill:url(#SVGID_281_);}
	.st363{fill:url(#SVGID_282_);}
	.st364{opacity:0.8;fill:url(#SVGID_283_);}
	.st365{opacity:0.4;fill:url(#SVGID_284_);}
	.st366{opacity:0.5;fill:url(#SVGID_285_);}
	.st367{fill:url(#SVGID_286_);}
	.st368{opacity:0.4;fill:url(#SVGID_287_);}
	.st369{fill:url(#SVGID_288_);}
	.st370{opacity:0.8;fill:url(#SVGID_289_);}
	.st371{opacity:0.4;fill:url(#SVGID_290_);}
	.st372{fill:url(#SVGID_291_);}
	.st373{opacity:0.8;fill:url(#SVGID_292_);}
	.st374{opacity:0.2;fill:url(#SVGID_293_);}
	.st375{opacity:0.6;fill:url(#SVGID_294_);}
	.st376{opacity:0.3;fill:url(#SVGID_295_);}
	.st377{fill:url(#SVGID_296_);}
	.st378{opacity:0.4;fill:url(#SVGID_297_);}
	.st379{opacity:0.3;fill:url(#SVGID_298_);}
</style>
<g>
	<defs>
		<rect id="SVGID_1_" x="-257698144" y="-257699136" width="515396064" height="515396064"/>
	</defs>
	<clipPath id="SVGID_2_">
		<use xlink:href="#SVGID_1_"  style="overflow:visible;"/>
	</clipPath>
</g>
<path class="st1" d="M209.25,170.72c2.95-4.94,4.72-10.67,4.72-17.13c0-20.97-17.06-38.04-38.04-38.04c-6.66,0-12.84,1.87-18.3,4.89
	c-0.16-2.24-0.55-4.21-1.14-5.97c0.9,0.05,1.74,0.21,2.66,0.21c21.1,0,35.83-13.14,35.83-31.96c0-19.69-16.07-35.7-35.83-35.7
	c-19.74,0-35.82,16.02-35.82,35.7c0,7.73,2.59,14.41,6.98,19.71l-0.22-0.02c-12.92-0.93-27.62,4.18-37.27,13.13
	c-6.62,6.15-10.12,13.34-10.12,20.8c0,10.52,5.31,20.9,13.23,28.59c-0.62-0.02-1.13-0.12-1.77-0.12
	c-22.24,0-47.13,15.42-47.13,36.04c0,21.95,20.38,43.5,41.13,43.5c14.06,0,20.99-8.82,25.65-19.45
	c2.82,16.77,17.37,28.06,37.45,28.06c18.34,0,31.99-9.47,36.39-23.87c4.5,11.33,11.22,21.01,25.51,21.01
	c20.07,0,39.77-21.55,39.77-43.51C252.95,186.55,230.26,171.56,209.25,170.72z M207.24,153.59c0,6.91-2.49,12.84-6.68,17.46
	c-9.05,1.04-15.65,4.14-19.44,9.44c-1.69,0.21-3.39,0.4-5.19,0.4c-18.44,0-31.32-11.23-31.32-27.3c0-0.86,0.18-1.66,0.25-2.51
	c0.64-3,1.27-6.05,2.22-8.79c0.32-0.89,2.57-3.3,4.05-4.88c3.02-3.22,5.57-6.04,6.21-8.88c5.21-3.87,11.6-6.25,18.59-6.25
	C193.19,122.28,207.24,136.33,207.24,153.59z M177.57,191.55c-1.59-1.53-3.28-2.96-5.12-4.2c1.17,0.08,2.27,0.28,3.48,0.28
	c0.79,0,1.5-0.15,2.27-0.18C177.9,188.76,177.64,190.1,177.57,191.55z M159.16,53.76c16.05,0,29.1,13,29.1,28.97
	c0,14.85-11.97,25.22-29.1,25.22c-2.93,0-5.64-0.41-8.23-0.98c-2.48-1.71-5.45-2.73-8.81-3.3c-7.48-4.37-12.04-11.79-12.04-20.94
	C130.08,66.76,143.13,53.76,159.16,53.76z M89.46,136.36c0-7,4.33-12.49,7.97-15.86c7.56-7.02,19.15-11.45,29.57-11.45
	c0.88,0,1.75,0.03,2.6,0.1l2.43,0.17c2.84,0.2,5.36,0.43,7.68,0.75c2.53,1.35,5.34,2.36,8.33,3.13c0.17,0.17,0.44,0.26,0.59,0.44
	c1.88,2.2,2.6,6.05,2.32,11.48c-7.03,6.17-11.69,14.82-12.69,24.62c-0.13,0.63-0.35,1.26-0.48,1.89
	c-2.55,12.08-4.45,18.92-13.93,18.92c-4.09,0-8-1.04-11.69-2.63c-0.58-0.25-1.15-0.5-1.77-0.71
	C98.27,161.14,89.46,147.82,89.46,136.36z M123.86,177.3c9.16,0,13.79-4.6,16.58-10.7c2.44,5.94,6.61,10.82,12.06,14.42
	c-0.41-0.01-0.8-0.12-1.21-0.12c-10.4,0-19.81,4.21-26.69,10.99c0.86-5.75,0.19-10.66-1.95-14.73
	C123.05,177.17,123.45,177.3,123.86,177.3z M88.18,237.63c-18.52,0-34.4-20.22-34.4-36.77c0-16.51,21.72-29.31,40.4-29.31
	c7.67,0,17.71,1.3,21.98,7.45c3.12,4.5,2.99,11.36-0.41,20.38c-1.17,3.15-2.24,6.43-3.3,9.7
	C107.49,224.41,103.22,237.63,88.18,237.63z M151.28,246.24c-18.43,0-31.31-11.23-31.31-27.3c0-17.26,14.05-31.31,31.31-31.31
	s31.31,14.04,31.31,31.31C182.59,235.01,169.71,246.24,151.28,246.24z M213.19,243.37c-13.39,0-17.72-10.75-23.24-28.47
	c-1.03-3.28-2.07-6.57-3.2-9.73c-2.87-7.94-3.17-14.1-1.2-18.57c7.36-1.48,13.64-4.62,18.41-9.13c1.17-0.07,2.37-0.17,3.46-0.17
	c17.94,0,38.81,12.8,38.81,29.3C246.22,223.15,230.97,243.37,213.19,243.37z"/>
</svg>
