<?xml version="1.0" encoding="utf-8"?>
<!-- Generator: Adobe Illustrator 25.1.0, SVG Export Plug-In . SVG Version: 6.00 Build 0)  -->
<svg version="1.1"  width="16px" height ="16px" id="Layer_1" xmlns="http://www.w3.org/2000/svg" xmlns:xlink="http://www.w3.org/1999/xlink" x="0px" y="0px"
	 viewBox="0 0 300 300"   style="enable-background:new 0 0 300 300;" xml:space="preserve">
<style type="text/css">
	.st0{clip-path:url(#SVGID_2_);}
	.st1{fill:#231F20;}
	.st2{fill:#FF0000;}
	.st3{fill:#FB8538;}
	.st4{fill:#91D050;}
	.st5{fill:#FF8F2A;}
	.st6{fill:#E22024;}
	.st7{fill:#FF2500;}
	.st8{fill:#FFFFFF;}
	.st9{fill:#006FC0;}
	.st10{fill:#FFFF01;}
	.st11{fill:#231F20;stroke:#231F20;stroke-width:0.25;stroke-miterlimit:10;}
	.st12{fill:#FF29FF;}
	.st13{opacity:0.24;fill:none;stroke:#231F20;stroke-width:0.25;stroke-miterlimit:10;}
	.st14{fill:#D0CECE;}
	.st15{fill:#02A0E3;}
	.st16{fill:#58585A;}
	.st17{fill:#AEB1B3;}
	.st18{fill:#7F7F7F;}
	.st19{fill:#888888;}
	.st20{fill:none;stroke:#231F20;stroke-miterlimit:10;}
	.st21{fill:#C46321;}
	.st22{fill:#231F20;stroke:#888888;stroke-width:0.25;stroke-miterlimit:10;}
	.st23{fill:#484949;}
	.st24{fill:#B4B6B6;}
	.st25{fill:none;stroke:#231F20;stroke-width:0.25;stroke-miterlimit:10;}
	.st26{clip-path:url(#SVGID_6_);}
	.st27{fill:#0A0A0A;}
	.st28{fill:#FDFDFD;}
	.st29{fill:none;}
	.st30{fill:#040404;stroke:#FFFFFF;stroke-width:0.25;stroke-miterlimit:10;}
	.st31{clip-path:url(#SVGID_8_);}
	.st32{fill:#161616;}
	.st33{fill:#323232;}
	.st34{fill:#C1C1C1;}
	.st35{fill:#AEB1B3;stroke:#161616;stroke-width:0.25;stroke-miterlimit:10;}
	.st36{fill:#0D0D0D;}
	.st37{fill:#FFFFFF;stroke:#161616;stroke-miterlimit:10;}
	.st38{fill:#6E6E6E;}
	.st39{fill:#D9D9D9;}
	.st40{fill:#161616;stroke:#161616;stroke-width:0.5;stroke-miterlimit:10;}
	.st41{fill:#888888;stroke:#58585A;stroke-width:0.25;stroke-miterlimit:10;}
	.st42{fill:#040404;stroke:#FFFFFF;stroke-width:0.5;stroke-miterlimit:10;}
</style>
<g>
	<defs>
		<rect id="SVGID_1_" x="-257693664" y="-257699136" width="515396064" height="515396064"/>
	</defs>
	<clipPath id="SVGID_2_">
		<use xlink:href="#SVGID_1_"  style="overflow:visible;"/>
	</clipPath>
</g>
<g>
	<g>
		<path class="st32" d="M72.03,168.91v-4.2h-6.71v-20.05l26.11-4.2c6.14,5.74,8.97,10.19,9.05,14.31L72.03,168.91z"/>
		<path class="st32" d="M92.4,138.67l-0.32-0.32l-26.92,4.28v-16.17h-4.04v-2.91h-5.25V112.8h-2.34v-8.08h-5.34v8.08h-2.43v10.75
			h-5.17v2.91h-4.93v38.24h-6.06v59.58h15.52v-24.9h11.48v24.9h15.44l28.13-20.86v-46.24l2.26-1.13v-0.57
			C102.75,148.94,97.25,143.04,92.4,138.67z M70.01,170.61l-0.16,0.08v51.5l-11.24,0.08v-24.9H43.09v24.9H31.61v-55.54h6.06v-38.24
			h4.93v-2.91h5.17v-10.75h2.43v-8.08h1.29v8.08h2.34v10.75h5.25v2.91h4.04v37.27l0.16,0.97h6.71V170.61z M98.14,202.3l-26.11,17.95
			v-49.07l16.98-8.41l9.13-4.61V202.3z"/>
		<path class="st34" d="M63.3,166.73l-0.16-0.97v-37.27h-4.04v-2.91h-5.25v-10.75H51.5v-8.08H50.2v8.08h-2.43v10.75H42.6v2.91h-4.93
			v38.24h-6.06v55.54h11.48v-24.9h15.52v24.9l11.24-0.08v-51.5l0.16-0.08v-3.88H63.3z M55.21,163.25h-9.46v-20.53h9.46V163.25z"/>
		<polygon class="st34" points="98.14,158.16 98.14,202.3 72.03,220.24 72.03,171.17 89.01,162.76 		"/>
		<path class="st16" d="M72.03,168.91v-4.2h-6.71v-20.05l26.11-4.2c6.14,5.74,8.97,10.19,9.05,14.31L72.03,168.91z"/>
		<path class="st32" d="M45.76,142.72v20.53h9.46v-20.53H45.76z M53.19,161.23h-5.42v-16.49h5.42V161.23z"/>
		<polygon class="st32" points="59,87.66 52.01,87.66 52.01,81.55 49.99,81.55 49.99,87.66 43,87.66 43,91.7 49.99,91.7 
			49.99,105.55 52.01,105.55 52.01,91.7 59,91.7 		"/>
	</g>
	<path class="st32" d="M256.83,172.48h-4.89v-13.64h1.34c0.96,0,1.75-0.78,1.75-1.75v-2.42c0-0.02,0.02-0.04,0.02-0.06
		s-0.02-0.04-0.02-0.06v-0.05c0-0.96-0.78-1.75-1.75-1.75h-0.09h-2.43c-0.88-19.68-15.48-35.48-34.26-38.23V112h-3.44v-6.25
		c3.19-0.15,6.18-0.92,8.68-2.39l2.83-1.78l-3.4-0.16c-8.16-0.24-14.55-5.9-14.55-12.77c0-4.45,2.83-8.65,7.52-10.99l2.75-1.37
		l-3.07-0.49c-0.57-0.08-1.13-0.08-1.7-0.08c-9.54,0-17.3,6.79-17.3,15.12c0,7.4,6.14,13.49,14.2,14.77v6.4h-3.35v2.46
		c-19.03,2.48-33.96,18.39-34.86,38.3H169h-1.58h-1.58c-0.96,0-1.75,0.78-1.75,1.75v2.6c0,0.96,0.78,1.75,1.75,1.75h2.2v13.64h-5.15
		l-11.88,10.59v38.16h119.4v-38.16L256.83,172.48z M206.92,157.54h8.94v13.97h-8.94V157.54z M175.1,157.54h8.94v13.97h-8.94V157.54z
		 M184.32,212.09H163.7v-25.14l8.65-6.47c0.97-0.73,2.26-0.73,3.23,0l8.73,6.47V212.09z M200.12,171.51h-8.94v-13.97h8.94V171.51z
		 M221.02,212.09H200.4v-25.14l8.65-6.47c0.97-0.73,2.26-0.73,3.23,0l8.73,6.47V212.09z M231.86,171.51h-8.94v-13.97h8.94V171.51z
		 M236.42,157.54h8.94v13.97h-8.94V157.54z M257.15,212.09h-20.61v-25.14l8.65-6.47c0.97-0.73,2.34-0.73,3.31,0l8.65,6.47V212.09z"
		/>
</g>
</svg>
