<?xml version="1.0" encoding="utf-8"?>
<!-- Generator: Adobe Illustrator 25.1.0, SVG Export Plug-In . SVG Version: 6.00 Build 0)  -->
<svg version="1.1"  width="16px" height ="16px" id="Layer_1" xmlns="http://www.w3.org/2000/svg" xmlns:xlink="http://www.w3.org/1999/xlink" x="0px" y="0px"
	 viewBox="0 0 300 300"   style="enable-background:new 0 0 300 300;" xml:space="preserve">
<style type="text/css">
	.st0{clip-path:url(#SVGID_2_);}
	.st1{fill:#231F20;}
	.st2{fill:#FF0000;}
	.st3{fill:#FB8538;}
	.st4{fill:#91D050;}
	.st5{fill:#FF8F2A;}
	.st6{fill:#E22024;}
	.st7{fill:#FF2500;}
	.st8{fill:#FFFFFF;}
	.st9{fill:#006FC0;}
	.st10{fill:#FFFF01;}
	.st11{fill:#231F20;stroke:#231F20;stroke-width:0.25;stroke-miterlimit:10;}
	.st12{fill:#FF29FF;}
	.st13{opacity:0.24;fill:none;stroke:#231F20;stroke-width:0.25;stroke-miterlimit:10;}
	.st14{fill:#D0CECE;}
	.st15{fill:#02A0E3;}
	.st16{fill:#58585A;}
	.st17{fill:#AEB1B3;}
	.st18{fill:#7F7F7F;}
	.st19{fill:#888888;}
	.st20{fill:none;stroke:#231F20;stroke-miterlimit:10;}
	.st21{fill:#C46321;}
	.st22{fill:#231F20;stroke:#888888;stroke-width:0.25;stroke-miterlimit:10;}
	.st23{fill:#484949;}
	.st24{fill:#B4B6B6;}
	.st25{fill:none;stroke:#231F20;stroke-width:0.25;stroke-miterlimit:10;}
	.st26{clip-path:url(#SVGID_6_);}
	.st27{fill:#0A0A0A;}
	.st28{fill:#FDFDFD;}
	.st29{fill:none;}
	.st30{fill:#040404;stroke:#FFFFFF;stroke-width:0.25;stroke-miterlimit:10;}
	.st31{clip-path:url(#SVGID_8_);}
	.st32{fill:#161616;}
	.st33{fill:#323232;}
	.st34{fill:#C1C1C1;}
	.st35{fill:#AEB1B3;stroke:#161616;stroke-width:0.25;stroke-miterlimit:10;}
	.st36{fill:#0D0D0D;}
	.st37{fill:#FFFFFF;stroke:#161616;stroke-miterlimit:10;}
	.st38{fill:#6E6E6E;}
	.st39{fill:#D9D9D9;}
	.st40{fill:#161616;stroke:#161616;stroke-width:0.5;stroke-miterlimit:10;}
	.st41{fill:#888888;stroke:#58585A;stroke-width:0.25;stroke-miterlimit:10;}
	.st42{fill:#040404;stroke:#FFFFFF;stroke-width:0.5;stroke-miterlimit:10;}
	.st43{fill:#2B2B2B;}
	.st44{fill:#C2C2C2;}
	.st45{fill:url(#SVGID_11_);}
	.st46{fill:url(#SVGID_12_);}
	.st47{opacity:0.2;fill:#E0E47C;}
	.st48{fill:url(#SVGID_13_);}
	.st49{opacity:0.4;fill:url(#SVGID_14_);}
	.st50{fill:url(#SVGID_15_);}
	.st51{opacity:0.4;fill:url(#SVGID_16_);}
	.st52{fill:url(#SVGID_17_);}
	.st53{opacity:0.4;fill:url(#SVGID_18_);}
	.st54{fill:url(#SVGID_19_);}
	.st55{opacity:0.4;fill:url(#SVGID_20_);}
	.st56{fill:url(#SVGID_21_);}
	.st57{opacity:0.4;fill:url(#SVGID_22_);}
	.st58{fill:url(#SVGID_23_);}
	.st59{opacity:0.4;fill:url(#SVGID_24_);}
	.st60{fill:url(#SVGID_25_);}
	.st61{opacity:0.4;fill:url(#SVGID_26_);}
	.st62{fill:url(#SVGID_27_);}
	.st63{opacity:0.4;fill:url(#SVGID_28_);}
	.st64{fill:url(#SVGID_29_);}
	.st65{opacity:0.4;fill:url(#SVGID_30_);}
	.st66{fill:url(#SVGID_31_);}
	.st67{opacity:0.4;fill:url(#SVGID_32_);}
	.st68{fill:url(#SVGID_33_);}
	.st69{opacity:0.4;fill:url(#SVGID_34_);}
	.st70{fill:#654209;}
	.st71{opacity:0.5;}
	.st72{opacity:0.5;fill:#654209;}
	.st73{opacity:0.3;fill:#654209;}
	.st74{fill:#326613;}
	.st75{fill:#4F8821;}
	.st76{opacity:0.5;fill:url(#SVGID_35_);}
	.st77{opacity:0.2;fill:#E0E481;}
	.st78{fill:url(#SVGID_36_);}
	.st79{opacity:0.4;fill:#E3DC3D;}
	.st80{opacity:0.4;fill:url(#SVGID_37_);}
	.st81{opacity:0.3;fill:url(#SVGID_38_);}
	.st82{fill:url(#SVGID_39_);}
	.st83{opacity:0.7;fill:url(#SVGID_40_);}
	.st84{opacity:0.7;}
	.st85{opacity:0.8;fill:url(#SVGID_41_);}
	.st86{opacity:0.3;fill:url(#SVGID_42_);}
	.st87{opacity:0.5;fill:url(#SVGID_43_);}
	.st88{opacity:0.3;fill:url(#SVGID_44_);}
	.st89{opacity:0.6;fill:#E3DC3D;}
	.st90{fill:url(#SVGID_45_);}
	.st91{opacity:0.6;fill:url(#SVGID_46_);}
	.st92{opacity:0.3;fill:#77BE7F;}
	.st93{opacity:0.2;fill:#ECEA85;}
	.st94{fill:url(#SVGID_47_);}
	.st95{opacity:0.5;fill:#E3DC3D;}
	.st96{fill:url(#SVGID_48_);}
	.st97{opacity:0.7;fill:url(#SVGID_49_);}
	.st98{opacity:0.8;fill:url(#SVGID_50_);}
	.st99{opacity:0.3;fill:url(#SVGID_51_);}
	.st100{opacity:0.5;fill:url(#SVGID_52_);}
	.st101{opacity:0.3;fill:url(#SVGID_53_);}
	.st102{fill:url(#SVGID_54_);}
	.st103{opacity:0.8;fill:url(#SVGID_55_);}
	.st104{opacity:0.4;fill:url(#SVGID_56_);}
	.st105{fill:url(#SVGID_57_);}
	.st106{opacity:0.4;fill:url(#SVGID_58_);}
	.st107{fill:url(#SVGID_59_);}
	.st108{fill:url(#SVGID_60_);}
	.st109{fill:url(#SVGID_61_);}
	.st110{opacity:0.5;fill:url(#SVGID_62_);}
	.st111{opacity:0.3;fill:#7D9567;}
	.st112{opacity:0.3;fill:#00713A;}
	.st113{opacity:0.8;fill:#E3DC3D;}
	.st114{opacity:0.5;fill:url(#SVGID_63_);}
	.st115{fill:url(#SVGID_64_);}
	.st116{fill:url(#SVGID_65_);}
	.st117{fill:url(#SVGID_66_);}
	.st118{opacity:0.7;fill:url(#SVGID_67_);}
	.st119{opacity:0.8;fill:url(#SVGID_68_);}
	.st120{opacity:0.3;fill:url(#SVGID_69_);}
	.st121{opacity:0.5;fill:url(#SVGID_70_);}
	.st122{opacity:0.3;fill:url(#SVGID_71_);}
	.st123{fill:#E3DC3D;}
	.st124{fill:url(#SVGID_72_);}
	.st125{opacity:0.4;fill:url(#SVGID_73_);}
	.st126{fill:url(#SVGID_74_);}
	.st127{opacity:0.8;fill:url(#SVGID_75_);}
	.st128{opacity:0.4;fill:url(#SVGID_76_);}
	.st129{fill:url(#SVGID_77_);}
	.st130{opacity:0.8;fill:url(#SVGID_78_);}
	.st131{opacity:0.2;fill:url(#SVGID_79_);}
	.st132{opacity:0.6;fill:url(#SVGID_80_);}
	.st133{opacity:0.3;fill:url(#SVGID_81_);}
	.st134{fill:url(#SVGID_82_);}
	.st135{opacity:0.4;fill:url(#SVGID_83_);}
	.st136{opacity:0.3;fill:url(#SVGID_84_);}
	.st137{opacity:0.5;fill:url(#SVGID_85_);}
	.st138{fill:url(#SVGID_86_);}
	.st139{opacity:0.8;fill:url(#SVGID_87_);}
	.st140{opacity:0.4;fill:url(#SVGID_88_);}
	.st141{opacity:0.5;fill:url(#SVGID_89_);}
	.st142{fill:url(#SVGID_90_);}
	.st143{fill:url(#SVGID_91_);}
	.st144{fill:url(#SVGID_92_);}
	.st145{opacity:0.7;fill:url(#SVGID_93_);}
	.st146{opacity:0.8;fill:url(#SVGID_94_);}
	.st147{opacity:0.3;fill:url(#SVGID_95_);}
	.st148{opacity:0.5;fill:url(#SVGID_96_);}
	.st149{opacity:0.3;fill:url(#SVGID_97_);}
	.st150{fill:url(#SVGID_98_);}
	.st151{opacity:0.4;fill:url(#SVGID_99_);}
	.st152{fill:url(#SVGID_100_);}
	.st153{opacity:0.8;fill:url(#SVGID_101_);}
	.st154{opacity:0.4;fill:url(#SVGID_102_);}
	.st155{fill:url(#SVGID_103_);}
	.st156{opacity:0.8;fill:url(#SVGID_104_);}
	.st157{opacity:0.2;fill:url(#SVGID_105_);}
	.st158{opacity:0.6;fill:url(#SVGID_106_);}
	.st159{opacity:0.3;fill:url(#SVGID_107_);}
	.st160{fill:url(#SVGID_108_);}
	.st161{opacity:0.4;fill:url(#SVGID_109_);}
	.st162{opacity:0.3;fill:url(#SVGID_110_);}
	.st163{opacity:0.5;fill:url(#SVGID_111_);}
	.st164{fill:url(#SVGID_112_);}
	.st165{opacity:0.8;fill:url(#SVGID_113_);}
	.st166{opacity:0.4;fill:url(#SVGID_114_);}
	.st167{opacity:0.5;fill:url(#SVGID_115_);}
	.st168{fill:url(#SVGID_116_);}
	.st169{fill:url(#SVGID_117_);}
	.st170{fill:url(#SVGID_118_);}
	.st171{opacity:0.7;fill:url(#SVGID_119_);}
	.st172{opacity:0.8;fill:url(#SVGID_120_);}
	.st173{opacity:0.3;fill:url(#SVGID_121_);}
	.st174{opacity:0.5;fill:url(#SVGID_122_);}
	.st175{opacity:0.3;fill:url(#SVGID_123_);}
	.st176{fill:url(#SVGID_124_);}
	.st177{opacity:0.4;fill:url(#SVGID_125_);}
	.st178{fill:url(#SVGID_126_);}
	.st179{opacity:0.8;fill:url(#SVGID_127_);}
	.st180{opacity:0.4;fill:url(#SVGID_128_);}
	.st181{fill:url(#SVGID_129_);}
	.st182{opacity:0.8;fill:url(#SVGID_130_);}
	.st183{opacity:0.2;fill:url(#SVGID_131_);}
	.st184{opacity:0.6;fill:url(#SVGID_132_);}
	.st185{opacity:0.3;fill:url(#SVGID_133_);}
	.st186{fill:url(#SVGID_134_);}
	.st187{opacity:0.4;fill:url(#SVGID_135_);}
	.st188{opacity:0.3;fill:url(#SVGID_136_);}
	.st189{opacity:0.5;fill:url(#SVGID_137_);}
	.st190{fill:url(#SVGID_138_);}
	.st191{opacity:0.8;fill:url(#SVGID_139_);}
	.st192{opacity:0.4;fill:url(#SVGID_140_);}
	.st193{opacity:0.5;fill:url(#SVGID_141_);}
	.st194{fill:url(#SVGID_142_);}
	.st195{opacity:0.4;fill:url(#SVGID_143_);}
	.st196{fill:url(#SVGID_144_);}
	.st197{opacity:0.8;fill:url(#SVGID_145_);}
	.st198{opacity:0.4;fill:url(#SVGID_146_);}
	.st199{fill:url(#SVGID_147_);}
	.st200{opacity:0.8;fill:url(#SVGID_148_);}
	.st201{opacity:0.2;fill:url(#SVGID_149_);}
	.st202{opacity:0.6;fill:url(#SVGID_150_);}
	.st203{opacity:0.3;fill:url(#SVGID_151_);}
	.st204{fill:url(#SVGID_152_);}
	.st205{opacity:0.4;fill:url(#SVGID_153_);}
	.st206{opacity:0.3;fill:url(#SVGID_154_);}
	.st207{fill:#917305;}
	.st208{fill:#B49000;}
	.st209{fill:#6B5203;}
	.st210{opacity:0.6;}
	.st211{opacity:0.5;fill:#B49000;}
	.st212{fill:#6EBA00;}
	.st213{fill:#2D5B00;}
	.st214{opacity:0.3;}
	.st215{fill:#4E9200;}
	.st216{fill:#3E6B03;}
	.st217{fill:#8BD506;}
	.st218{opacity:0.3;fill:#4E9200;}
	.st219{opacity:0.3;fill:#3E6B03;}
	.st220{opacity:0.6;fill:#3E6B03;}
	.st221{fill:#1D1D1B;}
	.st222{fill:#9CB558;}
	.st223{fill:#729918;}
	.st224{fill:#A9D13D;}
	.st225{fill:#AAD03D;}
	.st226{fill:#7DB500;}
	.st227{fill:#7EB500;}
	.st228{fill:#99CA00;}
	.st229{fill:#02B050;}
	.st230{fill:#D2D2D2;}
	.st231{fill:#FFE090;}
	.st232{fill:#9ED6F7;}
	.st233{fill:#9FD7F7;}
	.st234{fill:#CCCCCC;}
	.st235{fill:#FFACF8;}
	.st236{fill:url(#SVGID_155_);}
	.st237{fill:url(#SVGID_156_);}
	.st238{fill:url(#SVGID_157_);}
	.st239{opacity:0.4;fill:url(#SVGID_158_);}
	.st240{fill:url(#SVGID_159_);}
	.st241{opacity:0.4;fill:url(#SVGID_160_);}
	.st242{fill:url(#SVGID_161_);}
	.st243{opacity:0.4;fill:url(#SVGID_162_);}
	.st244{fill:url(#SVGID_163_);}
	.st245{opacity:0.4;fill:url(#SVGID_164_);}
	.st246{fill:url(#SVGID_165_);}
	.st247{opacity:0.4;fill:url(#SVGID_166_);}
	.st248{fill:url(#SVGID_167_);}
	.st249{opacity:0.4;fill:url(#SVGID_168_);}
	.st250{fill:url(#SVGID_169_);}
	.st251{opacity:0.4;fill:url(#SVGID_170_);}
	.st252{fill:url(#SVGID_171_);}
	.st253{opacity:0.4;fill:url(#SVGID_172_);}
	.st254{fill:url(#SVGID_173_);}
	.st255{opacity:0.4;fill:url(#SVGID_174_);}
	.st256{fill:url(#SVGID_175_);}
	.st257{opacity:0.4;fill:url(#SVGID_176_);}
	.st258{fill:url(#SVGID_177_);}
	.st259{opacity:0.4;fill:url(#SVGID_178_);}
	.st260{opacity:0.5;fill:url(#SVGID_179_);}
	.st261{fill:url(#SVGID_180_);}
	.st262{opacity:0.4;fill:url(#SVGID_181_);}
	.st263{opacity:0.3;fill:url(#SVGID_182_);}
	.st264{fill:url(#SVGID_183_);}
	.st265{opacity:0.7;fill:url(#SVGID_184_);}
	.st266{opacity:0.8;fill:url(#SVGID_185_);}
	.st267{opacity:0.3;fill:url(#SVGID_186_);}
	.st268{opacity:0.5;fill:url(#SVGID_187_);}
	.st269{opacity:0.3;fill:url(#SVGID_188_);}
	.st270{fill:url(#SVGID_189_);}
	.st271{opacity:0.6;fill:url(#SVGID_190_);}
	.st272{fill:url(#SVGID_191_);}
	.st273{fill:url(#SVGID_192_);}
	.st274{opacity:0.7;fill:url(#SVGID_193_);}
	.st275{opacity:0.8;fill:url(#SVGID_194_);}
	.st276{opacity:0.3;fill:url(#SVGID_195_);}
	.st277{opacity:0.5;fill:url(#SVGID_196_);}
	.st278{opacity:0.3;fill:url(#SVGID_197_);}
	.st279{fill:url(#SVGID_198_);}
	.st280{opacity:0.8;fill:url(#SVGID_199_);}
	.st281{opacity:0.4;fill:url(#SVGID_200_);}
	.st282{fill:url(#SVGID_201_);}
	.st283{opacity:0.4;fill:url(#SVGID_202_);}
	.st284{fill:url(#SVGID_203_);}
	.st285{fill:url(#SVGID_204_);}
	.st286{fill:url(#SVGID_205_);}
	.st287{opacity:0.5;fill:url(#SVGID_206_);}
	.st288{opacity:0.5;fill:url(#SVGID_207_);}
	.st289{fill:url(#SVGID_208_);}
	.st290{fill:url(#SVGID_209_);}
	.st291{fill:url(#SVGID_210_);}
	.st292{opacity:0.7;fill:url(#SVGID_211_);}
	.st293{opacity:0.8;fill:url(#SVGID_212_);}
	.st294{opacity:0.3;fill:url(#SVGID_213_);}
	.st295{opacity:0.5;fill:url(#SVGID_214_);}
	.st296{opacity:0.3;fill:url(#SVGID_215_);}
	.st297{fill:url(#SVGID_216_);}
	.st298{opacity:0.4;fill:url(#SVGID_217_);}
	.st299{fill:url(#SVGID_218_);}
	.st300{opacity:0.8;fill:url(#SVGID_219_);}
	.st301{opacity:0.4;fill:url(#SVGID_220_);}
	.st302{fill:url(#SVGID_221_);}
	.st303{opacity:0.8;fill:url(#SVGID_222_);}
	.st304{opacity:0.2;fill:url(#SVGID_223_);}
	.st305{opacity:0.6;fill:url(#SVGID_224_);}
	.st306{opacity:0.3;fill:url(#SVGID_225_);}
	.st307{fill:url(#SVGID_226_);}
	.st308{opacity:0.4;fill:url(#SVGID_227_);}
	.st309{opacity:0.3;fill:url(#SVGID_228_);}
	.st310{opacity:0.5;fill:url(#SVGID_229_);}
	.st311{fill:url(#SVGID_230_);}
	.st312{opacity:0.8;fill:url(#SVGID_231_);}
	.st313{opacity:0.4;fill:url(#SVGID_232_);}
	.st314{opacity:0.5;fill:url(#SVGID_233_);}
	.st315{fill:url(#SVGID_234_);}
	.st316{fill:url(#SVGID_235_);}
	.st317{fill:url(#SVGID_236_);}
	.st318{opacity:0.7;fill:url(#SVGID_237_);}
	.st319{opacity:0.8;fill:url(#SVGID_238_);}
	.st320{opacity:0.3;fill:url(#SVGID_239_);}
	.st321{opacity:0.5;fill:url(#SVGID_240_);}
	.st322{opacity:0.3;fill:url(#SVGID_241_);}
	.st323{fill:url(#SVGID_242_);}
	.st324{opacity:0.4;fill:url(#SVGID_243_);}
	.st325{fill:url(#SVGID_244_);}
	.st326{opacity:0.8;fill:url(#SVGID_245_);}
	.st327{opacity:0.4;fill:url(#SVGID_246_);}
	.st328{fill:url(#SVGID_247_);}
	.st329{opacity:0.8;fill:url(#SVGID_248_);}
	.st330{opacity:0.2;fill:url(#SVGID_249_);}
	.st331{opacity:0.6;fill:url(#SVGID_250_);}
	.st332{opacity:0.3;fill:url(#SVGID_251_);}
	.st333{fill:url(#SVGID_252_);}
	.st334{opacity:0.4;fill:url(#SVGID_253_);}
	.st335{opacity:0.3;fill:url(#SVGID_254_);}
	.st336{opacity:0.5;fill:url(#SVGID_255_);}
	.st337{fill:url(#SVGID_256_);}
	.st338{opacity:0.8;fill:url(#SVGID_257_);}
	.st339{opacity:0.4;fill:url(#SVGID_258_);}
	.st340{opacity:0.5;fill:url(#SVGID_259_);}
	.st341{fill:url(#SVGID_260_);}
	.st342{fill:url(#SVGID_261_);}
	.st343{fill:url(#SVGID_262_);}
	.st344{opacity:0.7;fill:url(#SVGID_263_);}
	.st345{opacity:0.8;fill:url(#SVGID_264_);}
	.st346{opacity:0.3;fill:url(#SVGID_265_);}
	.st347{opacity:0.5;fill:url(#SVGID_266_);}
	.st348{opacity:0.3;fill:url(#SVGID_267_);}
	.st349{fill:url(#SVGID_268_);}
	.st350{opacity:0.4;fill:url(#SVGID_269_);}
	.st351{fill:url(#SVGID_270_);}
	.st352{opacity:0.8;fill:url(#SVGID_271_);}
	.st353{opacity:0.4;fill:url(#SVGID_272_);}
	.st354{fill:url(#SVGID_273_);}
	.st355{opacity:0.8;fill:url(#SVGID_274_);}
	.st356{opacity:0.2;fill:url(#SVGID_275_);}
	.st357{opacity:0.6;fill:url(#SVGID_276_);}
	.st358{opacity:0.3;fill:url(#SVGID_277_);}
	.st359{fill:url(#SVGID_278_);}
	.st360{opacity:0.4;fill:url(#SVGID_279_);}
	.st361{opacity:0.3;fill:url(#SVGID_280_);}
	.st362{opacity:0.5;fill:url(#SVGID_281_);}
	.st363{fill:url(#SVGID_282_);}
	.st364{opacity:0.8;fill:url(#SVGID_283_);}
	.st365{opacity:0.4;fill:url(#SVGID_284_);}
	.st366{opacity:0.5;fill:url(#SVGID_285_);}
	.st367{fill:url(#SVGID_286_);}
	.st368{opacity:0.4;fill:url(#SVGID_287_);}
	.st369{fill:url(#SVGID_288_);}
	.st370{opacity:0.8;fill:url(#SVGID_289_);}
	.st371{opacity:0.4;fill:url(#SVGID_290_);}
	.st372{fill:url(#SVGID_291_);}
	.st373{opacity:0.8;fill:url(#SVGID_292_);}
	.st374{opacity:0.2;fill:url(#SVGID_293_);}
	.st375{opacity:0.6;fill:url(#SVGID_294_);}
	.st376{opacity:0.3;fill:url(#SVGID_295_);}
	.st377{fill:url(#SVGID_296_);}
	.st378{opacity:0.4;fill:url(#SVGID_297_);}
	.st379{opacity:0.3;fill:url(#SVGID_298_);}
</style>
<g>
	<defs>
		<rect id="SVGID_1_" x="-257703264" y="-257699136" width="515396064" height="515396064"/>
	</defs>
	<clipPath id="SVGID_2_">
		<use xlink:href="#SVGID_1_"  style="overflow:visible;"/>
	</clipPath>
</g>
<g>
	<rect x="35" y="100.64" class="st235" width="230" height="98.73"/>
	<g>
		<path d="M37.14,167.87l11.89-1.76c0.38,3.7,1.4,6.53,3.06,8.49c1.66,1.96,3.67,2.94,6.03,2.94c2.54,0,4.67-1.17,6.41-3.52
			c1.73-2.35,2.6-5.52,2.6-9.51c0-3.77-0.83-6.77-2.49-8.97c-1.66-2.21-3.69-3.31-6.08-3.31c-1.57,0-3.45,0.37-5.64,1.12l1.36-12.23
			c3.32,0.11,5.86-0.77,7.61-2.64c1.75-1.87,2.62-4.35,2.62-7.45c0-2.63-0.64-4.74-1.92-6.3c-1.28-1.57-2.99-2.35-5.12-2.35
			c-2.1,0-3.89,0.89-5.38,2.67c-1.49,1.78-2.39,4.38-2.71,7.8l-11.33-2.35c0.79-4.74,1.97-8.52,3.56-11.35
			c1.59-2.83,3.8-5.06,6.65-6.68c2.84-1.62,6.03-2.43,9.55-2.43c6.03,0,10.87,2.35,14.52,7.05c3,3.85,4.5,8.19,4.5,13.03
			c0,6.87-3.08,12.36-9.23,16.45c3.67,0.96,6.61,3.12,8.81,6.46c2.2,3.35,3.3,7.39,3.3,12.12c0,6.87-2.06,12.73-6.17,17.57
			c-4.11,4.84-9.23,7.26-15.35,7.26c-5.8,0-10.61-2.04-14.43-6.12C39.97,179.78,37.75,174.45,37.14,167.87z"/>
		<path d="M108.15,110.02c6.21,0,11.06,2.71,14.56,8.12c4.17,6.41,6.25,17.04,6.25,31.89c0,14.81-2.1,25.46-6.3,31.94
			c-3.47,5.34-8.31,8.01-14.52,8.01c-6.24,0-11.27-2.93-15.09-8.79c-3.82-5.86-5.73-16.3-5.73-31.32c0-14.74,2.1-25.35,6.3-31.83
			C97.11,112.69,101.94,110.02,108.15,110.02z M108.15,122.47c-1.49,0-2.81,0.58-3.98,1.74c-1.17,1.16-2.07,3.23-2.71,6.22
			c-0.85,3.88-1.27,10.41-1.27,19.6s0.38,15.5,1.14,18.93c0.76,3.44,1.71,5.72,2.86,6.86c1.15,1.14,2.47,1.71,3.96,1.71
			c1.49,0,2.81-0.58,3.98-1.74c1.17-1.16,2.07-3.23,2.71-6.22c0.85-3.85,1.27-10.36,1.27-19.55s-0.38-15.5-1.14-18.93
			c-0.76-3.44-1.71-5.73-2.86-6.89C110.96,123.05,109.64,122.47,108.15,122.47z"/>
		<path d="M157.96,110.02c6.21,0,11.06,2.71,14.56,8.12c4.17,6.41,6.25,17.04,6.25,31.89c0,14.81-2.1,25.46-6.3,31.94
			c-3.47,5.34-8.31,8.01-14.52,8.01c-6.24,0-11.27-2.93-15.09-8.79c-3.82-5.86-5.73-16.3-5.73-31.32c0-14.74,2.1-25.35,6.3-31.83
			C146.91,112.69,151.75,110.02,157.96,110.02z M157.96,122.47c-1.49,0-2.81,0.58-3.98,1.74c-1.17,1.16-2.07,3.23-2.71,6.22
			c-0.85,3.88-1.27,10.41-1.27,19.6s0.38,15.5,1.14,18.93s1.71,5.72,2.86,6.86s2.47,1.71,3.96,1.71s2.81-0.58,3.98-1.74
			c1.17-1.16,2.07-3.23,2.71-6.22c0.85-3.85,1.27-10.36,1.27-19.55s-0.38-15.5-1.14-18.93s-1.71-5.73-2.86-6.89
			C160.76,123.05,159.44,122.47,157.96,122.47z"/>
		<path d="M188.7,131.92h11.33v7.74c4.05-6.02,8.88-9.03,14.47-9.03c2.97,0,5.55,0.75,7.74,2.24c2.19,1.5,3.98,3.76,5.38,6.78
			c2.04-3.03,4.24-5.29,6.6-6.78c2.36-1.5,4.88-2.24,7.56-2.24c3.41,0,6.3,0.85,8.66,2.54c2.36,1.69,4.12,4.17,5.29,7.45
			c0.85,2.42,1.27,6.34,1.27,11.75v36.26h-12.29v-32.42c0-5.63-0.42-9.26-1.27-10.9c-1.14-2.14-2.89-3.2-5.25-3.2
			c-1.72,0-3.34,0.64-4.85,1.92c-1.52,1.28-2.61,3.16-3.28,5.63c-0.67,2.47-1.01,6.38-1.01,11.72v27.24h-12.29v-31.08
			c0-5.52-0.22-9.08-0.66-10.68c-0.44-1.6-1.12-2.8-2.03-3.58c-0.92-0.78-2.16-1.18-3.74-1.18c-1.89,0-3.6,0.62-5.12,1.87
			s-2.6,3.04-3.26,5.39c-0.66,2.35-0.98,6.25-0.98,11.7v27.56H188.7V131.92z"/>
	</g>
</g>
</svg>
