<?xml version="1.0" encoding="utf-8"?>
<!-- Generator: Adobe Illustrator 25.1.0, SVG Export Plug-In . SVG Version: 6.00 Build 0)  -->
<svg version="1.1"  width="16px" height ="16px" id="Layer_1" xmlns="http://www.w3.org/2000/svg" xmlns:xlink="http://www.w3.org/1999/xlink" x="0px" y="0px"
	 viewBox="0 0 300 300"   style="enable-background:new 0 0 300 300;" xml:space="preserve">
<style type="text/css">
	.st0{clip-path:url(#SVGID_2_);}
	.st1{fill:#231F20;}
	.st2{fill:#FF0000;}
	.st3{fill:#FB8538;}
	.st4{fill:#91D050;}
	.st5{fill:#FF8F2A;}
	.st6{fill:#E22024;}
	.st7{fill:#FF2500;}
	.st8{fill:#FFFFFF;}
	.st9{fill:#006FC0;}
	.st10{fill:#FFFF01;}
	.st11{fill:#231F20;stroke:#231F20;stroke-width:0.25;stroke-miterlimit:10;}
	.st12{fill:#FF29FF;}
	.st13{opacity:0.24;fill:none;stroke:#231F20;stroke-width:0.25;stroke-miterlimit:10;}
	.st14{fill:#D0CECE;}
	.st15{fill:#02A0E3;}
	.st16{fill:#58585A;}
	.st17{fill:#AEB1B3;}
	.st18{fill:#7F7F7F;}
	.st19{fill:#888888;}
	.st20{fill:none;stroke:#231F20;stroke-miterlimit:10;}
	.st21{fill:#C46321;}
	.st22{fill:#231F20;stroke:#888888;stroke-width:0.25;stroke-miterlimit:10;}
	.st23{fill:#484949;}
	.st24{fill:#B4B6B6;}
	.st25{fill:none;stroke:#231F20;stroke-width:0.25;stroke-miterlimit:10;}
	.st26{clip-path:url(#SVGID_6_);}
	.st27{fill:#0A0A0A;}
	.st28{fill:#FDFDFD;}
	.st29{fill:none;}
	.st30{fill:#040404;stroke:#FFFFFF;stroke-width:0.25;stroke-miterlimit:10;}
	.st31{clip-path:url(#SVGID_8_);}
	.st32{fill:#161616;}
	.st33{fill:#323232;}
	.st34{fill:#C1C1C1;}
	.st35{fill:#AEB1B3;stroke:#161616;stroke-width:0.25;stroke-miterlimit:10;}
	.st36{fill:#0D0D0D;}
	.st37{fill:#FFFFFF;stroke:#161616;stroke-miterlimit:10;}
	.st38{fill:#6E6E6E;}
	.st39{fill:#D9D9D9;}
	.st40{fill:#161616;stroke:#161616;stroke-width:0.5;stroke-miterlimit:10;}
	.st41{fill:#888888;stroke:#58585A;stroke-width:0.25;stroke-miterlimit:10;}
	.st42{fill:#040404;stroke:#FFFFFF;stroke-width:0.5;stroke-miterlimit:10;}
	.st43{fill:#2B2B2B;}
	.st44{fill:#C2C2C2;}
	.st45{fill:url(#SVGID_11_);}
	.st46{fill:url(#SVGID_12_);}
	.st47{opacity:0.2;fill:#E0E47C;}
	.st48{fill:url(#SVGID_13_);}
	.st49{opacity:0.4;fill:url(#SVGID_14_);}
	.st50{fill:url(#SVGID_15_);}
	.st51{opacity:0.4;fill:url(#SVGID_16_);}
	.st52{fill:url(#SVGID_17_);}
	.st53{opacity:0.4;fill:url(#SVGID_18_);}
	.st54{fill:url(#SVGID_19_);}
	.st55{opacity:0.4;fill:url(#SVGID_20_);}
	.st56{fill:url(#SVGID_21_);}
	.st57{opacity:0.4;fill:url(#SVGID_22_);}
	.st58{fill:url(#SVGID_23_);}
	.st59{opacity:0.4;fill:url(#SVGID_24_);}
	.st60{fill:url(#SVGID_25_);}
	.st61{opacity:0.4;fill:url(#SVGID_26_);}
	.st62{fill:url(#SVGID_27_);}
	.st63{opacity:0.4;fill:url(#SVGID_28_);}
	.st64{fill:url(#SVGID_29_);}
	.st65{opacity:0.4;fill:url(#SVGID_30_);}
	.st66{fill:url(#SVGID_31_);}
	.st67{opacity:0.4;fill:url(#SVGID_32_);}
	.st68{fill:url(#SVGID_33_);}
	.st69{opacity:0.4;fill:url(#SVGID_34_);}
	.st70{fill:#654209;}
	.st71{opacity:0.5;}
	.st72{opacity:0.5;fill:#654209;}
	.st73{opacity:0.3;fill:#654209;}
	.st74{fill:#326613;}
	.st75{fill:#4F8821;}
	.st76{opacity:0.5;fill:url(#SVGID_35_);}
	.st77{opacity:0.2;fill:#E0E481;}
	.st78{fill:url(#SVGID_36_);}
	.st79{opacity:0.4;fill:#E3DC3D;}
	.st80{opacity:0.4;fill:url(#SVGID_37_);}
	.st81{opacity:0.3;fill:url(#SVGID_38_);}
	.st82{fill:url(#SVGID_39_);}
	.st83{opacity:0.7;fill:url(#SVGID_40_);}
	.st84{opacity:0.7;}
	.st85{opacity:0.8;fill:url(#SVGID_41_);}
	.st86{opacity:0.3;fill:url(#SVGID_42_);}
	.st87{opacity:0.5;fill:url(#SVGID_43_);}
	.st88{opacity:0.3;fill:url(#SVGID_44_);}
	.st89{opacity:0.6;fill:#E3DC3D;}
	.st90{fill:url(#SVGID_45_);}
	.st91{opacity:0.6;fill:url(#SVGID_46_);}
	.st92{opacity:0.3;fill:#77BE7F;}
	.st93{opacity:0.2;fill:#ECEA85;}
	.st94{fill:url(#SVGID_47_);}
	.st95{opacity:0.5;fill:#E3DC3D;}
	.st96{fill:url(#SVGID_48_);}
	.st97{opacity:0.7;fill:url(#SVGID_49_);}
	.st98{opacity:0.8;fill:url(#SVGID_50_);}
	.st99{opacity:0.3;fill:url(#SVGID_51_);}
	.st100{opacity:0.5;fill:url(#SVGID_52_);}
	.st101{opacity:0.3;fill:url(#SVGID_53_);}
	.st102{fill:url(#SVGID_54_);}
	.st103{opacity:0.8;fill:url(#SVGID_55_);}
	.st104{opacity:0.4;fill:url(#SVGID_56_);}
	.st105{fill:url(#SVGID_57_);}
	.st106{opacity:0.4;fill:url(#SVGID_58_);}
	.st107{fill:url(#SVGID_59_);}
	.st108{fill:url(#SVGID_60_);}
	.st109{fill:url(#SVGID_61_);}
	.st110{opacity:0.5;fill:url(#SVGID_62_);}
	.st111{opacity:0.3;fill:#7D9567;}
	.st112{opacity:0.3;fill:#00713A;}
	.st113{opacity:0.8;fill:#E3DC3D;}
	.st114{opacity:0.5;fill:url(#SVGID_63_);}
	.st115{fill:url(#SVGID_64_);}
	.st116{fill:url(#SVGID_65_);}
	.st117{fill:url(#SVGID_66_);}
	.st118{opacity:0.7;fill:url(#SVGID_67_);}
	.st119{opacity:0.8;fill:url(#SVGID_68_);}
	.st120{opacity:0.3;fill:url(#SVGID_69_);}
	.st121{opacity:0.5;fill:url(#SVGID_70_);}
	.st122{opacity:0.3;fill:url(#SVGID_71_);}
	.st123{fill:#E3DC3D;}
	.st124{fill:url(#SVGID_72_);}
	.st125{opacity:0.4;fill:url(#SVGID_73_);}
	.st126{fill:url(#SVGID_74_);}
	.st127{opacity:0.8;fill:url(#SVGID_75_);}
	.st128{opacity:0.4;fill:url(#SVGID_76_);}
	.st129{fill:url(#SVGID_77_);}
	.st130{opacity:0.8;fill:url(#SVGID_78_);}
	.st131{opacity:0.2;fill:url(#SVGID_79_);}
	.st132{opacity:0.6;fill:url(#SVGID_80_);}
	.st133{opacity:0.3;fill:url(#SVGID_81_);}
	.st134{fill:url(#SVGID_82_);}
	.st135{opacity:0.4;fill:url(#SVGID_83_);}
	.st136{opacity:0.3;fill:url(#SVGID_84_);}
	.st137{opacity:0.5;fill:url(#SVGID_85_);}
	.st138{fill:url(#SVGID_86_);}
	.st139{opacity:0.8;fill:url(#SVGID_87_);}
	.st140{opacity:0.4;fill:url(#SVGID_88_);}
	.st141{opacity:0.5;fill:url(#SVGID_89_);}
	.st142{fill:url(#SVGID_90_);}
	.st143{fill:url(#SVGID_91_);}
	.st144{fill:url(#SVGID_92_);}
	.st145{opacity:0.7;fill:url(#SVGID_93_);}
	.st146{opacity:0.8;fill:url(#SVGID_94_);}
	.st147{opacity:0.3;fill:url(#SVGID_95_);}
	.st148{opacity:0.5;fill:url(#SVGID_96_);}
	.st149{opacity:0.3;fill:url(#SVGID_97_);}
	.st150{fill:url(#SVGID_98_);}
	.st151{opacity:0.4;fill:url(#SVGID_99_);}
	.st152{fill:url(#SVGID_100_);}
	.st153{opacity:0.8;fill:url(#SVGID_101_);}
	.st154{opacity:0.4;fill:url(#SVGID_102_);}
	.st155{fill:url(#SVGID_103_);}
	.st156{opacity:0.8;fill:url(#SVGID_104_);}
	.st157{opacity:0.2;fill:url(#SVGID_105_);}
	.st158{opacity:0.6;fill:url(#SVGID_106_);}
	.st159{opacity:0.3;fill:url(#SVGID_107_);}
	.st160{fill:url(#SVGID_108_);}
	.st161{opacity:0.4;fill:url(#SVGID_109_);}
	.st162{opacity:0.3;fill:url(#SVGID_110_);}
	.st163{opacity:0.5;fill:url(#SVGID_111_);}
	.st164{fill:url(#SVGID_112_);}
	.st165{opacity:0.8;fill:url(#SVGID_113_);}
	.st166{opacity:0.4;fill:url(#SVGID_114_);}
	.st167{opacity:0.5;fill:url(#SVGID_115_);}
	.st168{fill:url(#SVGID_116_);}
	.st169{fill:url(#SVGID_117_);}
	.st170{fill:url(#SVGID_118_);}
	.st171{opacity:0.7;fill:url(#SVGID_119_);}
	.st172{opacity:0.8;fill:url(#SVGID_120_);}
	.st173{opacity:0.3;fill:url(#SVGID_121_);}
	.st174{opacity:0.5;fill:url(#SVGID_122_);}
	.st175{opacity:0.3;fill:url(#SVGID_123_);}
	.st176{fill:url(#SVGID_124_);}
	.st177{opacity:0.4;fill:url(#SVGID_125_);}
	.st178{fill:url(#SVGID_126_);}
	.st179{opacity:0.8;fill:url(#SVGID_127_);}
	.st180{opacity:0.4;fill:url(#SVGID_128_);}
	.st181{fill:url(#SVGID_129_);}
	.st182{opacity:0.8;fill:url(#SVGID_130_);}
	.st183{opacity:0.2;fill:url(#SVGID_131_);}
	.st184{opacity:0.6;fill:url(#SVGID_132_);}
	.st185{opacity:0.3;fill:url(#SVGID_133_);}
	.st186{fill:url(#SVGID_134_);}
	.st187{opacity:0.4;fill:url(#SVGID_135_);}
	.st188{opacity:0.3;fill:url(#SVGID_136_);}
	.st189{opacity:0.5;fill:url(#SVGID_137_);}
	.st190{fill:url(#SVGID_138_);}
	.st191{opacity:0.8;fill:url(#SVGID_139_);}
	.st192{opacity:0.4;fill:url(#SVGID_140_);}
	.st193{opacity:0.5;fill:url(#SVGID_141_);}
	.st194{fill:url(#SVGID_142_);}
	.st195{opacity:0.4;fill:url(#SVGID_143_);}
	.st196{fill:url(#SVGID_144_);}
	.st197{opacity:0.8;fill:url(#SVGID_145_);}
	.st198{opacity:0.4;fill:url(#SVGID_146_);}
	.st199{fill:url(#SVGID_147_);}
	.st200{opacity:0.8;fill:url(#SVGID_148_);}
	.st201{opacity:0.2;fill:url(#SVGID_149_);}
	.st202{opacity:0.6;fill:url(#SVGID_150_);}
	.st203{opacity:0.3;fill:url(#SVGID_151_);}
	.st204{fill:url(#SVGID_152_);}
	.st205{opacity:0.4;fill:url(#SVGID_153_);}
	.st206{opacity:0.3;fill:url(#SVGID_154_);}
	.st207{fill:#917305;}
	.st208{fill:#B49000;}
	.st209{fill:#6B5203;}
	.st210{opacity:0.6;}
	.st211{opacity:0.5;fill:#B49000;}
	.st212{fill:#6EBA00;}
	.st213{fill:#2D5B00;}
	.st214{opacity:0.3;}
	.st215{fill:#4E9200;}
	.st216{fill:#3E6B03;}
	.st217{fill:#8BD506;}
	.st218{opacity:0.3;fill:#4E9200;}
	.st219{opacity:0.3;fill:#3E6B03;}
	.st220{opacity:0.6;fill:#3E6B03;}
	.st221{fill:#1D1D1B;}
	.st222{fill:#9CB558;}
	.st223{fill:#729918;}
	.st224{fill:#A9D13D;}
	.st225{fill:#AAD03D;}
	.st226{fill:#7DB500;}
	.st227{fill:#7EB500;}
	.st228{fill:#99CA00;}
	.st229{fill:#02B050;}
	.st230{fill:#D2D2D2;}
	.st231{fill:#FFE090;}
	.st232{fill:#9ED6F7;}
	.st233{fill:#9FD7F7;}
	.st234{fill:#CCCCCC;}
	.st235{fill:#FFACF8;}
	.st236{fill:url(#SVGID_155_);}
	.st237{fill:url(#SVGID_156_);}
	.st238{fill:url(#SVGID_157_);}
	.st239{opacity:0.4;fill:url(#SVGID_158_);}
	.st240{fill:url(#SVGID_159_);}
	.st241{opacity:0.4;fill:url(#SVGID_160_);}
	.st242{fill:url(#SVGID_161_);}
	.st243{opacity:0.4;fill:url(#SVGID_162_);}
	.st244{fill:url(#SVGID_163_);}
	.st245{opacity:0.4;fill:url(#SVGID_164_);}
	.st246{fill:url(#SVGID_165_);}
	.st247{opacity:0.4;fill:url(#SVGID_166_);}
	.st248{fill:url(#SVGID_167_);}
	.st249{opacity:0.4;fill:url(#SVGID_168_);}
	.st250{fill:url(#SVGID_169_);}
	.st251{opacity:0.4;fill:url(#SVGID_170_);}
	.st252{fill:url(#SVGID_171_);}
	.st253{opacity:0.4;fill:url(#SVGID_172_);}
	.st254{fill:url(#SVGID_173_);}
	.st255{opacity:0.4;fill:url(#SVGID_174_);}
	.st256{fill:url(#SVGID_175_);}
	.st257{opacity:0.4;fill:url(#SVGID_176_);}
	.st258{fill:url(#SVGID_177_);}
	.st259{opacity:0.4;fill:url(#SVGID_178_);}
	.st260{opacity:0.5;fill:url(#SVGID_179_);}
	.st261{fill:url(#SVGID_180_);}
	.st262{opacity:0.4;fill:url(#SVGID_181_);}
	.st263{opacity:0.3;fill:url(#SVGID_182_);}
	.st264{fill:url(#SVGID_183_);}
	.st265{opacity:0.7;fill:url(#SVGID_184_);}
	.st266{opacity:0.8;fill:url(#SVGID_185_);}
	.st267{opacity:0.3;fill:url(#SVGID_186_);}
	.st268{opacity:0.5;fill:url(#SVGID_187_);}
	.st269{opacity:0.3;fill:url(#SVGID_188_);}
	.st270{fill:url(#SVGID_189_);}
	.st271{opacity:0.6;fill:url(#SVGID_190_);}
	.st272{fill:url(#SVGID_191_);}
	.st273{fill:url(#SVGID_192_);}
	.st274{opacity:0.7;fill:url(#SVGID_193_);}
	.st275{opacity:0.8;fill:url(#SVGID_194_);}
	.st276{opacity:0.3;fill:url(#SVGID_195_);}
	.st277{opacity:0.5;fill:url(#SVGID_196_);}
	.st278{opacity:0.3;fill:url(#SVGID_197_);}
	.st279{fill:url(#SVGID_198_);}
	.st280{opacity:0.8;fill:url(#SVGID_199_);}
	.st281{opacity:0.4;fill:url(#SVGID_200_);}
	.st282{fill:url(#SVGID_201_);}
	.st283{opacity:0.4;fill:url(#SVGID_202_);}
	.st284{fill:url(#SVGID_203_);}
	.st285{fill:url(#SVGID_204_);}
	.st286{fill:url(#SVGID_205_);}
	.st287{opacity:0.5;fill:url(#SVGID_206_);}
	.st288{opacity:0.5;fill:url(#SVGID_207_);}
	.st289{fill:url(#SVGID_208_);}
	.st290{fill:url(#SVGID_209_);}
	.st291{fill:url(#SVGID_210_);}
	.st292{opacity:0.7;fill:url(#SVGID_211_);}
	.st293{opacity:0.8;fill:url(#SVGID_212_);}
	.st294{opacity:0.3;fill:url(#SVGID_213_);}
	.st295{opacity:0.5;fill:url(#SVGID_214_);}
	.st296{opacity:0.3;fill:url(#SVGID_215_);}
	.st297{fill:url(#SVGID_216_);}
	.st298{opacity:0.4;fill:url(#SVGID_217_);}
	.st299{fill:url(#SVGID_218_);}
	.st300{opacity:0.8;fill:url(#SVGID_219_);}
	.st301{opacity:0.4;fill:url(#SVGID_220_);}
	.st302{fill:url(#SVGID_221_);}
	.st303{opacity:0.8;fill:url(#SVGID_222_);}
	.st304{opacity:0.2;fill:url(#SVGID_223_);}
	.st305{opacity:0.6;fill:url(#SVGID_224_);}
	.st306{opacity:0.3;fill:url(#SVGID_225_);}
	.st307{fill:url(#SVGID_226_);}
	.st308{opacity:0.4;fill:url(#SVGID_227_);}
	.st309{opacity:0.3;fill:url(#SVGID_228_);}
	.st310{opacity:0.5;fill:url(#SVGID_229_);}
	.st311{fill:url(#SVGID_230_);}
	.st312{opacity:0.8;fill:url(#SVGID_231_);}
	.st313{opacity:0.4;fill:url(#SVGID_232_);}
	.st314{opacity:0.5;fill:url(#SVGID_233_);}
	.st315{fill:url(#SVGID_234_);}
	.st316{fill:url(#SVGID_235_);}
	.st317{fill:url(#SVGID_236_);}
	.st318{opacity:0.7;fill:url(#SVGID_237_);}
	.st319{opacity:0.8;fill:url(#SVGID_238_);}
	.st320{opacity:0.3;fill:url(#SVGID_239_);}
	.st321{opacity:0.5;fill:url(#SVGID_240_);}
	.st322{opacity:0.3;fill:url(#SVGID_241_);}
	.st323{fill:url(#SVGID_242_);}
	.st324{opacity:0.4;fill:url(#SVGID_243_);}
	.st325{fill:url(#SVGID_244_);}
	.st326{opacity:0.8;fill:url(#SVGID_245_);}
	.st327{opacity:0.4;fill:url(#SVGID_246_);}
	.st328{fill:url(#SVGID_247_);}
	.st329{opacity:0.8;fill:url(#SVGID_248_);}
	.st330{opacity:0.2;fill:url(#SVGID_249_);}
	.st331{opacity:0.6;fill:url(#SVGID_250_);}
	.st332{opacity:0.3;fill:url(#SVGID_251_);}
	.st333{fill:url(#SVGID_252_);}
	.st334{opacity:0.4;fill:url(#SVGID_253_);}
	.st335{opacity:0.3;fill:url(#SVGID_254_);}
	.st336{opacity:0.5;fill:url(#SVGID_255_);}
	.st337{fill:url(#SVGID_256_);}
	.st338{opacity:0.8;fill:url(#SVGID_257_);}
	.st339{opacity:0.4;fill:url(#SVGID_258_);}
	.st340{opacity:0.5;fill:url(#SVGID_259_);}
	.st341{fill:url(#SVGID_260_);}
	.st342{fill:url(#SVGID_261_);}
	.st343{fill:url(#SVGID_262_);}
	.st344{opacity:0.7;fill:url(#SVGID_263_);}
	.st345{opacity:0.8;fill:url(#SVGID_264_);}
	.st346{opacity:0.3;fill:url(#SVGID_265_);}
	.st347{opacity:0.5;fill:url(#SVGID_266_);}
	.st348{opacity:0.3;fill:url(#SVGID_267_);}
	.st349{fill:url(#SVGID_268_);}
	.st350{opacity:0.4;fill:url(#SVGID_269_);}
	.st351{fill:url(#SVGID_270_);}
	.st352{opacity:0.8;fill:url(#SVGID_271_);}
	.st353{opacity:0.4;fill:url(#SVGID_272_);}
	.st354{fill:url(#SVGID_273_);}
	.st355{opacity:0.8;fill:url(#SVGID_274_);}
	.st356{opacity:0.2;fill:url(#SVGID_275_);}
	.st357{opacity:0.6;fill:url(#SVGID_276_);}
	.st358{opacity:0.3;fill:url(#SVGID_277_);}
	.st359{fill:url(#SVGID_278_);}
	.st360{opacity:0.4;fill:url(#SVGID_279_);}
	.st361{opacity:0.3;fill:url(#SVGID_280_);}
	.st362{opacity:0.5;fill:url(#SVGID_281_);}
	.st363{fill:url(#SVGID_282_);}
	.st364{opacity:0.8;fill:url(#SVGID_283_);}
	.st365{opacity:0.4;fill:url(#SVGID_284_);}
	.st366{opacity:0.5;fill:url(#SVGID_285_);}
	.st367{fill:url(#SVGID_286_);}
	.st368{opacity:0.4;fill:url(#SVGID_287_);}
	.st369{fill:url(#SVGID_288_);}
	.st370{opacity:0.8;fill:url(#SVGID_289_);}
	.st371{opacity:0.4;fill:url(#SVGID_290_);}
	.st372{fill:url(#SVGID_291_);}
	.st373{opacity:0.8;fill:url(#SVGID_292_);}
	.st374{opacity:0.2;fill:url(#SVGID_293_);}
	.st375{opacity:0.6;fill:url(#SVGID_294_);}
	.st376{opacity:0.3;fill:url(#SVGID_295_);}
	.st377{fill:url(#SVGID_296_);}
	.st378{opacity:0.4;fill:url(#SVGID_297_);}
	.st379{opacity:0.3;fill:url(#SVGID_298_);}
</style>
<g>
	<defs>
		<rect id="SVGID_1_" x="-257703584" y="-257699136" width="515396064" height="515396064"/>
	</defs>
	<clipPath id="SVGID_2_">
		<use xlink:href="#SVGID_1_"  style="overflow:visible;"/>
	</clipPath>
</g>
<g>
	<rect x="107.72" y="117.68" class="st235" width="98.51" height="47.48"/>
	<g>
		<path d="M108.65,149.04l4.7-0.72c0.15,1.51,0.55,2.67,1.21,3.47c0.66,0.8,1.45,1.2,2.39,1.2c1,0,1.85-0.48,2.53-1.44
			c0.69-0.96,1.03-2.25,1.03-3.88c0-1.54-0.33-2.76-0.99-3.66c-0.66-0.9-1.46-1.35-2.4-1.35c-0.62,0-1.37,0.15-2.23,0.46l0.54-4.99
			c1.31,0.04,2.32-0.32,3.01-1.08c0.69-0.76,1.04-1.78,1.04-3.04c0-1.08-0.25-1.93-0.76-2.57c-0.51-0.64-1.18-0.96-2.02-0.96
			c-0.83,0-1.54,0.36-2.13,1.09c-0.59,0.73-0.94,1.79-1.07,3.18l-4.48-0.96c0.31-1.93,0.78-3.48,1.41-4.63
			c0.63-1.16,1.5-2.06,2.63-2.72s2.38-0.99,3.78-0.99c2.39,0,4.3,0.96,5.74,2.88c1.19,1.57,1.78,3.34,1.78,5.32
			c0,2.8-1.22,5.04-3.65,6.71c1.45,0.39,2.61,1.27,3.48,2.64c0.87,1.37,1.3,3.01,1.3,4.95c0,2.8-0.81,5.19-2.44,7.17
			s-3.65,2.96-6.07,2.96c-2.29,0-4.19-0.83-5.7-2.5C109.76,153.9,108.89,151.73,108.65,149.04z"/>
		<path d="M128.57,149.3l4.84-0.63c0.14,1.38,0.55,2.47,1.23,3.28s1.46,1.21,2.35,1.21c1.01,0,1.87-0.52,2.58-1.56
			c0.7-1.04,1.05-2.6,1.05-4.7c0-1.96-0.35-3.43-1.05-4.41c-0.7-0.98-1.6-1.47-2.72-1.47c-1.39,0-2.64,0.78-3.75,2.33l-3.94-0.72
			l2.49-16.63h12.84v5.73h-9.16l-0.76,5.43c1.08-0.68,2.19-1.02,3.32-1.02c2.15,0,3.98,0.99,5.48,2.96s2.25,4.54,2.25,7.69
			c0,2.63-0.6,4.98-1.81,7.04c-1.65,2.82-3.93,4.23-6.86,4.23c-2.34,0-4.25-0.79-5.72-2.38C129.74,154.1,128.86,151.97,128.57,149.3
			z"/>
		<path d="M156.4,125.44c2.45,0,4.37,1.1,5.76,3.31c1.65,2.62,2.47,6.95,2.47,13.01c0,6.04-0.83,10.39-2.49,13.03
			c-1.37,2.18-3.28,3.27-5.74,3.27c-2.47,0-4.45-1.19-5.96-3.58s-2.26-6.65-2.26-12.78c0-6.01,0.83-10.34,2.49-12.99
			C152.03,126.53,153.95,125.44,156.4,125.44z M156.4,130.52c-0.59,0-1.11,0.24-1.57,0.71c-0.46,0.47-0.82,1.32-1.07,2.54
			c-0.33,1.58-0.5,4.25-0.5,8s0.15,6.32,0.45,7.73c0.3,1.4,0.68,2.34,1.13,2.8s0.98,0.7,1.56,0.7s1.11-0.24,1.57-0.71
			c0.46-0.47,0.82-1.32,1.07-2.54c0.33-1.57,0.5-4.23,0.5-7.98s-0.15-6.32-0.45-7.73s-0.68-2.34-1.13-2.81
			C157.51,130.75,156.99,130.52,156.4,130.52z"/>
		<path d="M168.55,134.37h4.48v3.16c1.6-2.46,3.51-3.68,5.72-3.68c1.18,0,2.2,0.31,3.06,0.92c0.86,0.61,1.57,1.53,2.13,2.77
			c0.81-1.23,1.68-2.16,2.61-2.77c0.93-0.61,1.93-0.92,2.99-0.92c1.35,0,2.49,0.35,3.42,1.04c0.93,0.69,1.63,1.7,2.09,3.04
			c0.33,0.99,0.5,2.59,0.5,4.79v14.8h-4.86v-13.23c0-2.3-0.17-3.78-0.5-4.45c-0.45-0.87-1.14-1.31-2.07-1.31
			c-0.68,0-1.32,0.26-1.92,0.78c-0.6,0.52-1.03,1.29-1.3,2.3c-0.27,1.01-0.4,2.6-0.4,4.78v11.11h-4.86v-12.68
			c0-2.25-0.09-3.7-0.26-4.36c-0.17-0.65-0.44-1.14-0.8-1.46s-0.86-0.48-1.48-0.48c-0.75,0-1.42,0.25-2.02,0.76
			c-0.6,0.51-1.03,1.24-1.29,2.2c-0.26,0.96-0.39,2.55-0.39,4.77v11.24h-4.86V134.37z"/>
	</g>
	<g>
		<polygon class="st1" points="39.5,168.49 49.94,158.12 39.9,158.09 28.05,169.88 39.84,181.73 49.87,181.76 39.5,171.34 		"/>
		<polygon class="st1" points="43.02,173.41 43.02,166.43 42.89,166.43 		"/>
		<polygon class="st1" points="101.67,166.59 94.76,166.57 94.75,170.09 94.75,166.57 91.3,166.56 91.29,173.54 101.64,173.56 		"/>
		<polygon class="st1" points="125.89,166.66 125.76,166.66 125.89,173.63 		"/>
		<polygon class="st1" points="84.46,166.54 84.32,166.54 84.46,173.52 		"/>
		<polygon class="st1" points="122.38,166.65 112.03,166.62 112,173.59 115.46,173.6 115.47,170.19 115.46,173.6 122.37,173.62 		
			"/>
		<polygon class="st1" points="60.22,166.48 53.33,166.46 53.33,166.46 49.87,166.45 49.85,173.42 53.3,173.43 53.31,169.95 
			53.3,173.43 60.21,173.45 		"/>
		<polygon class="st1" points="80.95,166.54 74.05,166.52 70.59,166.51 70.56,173.48 74.02,173.49 80.92,173.51 		"/>
		<polygon class="st1" points="143.1,166.7 132.75,166.67 132.72,173.65 136.17,173.66 136.18,170.17 136.18,173.66 143.08,173.67 
					"/>
		<polygon class="st1" points="250.2,173.96 250.2,166.99 250.07,166.99 		"/>
		<polygon class="st1" points="63.74,166.49 63.6,166.49 63.74,173.46 		"/>
		<polygon class="st1" points="105.26,166.6 105.13,166.6 105.08,173.57 		"/>
		<polygon class="st1" points="225.97,166.92 215.62,166.89 215.59,173.87 219.04,173.88 219.06,170.46 219.05,173.88 
			225.95,173.89 		"/>
		<polygon class="st1" points="208.86,166.88 208.72,166.87 208.68,173.85 		"/>
		<polygon class="st1" points="229.49,166.93 229.35,166.93 229.49,173.9 		"/>
		<polygon class="st1" points="205.26,166.87 198.36,166.85 198.34,170.3 198.35,166.85 194.9,166.84 194.88,173.81 205.23,173.84 
					"/>
		<polygon class="st1" points="246.69,166.98 236.34,166.95 236.31,173.92 239.76,173.93 239.78,170.45 239.77,173.93 
			246.68,173.95 		"/>
		<polygon class="st1" points="184.54,166.81 177.63,166.79 174.18,166.78 174.15,173.75 177.61,173.76 184.51,173.79 		"/>
		<polygon class="st1" points="188.05,166.82 187.91,166.82 188.05,173.79 		"/>
		<polygon class="st1" points="167.33,166.76 167.19,166.76 167.33,173.74 		"/>
		<polygon class="st1" points="163.82,166.75 153.47,166.73 153.44,173.7 156.89,173.71 156.91,170.22 156.9,173.71 163.8,173.73 		
			"/>
		<polygon class="st1" points="146.62,166.71 146.47,166.71 146.62,173.68 		"/>
		<path class="st1" d="M271.95,170.53l-11.79-11.85l-10.04-0.03l8.32,8.36l-1.39,0l-0.03,6.97l1.4,0l-8.36,8.31l10.04,0.03
			L271.95,170.53z M260.5,169.07L260.5,169.07l0,2.85l-0.01,0.01L260.5,169.07z"/>
	</g>
</g>
</svg>
