<?xml version="1.0" encoding="UTF-8"?>
<!DOCTYPE svg PUBLIC "-//W3C//DTD SVG 1.1//EN" "http://www.w3.org/Graphics/SVG/1.1/DTD/svg11.dtd">
<!-- Creator: CorelDRAW 2020 (64-Bit) -->
<svg xmlns="http://www.w3.org/2000/svg" xml:space="preserve" width="3.93701in" height="3.93701in" version="1.1" style="shape-rendering:geometricPrecision; text-rendering:geometricPrecision; image-rendering:optimizeQuality; fill-rule:evenodd; clip-rule:evenodd"
viewBox="0 0 3934.02 3934.02"
 xmlns:xlink="http://www.w3.org/1999/xlink"
 xmlns:xodm="http://www.corel.com/coreldraw/odm/2003">
 <defs>
  <style type="text/css">
   <![CDATA[
    .fil0 {fill:none}
    .fil1 {fill:#1C1B17}
   ]]>
  </style>
 </defs>
 <g id="Layer_x0020_1">
  <metadata id="CorelCorpID_0Corel-Layer"/>
  <rect class="fil0" width="3934.02" height="3934.02"/>
  <path class="fil1" d="M818.7 1735.05c88.68,35.41 194.94,48.64 288.37,48.64 96.93,0 205.27,-14.15 295.33,-51.52 33.73,-14.02 81.46,-38.61 104.38,-70.45l0 -105.39 126.78 0c0,82.91 16.11,131.3 91.44,171.15 76.92,40.6 174.84,56.2 260.96,56.2 82.48,0 174.1,-14.15 249,-50.09 30.36,-14.57 67.63,-37.76 86.7,-67.54l0 -109.72 126.78 0 0 34.81 12.95 0.3 -0.92 38.54c0.09,43.22 63.07,80.56 96.19,96.49 86.6,41.7 195.89,57.21 291.2,57.21 91.42,0 193.53,-14.17 277.83,-51.06 3.62,-1.59 7.24,-3.23 10.81,-4.91l0 -171.39 126.78 0 0 52.67 102.21 19.94 -6.75 34.03c-11.32,57.05 -49.79,102.49 -95.46,136.3l0 578.42 -126.78 0 0 -513.25c-91.21,32.52 -193.68,46.03 -288.64,46.03 -114.68,0 -242.13,-19.8 -346.2,-69.89 -18.17,-8.76 -36.12,-18.72 -53.23,-30.04l0 567.15 -126.78 0 0 -546.88c-10.47,6.06 -21.16,11.69 -32.02,16.9 -92.16,44.26 -202.04,62.77 -303.67,62.77 -107,0 -224.68,-20.59 -320.04,-70.95 -11,-5.81 -21.83,-12.1 -32.37,-18.9l0 557.07 -126.78 0 0 -555.51c-18.07,10.17 -36.86,19.11 -55.78,26.95 -105.64,43.84 -230.1,61.34 -343.92,61.34 -94.81,0 -196.21,-12.08 -288.37,-41.22l0 508.44 -126.78 0 0 -564.68c-65.4,-40.5 -123.41,-101.77 -123.39,-184.47l1.77 -40.27 121.62 3.32 0 -35.24 126.78 0 0 178.71z"/>
 </g>
</svg>
