<?xml version="1.0" encoding="utf-8"?>
<!-- Generator: Adobe Illustrator 25.1.0, SVG Export Plug-In . SVG Version: 6.00 Build 0)  -->
<svg version="1.1"  width="16px" height ="16px" id="Layer_1" xmlns="http://www.w3.org/2000/svg" xmlns:xlink="http://www.w3.org/1999/xlink" x="0px" y="0px"
	 viewBox="0 0 300 300"   style="enable-background:new 0 0 300 300;" xml:space="preserve">
<style type="text/css">
	.st0{clip-path:url(#SVGID_2_);}
	.st1{fill:#231F20;}
	.st2{fill:#FF0000;}
	.st3{fill:#FB8538;}
	.st4{fill:#91D050;}
	.st5{fill:#FF8F2A;}
	.st6{fill:#E22024;}
	.st7{fill:#FF2500;}
	.st8{fill:#FFFFFF;}
	.st9{fill:#006FC0;}
	.st10{fill:#FFFF01;}
	.st11{fill:#231F20;stroke:#231F20;stroke-width:0.25;stroke-miterlimit:10;}
	.st12{fill:#FF29FF;}
	.st13{opacity:0.24;fill:none;stroke:#231F20;stroke-width:0.25;stroke-miterlimit:10;}
	.st14{fill:#D0CECE;}
	.st15{fill:#02A0E3;}
	.st16{fill:#58585A;}
	.st17{fill:#AEB1B3;}
	.st18{fill:#7F7F7F;}
	.st19{fill:#888888;}
	.st20{fill:none;stroke:#231F20;stroke-miterlimit:10;}
	.st21{fill:#C46321;}
	.st22{fill:#231F20;stroke:#888888;stroke-width:0.25;stroke-miterlimit:10;}
	.st23{fill:#484949;}
	.st24{fill:#B4B6B6;}
	.st25{fill:none;stroke:#231F20;stroke-width:0.25;stroke-miterlimit:10;}
	.st26{clip-path:url(#SVGID_6_);}
	.st27{fill:#0A0A0A;}
	.st28{fill:#FDFDFD;}
	.st29{fill:none;}
	.st30{fill:#040404;stroke:#FFFFFF;stroke-width:0.25;stroke-miterlimit:10;}
	.st31{clip-path:url(#SVGID_8_);}
	.st32{fill:#161616;}
	.st33{fill:#323232;}
	.st34{fill:#C1C1C1;}
	.st35{fill:#AEB1B3;stroke:#161616;stroke-width:0.25;stroke-miterlimit:10;}
	.st36{fill:#0D0D0D;}
	.st37{fill:#FFFFFF;stroke:#161616;stroke-miterlimit:10;}
	.st38{fill:#6E6E6E;}
	.st39{fill:#D9D9D9;}
	.st40{fill:#161616;stroke:#161616;stroke-width:0.5;stroke-miterlimit:10;}
	.st41{fill:#888888;stroke:#58585A;stroke-width:0.25;stroke-miterlimit:10;}
	.st42{fill:#040404;stroke:#FFFFFF;stroke-width:0.5;stroke-miterlimit:10;}
</style>
<g>
	<defs>
		<rect id="SVGID_1_" x="-257690144" y="-257699136" width="515396064" height="515396064"/>
	</defs>
	<clipPath id="SVGID_2_">
		<use xlink:href="#SVGID_1_"  style="overflow:visible;"/>
	</clipPath>
</g>
<g>
	<path class="st1" d="M263.39,112.11v16.73c-0.01-0.01-0.02-0.01-0.02-0.02c-4.64-3.11-9.56-7.1-14.79-11.91l0.07-4.79l-2.8-0.04
		l-0.05,3.91c-1.01,1.19-2.03,2.41-3.07,3.68c-6.81,8.28-14.52,17.66-26.37,18.47c-6.44,0.43-13.63-1.76-21.65-6.47v-19.56h-4.53
		v16.69c-3.72-2.53-7.61-5.58-11.69-9.16l0.1-7.51l-2.8-0.04l-0.05,3.46c-0.48,0.56-0.98,1.17-1.47,1.75l-0.24,0.26
		c0,0,0.01,0.01,0.01,0.01c-0.58,0.7-1.16,1.37-1.75,2.09c-6.81,8.28-14.52,17.66-26.37,18.47c-6.44,0.43-13.63-1.76-21.65-6.47
		v-19.56h-4.53v16.69c-3.93-2.68-8.06-5.94-12.4-9.79l0.09-6.88l-2.8-0.04l-0.05,3.72l-0.33-0.28c-1.14,1.32-2.29,2.72-3.47,4.15
		c-6.81,8.28-14.52,17.66-26.37,18.47c-6.44,0.43-13.63-1.76-21.65-6.47v-19.56h-4.53v16.69c-4.06-2.76-8.32-6.14-12.81-10.15
		l0.07-5.04l-1.4-0.02l-0.05,3.84c-0.34-0.31-0.66-0.57-1-0.88l-0.95,1.03c0.66,0.61,1.28,1.12,1.93,1.71l-0.08,5.81l1.4,0.02
		l0.06-4.61c4.48,3.95,8.77,7.32,12.84,10.02v57.38h4.53v-54.59c7.28,4.16,13.92,6.28,19.98,6.28c0.59,0,1.18-0.02,1.77-0.06
		c12.45-0.84,20.37-10.47,27.36-18.97c0.73-0.89,1.45-1.74,2.17-2.6c0.17,0.16,0.33,0.29,0.51,0.45l-0.09,6.67l2.8,0.04l0.06-4.25
		c4.33,3.79,8.48,7.04,12.43,9.66v57.38h4.53v-54.59c7.28,4.16,13.92,6.28,19.98,6.28c0.59,0,1.18-0.02,1.77-0.06
		c12.45-0.84,20.37-10.47,27.36-18.97c0.58-0.7,1.14-1.37,1.71-2.05c0.2,0.18,0.4,0.35,0.6,0.53l-0.08,6.04l2.8,0.04l0.05-3.63
		c4.08,3.52,7.99,6.55,11.72,9.03v57.38h4.53v-54.59c7.28,4.16,13.92,6.28,19.98,6.28c0.59,0,1.18-0.02,1.77-0.06
		c12.45-0.84,20.37-10.47,27.36-18.97c0.66-0.81,1.31-1.57,1.96-2.35l-0.09,6.87l2.8,0.04l0.09-6.37
		c5.22,4.72,10.17,8.66,14.81,11.76c0.01,0.01,0.02,0.01,0.02,0.02v57.38h4.53v-75.79H263.39z"/>
</g>
</svg>
