<?xml version="1.0" encoding="utf-8"?>
<!-- Generator: Adobe Illustrator 25.1.0, SVG Export Plug-In . SVG Version: 6.00 Build 0)  -->
<svg version="1.1"  width="16px" height ="16px" id="Layer_1" xmlns="http://www.w3.org/2000/svg" xmlns:xlink="http://www.w3.org/1999/xlink" x="0px" y="0px"
	 viewBox="0 0 300 300"   style="enable-background:new 0 0 300 300;" xml:space="preserve">
<style type="text/css">
	.st0{clip-path:url(#SVGID_2_);}
	.st1{fill:#231F20;}
	.st2{fill:#FF0000;}
	.st3{fill:#FB8538;}
	.st4{fill:#91D050;}
	.st5{fill:#FF8F2A;}
	.st6{fill:#E22024;}
	.st7{fill:#FF2500;}
	.st8{fill:#FFFFFF;}
	.st9{fill:#006FC0;}
	.st10{fill:#FFFF01;}
	.st11{fill:#231F20;stroke:#231F20;stroke-width:0.25;stroke-miterlimit:10;}
	.st12{fill:#FF29FF;}
	.st13{opacity:0.24;fill:none;stroke:#231F20;stroke-width:0.25;stroke-miterlimit:10;}
	.st14{fill:#D0CECE;}
	.st15{fill:#02A0E3;}
	.st16{fill:#58585A;}
	.st17{fill:#AEB1B3;}
	.st18{fill:#7F7F7F;}
	.st19{fill:#888888;}
	.st20{fill:none;stroke:#231F20;stroke-miterlimit:10;}
	.st21{fill:#C46321;}
	.st22{fill:#231F20;stroke:#888888;stroke-width:0.25;stroke-miterlimit:10;}
	.st23{fill:#484949;}
	.st24{fill:#B4B6B6;}
	.st25{fill:none;stroke:#231F20;stroke-width:0.25;stroke-miterlimit:10;}
	.st26{clip-path:url(#SVGID_6_);}
	.st27{fill:#0A0A0A;}
	.st28{fill:#FDFDFD;}
	.st29{fill:none;}
	.st30{fill:#040404;stroke:#FFFFFF;stroke-width:0.25;stroke-miterlimit:10;}
	.st31{clip-path:url(#SVGID_8_);}
	.st32{fill:#161616;}
	.st33{fill:#323232;}
	.st34{fill:#C1C1C1;}
	.st35{fill:#AEB1B3;stroke:#161616;stroke-width:0.25;stroke-miterlimit:10;}
	.st36{fill:#0D0D0D;}
	.st37{fill:#FFFFFF;stroke:#161616;stroke-miterlimit:10;}
	.st38{fill:#6E6E6E;}
	.st39{fill:#D9D9D9;}
	.st40{fill:#161616;stroke:#161616;stroke-width:0.5;stroke-miterlimit:10;}
	.st41{fill:#888888;stroke:#58585A;stroke-width:0.25;stroke-miterlimit:10;}
	.st42{fill:#040404;stroke:#FFFFFF;stroke-width:0.5;stroke-miterlimit:10;}
</style>
<g>
	<defs>
		<rect id="SVGID_1_" x="-257702512" y="-257698816" width="515396064" height="515396064"/>
	</defs>
	<clipPath id="SVGID_2_">
		<use xlink:href="#SVGID_1_"  style="overflow:visible;"/>
	</clipPath>
</g>
<path class="st1" d="M267.17,130.73v0.26h-24.59v-0.26h-3.73v0.26h-26.97v-0.26h-3.73v0.26h-26.73v-0.26h-3.73v0.26h-25.06v-0.26
	h-3.73v0.26h-26.49v-0.26h-3.73v0.26H93.27v-0.26h-3.73v0.26H62.46v-0.26h-3.73v0.26h-25.9v-0.26h-3.73v38.55h3.73v-13.11h25.9
	v13.11h3.73v-13.11h27.08v13.11h3.73v-13.11h25.42v13.11h3.73v-13.11h26.49v13.11h3.73v-13.11h25.06v13.11h3.73v-13.11h26.73v13.11
	h3.73v-13.11h26.97v13.11h3.73v-13.11h24.59v13.11h3.73v-38.55H267.17z M267.17,132.85v9.8h-24.59v-9.8H267.17z M238.85,132.85v9.8
	h-26.97v-9.8H238.85z M208.16,132.85v9.8h-26.73v-9.8H208.16z M177.7,132.85v9.8h-25.06v-9.8H177.7z M148.91,132.85v9.8h-26.49v-9.8
	H148.91z M118.69,132.85v9.8H93.27v-9.8H118.69z M89.54,132.85v9.8H62.46v-9.8H89.54z M58.73,132.85v9.8h-25.9v-9.8H58.73z
	 M32.83,154.3v-9.8h25.9v9.8H32.83z M62.46,154.3v-9.8h27.08v9.8H62.46z M93.27,154.3v-9.8h25.42v9.8H93.27z M122.42,154.3v-9.8
	h26.49v9.8H122.42z M152.64,154.3v-9.8h25.06v9.8H152.64z M181.43,154.3v-9.8h26.73v9.8H181.43z M211.88,154.3v-9.8h26.97v9.8
	H211.88z M242.58,154.3v-9.8h24.59v9.8H242.58z"/>
</svg>
