<?xml version="1.0" encoding="UTF-8"?>
<!DOCTYPE svg PUBLIC "-//W3C//DTD SVG 1.1//EN" "http://www.w3.org/Graphics/SVG/1.1/DTD/svg11.dtd">
<!-- Creator: CorelDRAW 2020 (64-Bit) -->
<svg xmlns="http://www.w3.org/2000/svg" xml:space="preserve" width="3.93701in" height="3.93701in" version="1.1" style="shape-rendering:geometricPrecision; text-rendering:geometricPrecision; image-rendering:optimizeQuality; fill-rule:evenodd; clip-rule:evenodd"
viewBox="0 0 3934.02 3934.02"
 xmlns:xlink="http://www.w3.org/1999/xlink"
 xmlns:xodm="http://www.corel.com/coreldraw/odm/2003">
 <defs>
  <style type="text/css">
   <![CDATA[
    .fil0 {fill:none}
    .fil1 {fill:black}
   ]]>
  </style>
 </defs>
 <g id="Layer_x0020_1">
  <metadata id="CorelCorpID_0Corel-Layer"/>
  <rect class="fil0" width="3934.02" height="3934.02"/>
  <path class="fil1" d="M416.19 2561.03l133.84 0 0 -10.36 0 -245.67 189.55 0c-6.18,-5.45 -12.18,-11.09 -18,-16.91 -71.39,-71.39 -115.57,-170.08 -115.57,-279.03l0 -56.65 394.6 1.42 394.6 -0.11 0 55.34c0,108.67 -44.16,207.31 -115.57,278.8l-0.22 0.22c-5.82,5.82 -11.84,11.46 -18.02,16.91l189.82 0 0 256.03 365.29 0 0 -763.08c-95.36,-26.32 -180.61,-77.04 -248.57,-144.99 -102.12,-102.12 -165.29,-243.23 -165.29,-399.07l0 -57.29 564.36 2.06 564.36 -0.11 0 55.34c0,155.84 -63.18,296.96 -165.29,399.07 -67.96,67.96 -153.2,118.67 -248.57,144.99l0 763.08 365.29 0 0 -10.36 0 -245.67 189.55 0c-6.17,-5.45 -12.17,-11.09 -17.99,-16.91 -71.39,-71.39 -115.57,-170.08 -115.57,-279.03l0 -56.65 394.6 1.42 394.6 -0.11 0 55.34c0,108.67 -44.16,207.31 -115.57,278.8l-0.22 0.22c-5.82,5.82 -11.85,11.46 -18.02,16.91l189.82 0 0 256.03 133.81 0 0 176.38 -3101.61 0 0 -176.38zm1590.64 -744.17c-13.15,0.91 -26.43,1.39 -39.82,1.39 -13.39,0 -26.67,-0.48 -39.82,-1.39l0 678.47 79.65 0 0 -678.47zm-89.87 -112.03l100.1 0c105.28,-11.57 199.76,-59.15 270.75,-130.14 69.79,-69.79 116.97,-162.3 129.52,-265.46l-450.32 0 -450.56 -1.95c12.18,103.95 59.52,197.17 129.76,267.41 70.99,70.99 165.47,118.56 270.75,130.14zm-1256.25 710.86l0 79.64 679.83 0 0 -79.64 -679.83 0zm618.46 -351.28l-278.56 0 -278.76 -1.28c10.96,56.74 38.76,107.45 78.01,146.7 51.38,51.38 122.37,83.17 200.75,83.17 78.54,0 149.55,-31.72 200.75,-82.94l0.22 -0.22c38.87,-38.85 66.52,-89.12 77.59,-145.41zm1314.32 351.28l0 79.64 679.83 0 0 -79.64 -679.83 0zm618.46 -351.28l-278.56 0 -278.76 -1.28c10.96,56.74 38.76,107.45 78.01,146.7 51.38,51.38 122.37,83.17 200.75,83.17 78.54,0 149.56,-31.72 200.76,-82.94l0.22 -0.22c38.87,-38.85 66.52,-89.12 77.59,-145.41z"/>
 </g>
</svg>
