<?xml version="1.0" encoding="utf-8"?>
<!-- Generator: Adobe Illustrator 25.1.0, SVG Export Plug-In . SVG Version: 6.00 Build 0)  -->
<svg version="1.1"  width="16px" height ="16px" id="Layer_1" xmlns="http://www.w3.org/2000/svg" xmlns:xlink="http://www.w3.org/1999/xlink" x="0px" y="0px"
	 viewBox="0 0 300 300"   style="enable-background:new 0 0 300 300;" xml:space="preserve">
<style type="text/css">
	.st0{clip-path:url(#SVGID_2_);}
	.st1{fill:#231F20;}
	.st2{fill:#FF0000;}
	.st3{fill:#FB8538;}
	.st4{fill:#91D050;}
	.st5{fill:#FF8F2A;}
	.st6{fill:#E22024;}
	.st7{fill:#FF2500;}
	.st8{fill:#FFFFFF;}
	.st9{fill:#006FC0;}
	.st10{fill:#FFFF01;}
	.st11{fill:#231F20;stroke:#231F20;stroke-width:0.25;stroke-miterlimit:10;}
	.st12{fill:#FF29FF;}
	.st13{opacity:0.24;fill:none;stroke:#231F20;stroke-width:0.25;stroke-miterlimit:10;}
	.st14{fill:#D0CECE;}
	.st15{fill:#02A0E3;}
	.st16{fill:#58585A;}
	.st17{fill:#AEB1B3;}
	.st18{fill:#7F7F7F;}
	.st19{fill:#888888;}
	.st20{fill:none;stroke:#231F20;stroke-miterlimit:10;}
	.st21{fill:#C46321;}
	.st22{fill:#231F20;stroke:#888888;stroke-width:0.25;stroke-miterlimit:10;}
	.st23{fill:#484949;}
	.st24{fill:#B4B6B6;}
	.st25{fill:none;stroke:#231F20;stroke-width:0.25;stroke-miterlimit:10;}
	.st26{clip-path:url(#SVGID_6_);}
	.st27{fill:#0A0A0A;}
	.st28{fill:#FDFDFD;}
	.st29{fill:none;}
	.st30{fill:#040404;stroke:#FFFFFF;stroke-width:0.25;stroke-miterlimit:10;}
	.st31{clip-path:url(#SVGID_8_);}
	.st32{fill:#161616;}
	.st33{fill:#323232;}
	.st34{fill:#C1C1C1;}
	.st35{fill:#AEB1B3;stroke:#161616;stroke-width:0.25;stroke-miterlimit:10;}
	.st36{fill:#0D0D0D;}
	.st37{fill:#FFFFFF;stroke:#161616;stroke-miterlimit:10;}
	.st38{fill:#6E6E6E;}
	.st39{fill:#D9D9D9;}
	.st40{fill:#161616;stroke:#161616;stroke-width:0.5;stroke-miterlimit:10;}
	.st41{fill:#888888;stroke:#58585A;stroke-width:0.25;stroke-miterlimit:10;}
	.st42{fill:#040404;stroke:#FFFFFF;stroke-width:0.5;stroke-miterlimit:10;}
</style>
<g>
	<defs>
		<rect id="SVGID_1_" x="-257690464" y="-257699136" width="515396064" height="515396064"/>
	</defs>
	<clipPath id="SVGID_2_">
		<use xlink:href="#SVGID_1_"  style="overflow:visible;"/>
	</clipPath>
</g>
<g>
	<path class="st1" d="M211.4,251.4l1.6-0.42c-10.23-38.78-30.1-76.08-61.28-115.36c6.44-8.05,13.27-16.18,20.71-24.44v9.37v3.71
		v34.72l-0.31,8.11l3.3,3.22l0-11.33h34.05l-34.05-35.32v-4.73h34.05l-33.64-34.9h33.63l-34.04-35.44v-0.9h-0.86h-49.1h-0.89v0.87
		L88.21,84.03h35.9l-35.91,34.9h36.38v4.7L88.2,158.99h36.38l0,9.37l2.97-2.93l0.03-6.45v-34.72v-3.55v-9.04
		c7.28,8.09,13.98,16.05,20.31,23.94C116.93,174.71,97.19,211.86,87,250.48l1.45,0.38l0.4,1.44c9.1-2.56,28.65-11.25,61.15-27.18
		c32.5,15.94,52.04,24.62,61.15,27.18L211.4,251.4z M175.42,155.99v-28.01l27,28.01H175.42z M124.58,155.99H95.59l28.99-28.17
		V155.99z M150.31,179.7c14.05,9.91,29.57,19.7,39.49,22.21c-12.98,6.57-26.67,13.44-39.79,19.89c-13-6.39-26.53-13.18-39.4-19.69
		C124.81,196.62,138.11,188.33,150.31,179.7z M109.92,199.14c5.76-11.37,12.49-22.76,20.18-34.25c4.8,3.61,10.93,8.18,17.61,12.95
		C136.02,186.08,123.35,193.89,109.92,199.14z M152.88,177.83c3.29-2.36,6.58-4.74,9.71-7.04c2.51-1.84,4.93-3.61,7.34-5.35
		c7.47,11.18,14.09,22.27,19.74,33.34C180.49,196.15,166.06,187.08,152.88,177.83z M127.57,53.47l20.35,25.46l-20.35,25.13V53.47z
		 M129.19,50.7h41.59l-20.93,25.85L129.19,50.7z M172.43,53.43v51.35l-20.65-25.84L172.43,53.43z M175.42,115.94V87.93l27,28.01
		H175.42z M202.43,81.04h-27V52.92L202.43,81.04z M124.58,52.75v28.28h-29L124.58,52.75z M95.59,115.94l28.99-28.17v28.17H95.59z
		 M128.29,107.95l21.55-26.62l21.35,26.72c-7.7,8.51-14.74,16.88-21.39,25.17C143.1,124.89,136.04,116.5,128.29,107.95z
		 M168.3,162.92c-2.46,1.78-4.93,3.57-7.48,5.45c-3.39,2.49-6.93,5.06-10.51,7.62c-7.19-5.11-13.74-9.99-18.56-13.62
		c5.47-8.04,11.6-16.17,18.06-24.35C156.43,146.39,162.71,154.7,168.3,162.92z M90.71,248.57c4.14-15,9.79-29.81,16.94-44.6
		c14.59,7.39,27.56,13.88,38.96,19.49C123.01,235.01,101.78,244.87,90.71,248.57z M192.15,204.07c7.15,14.75,12.81,29.5,16.96,44.45
		c-11.12-3.75-32.26-13.57-55.73-25.06C164.73,217.88,177.65,211.41,192.15,204.07z"/>
</g>
</svg>
