<?xml version="1.0" encoding="utf-8"?>
<!-- Generator: Adobe Illustrator 25.1.0, SVG Export Plug-In . SVG Version: 6.00 Build 0)  -->
<svg version="1.1"  width="16px" height ="16px" id="Layer_1" xmlns="http://www.w3.org/2000/svg" xmlns:xlink="http://www.w3.org/1999/xlink" x="0px" y="0px"
	 viewBox="0 0 300 300"   style="enable-background:new 0 0 300 300;" xml:space="preserve">
<style type="text/css">
	.st0{clip-path:url(#SVGID_2_);}
	.st1{fill:#231F20;}
	.st2{fill:#FF0000;}
	.st3{fill:#FB8538;}
	.st4{fill:#91D050;}
	.st5{fill:#FF8F2A;}
	.st6{fill:#E22024;}
	.st7{fill:#FF2500;}
	.st8{fill:#FFFFFF;}
	.st9{fill:#006FC0;}
	.st10{fill:#FFFF01;}
	.st11{fill:#231F20;stroke:#231F20;stroke-width:0.25;stroke-miterlimit:10;}
	.st12{fill:#FF29FF;}
	.st13{opacity:0.24;fill:none;stroke:#231F20;stroke-width:0.25;stroke-miterlimit:10;}
	.st14{fill:#D0CECE;}
	.st15{fill:#02A0E3;}
	.st16{fill:#58585A;}
	.st17{fill:#AEB1B3;}
	.st18{fill:#7F7F7F;}
	.st19{fill:#888888;}
	.st20{fill:none;stroke:#231F20;stroke-miterlimit:10;}
	.st21{fill:#C46321;}
	.st22{fill:#231F20;stroke:#888888;stroke-width:0.25;stroke-miterlimit:10;}
	.st23{fill:#484949;}
	.st24{fill:#B4B6B6;}
	.st25{fill:none;stroke:#231F20;stroke-width:0.25;stroke-miterlimit:10;}
	.st26{clip-path:url(#SVGID_6_);}
	.st27{fill:#0A0A0A;}
	.st28{fill:#FDFDFD;}
	.st29{fill:none;}
	.st30{fill:#040404;stroke:#FFFFFF;stroke-width:0.25;stroke-miterlimit:10;}
	.st31{clip-path:url(#SVGID_8_);}
	.st32{fill:#161616;}
	.st33{fill:#323232;}
	.st34{fill:#C1C1C1;}
	.st35{fill:#AEB1B3;stroke:#161616;stroke-width:0.25;stroke-miterlimit:10;}
	.st36{fill:#0D0D0D;}
	.st37{fill:#FFFFFF;stroke:#161616;stroke-miterlimit:10;}
	.st38{fill:#6E6E6E;}
	.st39{fill:#D9D9D9;}
	.st40{fill:#161616;stroke:#161616;stroke-width:0.5;stroke-miterlimit:10;}
	.st41{fill:#888888;stroke:#58585A;stroke-width:0.25;stroke-miterlimit:10;}
	.st42{fill:#040404;stroke:#FFFFFF;stroke-width:0.5;stroke-miterlimit:10;}
</style>
<g>
	<defs>
		<rect id="SVGID_1_" x="-257703792" y="-257698816" width="515396064" height="515396064"/>
	</defs>
	<clipPath id="SVGID_2_">
		<use xlink:href="#SVGID_1_"  style="overflow:visible;"/>
	</clipPath>
</g>
<g>
	<polygon class="st21" points="77.51,91.25 77.51,93.35 27.2,116.31 27.95,117.96 77.51,95.34 77.51,106.32 27.2,129.28 
		27.95,130.93 77.51,108.3 77.51,119.29 27.2,142.25 27.95,143.9 77.51,121.28 77.51,132.25 27.2,155.22 27.95,156.87 77.51,134.24 
		77.51,145.23 27.2,168.19 27.95,169.84 77.51,147.22 77.51,158.19 27.2,181.16 27.95,182.81 77.51,160.18 77.51,171.17 
		27.2,194.13 27.95,195.77 77.51,173.15 77.51,184.13 27.2,207.1 27.95,208.75 77.51,186.12 77.51,191.08 82.94,191.08 82.94,91.25 
			"/>
	<path class="st21" d="M271.62,119.05l1.18-1.37l-13.24-11.41c0.57,0,1.12-0.01,1.69-0.01l0.01-1.81
		c-66.67-0.25-112.31,6.85-124.97,19.47c-2.48,2.47-3.73,5.17-3.73,8.01c0,1.93,0.5,3.78,1.42,5.55l0,0.13l0.08,0
		c0.77,1.45,1.79,2.85,3.17,4.18c3.92,3.79,10.35,7.01,18.95,9.64l0.05,0.12l0.17-0.06c5.71,1.74,12.41,3.21,19.98,4.42l1.81,0.3
		c15.89,2.4,35.53,3.64,58.29,3.64c4.62,0,9.4-0.07,14.27-0.17l0.08,0.09l0.11-0.1c3.41-0.07,6.84-0.15,10.37-0.28l-0.06-1.81
		c-2.77,0.1-5.45,0.16-8.14,0.22l12.82-11.05l-1.18-1.37l-14.5,12.5c-4.99,0.1-9.82,0.14-14.53,0.14l17.53-12.76l-1.07-1.46
		l-19.52,14.2c-4.35-0.03-8.59-0.09-12.7-0.21l17.1-12.22l-1.05-1.47l-18.96,13.54l0.05,0.07c-6.23-0.21-12.13-0.55-17.74-0.98
		l21.92-12.66l-0.91-1.57l-23.89,13.8l0.12,0.22c-5.61-0.47-10.91-1.04-15.84-1.73l20.85-11.36l-0.86-1.59l-22.92,12.49
		c-6.98-1.07-13.23-2.35-18.64-3.87l25.81-9.4l-0.62-1.7l-28.09,10.23c-8.04-2.52-14.1-5.55-17.79-9.12
		c-0.98-0.94-1.72-1.93-2.35-2.93l37.15-0.89l-0.04-1.81l-38.05,0.91c-0.52-1.25-0.83-2.53-0.83-3.85c0-1.17,0.27-2.31,0.8-3.43
		l38.74,0.93l0.04-1.81l-37.49-0.9c0.38-0.51,0.62-1.03,1.11-1.52c3.35-3.34,9.2-6.26,17.17-8.77l-0.08,0.2l24.34,9.19l0.64-1.69
		l-22.41-8.46c4.04-1.16,8.56-2.22,13.57-3.18l23.69,10.84l0.76-1.65l-21.31-9.76c4.03-0.71,8.29-1.36,12.86-1.94l24.43,13.31
		l0.86-1.59l-22.18-12.08c4.35-0.51,8.92-0.96,13.72-1.36l23.6,13.63l0.91-1.57l-21.33-12.32c5.52-0.42,11.34-0.76,17.4-1.03
		l18.66,13.34l1.05-1.47l-16.79-12c4.03-0.16,8.2-0.29,12.46-0.38l19.45,14.15l1.07-1.46l-17.51-12.74
		c4.61-0.09,9.34-0.14,14.2-0.15L271.62,119.05z"/>
</g>
</svg>
