<?xml version="1.0" encoding="UTF-8"?>
<!DOCTYPE svg PUBLIC "-//W3C//DTD SVG 1.1//EN" "http://www.w3.org/Graphics/SVG/1.1/DTD/svg11.dtd">
<!-- Creator: CorelDRAW 2020 (64-Bit) -->
<svg xmlns="http://www.w3.org/2000/svg" xml:space="preserve" width="3.93701in" height="3.93701in" version="1.1" style="shape-rendering:geometricPrecision; text-rendering:geometricPrecision; image-rendering:optimizeQuality; fill-rule:evenodd; clip-rule:evenodd"
viewBox="0 0 3934.02 3934.02"
 xmlns:xlink="http://www.w3.org/1999/xlink"
 xmlns:xodm="http://www.corel.com/coreldraw/odm/2003">
 <defs>
  <style type="text/css">
   <![CDATA[
    .fil0 {fill:none}
    .fil1 {fill:black}
   ]]>
  </style>
 </defs>
 <g id="Layer_x0020_1">
  <metadata id="CorelCorpID_0Corel-Layer"/>
  <rect class="fil0" width="3934.02" height="3934.02"/>
  <polygon class="fil1" points="1763.43,3505.64 2170.61,3505.64 2170.61,2166.18 2489.71,2166.18 2489.71,2334.16 2962.07,1996.77 2489.71,1659.35 2489.71,1827.36 2170.61,1827.36 2170.61,1301.36 2489.71,1301.36 2489.71,1469.34 2962.07,1131.95 2489.71,794.53 2489.71,962.54 2170.61,962.54 2170.61,577.45 1970.02,428.38 1763.43,577.45 1763.43,962.54 1444.31,962.54 1444.31,794.53 971.95,1131.95 1444.31,1469.34 1444.31,1301.36 1763.43,1301.36 1763.43,1827.36 1444.31,1827.36 1444.31,1659.35 971.95,1996.77 1444.31,2334.16 1444.31,2166.18 1763.43,2166.18 "/>
 </g>
</svg>
