<?xml version="1.0" encoding="utf-8"?>
<!-- Generator: Adobe Illustrator 25.1.0, SVG Export Plug-In . SVG Version: 6.00 Build 0)  -->
<svg version="1.1"  width="16px" height ="16px" id="Layer_1" xmlns="http://www.w3.org/2000/svg" xmlns:xlink="http://www.w3.org/1999/xlink" x="0px" y="0px"
	 viewBox="0 0 300 300"   style="enable-background:new 0 0 300 300;" xml:space="preserve">
<style type="text/css">
	.st0{clip-path:url(#SVGID_2_);}
	.st1{fill:#231F20;}
	.st2{fill:#FF0000;}
	.st3{fill:#FB8538;}
	.st4{fill:#91D050;}
	.st5{fill:#FF8F2A;}
	.st6{fill:#E22024;}
	.st7{fill:#FF2500;}
	.st8{fill:#FFFFFF;}
	.st9{fill:#006FC0;}
	.st10{fill:#FFFF01;}
	.st11{fill:#231F20;stroke:#231F20;stroke-width:0.25;stroke-miterlimit:10;}
	.st12{fill:#FF29FF;}
	.st13{opacity:0.24;fill:none;stroke:#231F20;stroke-width:0.25;stroke-miterlimit:10;}
	.st14{fill:#D0CECE;}
	.st15{fill:#02A0E3;}
	.st16{fill:#58585A;}
	.st17{fill:#AEB1B3;}
	.st18{fill:#7F7F7F;}
	.st19{fill:#888888;}
	.st20{fill:none;stroke:#231F20;stroke-miterlimit:10;}
	.st21{fill:#C46321;}
	.st22{fill:#231F20;stroke:#888888;stroke-width:0.25;stroke-miterlimit:10;}
	.st23{fill:#484949;}
	.st24{fill:#B4B6B6;}
	.st25{fill:none;stroke:#231F20;stroke-width:0.25;stroke-miterlimit:10;}
	.st26{clip-path:url(#SVGID_6_);}
	.st27{fill:#0A0A0A;}
	.st28{fill:#FDFDFD;}
	.st29{fill:none;}
	.st30{fill:#040404;stroke:#FFFFFF;stroke-width:0.25;stroke-miterlimit:10;}
	.st31{clip-path:url(#SVGID_8_);}
	.st32{fill:#161616;}
	.st33{fill:#323232;}
	.st34{fill:#C1C1C1;}
	.st35{fill:#AEB1B3;stroke:#161616;stroke-width:0.25;stroke-miterlimit:10;}
	.st36{fill:#0D0D0D;}
	.st37{fill:#FFFFFF;stroke:#161616;stroke-miterlimit:10;}
	.st38{fill:#6E6E6E;}
	.st39{fill:#D9D9D9;}
	.st40{fill:#161616;stroke:#161616;stroke-width:0.5;stroke-miterlimit:10;}
	.st41{fill:#888888;stroke:#58585A;stroke-width:0.25;stroke-miterlimit:10;}
	.st42{fill:#040404;stroke:#FFFFFF;stroke-width:0.5;stroke-miterlimit:10;}
</style>
<g>
	<defs>
		<rect id="SVGID_1_" x="-257705392" y="-257698816" width="515396064" height="515396064"/>
	</defs>
	<clipPath id="SVGID_2_">
		<use xlink:href="#SVGID_1_"  style="overflow:visible;"/>
	</clipPath>
</g>
<g>
	<g>
		<path class="st19" d="M131.34,200.35H40.42c-4.75,0-8.62-3.87-8.62-8.63v-84.89c0-4.75,3.87-8.62,8.62-8.62h90.92
			c4.75,0,8.62,3.87,8.62,8.62v84.89C139.97,196.48,136.1,200.35,131.34,200.35z M40.42,99.7c-3.93,0-7.13,3.2-7.13,7.13v84.89
			c0,3.93,3.2,7.13,7.13,7.13h90.92c3.93,0,7.13-3.2,7.13-7.13v-84.89c0-3.93-3.2-7.13-7.13-7.13H40.42z"/>
	</g>
	<path d="M127.73,143.96c0-1.34-1.54-2.12-2.6-1.3c-12.22,9.39-23.98,20.71-35.34,28.16c-5.69,3.73-9.14,8.35-14.87,8.39
		c-9.16,0.06-17.19,6.55-24.38,10.49c-0.74,0.41-0.44,1.52,0.41,1.52l76.77,0V143.96z"/>
	<g>
		<g>
			<path class="st19" d="M57.34,155.19c-1.1,0-2.18-0.5-2.89-1.45l-6.32-8.45c-0.58-0.77-0.82-1.72-0.68-2.67
				c0.14-0.95,0.64-1.8,1.41-2.37l29.82-22.3c0.77-0.58,1.7-0.84,2.67-0.68c0.95,0.14,1.79,0.64,2.37,1.41l6.32,8.45
				c1.19,1.59,0.86,3.85-0.73,5.05l-29.82,22.3C58.86,154.96,58.1,155.19,57.34,155.19z M80.84,118.72c-0.45,0-0.89,0.15-1.26,0.42
				l-29.82,22.3c-0.45,0.34-0.74,0.83-0.83,1.39c-0.08,0.56,0.06,1.12,0.4,1.57l6.32,8.45c0.69,0.93,2.02,1.12,2.96,0.43l29.82-22.3
				c0.93-0.7,1.12-2.02,0.43-2.96l-6.32-8.45c-0.34-0.45-0.83-0.75-1.39-0.83C81.04,118.73,80.94,118.72,80.84,118.72z"/>
		</g>
		<g>
			<path d="M102.21,145.57L68.7,170.63c-0.24,0.18-0.59,0.13-0.77-0.11l-10.37-13.87c-0.18-0.24-0.13-0.59,0.11-0.77l33.51-25.06
				c0.24-0.18,0.59-0.13,0.77,0.11l10.37,13.87C102.51,145.04,102.46,145.39,102.21,145.57z"/>
			<path class="st19" d="M68.93,170.39c-1.23,0-2.45-0.56-3.25-1.62l-7.08-9.47c-0.65-0.87-0.92-1.93-0.77-3.01
				c0.15-1.07,0.72-2.02,1.58-2.66l29.11-21.77c0.87-0.65,1.93-0.92,3-0.76c1.07,0.15,2.02,0.72,2.67,1.58l7.08,9.46
				c1.34,1.79,0.97,4.33-0.82,5.67l-29.11,21.77C70.62,170.13,69.77,170.39,68.93,170.39z M90.95,132.55
				c-0.55,0-1.08,0.17-1.53,0.51l-29.11,21.77c-0.55,0.41-0.9,1-1,1.68c-0.1,0.68,0.07,1.35,0.48,1.9l7.08,9.47
				c0.84,1.13,2.45,1.36,3.58,0.52l29.11-21.77c1.13-0.85,1.36-2.45,0.52-3.58L93,133.58c-0.41-0.55-1.01-0.9-1.68-1
				C91.2,132.56,91.07,132.55,90.95,132.55z"/>
		</g>
		<g>
			<g>
				<line class="st19" x1="104.69" y1="143.25" x2="105.58" y2="144.44"/>
			</g>
		</g>
		<g>
			<circle cx="76.54" cy="173.12" r="4.82"/>
		</g>
		<g>
			<circle cx="103.48" cy="152.23" r="4.66"/>
		</g>
		<g>
			<path class="st19" d="M67.14,171.74l36.15-27.88c0.08-0.06,0.19-0.04,0.25,0.03l1.15,1.5c0.06,0.08,0.04,0.19-0.03,0.25
				l-36.15,27.88c-0.08,0.06-0.19,0.04-0.25-0.03l-1.15-1.5C67.04,171.91,67.06,171.8,67.14,171.74z"/>
		</g>
	</g>
	<g>
		<path class="st19" d="M168.66,201.79h90.92c4.75,0,8.62-3.87,8.62-8.63v-84.89c0-4.75-3.87-8.62-8.62-8.62h-90.92
			c-4.75,0-8.62,3.87-8.62,8.62v84.89C160.03,197.92,163.9,201.79,168.66,201.79z M259.58,101.14c3.93,0,7.13,3.2,7.13,7.13v84.89
			c0,3.93-3.2,7.13-7.13,7.13h-90.92c-3.93,0-7.13-3.2-7.13-7.13v-84.89c0-3.93,3.2-7.13,7.13-7.13H259.58z"/>
	</g>
	<path d="M172.27,145.41c0-1.34,1.54-2.12,2.6-1.3c12.22,9.39,23.98,20.71,35.34,28.16c5.69,3.73,9.14,8.35,14.87,8.39
		c9.16,0.06,17.19,6.55,24.38,10.49c0.74,0.41,0.44,1.52-0.41,1.52l-76.77,0V145.41z"/>
	<g>
		<g>
			<path class="st19" d="M242.66,156.64c1.1,0,2.18-0.5,2.89-1.45l6.32-8.45c0.58-0.77,0.82-1.72,0.68-2.67
				c-0.14-0.95-0.64-1.8-1.41-2.37l-29.82-22.3c-0.77-0.58-1.7-0.84-2.67-0.68c-0.95,0.14-1.79,0.64-2.37,1.41l-6.32,8.45
				c-1.19,1.59-0.86,3.85,0.73,5.05l29.82,22.3C241.14,156.4,241.9,156.64,242.66,156.64z M219.16,120.17
				c0.45,0,0.89,0.15,1.26,0.42l29.82,22.3c0.45,0.34,0.74,0.83,0.83,1.39c0.08,0.56-0.06,1.12-0.4,1.57l-6.32,8.45
				c-0.69,0.93-2.02,1.12-2.96,0.43l-29.82-22.3c-0.93-0.7-1.12-2.02-0.43-2.96l6.32-8.45c0.34-0.45,0.83-0.75,1.39-0.83
				C218.96,120.18,219.06,120.17,219.16,120.17z"/>
		</g>
		<g>
			<path d="M197.79,147.02l33.51,25.06c0.24,0.18,0.59,0.13,0.77-0.11l10.37-13.87c0.18-0.24,0.13-0.59-0.11-0.77l-33.51-25.06
				c-0.24-0.18-0.59-0.13-0.77,0.11l-10.37,13.87C197.49,146.49,197.54,146.83,197.79,147.02z"/>
			<path class="st19" d="M231.07,171.83c1.23,0,2.45-0.56,3.25-1.62l7.08-9.47c0.65-0.87,0.92-1.93,0.77-3.01
				c-0.15-1.07-0.72-2.02-1.58-2.66l-29.11-21.77c-0.87-0.65-1.93-0.92-3-0.76c-1.07,0.15-2.02,0.72-2.67,1.58l-7.08,9.46
				c-1.34,1.79-0.97,4.33,0.82,5.67l29.11,21.77C229.38,171.57,230.23,171.83,231.07,171.83z M209.05,133.99
				c0.55,0,1.08,0.17,1.53,0.51l29.11,21.77c0.55,0.41,0.9,1,1,1.68c0.1,0.68-0.07,1.35-0.48,1.9l-7.08,9.47
				c-0.84,1.13-2.45,1.36-3.58,0.52l-29.11-21.77c-1.13-0.85-1.36-2.45-0.52-3.58l7.08-9.46c0.41-0.55,1.01-0.9,1.68-1
				C208.8,134,208.93,133.99,209.05,133.99z"/>
		</g>
		<g>
			<g>
				<line class="st19" x1="195.31" y1="144.69" x2="194.42" y2="145.89"/>
			</g>
		</g>
		<g>
			<circle cx="223.46" cy="174.57" r="4.82"/>
		</g>
		<g>
			<circle cx="196.52" cy="153.68" r="4.66"/>
		</g>
		<g>
			<path class="st19" d="M232.86,173.18l-36.15-27.88c-0.08-0.06-0.19-0.04-0.25,0.03l-1.15,1.5c-0.06,0.08-0.04,0.19,0.03,0.25
				l36.15,27.88c0.08,0.06,0.19,0.04,0.25-0.03l1.15-1.5C232.96,173.36,232.94,173.24,232.86,173.18z"/>
		</g>
	</g>
</g>
</svg>
