<?xml version="1.0" encoding="utf-8"?>
<!-- Generator: Adobe Illustrator 25.1.0, SVG Export Plug-In . SVG Version: 6.00 Build 0)  -->
<svg version="1.1"  width="16px" height ="16px" id="Layer_1" xmlns="http://www.w3.org/2000/svg" xmlns:xlink="http://www.w3.org/1999/xlink" x="0px" y="0px"
	 viewBox="0 0 300 300"   style="enable-background:new 0 0 300 300;" xml:space="preserve">
<style type="text/css">
	.st0{clip-path:url(#SVGID_2_);}
	.st1{fill:#231F20;}
	.st2{fill:#FF0000;}
	.st3{fill:#FB8538;}
	.st4{fill:#91D050;}
	.st5{fill:#FF8F2A;}
	.st6{fill:#E22024;}
	.st7{fill:#FF2500;}
	.st8{fill:#FFFFFF;}
	.st9{fill:#006FC0;}
	.st10{fill:#FFFF01;}
	.st11{fill:#231F20;stroke:#231F20;stroke-width:0.25;stroke-miterlimit:10;}
	.st12{fill:#FF29FF;}
	.st13{opacity:0.24;fill:none;stroke:#231F20;stroke-width:0.25;stroke-miterlimit:10;}
	.st14{fill:#D0CECE;}
	.st15{fill:#02A0E3;}
	.st16{fill:#58585A;}
	.st17{fill:#AEB1B3;}
	.st18{fill:#7F7F7F;}
	.st19{fill:#888888;}
	.st20{fill:none;stroke:#231F20;stroke-miterlimit:10;}
	.st21{fill:#C46321;}
	.st22{fill:#231F20;stroke:#888888;stroke-width:0.25;stroke-miterlimit:10;}
	.st23{fill:#484949;}
	.st24{fill:#B4B6B6;}
	.st25{fill:none;stroke:#231F20;stroke-width:0.25;stroke-miterlimit:10;}
	.st26{clip-path:url(#SVGID_6_);}
	.st27{fill:#0A0A0A;}
	.st28{fill:#FDFDFD;}
	.st29{fill:none;}
	.st30{fill:#040404;stroke:#FFFFFF;stroke-width:0.25;stroke-miterlimit:10;}
	.st31{clip-path:url(#SVGID_8_);}
	.st32{fill:#161616;}
	.st33{fill:#323232;}
	.st34{fill:#C1C1C1;}
	.st35{fill:#AEB1B3;stroke:#161616;stroke-width:0.25;stroke-miterlimit:10;}
	.st36{fill:#0D0D0D;}
	.st37{fill:#FFFFFF;stroke:#161616;stroke-miterlimit:10;}
	.st38{fill:#6E6E6E;}
	.st39{fill:#D9D9D9;}
	.st40{fill:#161616;stroke:#161616;stroke-width:0.5;stroke-miterlimit:10;}
	.st41{fill:#888888;stroke:#58585A;stroke-width:0.25;stroke-miterlimit:10;}
	.st42{fill:#040404;stroke:#FFFFFF;stroke-width:0.5;stroke-miterlimit:10;}
	.st43{fill:#2B2B2B;}
	.st44{fill:#C2C2C2;}
	.st45{fill:url(#SVGID_11_);}
	.st46{fill:url(#SVGID_12_);}
	.st47{opacity:0.2;fill:#E0E47C;}
	.st48{fill:url(#SVGID_13_);}
	.st49{opacity:0.4;fill:url(#SVGID_14_);}
	.st50{fill:url(#SVGID_15_);}
	.st51{opacity:0.4;fill:url(#SVGID_16_);}
	.st52{fill:url(#SVGID_17_);}
	.st53{opacity:0.4;fill:url(#SVGID_18_);}
	.st54{fill:url(#SVGID_19_);}
	.st55{opacity:0.4;fill:url(#SVGID_20_);}
	.st56{fill:url(#SVGID_21_);}
	.st57{opacity:0.4;fill:url(#SVGID_22_);}
	.st58{fill:url(#SVGID_23_);}
	.st59{opacity:0.4;fill:url(#SVGID_24_);}
	.st60{fill:url(#SVGID_25_);}
	.st61{opacity:0.4;fill:url(#SVGID_26_);}
	.st62{fill:url(#SVGID_27_);}
	.st63{opacity:0.4;fill:url(#SVGID_28_);}
	.st64{fill:url(#SVGID_29_);}
	.st65{opacity:0.4;fill:url(#SVGID_30_);}
	.st66{fill:url(#SVGID_31_);}
	.st67{opacity:0.4;fill:url(#SVGID_32_);}
	.st68{fill:url(#SVGID_33_);}
	.st69{opacity:0.4;fill:url(#SVGID_34_);}
	.st70{fill:#654209;}
	.st71{opacity:0.5;}
	.st72{opacity:0.5;fill:#654209;}
	.st73{opacity:0.3;fill:#654209;}
	.st74{fill:#326613;}
	.st75{fill:#4F8821;}
	.st76{opacity:0.5;fill:url(#SVGID_35_);}
	.st77{opacity:0.2;fill:#E0E481;}
	.st78{fill:url(#SVGID_36_);}
	.st79{opacity:0.4;fill:#E3DC3D;}
	.st80{opacity:0.4;fill:url(#SVGID_37_);}
	.st81{opacity:0.3;fill:url(#SVGID_38_);}
	.st82{fill:url(#SVGID_39_);}
	.st83{opacity:0.7;fill:url(#SVGID_40_);}
	.st84{opacity:0.7;}
	.st85{opacity:0.8;fill:url(#SVGID_41_);}
	.st86{opacity:0.3;fill:url(#SVGID_42_);}
	.st87{opacity:0.5;fill:url(#SVGID_43_);}
	.st88{opacity:0.3;fill:url(#SVGID_44_);}
	.st89{opacity:0.6;fill:#E3DC3D;}
	.st90{fill:url(#SVGID_45_);}
	.st91{opacity:0.6;fill:url(#SVGID_46_);}
	.st92{opacity:0.3;fill:#77BE7F;}
	.st93{opacity:0.2;fill:#ECEA85;}
	.st94{fill:url(#SVGID_47_);}
	.st95{opacity:0.5;fill:#E3DC3D;}
	.st96{fill:url(#SVGID_48_);}
	.st97{opacity:0.7;fill:url(#SVGID_49_);}
	.st98{opacity:0.8;fill:url(#SVGID_50_);}
	.st99{opacity:0.3;fill:url(#SVGID_51_);}
	.st100{opacity:0.5;fill:url(#SVGID_52_);}
	.st101{opacity:0.3;fill:url(#SVGID_53_);}
	.st102{fill:url(#SVGID_54_);}
	.st103{opacity:0.8;fill:url(#SVGID_55_);}
	.st104{opacity:0.4;fill:url(#SVGID_56_);}
	.st105{fill:url(#SVGID_57_);}
	.st106{opacity:0.4;fill:url(#SVGID_58_);}
	.st107{fill:url(#SVGID_59_);}
	.st108{fill:url(#SVGID_60_);}
	.st109{fill:url(#SVGID_61_);}
	.st110{opacity:0.5;fill:url(#SVGID_62_);}
	.st111{opacity:0.3;fill:#7D9567;}
	.st112{opacity:0.3;fill:#00713A;}
	.st113{opacity:0.8;fill:#E3DC3D;}
	.st114{opacity:0.5;fill:url(#SVGID_63_);}
	.st115{fill:url(#SVGID_64_);}
	.st116{fill:url(#SVGID_65_);}
	.st117{fill:url(#SVGID_66_);}
	.st118{opacity:0.7;fill:url(#SVGID_67_);}
	.st119{opacity:0.8;fill:url(#SVGID_68_);}
	.st120{opacity:0.3;fill:url(#SVGID_69_);}
	.st121{opacity:0.5;fill:url(#SVGID_70_);}
	.st122{opacity:0.3;fill:url(#SVGID_71_);}
	.st123{fill:#E3DC3D;}
	.st124{fill:url(#SVGID_72_);}
	.st125{opacity:0.4;fill:url(#SVGID_73_);}
	.st126{fill:url(#SVGID_74_);}
	.st127{opacity:0.8;fill:url(#SVGID_75_);}
	.st128{opacity:0.4;fill:url(#SVGID_76_);}
	.st129{fill:url(#SVGID_77_);}
	.st130{opacity:0.8;fill:url(#SVGID_78_);}
	.st131{opacity:0.2;fill:url(#SVGID_79_);}
	.st132{opacity:0.6;fill:url(#SVGID_80_);}
	.st133{opacity:0.3;fill:url(#SVGID_81_);}
	.st134{fill:url(#SVGID_82_);}
	.st135{opacity:0.4;fill:url(#SVGID_83_);}
	.st136{opacity:0.3;fill:url(#SVGID_84_);}
	.st137{opacity:0.5;fill:url(#SVGID_85_);}
	.st138{fill:url(#SVGID_86_);}
	.st139{opacity:0.8;fill:url(#SVGID_87_);}
	.st140{opacity:0.4;fill:url(#SVGID_88_);}
	.st141{opacity:0.5;fill:url(#SVGID_89_);}
	.st142{fill:url(#SVGID_90_);}
	.st143{fill:url(#SVGID_91_);}
	.st144{fill:url(#SVGID_92_);}
	.st145{opacity:0.7;fill:url(#SVGID_93_);}
	.st146{opacity:0.8;fill:url(#SVGID_94_);}
	.st147{opacity:0.3;fill:url(#SVGID_95_);}
	.st148{opacity:0.5;fill:url(#SVGID_96_);}
	.st149{opacity:0.3;fill:url(#SVGID_97_);}
	.st150{fill:url(#SVGID_98_);}
	.st151{opacity:0.4;fill:url(#SVGID_99_);}
	.st152{fill:url(#SVGID_100_);}
	.st153{opacity:0.8;fill:url(#SVGID_101_);}
	.st154{opacity:0.4;fill:url(#SVGID_102_);}
	.st155{fill:url(#SVGID_103_);}
	.st156{opacity:0.8;fill:url(#SVGID_104_);}
	.st157{opacity:0.2;fill:url(#SVGID_105_);}
	.st158{opacity:0.6;fill:url(#SVGID_106_);}
	.st159{opacity:0.3;fill:url(#SVGID_107_);}
	.st160{fill:url(#SVGID_108_);}
	.st161{opacity:0.4;fill:url(#SVGID_109_);}
	.st162{opacity:0.3;fill:url(#SVGID_110_);}
	.st163{opacity:0.5;fill:url(#SVGID_111_);}
	.st164{fill:url(#SVGID_112_);}
	.st165{opacity:0.8;fill:url(#SVGID_113_);}
	.st166{opacity:0.4;fill:url(#SVGID_114_);}
	.st167{opacity:0.5;fill:url(#SVGID_115_);}
	.st168{fill:url(#SVGID_116_);}
	.st169{fill:url(#SVGID_117_);}
	.st170{fill:url(#SVGID_118_);}
	.st171{opacity:0.7;fill:url(#SVGID_119_);}
	.st172{opacity:0.8;fill:url(#SVGID_120_);}
	.st173{opacity:0.3;fill:url(#SVGID_121_);}
	.st174{opacity:0.5;fill:url(#SVGID_122_);}
	.st175{opacity:0.3;fill:url(#SVGID_123_);}
	.st176{fill:url(#SVGID_124_);}
	.st177{opacity:0.4;fill:url(#SVGID_125_);}
	.st178{fill:url(#SVGID_126_);}
	.st179{opacity:0.8;fill:url(#SVGID_127_);}
	.st180{opacity:0.4;fill:url(#SVGID_128_);}
	.st181{fill:url(#SVGID_129_);}
	.st182{opacity:0.8;fill:url(#SVGID_130_);}
	.st183{opacity:0.2;fill:url(#SVGID_131_);}
	.st184{opacity:0.6;fill:url(#SVGID_132_);}
	.st185{opacity:0.3;fill:url(#SVGID_133_);}
	.st186{fill:url(#SVGID_134_);}
	.st187{opacity:0.4;fill:url(#SVGID_135_);}
	.st188{opacity:0.3;fill:url(#SVGID_136_);}
	.st189{opacity:0.5;fill:url(#SVGID_137_);}
	.st190{fill:url(#SVGID_138_);}
	.st191{opacity:0.8;fill:url(#SVGID_139_);}
	.st192{opacity:0.4;fill:url(#SVGID_140_);}
	.st193{opacity:0.5;fill:url(#SVGID_141_);}
	.st194{fill:url(#SVGID_142_);}
	.st195{opacity:0.4;fill:url(#SVGID_143_);}
	.st196{fill:url(#SVGID_144_);}
	.st197{opacity:0.8;fill:url(#SVGID_145_);}
	.st198{opacity:0.4;fill:url(#SVGID_146_);}
	.st199{fill:url(#SVGID_147_);}
	.st200{opacity:0.8;fill:url(#SVGID_148_);}
	.st201{opacity:0.2;fill:url(#SVGID_149_);}
	.st202{opacity:0.6;fill:url(#SVGID_150_);}
	.st203{opacity:0.3;fill:url(#SVGID_151_);}
	.st204{fill:url(#SVGID_152_);}
	.st205{opacity:0.4;fill:url(#SVGID_153_);}
	.st206{opacity:0.3;fill:url(#SVGID_154_);}
	.st207{fill:#917305;}
	.st208{fill:#B49000;}
	.st209{fill:#6B5203;}
	.st210{opacity:0.6;}
	.st211{opacity:0.5;fill:#B49000;}
	.st212{fill:#6EBA00;}
	.st213{fill:#2D5B00;}
	.st214{opacity:0.3;}
	.st215{fill:#4E9200;}
	.st216{fill:#3E6B03;}
	.st217{fill:#8BD506;}
	.st218{opacity:0.3;fill:#4E9200;}
	.st219{opacity:0.3;fill:#3E6B03;}
	.st220{opacity:0.6;fill:#3E6B03;}
	.st221{fill:#1D1D1B;}
	.st222{fill:#9CB558;}
	.st223{fill:#729918;}
	.st224{fill:#A9D13D;}
	.st225{fill:#AAD03D;}
	.st226{fill:#7DB500;}
	.st227{fill:#7EB500;}
	.st228{fill:#99CA00;}
	.st229{fill:#02B050;}
	.st230{fill:#D2D2D2;}
	.st231{fill:#FFE090;}
	.st232{fill:#9ED6F7;}
	.st233{fill:#9FD7F7;}
	.st234{fill:#CCCCCC;}
	.st235{fill:#FFACF8;}
	.st236{fill:url(#SVGID_155_);}
	.st237{fill:url(#SVGID_156_);}
	.st238{fill:url(#SVGID_157_);}
	.st239{opacity:0.4;fill:url(#SVGID_158_);}
	.st240{fill:url(#SVGID_159_);}
	.st241{opacity:0.4;fill:url(#SVGID_160_);}
	.st242{fill:url(#SVGID_161_);}
	.st243{opacity:0.4;fill:url(#SVGID_162_);}
	.st244{fill:url(#SVGID_163_);}
	.st245{opacity:0.4;fill:url(#SVGID_164_);}
	.st246{fill:url(#SVGID_165_);}
	.st247{opacity:0.4;fill:url(#SVGID_166_);}
	.st248{fill:url(#SVGID_167_);}
	.st249{opacity:0.4;fill:url(#SVGID_168_);}
	.st250{fill:url(#SVGID_169_);}
	.st251{opacity:0.4;fill:url(#SVGID_170_);}
	.st252{fill:url(#SVGID_171_);}
	.st253{opacity:0.4;fill:url(#SVGID_172_);}
	.st254{fill:url(#SVGID_173_);}
	.st255{opacity:0.4;fill:url(#SVGID_174_);}
	.st256{fill:url(#SVGID_175_);}
	.st257{opacity:0.4;fill:url(#SVGID_176_);}
	.st258{fill:url(#SVGID_177_);}
	.st259{opacity:0.4;fill:url(#SVGID_178_);}
	.st260{opacity:0.5;fill:url(#SVGID_179_);}
	.st261{fill:url(#SVGID_180_);}
	.st262{opacity:0.4;fill:url(#SVGID_181_);}
	.st263{opacity:0.3;fill:url(#SVGID_182_);}
	.st264{fill:url(#SVGID_183_);}
	.st265{opacity:0.7;fill:url(#SVGID_184_);}
	.st266{opacity:0.8;fill:url(#SVGID_185_);}
	.st267{opacity:0.3;fill:url(#SVGID_186_);}
	.st268{opacity:0.5;fill:url(#SVGID_187_);}
	.st269{opacity:0.3;fill:url(#SVGID_188_);}
	.st270{fill:url(#SVGID_189_);}
	.st271{opacity:0.6;fill:url(#SVGID_190_);}
	.st272{fill:url(#SVGID_191_);}
	.st273{fill:url(#SVGID_192_);}
	.st274{opacity:0.7;fill:url(#SVGID_193_);}
	.st275{opacity:0.8;fill:url(#SVGID_194_);}
	.st276{opacity:0.3;fill:url(#SVGID_195_);}
	.st277{opacity:0.5;fill:url(#SVGID_196_);}
	.st278{opacity:0.3;fill:url(#SVGID_197_);}
	.st279{fill:url(#SVGID_198_);}
	.st280{opacity:0.8;fill:url(#SVGID_199_);}
	.st281{opacity:0.4;fill:url(#SVGID_200_);}
	.st282{fill:url(#SVGID_201_);}
	.st283{opacity:0.4;fill:url(#SVGID_202_);}
	.st284{fill:url(#SVGID_203_);}
	.st285{fill:url(#SVGID_204_);}
	.st286{fill:url(#SVGID_205_);}
	.st287{opacity:0.5;fill:url(#SVGID_206_);}
	.st288{opacity:0.5;fill:url(#SVGID_207_);}
	.st289{fill:url(#SVGID_208_);}
	.st290{fill:url(#SVGID_209_);}
	.st291{fill:url(#SVGID_210_);}
	.st292{opacity:0.7;fill:url(#SVGID_211_);}
	.st293{opacity:0.8;fill:url(#SVGID_212_);}
	.st294{opacity:0.3;fill:url(#SVGID_213_);}
	.st295{opacity:0.5;fill:url(#SVGID_214_);}
	.st296{opacity:0.3;fill:url(#SVGID_215_);}
	.st297{fill:url(#SVGID_216_);}
	.st298{opacity:0.4;fill:url(#SVGID_217_);}
	.st299{fill:url(#SVGID_218_);}
	.st300{opacity:0.8;fill:url(#SVGID_219_);}
	.st301{opacity:0.4;fill:url(#SVGID_220_);}
	.st302{fill:url(#SVGID_221_);}
	.st303{opacity:0.8;fill:url(#SVGID_222_);}
	.st304{opacity:0.2;fill:url(#SVGID_223_);}
	.st305{opacity:0.6;fill:url(#SVGID_224_);}
	.st306{opacity:0.3;fill:url(#SVGID_225_);}
	.st307{fill:url(#SVGID_226_);}
	.st308{opacity:0.4;fill:url(#SVGID_227_);}
	.st309{opacity:0.3;fill:url(#SVGID_228_);}
	.st310{opacity:0.5;fill:url(#SVGID_229_);}
	.st311{fill:url(#SVGID_230_);}
	.st312{opacity:0.8;fill:url(#SVGID_231_);}
	.st313{opacity:0.4;fill:url(#SVGID_232_);}
	.st314{opacity:0.5;fill:url(#SVGID_233_);}
	.st315{fill:url(#SVGID_234_);}
	.st316{fill:url(#SVGID_235_);}
	.st317{fill:url(#SVGID_236_);}
	.st318{opacity:0.7;fill:url(#SVGID_237_);}
	.st319{opacity:0.8;fill:url(#SVGID_238_);}
	.st320{opacity:0.3;fill:url(#SVGID_239_);}
	.st321{opacity:0.5;fill:url(#SVGID_240_);}
	.st322{opacity:0.3;fill:url(#SVGID_241_);}
	.st323{fill:url(#SVGID_242_);}
	.st324{opacity:0.4;fill:url(#SVGID_243_);}
	.st325{fill:url(#SVGID_244_);}
	.st326{opacity:0.8;fill:url(#SVGID_245_);}
	.st327{opacity:0.4;fill:url(#SVGID_246_);}
	.st328{fill:url(#SVGID_247_);}
	.st329{opacity:0.8;fill:url(#SVGID_248_);}
	.st330{opacity:0.2;fill:url(#SVGID_249_);}
	.st331{opacity:0.6;fill:url(#SVGID_250_);}
	.st332{opacity:0.3;fill:url(#SVGID_251_);}
	.st333{fill:url(#SVGID_252_);}
	.st334{opacity:0.4;fill:url(#SVGID_253_);}
	.st335{opacity:0.3;fill:url(#SVGID_254_);}
	.st336{opacity:0.5;fill:url(#SVGID_255_);}
	.st337{fill:url(#SVGID_256_);}
	.st338{opacity:0.8;fill:url(#SVGID_257_);}
	.st339{opacity:0.4;fill:url(#SVGID_258_);}
	.st340{opacity:0.5;fill:url(#SVGID_259_);}
	.st341{fill:url(#SVGID_260_);}
	.st342{fill:url(#SVGID_261_);}
	.st343{fill:url(#SVGID_262_);}
	.st344{opacity:0.7;fill:url(#SVGID_263_);}
	.st345{opacity:0.8;fill:url(#SVGID_264_);}
	.st346{opacity:0.3;fill:url(#SVGID_265_);}
	.st347{opacity:0.5;fill:url(#SVGID_266_);}
	.st348{opacity:0.3;fill:url(#SVGID_267_);}
	.st349{fill:url(#SVGID_268_);}
	.st350{opacity:0.4;fill:url(#SVGID_269_);}
	.st351{fill:url(#SVGID_270_);}
	.st352{opacity:0.8;fill:url(#SVGID_271_);}
	.st353{opacity:0.4;fill:url(#SVGID_272_);}
	.st354{fill:url(#SVGID_273_);}
	.st355{opacity:0.8;fill:url(#SVGID_274_);}
	.st356{opacity:0.2;fill:url(#SVGID_275_);}
	.st357{opacity:0.6;fill:url(#SVGID_276_);}
	.st358{opacity:0.3;fill:url(#SVGID_277_);}
	.st359{fill:url(#SVGID_278_);}
	.st360{opacity:0.4;fill:url(#SVGID_279_);}
	.st361{opacity:0.3;fill:url(#SVGID_280_);}
	.st362{opacity:0.5;fill:url(#SVGID_281_);}
	.st363{fill:url(#SVGID_282_);}
	.st364{opacity:0.8;fill:url(#SVGID_283_);}
	.st365{opacity:0.4;fill:url(#SVGID_284_);}
	.st366{opacity:0.5;fill:url(#SVGID_285_);}
	.st367{fill:url(#SVGID_286_);}
	.st368{opacity:0.4;fill:url(#SVGID_287_);}
	.st369{fill:url(#SVGID_288_);}
	.st370{opacity:0.8;fill:url(#SVGID_289_);}
	.st371{opacity:0.4;fill:url(#SVGID_290_);}
	.st372{fill:url(#SVGID_291_);}
	.st373{opacity:0.8;fill:url(#SVGID_292_);}
	.st374{opacity:0.2;fill:url(#SVGID_293_);}
	.st375{opacity:0.6;fill:url(#SVGID_294_);}
	.st376{opacity:0.3;fill:url(#SVGID_295_);}
	.st377{fill:url(#SVGID_296_);}
	.st378{opacity:0.4;fill:url(#SVGID_297_);}
	.st379{opacity:0.3;fill:url(#SVGID_298_);}
</style>
<g>
	<defs>
		<rect id="SVGID_1_" x="-257697184" y="-257699136" width="515396064" height="515396064"/>
	</defs>
	<clipPath id="SVGID_2_">
		<use xlink:href="#SVGID_1_"  style="overflow:visible;"/>
	</clipPath>
</g>
<path class="st43" d="M228.1,129.34c-0.33-0.22-0.76-0.67-1.45-1.01c-1.34-0.76-3.57-1.55-6.46-1.35c-0.36,0.03-0.73,0.07-1.11,0.11
	c-0.38,0.05-0.74,0.19-1.13,0.28c-0.38,0.11-0.79,0.2-1.18,0.35c-0.38,0.18-0.76,0.37-1.16,0.56c-1.43,0.72-2.77,1.93-3.85,3.28
	c0.09-0.62,0.16-1.26,0.37-1.75c0.29-0.74,0.72-1.28,1.14-1.65c0.87-0.73,1.66-0.6,1.63-0.65c0.02,0.07-0.69-0.34-1.91,0.22
	c-0.58,0.28-1.23,0.8-1.76,1.56c-0.55,0.74-0.97,1.79-1.26,2.83c-0.32,1.04-0.6,2.17-1.15,3.02c-0.53,0.86-1.31,1.37-2.38,1.5
	c-1.04,0.12-2.26-0.07-3.23-0.72c-1.04-0.64-1.96-1.65-2.78-2.88c-1.61-2.45-2.76-5.54-4.76-7.96c-2.06-2.42-4.63-3.74-6.8-4.35
	c-0.91-0.28-1.72-0.35-2.49-0.4c0,0,0,0-0.01,0c-0.01,0-0.01,0-0.02,0c-0.29-0.02-0.56-0.06-0.82-0.06
	c-1.08-0.16-2.06-0.18-2.97-0.04c-0.5-2.37-1.49-4.6-3.13-6.45c-3.03-3.43-7.2-6.19-12.11-8.45c-2.22-1.02-4.63-1.55-7.04-1.51
	c-0.56,0.01-1.13,0.05-1.69,0.12c-0.17,0.02-0.34,0.02-0.51,0.04c0.17-0.44,0.26-0.84,0.25-1.18c-0.04-0.89-0.93-1.14-2.4-1.09
	l0.54-2.69c0.06-0.31-0.02-0.58-0.19-0.79c-0.01-0.02-0.02-0.03-0.04-0.05c-0.29-0.39-0.8-0.57-1.16-0.22
	c-0.63,0.63-1.39,1.03-2.1,1.51c-1.31-2.68-2-5.76-6.27-7.72l2.29-10.73c0.5-2.36,0.33-4.82-0.49-7.09l-2.29-6.32h0l-0.76-2.32
	l-0.37,0.2l-0.6-1.39c1.63-1.83,2.08-3.44,1.94-4.96c0.06-0.01,0.13,0.05,0.19,0.03c0.94-0.32,1.3-1.52,1.04-2.76
	c2.8-2.19,2.77-6.86-2.54-4.6c-0.04,0.02-0.08,0.03-0.12,0.04c-0.62-1.8-1.13-3.62-1.07-5.5c0.01-0.46-0.35-0.84-0.81-0.81
	c-3.63,0.3-7.11,1.06-10.29,2.19c-0.43,0.15-0.61,0.65-0.41,1.05c0.83,1.68,1.38,3.54,1.63,5.45c-2.12,0.21-3.36,0.45-3.18,1.65
	c0.19,1.35,1.79,2.18,3.74,2.59c-0.13,1.48-0.14,2.99,0.33,5.22c0.32,1.49,1.76,2.43,3.27,2.24c0.26-0.03,0.57-0.08,0.86-0.12
	l0.29,2.74l-0.39,0.21l-0.11,0.95l-2.47,3.63v0l-2.19,3.17c-0.78,1.13-1.1,2.52-0.89,3.88l1.32,8.53l-8.39,5.04l0.14,0.29
	l-3.37,0.43c-0.15,0.02-0.26,0.13-0.39,0.19c-7.78-14.23-25.11-25.69-37.54-21.8c-1.64-1.51-3.68-2.72-5.77-3.9l0.46,0.8l2.48,4.32
	c-0.05,0.03-0.09,0.04-0.14,0.07c-1.57-1.33-3.44-2.42-5.35-3.5l2.92,5.23c-1.21,1.03-2.35,2.21-3.35,3.71L79.62,80l-0.04,0.34
	c0.19,0.02,0.36,0.04,0.54,0.06c0.02,0,0.04,0.01,0.06,0.01c-0.16,0.33-0.41,0.62-0.54,0.97l-2.27,4.46l0.13,1.3l-3.72,10.06
	l-0.83-0.33l-0.75,1.86l0.88,0.35l-1.67,4.51c0.01,0.04,0.03,0.06,0.04,0.1c-0.01-0.01-0.02-0.01-0.02-0.02
	c0.05,0.28,0.2,0.51,0.3,0.77c0.09,0.22,0.13,0.47,0.26,0.67c0.18,0.29,0.44,0.52,0.69,0.76c0.14,0.13,0.23,0.29,0.38,0.41
	c0.4,0.31,0.89,0.57,1.43,0.8c0.06,0.02,0.09,0.06,0.15,0.08c0.61,0.25,1.3,0.45,2.08,0.6l0,0h0l0.42-0.7l2.39-3.94l-1.11,4.95
	l1.49-0.1l0.1-0.01c0,0,0,0,0,0h0c1.57-0.09,2.82-1.39,2.84-2.98l-0.03-0.98c0.09,0.09,0.18,0.12,0.26,0.22
	c0.28,0.33,0.79,0.31,1.04-0.05l0.01-0.01c0.03-0.04-0.02-0.09,0-0.14c1.52,0.08,5.45,0.25,10.37,0.17
	c0.04,0.09,0.09,0.18,0.13,0.27c0.22,0.51,0.44,1.03,0.64,1.54c0.7,1.82,1.31,3.67,1.62,5.56c0,0,0,0,0,0.01l-0.01,0.1l-0.22,11.55
	l-0.04,1.61c0.03,0.14,0.06,0.29,0.09,0.43l-12.43,3.52c-1.39-0.25-3.05,0.47-4.17,1.96c-0.69,0.92-1.02,1.97-1.04,2.93l-4.96,16.79
	c-0.25,0.51-0.45,1.08-0.51,1.71c-0.1,1.01,0.13,1.93,0.53,2.68l-0.03,0.02c0.15,1.3,0.39,2.59,0.72,3.84
	c0.58,2.18,1.46,4.28,2.69,6.24l6.37-9.88l-1.86-1.63l-1.25-1.1c0.93-0.29,1.75-0.55,1.75-0.55s-0.96-0.42-2-0.87
	c0.36-0.14,0.78-0.26,1.03-0.43c0.41-0.26,0.68-0.43,0.68-0.43s-0.31-0.05-0.78-0.13c-0.45-0.03-1.03-0.3-1.54-0.5
	c-0.05-0.03-0.08-0.06-0.13-0.09c0.49,0.01,0.78-0.05,0.78-0.05s-0.27-0.17-0.57-0.47c-0.17-0.17-0.29-0.46-0.44-0.7l4.01-11.78
	c0.61-0.29,1.19-0.71,1.69-1.29l15.35-1.47l-5.99,16.12c-0.33,0.56-0.6,1.19-0.71,1.91c-0.1,0.66-0.07,1.28,0.04,1.87l-0.02,0
	l3.81,18.58c0.02,0.57,0.11,1.16,0.36,1.75c0.39,0.93,1.02,1.64,1.73,2.11l-0.01,0.03c0.8,1.17,1.69,2.27,2.65,3.28
	c1.49,1.55,3.17,2.91,5.1,4.01l0.97-11.71l-2.31-0.55l-1.65-0.39c0.65-0.71,1.22-1.32,1.22-1.32s-0.94,0.04-2.03,0.09
	c0.2-0.25,0.47-0.52,0.58-0.76c0.23-0.43,0.38-0.72,0.38-0.72s-0.31,0.09-0.77,0.23c-0.41,0.16-1.04,0.18-1.58,0.21
	c0.26-0.16,0.51-0.34,0.51-0.34s-0.32-0.04-0.73-0.18c-0.24-0.08-0.48-0.3-0.73-0.47l-1.97-12.14c0.57-0.68,1.02-1.53,1.18-2.56
	c0.05-0.33,0-0.63,0-0.95l9.25-15.58c0.52-0.22,0.95-0.56,1.4-0.89c4.34,1.41,8.61,2.61,12.77,3.39c1.55,0.29,3.08,0.55,4.6,0.76
	c0.78,0.11,1.54,0.09,2.32,0.18l0.06,0.47c-0.29,0.47-0.44,1.01-0.29,1.58l0,0.02l0.48-0.04l0.02,0.15l0.13,0.99l4.58-0.58
	l-0.13-0.99l-0.02-0.16l1.85-0.58l0.14,0.52l2.71-0.19c0.04-0.1-0.01-0.3,0.02-0.42c4.08,0.09,8.17-0.03,12.32-0.35l0.27,0.13
	c-0.34,7.72,2.29,15.03,5.69,24.39c-3.84,4.19-6.67,9.08-10.13,14.95c-1.33,1.21-3.26,2.16-4.1,3c-2.03,2.06-2.93,3.39-4.45,5.78
	H82.75L71.43,254.5h132.24l-14.35-66.27h-36.4l-0.14-1.21h7.09l-0.32-2.84l0,0l-0.07-0.64l2.61,1.23l-2.06-2.96l2.02,0.78l-1.4-1.91
	l1.87,1.09c-0.85-1.85-0.57-3.5,0.36-5.02c1.59-4.2,4.18-6.41,8.92-12.24c-0.68-8.21-1.99-14.69,0.98-21.17
	c1.42-0.89,2.81-1.82,4.07-2.92c1.89-1.64,3.29-3.78,4.04-6.16c1.02-3.2,1.77-6.34,2.04-9.41c0.04-0.47-0.01-0.93,0-1.39
	c0.94,1.22,1.84,2.82,2.37,5.03c0.19,0.71,0.3,1.49,0.43,2.31c0.14,0.8,0.26,1.66,0.38,2.57c0.11,0.89,0.26,1.84,0.46,2.83
	c0.1,0.49,0.17,0.99,0.31,1.5c0.16,0.51,0.33,1.02,0.5,1.55c0.27,1.06,0.88,2.07,1.44,3.12c0.69,0.96,1.39,1.95,2.31,2.77
	c1.33,1.28,2.98,2.27,4.76,3.05c1.88,1.9,3.96,3.18,5.82,3.9c0.93,0.41,1.84,0.57,2.61,0.74c0.79,0.1,1.47,0.14,2.02,0.16
	c1.09-0.1,1.69-0.16,1.69-0.16s-0.58-0.13-1.63-0.35c-0.5-0.17-1.11-0.38-1.79-0.65c-0.66-0.35-1.41-0.67-2.16-1.21
	c-0.48-0.32-0.98-0.76-1.48-1.17c0.13,0.01,0.25,0.05,0.37,0.06c1.13,0.85,2.34,1.53,3.53,2c1.43,0.49,2.79,0.78,4.06,0.81
	c2.52,0.09,4.49-0.53,5.67-1.2c0.62-0.27,1-0.67,1.3-0.85c0.06-0.04,0.04-0.03,0.09-0.07c0.27-0.13,0.61-0.23,0.86-0.35
	c1.9-1,3.28-2,4.23-2.68c0.93-0.71,1.45-1.1,1.45-1.1s-0.61,0.23-1.7,0.65c-1.09,0.41-2.66,1.04-4.6,1.61
	c-0.11,0.03-0.24,0.05-0.35,0.07c0.02-0.01,0.05-0.01,0.08-0.02c2.39-0.94,4.22-1.79,5.52-2.36c1.28-0.59,2-0.92,2-0.92
	s-0.77,0.16-2.16,0.43c-0.99,0.22-2.39,0.52-3.96,0.87c1.51-0.72,2.71-1.49,3.43-2.15c0.81-0.81,1.27-1.26,1.27-1.26
	s-0.55,0.3-1.55,0.84c-1,0.51-2.52,1.05-4.41,1.41c-0.23,0.03-0.5,0.01-0.74,0.04c0.3-0.3,0.66-0.59,0.91-0.89
	c1.09-1.29,1.92-2.51,2.78-3.51c1.63-2.01,3.61-3.01,5.06-3.17c1.46-0.16,2.27,0.35,2.27,0.29c0,0-0.19-0.11-0.54-0.31
	c-0.18-0.11-0.4-0.24-0.7-0.3c-0.29-0.07-0.64-0.21-1.04-0.2c-0.81-0.11-1.8,0.09-2.9,0.46c-1.07,0.41-2.24,1.11-3.31,2.07
	c-1.32,1.13-2.59,2.59-4.04,3.75c0.26-0.35,0.5-0.72,0.74-1.08c0.29-0.42,0.55-0.84,0.74-1.3c0.2-0.45,0.4-0.89,0.6-1.32
	c0.17-0.43,0.28-0.87,0.41-1.29c0.27-0.84,0.43-1.61,0.64-2.35c0.22-0.7,0.38-1.42,0.67-1.98c0.13-0.3,0.26-0.59,0.38-0.88
	c0.16-0.25,0.31-0.5,0.47-0.72c0.69-0.89,1.53-1.49,2.3-1.77c1.57-0.61,2.55,0.06,2.53-0.03c0,0-0.22-0.11-0.63-0.32
	c-0.21-0.11-0.5-0.13-0.84-0.21c-0.34-0.02-0.76-0.04-1.2,0.06c-0.67,0.11-1.42,0.49-2.15,1.01c0.22-0.29,0.41-0.54,0.56-0.74
	c0.24-0.16,0.49-0.35,0.66-0.43c0.26-0.14,0.4-0.21,0.4-0.21s-0.15,0.03-0.44,0.07c-0.06,0.01-0.19,0.06-0.26,0.08
	c0.02-0.03,0.11-0.15,0.11-0.15s-0.15,0.12-0.23,0.18c-0.26,0.05-0.52,0.08-0.88,0.26c-0.62,0.26-1.32,0.82-2.03,1.54
	c0.38-0.82,0.69-1.5,0.93-2.04c0.12-0.08,0.23-0.15,0.35-0.23c0.3-0.17,0.63-0.28,0.93-0.42c0.31-0.12,0.61-0.29,0.92-0.38
	c0.32-0.08,0.63-0.15,0.93-0.23c2.46-0.56,4.62-0.26,6.01,0.2c0.72,0.19,1.2,0.52,1.58,0.66c0.36,0.17,0.56,0.25,0.56,0.25
	S228.41,129.58,228.1,129.34z M83.89,103.2c-0.27-0.3-0.72-0.54-1.1-0.8l-0.04-1.49l1.5-1.45l4.73-4.58
	c-0.22,0.44-0.45,0.88-0.61,1.31l0.65,0.24c0.17-0.46,0.44-0.94,0.68-1.42c0.79,1.37,1.6,2.76,2.39,4.19
	c0.16,0.29,0.3,0.6,0.46,0.89c0.19,0.35,0.33,0.72,0.51,1.07C88.59,102.29,85.08,102.98,83.89,103.2z M86.38,103.41
	c1.74-0.36,4.17-0.9,6.97-1.61c0.28,0.56,0.55,1.12,0.81,1.68C91.01,103.52,88.3,103.47,86.38,103.41z M131.23,139.82l-0.03-0.22
	c0.08,0.01,0.15,0.01,0.23,0.02C131.36,139.68,131.29,139.75,131.23,139.82z M131.47,141.71l-0.02-0.14l3.51-0.32l0.59-0.18
	l0.01,0.12L131.47,141.71z M134.67,101.09c-0.56-0.14-1.14-0.24-1.69-0.14c-0.03,0-0.04,0.03-0.07,0.04
	c-2.62-1.12-4.28-1.87-4.87-0.4c-1.46-0.64-2.7-1.31-3.4-2.03c-0.05-0.04-0.07-0.09-0.11-0.13l3.84-0.7l-0.05-0.05
	c0.05-0.01,0.09,0,0.14-0.02l0.59,1.21l6.6-3.57l0.39,2.55L134.67,101.09z M189.39,136.92c-0.03-0.09-0.05-0.18-0.08-0.27
	c0.13,0.36,0.27,0.71,0.42,1.07C189.62,137.46,189.5,137.19,189.39,136.92z M212.9,135.43c-0.03,0.04-0.06,0.08-0.09,0.12
	c-0.29,0.26-0.6,0.53-0.91,0.8c0.64-1.01,1.23-1.98,1.8-2.85c0.78-1.24,1.64-2.16,2.6-2.91C215.43,131.8,214.29,133.4,212.9,135.43z
	"/>
</svg>
