<?xml version="1.0" encoding="utf-8"?>
<!-- Generator: Adobe Illustrator 25.1.0, SVG Export Plug-In . SVG Version: 6.00 Build 0)  -->
<svg version="1.1"  width="16px" height ="16px" id="Layer_1" xmlns="http://www.w3.org/2000/svg" xmlns:xlink="http://www.w3.org/1999/xlink" x="0px" y="0px"
	 viewBox="0 0 300 300"   style="enable-background:new 0 0 300 300;" xml:space="preserve">
<style type="text/css">
	.st0{clip-path:url(#SVGID_2_);}
	.st1{fill:#231F20;}
	.st2{fill:#FF0000;}
	.st3{fill:#FB8538;}
	.st4{fill:#91D050;}
	.st5{fill:#FF8F2A;}
	.st6{fill:#E22024;}
	.st7{fill:#FF2500;}
	.st8{fill:#FFFFFF;}
	.st9{fill:#006FC0;}
	.st10{fill:#FFFF01;}
	.st11{fill:#231F20;stroke:#231F20;stroke-width:0.25;stroke-miterlimit:10;}
	.st12{fill:#FF29FF;}
	.st13{opacity:0.24;fill:none;stroke:#231F20;stroke-width:0.25;stroke-miterlimit:10;}
	.st14{fill:#D0CECE;}
	.st15{fill:#02A0E3;}
	.st16{fill:#58585A;}
	.st17{fill:#AEB1B3;}
	.st18{fill:#7F7F7F;}
	.st19{fill:#888888;}
	.st20{fill:none;stroke:#231F20;stroke-miterlimit:10;}
	.st21{fill:#C46321;}
	.st22{fill:#231F20;stroke:#888888;stroke-width:0.25;stroke-miterlimit:10;}
	.st23{fill:#484949;}
	.st24{fill:#B4B6B6;}
	.st25{fill:none;stroke:#231F20;stroke-width:0.25;stroke-miterlimit:10;}
	.st26{clip-path:url(#SVGID_6_);}
	.st27{fill:#0A0A0A;}
	.st28{fill:#FDFDFD;}
	.st29{fill:none;}
	.st30{fill:#040404;stroke:#FFFFFF;stroke-width:0.25;stroke-miterlimit:10;}
	.st31{clip-path:url(#SVGID_8_);}
	.st32{fill:#161616;}
	.st33{fill:#323232;}
	.st34{fill:#C1C1C1;}
	.st35{fill:#AEB1B3;stroke:#161616;stroke-width:0.25;stroke-miterlimit:10;}
	.st36{fill:#0D0D0D;}
	.st37{fill:#FFFFFF;stroke:#161616;stroke-miterlimit:10;}
	.st38{fill:#6E6E6E;}
	.st39{fill:#D9D9D9;}
	.st40{fill:#161616;stroke:#161616;stroke-width:0.5;stroke-miterlimit:10;}
	.st41{fill:#888888;stroke:#58585A;stroke-width:0.25;stroke-miterlimit:10;}
	.st42{fill:#040404;stroke:#FFFFFF;stroke-width:0.5;stroke-miterlimit:10;}
	.st43{fill:#2B2B2B;}
	.st44{fill:#C2C2C2;}
	.st45{fill:url(#SVGID_11_);}
	.st46{fill:url(#SVGID_12_);}
	.st47{opacity:0.2;fill:#E0E47C;}
	.st48{fill:url(#SVGID_13_);}
	.st49{opacity:0.4;fill:url(#SVGID_14_);}
	.st50{fill:url(#SVGID_15_);}
	.st51{opacity:0.4;fill:url(#SVGID_16_);}
	.st52{fill:url(#SVGID_17_);}
	.st53{opacity:0.4;fill:url(#SVGID_18_);}
	.st54{fill:url(#SVGID_19_);}
	.st55{opacity:0.4;fill:url(#SVGID_20_);}
	.st56{fill:url(#SVGID_21_);}
	.st57{opacity:0.4;fill:url(#SVGID_22_);}
	.st58{fill:url(#SVGID_23_);}
	.st59{opacity:0.4;fill:url(#SVGID_24_);}
	.st60{fill:url(#SVGID_25_);}
	.st61{opacity:0.4;fill:url(#SVGID_26_);}
	.st62{fill:url(#SVGID_27_);}
	.st63{opacity:0.4;fill:url(#SVGID_28_);}
	.st64{fill:url(#SVGID_29_);}
	.st65{opacity:0.4;fill:url(#SVGID_30_);}
	.st66{fill:url(#SVGID_31_);}
	.st67{opacity:0.4;fill:url(#SVGID_32_);}
	.st68{fill:url(#SVGID_33_);}
	.st69{opacity:0.4;fill:url(#SVGID_34_);}
	.st70{fill:#654209;}
	.st71{opacity:0.5;}
	.st72{opacity:0.5;fill:#654209;}
	.st73{opacity:0.3;fill:#654209;}
	.st74{fill:#326613;}
	.st75{fill:#4F8821;}
	.st76{opacity:0.5;fill:url(#SVGID_35_);}
	.st77{opacity:0.2;fill:#E0E481;}
	.st78{fill:url(#SVGID_36_);}
	.st79{opacity:0.4;fill:#E3DC3D;}
	.st80{opacity:0.4;fill:url(#SVGID_37_);}
	.st81{opacity:0.3;fill:url(#SVGID_38_);}
	.st82{fill:url(#SVGID_39_);}
	.st83{opacity:0.7;fill:url(#SVGID_40_);}
	.st84{opacity:0.7;}
	.st85{opacity:0.8;fill:url(#SVGID_41_);}
	.st86{opacity:0.3;fill:url(#SVGID_42_);}
	.st87{opacity:0.5;fill:url(#SVGID_43_);}
	.st88{opacity:0.3;fill:url(#SVGID_44_);}
	.st89{opacity:0.6;fill:#E3DC3D;}
	.st90{fill:url(#SVGID_45_);}
	.st91{opacity:0.6;fill:url(#SVGID_46_);}
	.st92{opacity:0.3;fill:#77BE7F;}
	.st93{opacity:0.2;fill:#ECEA85;}
	.st94{fill:url(#SVGID_47_);}
	.st95{opacity:0.5;fill:#E3DC3D;}
	.st96{fill:url(#SVGID_48_);}
	.st97{opacity:0.7;fill:url(#SVGID_49_);}
	.st98{opacity:0.8;fill:url(#SVGID_50_);}
	.st99{opacity:0.3;fill:url(#SVGID_51_);}
	.st100{opacity:0.5;fill:url(#SVGID_52_);}
	.st101{opacity:0.3;fill:url(#SVGID_53_);}
	.st102{fill:url(#SVGID_54_);}
	.st103{opacity:0.8;fill:url(#SVGID_55_);}
	.st104{opacity:0.4;fill:url(#SVGID_56_);}
	.st105{fill:url(#SVGID_57_);}
	.st106{opacity:0.4;fill:url(#SVGID_58_);}
	.st107{fill:url(#SVGID_59_);}
	.st108{fill:url(#SVGID_60_);}
	.st109{fill:url(#SVGID_61_);}
	.st110{opacity:0.5;fill:url(#SVGID_62_);}
	.st111{opacity:0.3;fill:#7D9567;}
	.st112{opacity:0.3;fill:#00713A;}
	.st113{opacity:0.8;fill:#E3DC3D;}
	.st114{opacity:0.5;fill:url(#SVGID_63_);}
	.st115{fill:url(#SVGID_64_);}
	.st116{fill:url(#SVGID_65_);}
	.st117{fill:url(#SVGID_66_);}
	.st118{opacity:0.7;fill:url(#SVGID_67_);}
	.st119{opacity:0.8;fill:url(#SVGID_68_);}
	.st120{opacity:0.3;fill:url(#SVGID_69_);}
	.st121{opacity:0.5;fill:url(#SVGID_70_);}
	.st122{opacity:0.3;fill:url(#SVGID_71_);}
	.st123{fill:#E3DC3D;}
	.st124{fill:url(#SVGID_72_);}
	.st125{opacity:0.4;fill:url(#SVGID_73_);}
	.st126{fill:url(#SVGID_74_);}
	.st127{opacity:0.8;fill:url(#SVGID_75_);}
	.st128{opacity:0.4;fill:url(#SVGID_76_);}
	.st129{fill:url(#SVGID_77_);}
	.st130{opacity:0.8;fill:url(#SVGID_78_);}
	.st131{opacity:0.2;fill:url(#SVGID_79_);}
	.st132{opacity:0.6;fill:url(#SVGID_80_);}
	.st133{opacity:0.3;fill:url(#SVGID_81_);}
	.st134{fill:url(#SVGID_82_);}
	.st135{opacity:0.4;fill:url(#SVGID_83_);}
	.st136{opacity:0.3;fill:url(#SVGID_84_);}
	.st137{opacity:0.5;fill:url(#SVGID_85_);}
	.st138{fill:url(#SVGID_86_);}
	.st139{opacity:0.8;fill:url(#SVGID_87_);}
	.st140{opacity:0.4;fill:url(#SVGID_88_);}
	.st141{opacity:0.5;fill:url(#SVGID_89_);}
	.st142{fill:url(#SVGID_90_);}
	.st143{fill:url(#SVGID_91_);}
	.st144{fill:url(#SVGID_92_);}
	.st145{opacity:0.7;fill:url(#SVGID_93_);}
	.st146{opacity:0.8;fill:url(#SVGID_94_);}
	.st147{opacity:0.3;fill:url(#SVGID_95_);}
	.st148{opacity:0.5;fill:url(#SVGID_96_);}
	.st149{opacity:0.3;fill:url(#SVGID_97_);}
	.st150{fill:url(#SVGID_98_);}
	.st151{opacity:0.4;fill:url(#SVGID_99_);}
	.st152{fill:url(#SVGID_100_);}
	.st153{opacity:0.8;fill:url(#SVGID_101_);}
	.st154{opacity:0.4;fill:url(#SVGID_102_);}
	.st155{fill:url(#SVGID_103_);}
	.st156{opacity:0.8;fill:url(#SVGID_104_);}
	.st157{opacity:0.2;fill:url(#SVGID_105_);}
	.st158{opacity:0.6;fill:url(#SVGID_106_);}
	.st159{opacity:0.3;fill:url(#SVGID_107_);}
	.st160{fill:url(#SVGID_108_);}
	.st161{opacity:0.4;fill:url(#SVGID_109_);}
	.st162{opacity:0.3;fill:url(#SVGID_110_);}
	.st163{opacity:0.5;fill:url(#SVGID_111_);}
	.st164{fill:url(#SVGID_112_);}
	.st165{opacity:0.8;fill:url(#SVGID_113_);}
	.st166{opacity:0.4;fill:url(#SVGID_114_);}
	.st167{opacity:0.5;fill:url(#SVGID_115_);}
	.st168{fill:url(#SVGID_116_);}
	.st169{fill:url(#SVGID_117_);}
	.st170{fill:url(#SVGID_118_);}
	.st171{opacity:0.7;fill:url(#SVGID_119_);}
	.st172{opacity:0.8;fill:url(#SVGID_120_);}
	.st173{opacity:0.3;fill:url(#SVGID_121_);}
	.st174{opacity:0.5;fill:url(#SVGID_122_);}
	.st175{opacity:0.3;fill:url(#SVGID_123_);}
	.st176{fill:url(#SVGID_124_);}
	.st177{opacity:0.4;fill:url(#SVGID_125_);}
	.st178{fill:url(#SVGID_126_);}
	.st179{opacity:0.8;fill:url(#SVGID_127_);}
	.st180{opacity:0.4;fill:url(#SVGID_128_);}
	.st181{fill:url(#SVGID_129_);}
	.st182{opacity:0.8;fill:url(#SVGID_130_);}
	.st183{opacity:0.2;fill:url(#SVGID_131_);}
	.st184{opacity:0.6;fill:url(#SVGID_132_);}
	.st185{opacity:0.3;fill:url(#SVGID_133_);}
	.st186{fill:url(#SVGID_134_);}
	.st187{opacity:0.4;fill:url(#SVGID_135_);}
	.st188{opacity:0.3;fill:url(#SVGID_136_);}
	.st189{opacity:0.5;fill:url(#SVGID_137_);}
	.st190{fill:url(#SVGID_138_);}
	.st191{opacity:0.8;fill:url(#SVGID_139_);}
	.st192{opacity:0.4;fill:url(#SVGID_140_);}
	.st193{opacity:0.5;fill:url(#SVGID_141_);}
	.st194{fill:url(#SVGID_142_);}
	.st195{opacity:0.4;fill:url(#SVGID_143_);}
	.st196{fill:url(#SVGID_144_);}
	.st197{opacity:0.8;fill:url(#SVGID_145_);}
	.st198{opacity:0.4;fill:url(#SVGID_146_);}
	.st199{fill:url(#SVGID_147_);}
	.st200{opacity:0.8;fill:url(#SVGID_148_);}
	.st201{opacity:0.2;fill:url(#SVGID_149_);}
	.st202{opacity:0.6;fill:url(#SVGID_150_);}
	.st203{opacity:0.3;fill:url(#SVGID_151_);}
	.st204{fill:url(#SVGID_152_);}
	.st205{opacity:0.4;fill:url(#SVGID_153_);}
	.st206{opacity:0.3;fill:url(#SVGID_154_);}
	.st207{fill:#917305;}
	.st208{fill:#B49000;}
	.st209{fill:#6B5203;}
	.st210{opacity:0.6;}
	.st211{opacity:0.5;fill:#B49000;}
	.st212{fill:#6EBA00;}
	.st213{fill:#2D5B00;}
	.st214{opacity:0.3;}
	.st215{fill:#4E9200;}
	.st216{fill:#3E6B03;}
	.st217{fill:#8BD506;}
	.st218{opacity:0.3;fill:#4E9200;}
	.st219{opacity:0.3;fill:#3E6B03;}
	.st220{opacity:0.6;fill:#3E6B03;}
	.st221{fill:#1D1D1B;}
	.st222{fill:#9CB558;}
	.st223{fill:#729918;}
	.st224{fill:#A9D13D;}
	.st225{fill:#AAD03D;}
	.st226{fill:#7DB500;}
	.st227{fill:#7EB500;}
	.st228{fill:#99CA00;}
	.st229{fill:#02B050;}
	.st230{fill:#D2D2D2;}
	.st231{fill:#FFE090;}
	.st232{fill:#9ED6F7;}
	.st233{fill:#9FD7F7;}
	.st234{fill:#CCCCCC;}
	.st235{fill:#FFACF8;}
	.st236{fill:url(#SVGID_155_);}
	.st237{fill:url(#SVGID_156_);}
	.st238{fill:url(#SVGID_157_);}
	.st239{opacity:0.4;fill:url(#SVGID_158_);}
	.st240{fill:url(#SVGID_159_);}
	.st241{opacity:0.4;fill:url(#SVGID_160_);}
	.st242{fill:url(#SVGID_161_);}
	.st243{opacity:0.4;fill:url(#SVGID_162_);}
	.st244{fill:url(#SVGID_163_);}
	.st245{opacity:0.4;fill:url(#SVGID_164_);}
	.st246{fill:url(#SVGID_165_);}
	.st247{opacity:0.4;fill:url(#SVGID_166_);}
	.st248{fill:url(#SVGID_167_);}
	.st249{opacity:0.4;fill:url(#SVGID_168_);}
	.st250{fill:url(#SVGID_169_);}
	.st251{opacity:0.4;fill:url(#SVGID_170_);}
	.st252{fill:url(#SVGID_171_);}
	.st253{opacity:0.4;fill:url(#SVGID_172_);}
	.st254{fill:url(#SVGID_173_);}
	.st255{opacity:0.4;fill:url(#SVGID_174_);}
	.st256{fill:url(#SVGID_175_);}
	.st257{opacity:0.4;fill:url(#SVGID_176_);}
	.st258{fill:url(#SVGID_177_);}
	.st259{opacity:0.4;fill:url(#SVGID_178_);}
	.st260{opacity:0.5;fill:url(#SVGID_179_);}
	.st261{fill:url(#SVGID_180_);}
	.st262{opacity:0.4;fill:url(#SVGID_181_);}
	.st263{opacity:0.3;fill:url(#SVGID_182_);}
	.st264{fill:url(#SVGID_183_);}
	.st265{opacity:0.7;fill:url(#SVGID_184_);}
	.st266{opacity:0.8;fill:url(#SVGID_185_);}
	.st267{opacity:0.3;fill:url(#SVGID_186_);}
	.st268{opacity:0.5;fill:url(#SVGID_187_);}
	.st269{opacity:0.3;fill:url(#SVGID_188_);}
	.st270{fill:url(#SVGID_189_);}
	.st271{opacity:0.6;fill:url(#SVGID_190_);}
	.st272{fill:url(#SVGID_191_);}
	.st273{fill:url(#SVGID_192_);}
	.st274{opacity:0.7;fill:url(#SVGID_193_);}
	.st275{opacity:0.8;fill:url(#SVGID_194_);}
	.st276{opacity:0.3;fill:url(#SVGID_195_);}
	.st277{opacity:0.5;fill:url(#SVGID_196_);}
	.st278{opacity:0.3;fill:url(#SVGID_197_);}
	.st279{fill:url(#SVGID_198_);}
	.st280{opacity:0.8;fill:url(#SVGID_199_);}
	.st281{opacity:0.4;fill:url(#SVGID_200_);}
	.st282{fill:url(#SVGID_201_);}
	.st283{opacity:0.4;fill:url(#SVGID_202_);}
	.st284{fill:url(#SVGID_203_);}
	.st285{fill:url(#SVGID_204_);}
	.st286{fill:url(#SVGID_205_);}
	.st287{opacity:0.5;fill:url(#SVGID_206_);}
	.st288{opacity:0.5;fill:url(#SVGID_207_);}
	.st289{fill:url(#SVGID_208_);}
	.st290{fill:url(#SVGID_209_);}
	.st291{fill:url(#SVGID_210_);}
	.st292{opacity:0.7;fill:url(#SVGID_211_);}
	.st293{opacity:0.8;fill:url(#SVGID_212_);}
	.st294{opacity:0.3;fill:url(#SVGID_213_);}
	.st295{opacity:0.5;fill:url(#SVGID_214_);}
	.st296{opacity:0.3;fill:url(#SVGID_215_);}
	.st297{fill:url(#SVGID_216_);}
	.st298{opacity:0.4;fill:url(#SVGID_217_);}
	.st299{fill:url(#SVGID_218_);}
	.st300{opacity:0.8;fill:url(#SVGID_219_);}
	.st301{opacity:0.4;fill:url(#SVGID_220_);}
	.st302{fill:url(#SVGID_221_);}
	.st303{opacity:0.8;fill:url(#SVGID_222_);}
	.st304{opacity:0.2;fill:url(#SVGID_223_);}
	.st305{opacity:0.6;fill:url(#SVGID_224_);}
	.st306{opacity:0.3;fill:url(#SVGID_225_);}
	.st307{fill:url(#SVGID_226_);}
	.st308{opacity:0.4;fill:url(#SVGID_227_);}
	.st309{opacity:0.3;fill:url(#SVGID_228_);}
	.st310{opacity:0.5;fill:url(#SVGID_229_);}
	.st311{fill:url(#SVGID_230_);}
	.st312{opacity:0.8;fill:url(#SVGID_231_);}
	.st313{opacity:0.4;fill:url(#SVGID_232_);}
	.st314{opacity:0.5;fill:url(#SVGID_233_);}
	.st315{fill:url(#SVGID_234_);}
	.st316{fill:url(#SVGID_235_);}
	.st317{fill:url(#SVGID_236_);}
	.st318{opacity:0.7;fill:url(#SVGID_237_);}
	.st319{opacity:0.8;fill:url(#SVGID_238_);}
	.st320{opacity:0.3;fill:url(#SVGID_239_);}
	.st321{opacity:0.5;fill:url(#SVGID_240_);}
	.st322{opacity:0.3;fill:url(#SVGID_241_);}
	.st323{fill:url(#SVGID_242_);}
	.st324{opacity:0.4;fill:url(#SVGID_243_);}
	.st325{fill:url(#SVGID_244_);}
	.st326{opacity:0.8;fill:url(#SVGID_245_);}
	.st327{opacity:0.4;fill:url(#SVGID_246_);}
	.st328{fill:url(#SVGID_247_);}
	.st329{opacity:0.8;fill:url(#SVGID_248_);}
	.st330{opacity:0.2;fill:url(#SVGID_249_);}
	.st331{opacity:0.6;fill:url(#SVGID_250_);}
	.st332{opacity:0.3;fill:url(#SVGID_251_);}
	.st333{fill:url(#SVGID_252_);}
	.st334{opacity:0.4;fill:url(#SVGID_253_);}
	.st335{opacity:0.3;fill:url(#SVGID_254_);}
	.st336{opacity:0.5;fill:url(#SVGID_255_);}
	.st337{fill:url(#SVGID_256_);}
	.st338{opacity:0.8;fill:url(#SVGID_257_);}
	.st339{opacity:0.4;fill:url(#SVGID_258_);}
	.st340{opacity:0.5;fill:url(#SVGID_259_);}
	.st341{fill:url(#SVGID_260_);}
	.st342{fill:url(#SVGID_261_);}
	.st343{fill:url(#SVGID_262_);}
	.st344{opacity:0.7;fill:url(#SVGID_263_);}
	.st345{opacity:0.8;fill:url(#SVGID_264_);}
	.st346{opacity:0.3;fill:url(#SVGID_265_);}
	.st347{opacity:0.5;fill:url(#SVGID_266_);}
	.st348{opacity:0.3;fill:url(#SVGID_267_);}
	.st349{fill:url(#SVGID_268_);}
	.st350{opacity:0.4;fill:url(#SVGID_269_);}
	.st351{fill:url(#SVGID_270_);}
	.st352{opacity:0.8;fill:url(#SVGID_271_);}
	.st353{opacity:0.4;fill:url(#SVGID_272_);}
	.st354{fill:url(#SVGID_273_);}
	.st355{opacity:0.8;fill:url(#SVGID_274_);}
	.st356{opacity:0.2;fill:url(#SVGID_275_);}
	.st357{opacity:0.6;fill:url(#SVGID_276_);}
	.st358{opacity:0.3;fill:url(#SVGID_277_);}
	.st359{fill:url(#SVGID_278_);}
	.st360{opacity:0.4;fill:url(#SVGID_279_);}
	.st361{opacity:0.3;fill:url(#SVGID_280_);}
	.st362{opacity:0.5;fill:url(#SVGID_281_);}
	.st363{fill:url(#SVGID_282_);}
	.st364{opacity:0.8;fill:url(#SVGID_283_);}
	.st365{opacity:0.4;fill:url(#SVGID_284_);}
	.st366{opacity:0.5;fill:url(#SVGID_285_);}
	.st367{fill:url(#SVGID_286_);}
	.st368{opacity:0.4;fill:url(#SVGID_287_);}
	.st369{fill:url(#SVGID_288_);}
	.st370{opacity:0.8;fill:url(#SVGID_289_);}
	.st371{opacity:0.4;fill:url(#SVGID_290_);}
	.st372{fill:url(#SVGID_291_);}
	.st373{opacity:0.8;fill:url(#SVGID_292_);}
	.st374{opacity:0.2;fill:url(#SVGID_293_);}
	.st375{opacity:0.6;fill:url(#SVGID_294_);}
	.st376{opacity:0.3;fill:url(#SVGID_295_);}
	.st377{fill:url(#SVGID_296_);}
	.st378{opacity:0.4;fill:url(#SVGID_297_);}
	.st379{opacity:0.3;fill:url(#SVGID_298_);}
</style>
<g>
	<defs>
		<rect id="SVGID_1_" x="-257699424" y="-257699136" width="515396064" height="515396064"/>
	</defs>
	<clipPath id="SVGID_2_">
		<use xlink:href="#SVGID_1_"  style="overflow:visible;"/>
	</clipPath>
</g>
<g>
	<g>
		<g>
			<g>
				<path class="st207" d="M99.78,186.5l-2.29,10.87l2.93,0.26l0.99-1.53l-0.15,1.67l0.84,0.14l0.74-0.87l0.28,1.14l2.83,0.32
					c0,0,0.51-1.45,0.58-1.26c0.08,0.19,0.19,1.14,0.19,1.14l2.7-0.45c0,0,0.14-8.01-0.5-10.43
					C108.27,185.07,102.19,180.74,99.78,186.5z"/>
				<g>
					<path class="st208" d="M103.04,191.48c-0.05,0.6-0.41,1.05-0.8,1.02c-0.39-0.04-0.66-0.55-0.61-1.14
						c0.05-0.6,0.41-1.05,0.8-1.02C102.82,190.37,103.1,190.89,103.04,191.48z"/>
					<path class="st208" d="M103.18,194.2c-0.03,0.27-0.21,0.48-0.42,0.46c-0.21-0.02-0.36-0.26-0.34-0.53
						c0.03-0.28,0.21-0.48,0.42-0.46C103.06,193.69,103.21,193.93,103.18,194.2z"/>
				</g>
				<g>
					<path class="st209" d="M108.61,186.78c-0.63-1.08-2.01-2.28-3.54-2.84c0.27,1.43,1.51,9.04-1.67,14.26l2.56,0.28
						c0,0,0.51-1.45,0.58-1.26c0.08,0.19,0.19,1.14,0.19,1.14l1.35-0.22C108.8,193.8,108.73,189.26,108.61,186.78z"/>
				</g>
				<g class="st210">
					<path class="st207" d="M109.21,189.53c-0.07-0.83-0.17-1.55-0.3-2.04c-0.64-2.42-6.73-6.75-9.14-0.99l-0.57,2.71
						C100.87,190.12,104.45,191.43,109.21,189.53z"/>
				</g>
				<g class="st71">
					<path class="st208" d="M103.38,183.64c-1.39,0.02-2.74,0.78-3.61,2.86l-2.29,10.87l2.93,0.26l0.99-1.53l-0.15,1.67l0.25,0.04
						C104.65,192.18,103.63,185.09,103.38,183.64z"/>
				</g>
				<path class="st211" d="M99.88,190.04c0,0-1.04,5.46-1.78,6.81c1.64,0.39,1.64,0.39,1.64,0.39S100.89,193.34,99.88,190.04z"/>
			</g>
			<g>
				<path class="st207" d="M99.78,173.06l-0.88,14.7l2.56-0.05l0.7-2.16l0.04,2.22l0.74,0.07l0.56-1.25l0.35,1.48l2.48,0.04
					c0,0,0.29-1.99,0.38-1.74c0.09,0.24,0.28,1.48,0.28,1.48l2.29-0.95c0,0-0.69-10.62-1.49-13.74
					C106.98,170.04,101.28,165.11,99.78,173.06z"/>
				<g>
					<path class="st208" d="M103.11,179.22c0.01,0.8-0.25,1.45-0.59,1.46c-0.34,0.01-0.63-0.64-0.65-1.43
						c-0.01-0.8,0.25-1.45,0.59-1.45C102.8,177.78,103.09,178.43,103.11,179.22z"/>
					<path class="st208" d="M103.5,182.8c0.01,0.36-0.13,0.66-0.32,0.66c-0.18,0.01-0.33-0.29-0.34-0.65c0-0.37,0.14-0.66,0.32-0.67
						C103.34,182.14,103.5,182.44,103.5,182.8z"/>
				</g>
				<g>
					<path class="st209" d="M107.44,172.26c-0.66-1.34-1.97-2.76-3.35-3.28c0.38,1.86,2.22,11.76-0.01,19.1l2.24,0.03
						c0,0,0.29-1.99,0.38-1.74c0.09,0.24,0.28,1.48,0.28,1.48l1.15-0.47C108.32,181.53,107.8,175.52,107.44,172.26z"/>
				</g>
				<g class="st210">
					<path class="st207" d="M108.24,175.82c-0.15-1.09-0.3-2.03-0.47-2.66c-0.8-3.12-6.5-8.04-8-0.1l-0.22,3.66
						C101.09,177.71,104.32,178.97,108.24,175.82z"/>
				</g>
				<g class="st71">
					<path class="st208" d="M102.61,168.8c-1.21,0.21-2.29,1.4-2.83,4.26l-0.88,14.7l2.56-0.05l0.7-2.16l0.04,2.22l0.21,0.02
						C104.57,179.92,102.97,170.68,102.61,168.8z"/>
				</g>
				<path class="st211" d="M100.22,177.74c0,0-0.35,7.37-0.85,9.26c1.46,0.29,1.46,0.29,1.46,0.29S101.43,181.96,100.22,177.74z"/>
			</g>
			<g>
				<path class="st207" d="M99.83,157.8c0,0,0.13,11.71-0.86,16.18c2.4,0.45,2.4,0.45,2.4,0.45l0.63-1.74l0.2,1.73l1.23-0.02
					l0.55-1.74l0.37,2.3l1.81,0.05l0.28-2.4l0.53,2.05l1.47-0.52c0,0-0.27-10.06-2.93-15.86C102.86,152.46,99.85,154.75,99.83,157.8
					z"/>
				<g>
					<path class="st208" d="M102.18,165.14c0.01,0.67-0.23,1.22-0.53,1.23c-0.31,0-0.56-0.53-0.58-1.2
						c-0.01-0.67,0.22-1.22,0.53-1.23C101.91,163.94,102.17,164.47,102.18,165.14z"/>
					<path class="st208" d="M103.24,162.82c0.01,0.48-0.16,0.88-0.39,0.88c-0.22,0-0.41-0.38-0.42-0.87
						c-0.01-0.48,0.16-0.88,0.39-0.88C103.05,161.96,103.24,162.34,103.24,162.82z"/>
					<path class="st208" d="M103.87,169.02c0.01,0.4-0.17,0.73-0.39,0.73c-0.22,0-0.41-0.32-0.42-0.72
						c-0.01-0.4,0.17-0.72,0.39-0.73C103.68,168.29,103.86,168.62,103.87,169.02z"/>
				</g>
				<g>
					<path class="st209" d="M105.52,158.27c-0.8-1.74-1.63-2.75-2.41-3.24c0.58,4.25,1.7,13.27,1.83,19.93l1.22,0.03l0.28-2.4
						l0.53,2.05l0.73-0.26c-0.21-5.21-1.33-11.9-2.07-15.87C105.6,158.44,105.56,158.36,105.52,158.27z"/>
				</g>
				<g class="st71">
					<path class="st208" d="M101.53,154.75c-1,0.32-1.69,1.59-1.7,3.05c0,0,0.13,11.71-0.86,16.18c2.4,0.45,2.4,0.45,2.4,0.45
						l0.63-1.74l0.2,1.73l0.36-0.01C103.11,166.89,102.26,159.39,101.53,154.75z"/>
				</g>
				<g class="st210">
					<path class="st207" d="M106.41,160.61c-0.26-0.83-0.56-1.62-0.89-2.34c-2.67-5.81-5.67-3.52-5.7-0.47c0,0,0.01,1.24,0,3.07
						C100.94,161.35,103.12,161.82,106.41,160.61z"/>
				</g>
				<path class="st211" d="M100.31,161.67c0,0,0.05,7.09-0.53,11.39c1.16,0.06,1.16,0.06,1.16,0.06S101.72,166.75,100.31,161.67z"/>
			</g>
			<g>
				<path class="st207" d="M97.59,144.07c0,0,1.74,9.2,1.6,14.98c2.31,0.2,2.31,0.2,2.31,0.2l0.21-2.15l0.37,2.14l1.32,0.14
					l-0.02-1.07l0.43,1.06l2.89,0.11c0,0-1.58-9.54-4.02-16.67C102.68,142.82,97.67,139.78,97.59,144.07z"/>
				<g class="st71">
					<path class="st208" d="M97.59,144.07c0,0,1.74,9.2,1.6,14.98c2.31,0.2,2.31,0.2,2.31,0.2l0.21-2.15l0.37,2.14l0.36,0.04
						c-0.58-7.71-2.37-14.15-3.44-17.46C98.22,142,97.62,142.61,97.59,144.07z"/>
				</g>
				<g class="st71">
					<path class="st208" d="M100.78,149.6c0.11,0.72-0.01,1.33-0.28,1.38c-0.27,0.04-0.57-0.51-0.69-1.23
						c-0.11-0.72,0.01-1.34,0.28-1.38C100.36,148.34,100.67,148.88,100.78,149.6z"/>
					<path class="st208" d="M101.54,153.8c0.01,0.27-0.11,0.49-0.27,0.49c-0.15,0-0.28-0.21-0.29-0.48c0-0.27,0.11-0.49,0.27-0.49
						C101.41,153.31,101.54,153.53,101.54,153.8z"/>
					<path class="st208" d="M101.4,148.38c0.01,0.26-0.12,0.47-0.27,0.47c-0.15,0-0.28-0.2-0.29-0.46c0-0.26,0.12-0.47,0.27-0.47
						C101.27,147.92,101.4,148.12,101.4,148.38z"/>
				</g>
				<g>
					<path class="st209" d="M102.68,142.82c0,0-1.04-0.63-2.18-0.91c1.34,4.15,3.58,11.7,4.2,17.5l0.67,0.03
						c-0.17-4.57-1.18-10.58-1.7-13.43C103.36,144.92,103.03,143.85,102.68,142.82z"/>
				</g>
				<g class="st210">
					<path class="st207" d="M103.35,144.91c-0.22-0.71-0.44-1.41-0.67-2.09c0,0-5.01-3.04-5.09,1.25c0,0,0.18,0.95,0.42,2.43
						C99.19,146.7,101.24,146.68,103.35,144.91z"/>
				</g>
				<path class="st211" d="M98.4,147.33c0,0,1.42,7.14,1.04,11.08c1.44,0.12,1.44,0.12,1.44,0.12S100.74,151.21,98.4,147.33z"/>
			</g>
			<g>
				<path class="st207" d="M93.59,132.93c0,0,3.28,8.1,3.37,12.72c2.13-0.7,2.13-0.7,2.13-0.7l-0.12-1.65l0.52,1.48l2.39-0.13
					l-0.44-1.72l1.27,1.63l1.22-0.93c0,0-3.98-9.83-5.59-12.35C96.73,128.74,92.95,129.47,93.59,132.93z"/>
				<g class="st71">
					<path class="st208" d="M96.86,136.88c0.15,0.59,0.09,1.13-0.16,1.19c-0.24,0.07-0.56-0.36-0.72-0.96
						c-0.15-0.59-0.08-1.13,0.16-1.19C96.38,135.86,96.71,136.29,96.86,136.88z"/>
					<path class="st208" d="M97.88,139.73c0.08,0.3,0.04,0.57-0.08,0.6c-0.12,0.03-0.29-0.19-0.36-0.49
						c-0.08-0.3-0.04-0.57,0.08-0.6C97.63,139.2,97.8,139.42,97.88,139.73z"/>
				</g>
				<g class="st71">
					<path class="st208" d="M93.59,132.93c0,0,3.28,8.1,3.37,12.72c2.13-0.7,2.13-0.7,2.13-0.7l-0.12-1.65l0.52,1.48l0.24-0.01
						c-0.81-5.25-3.83-11.34-5.51-14.41C93.67,130.88,93.37,131.74,93.59,132.93z"/>
				</g>
				<g class="st210">
					<path class="st207" d="M99.18,132.8c-0.32-0.63-0.6-1.16-0.84-1.53c-1.61-2.53-5.39-1.8-4.75,1.65c0,0,0.35,0.87,0.83,2.19
						C95.7,135.2,97.59,134.87,99.18,132.8z"/>
				</g>
				<path class="st211" d="M95.31,136.85c0,0,1.7,4.96,2.05,8.21c0.65-0.26,0.82-0.3,0.82-0.3S97.38,139.42,95.31,136.85z"/>
				<g>
					<path class="st209" d="M98.34,131.27c-0.61-0.95-1.52-1.44-2.39-1.5c1.55,2.51,4.28,7.49,5.75,13.48l1.01,1.3l0.6-0.46
						c-0.24-1.49-0.67-3.14-1.13-4.65C100.91,136.44,99.25,132.7,98.34,131.27z"/>
				</g>
			</g>
			<g>
				<path class="st207" d="M90.49,126.14c0,0,2.33,5.73,3.12,8.35c2.29-1.11,2.29-1.11,2.29-1.11l-0.62-2.05l0.94,1.96l0.98-0.51
					l-0.19-1.15l0.59,0.9l1.88-0.86l-6.8-10.93C92.7,120.74,90.19,123.01,90.49,126.14z"/>
				<g>
					<path class="st29" d="M95.36,131.56c0.08,0.14,0.16,0.28,0.24,0.42l-0.31-0.65L95.36,131.56z"/>
					<path class="st211" d="M90.49,126.14c0,0,2.33,5.73,3.12,8.35c2.29-1.11,2.29-1.11,2.29-1.11l-0.55-1.81
						c-1.42-2.39-3.21-4.73-4.84-6.69C90.46,125.28,90.45,125.7,90.49,126.14z"/>
				</g>
				<path class="st211" d="M94.8,129.19c0.23,0.57,0.18,1.13-0.12,1.25c-0.29,0.12-0.72-0.24-0.95-0.81
					c-0.23-0.57-0.18-1.13,0.12-1.25C94.14,128.26,94.57,128.62,94.8,129.19z"/>
				<path class="st211" d="M91.37,127.46c0,0,1.51,3.78,2.28,6.27c0.75-0.29,0.75-0.29,0.75-0.29S93.05,129.24,91.37,127.46z"/>
				<g>
					<path class="st209" d="M99.5,131.66l-6.8-10.93c0,0-0.92,0.84-1.58,2.19c2.01,2.25,4.33,5.52,6.02,9.88l0.07-0.04l-0.19-1.15
						l0.59,0.9L99.5,131.66z"/>
				</g>
			</g>
		</g>
		<g>
			<g>
				<path class="st212" d="M91.79,120.18c5.06-7.11,2.32-17.03,2.32-17.03l-1.4,0.03l1.14-0.6l-1.55-3.68l-0.83-0.23l0.15-0.74
					l-1.04-2.46l-1.07,0.19c0,0,0,0,0.39-1.24c-3.48-5.46-10.36-7.15-10.36-7.15l0.75,4.44l1.23-0.02l-0.89,1.01l1.4,4.76l1.57,0.05
					l-1.13,1.09l0.96,3.11l1.24,0.31c0,0,0,0-0.89,0.84c2.04,2.93,2.39,8.86,2.39,8.86L91.79,120.18z"/>
				<path class="st213" d="M79.54,87.25c0,0,0.55,0.17,1.43,0.66c0.44,0.24,0.95,0.57,1.52,0.97c0.57,0.4,1.17,0.91,1.79,1.51
					c0.63,0.59,1.25,1.29,1.86,2.06c0.62,0.77,1.19,1.64,1.74,2.56c0.26,0.47,0.54,0.94,0.77,1.45c0.12,0.25,0.24,0.5,0.36,0.75
					c0.11,0.26,0.22,0.52,0.34,0.77c0.23,0.51,0.41,1.06,0.62,1.59c0.2,0.53,0.35,1.09,0.53,1.63c0.15,0.55,0.29,1.11,0.44,1.66
					c0.12,0.56,0.24,1.11,0.36,1.67c0.09,0.55,0.19,1.1,0.28,1.65c0.07,0.55,0.14,1.09,0.21,1.62c0.04,0.27,0.06,0.53,0.08,0.79
					c0.02,0.26,0.04,0.52,0.06,0.78c0.02,0.26,0.04,0.51,0.06,0.77c0.01,0.25,0.02,0.5,0.03,0.75c0.02,0.49,0.03,0.97,0.05,1.43
					c0,0.47,0,0.91,0,1.34c0.01,0.86-0.04,1.64-0.07,2.34c-0.02,0.35-0.03,0.67-0.05,0.97c-0.02,0.3-0.05,0.57-0.07,0.82
					c-0.08,1-0.13,1.57-0.13,1.57s0.03-0.57,0.08-1.57c0.01-0.25,0.03-0.52,0.05-0.83c0.01-0.3,0.01-0.63,0.02-0.97
					c0.01-0.7,0.04-1.48,0.02-2.34c-0.01-0.43-0.01-0.87-0.01-1.34c-0.02-0.46-0.05-0.93-0.07-1.42c-0.01-0.24-0.03-0.49-0.04-0.74
					c-0.02-0.25-0.05-0.5-0.07-0.76c-0.05-0.52-0.08-1.04-0.15-1.57c-0.07-0.53-0.14-1.07-0.21-1.61c-0.09-0.54-0.19-1.09-0.28-1.64
					c-0.12-0.55-0.24-1.1-0.36-1.65c-0.15-0.55-0.29-1.1-0.44-1.64c-0.18-0.54-0.33-1.09-0.52-1.62c-0.2-0.53-0.38-1.07-0.61-1.58
					c-0.11-0.26-0.22-0.52-0.33-0.77c-0.12-0.25-0.24-0.5-0.36-0.75c-0.23-0.5-0.5-0.97-0.76-1.44c-0.54-0.92-1.09-1.79-1.69-2.56
					c-0.6-0.77-1.2-1.47-1.81-2.07c-0.61-0.6-1.2-1.11-1.75-1.53c-0.55-0.42-1.06-0.76-1.49-1C80.09,87.45,79.54,87.25,79.54,87.25z
					"/>
				<g class="st214">
					<path class="st215" d="M92.71,103.17l1.14-0.6l-0.48-1.14c-1.6,0.18-1.81-0.59-4.83-5.11c2.75,5.89,0.33,8.74-1.56,9.02
						c-1.89,0.28-1.9,0.12-2.67-1.76c-0.12-0.29-0.28-0.54-0.46-0.78c-0.02,0.02-0.03,0.03-0.05,0.05c2.04,2.93,2.39,8.86,2.39,8.86
						l5.6,8.47c5.06-7.11,2.32-17.03,2.32-17.03L92.71,103.17z"/>
				</g>
				<g class="st210">
					<path class="st216" d="M94.48,105.45c0.62,2.38,0.11,5.93-0.71,6.36c-0.82,0.43-1.25-0.72-2.34-5.97
						c0.08,3.96-1.97,4.9-3.78,5.02c-0.68,0.04-1.19-0.11-1.58-0.32c0.08,0.72,0.11,1.18,0.11,1.18l5.6,8.47
						c3.96-5.56,3.14-12.86,2.6-15.76C94.36,104.74,94.38,105.08,94.48,105.45z"/>
				</g>
				<path class="st217" d="M80.39,88.23l0.71,2.54l1.57,0.22l-1.13,1.43l0.99,4.18l1.57,0.3l-0.63,1.5l0.88,2.78
					c0,0,4.27-0.99,3.04-5C85.8,91.01,80.39,88.23,80.39,88.23z"/>
				<g>
					<path class="st217" d="M89.1,105.84c0.01,0.86-0.45,1.56-1.04,1.57c-0.59,0.01-1.08-0.67-1.09-1.53
						c-0.02-0.86,0.45-1.56,1.03-1.58C88.59,104.29,89.08,104.98,89.1,105.84z"/>
					<path class="st217" d="M89.1,102.73c0,0.25-0.09,0.46-0.22,0.46c-0.13,0-0.23-0.2-0.24-0.46c0-0.25,0.1-0.46,0.22-0.46
						C88.99,102.27,89.09,102.47,89.1,102.73z"/>
					<path class="st217" d="M93.59,106.27c0,0.22-0.08,0.4-0.19,0.41c-0.11,0-0.21-0.18-0.21-0.4c-0.01-0.22,0.08-0.4,0.19-0.41
						C93.5,105.87,93.59,106.05,93.59,106.27z"/>
				</g>
			</g>
			<g>
				<path class="st212" d="M79.95,118.09c0,0-10.01-1.54-19.02,6.21c0.18,0.98,0.18,0.98,0.18,0.98l-1.4,0.19l0.34,0.74l-3.09,2.2
					l0.26,0.57c0,0-4.71,3.88-3.55,17.39c4.05-8.24,7.73-10.29,7.73-10.29l-0.94-1.55l1.08,0.64c0,0,3.9-3.21,5.46-3.81l-0.28-1.81
					l0.68,1.06l0.48-0.83l0.33,0.24l6.3-2.76L79.95,118.09z"/>
				<path class="st217" d="M70.07,125.96c0.12,0.27-0.31,0.73-0.97,1.01c-0.66,0.29-1.29,0.3-1.41,0.03
					c-0.12-0.27,0.32-0.73,0.97-1.02C69.33,125.7,69.96,125.68,70.07,125.96z"/>
				<g class="st214">
					<path class="st215" d="M72.51,123.79c-1.08,1.88-2.86,5.99-4.86,4.55c-2.01-1.45-2.66-3.42,2.21-7.47
						c-4.92,1.46-9.89,6.87-9.89,6.87l-0.88-0.73l-0.21,0.04l-1.91,1.36l0.26,0.57c0,0-4.71,3.88-3.55,17.39
						c4.05-8.24,7.73-10.29,7.73-10.29l-0.94-1.55l1.08,0.64c0,0,3.9-3.21,5.46-3.81l-0.28-1.81l0.68,1.06l0.48-0.83l0.33,0.24
						l6.3-2.76l5.44-9.18c0,0-0.28-0.04-0.8-0.08C75.29,119.46,73.34,122.36,72.51,123.79z"/>
				</g>
				<g class="st214">
					<path class="st215" d="M57.2,131.62c-0.49-0.09-0.97-0.36-1.4-0.68c-1.28,2.33-2.84,7.01-2.11,15.42
						c3.05-6.19,5.88-8.89,7.1-9.84C57.75,134.61,58.77,131.93,57.2,131.62z"/>
				</g>
				<path class="st213" d="M53.68,146.37c0,0-0.02-0.16-0.03-0.45c-0.02-0.3-0.03-0.74-0.03-1.29c0-0.56,0.03-1.24,0.09-2.01
					c0.07-0.77,0.17-1.64,0.35-2.58c0.18-0.94,0.4-1.95,0.73-3c0.08-0.27,0.16-0.53,0.25-0.79c0.09-0.27,0.19-0.54,0.28-0.81
					c0.11-0.27,0.22-0.54,0.33-0.81c0.1-0.27,0.23-0.54,0.36-0.81c0.48-1.09,1.11-2.17,1.78-3.23c0.18-0.26,0.36-0.52,0.54-0.78
					c0.09-0.13,0.18-0.26,0.27-0.39l0.29-0.38l0.59-0.75l0.64-0.72c0.41-0.49,0.89-0.91,1.35-1.36c0.22-0.23,0.47-0.42,0.71-0.63
					c0.24-0.2,0.48-0.41,0.72-0.61c0.5-0.38,1-0.75,1.5-1.11c0.52-0.33,1.03-0.66,1.54-0.98c0.52-0.29,1.04-0.57,1.54-0.85
					c0.52-0.25,1.03-0.48,1.53-0.71c0.13-0.06,0.25-0.12,0.37-0.17c0.13-0.05,0.25-0.1,0.38-0.15c0.25-0.1,0.49-0.19,0.73-0.28
					c0.24-0.09,0.47-0.19,0.71-0.27c0.23-0.09,0.47-0.15,0.69-0.23c0.45-0.15,0.89-0.28,1.3-0.42c0.41-0.13,0.82-0.22,1.2-0.31
					c0.38-0.1,0.73-0.18,1.05-0.26c0.32-0.09,0.63-0.13,0.9-0.19c1.09-0.21,1.72-0.33,1.72-0.33s-0.62,0.13-1.71,0.37
					c-0.27,0.06-0.58,0.11-0.9,0.21c-0.32,0.09-0.67,0.19-1.05,0.29c-0.37,0.11-0.77,0.2-1.19,0.34c-0.41,0.14-0.84,0.28-1.29,0.43
					c-0.23,0.07-0.46,0.14-0.69,0.23c-0.23,0.1-0.46,0.19-0.7,0.29c-0.23,0.1-0.48,0.19-0.72,0.29c-0.12,0.05-0.24,0.1-0.37,0.15
					c-0.12,0.05-0.24,0.11-0.37,0.17c-0.49,0.24-1,0.47-1.51,0.73c-0.5,0.28-1.01,0.56-1.53,0.85c-0.5,0.31-1.01,0.65-1.52,0.98
					c-0.49,0.36-0.99,0.73-1.49,1.11c-0.24,0.2-0.47,0.4-0.71,0.61c-0.24,0.21-0.48,0.4-0.71,0.63c-0.45,0.45-0.92,0.87-1.33,1.35
					l-0.64,0.7l-0.59,0.75l-0.29,0.37c-0.09,0.12-0.18,0.26-0.27,0.38c-0.18,0.26-0.36,0.52-0.54,0.77
					c-0.67,1.05-1.29,2.11-1.78,3.2c-0.27,0.53-0.46,1.08-0.69,1.6c-0.1,0.27-0.19,0.54-0.29,0.8c-0.1,0.26-0.18,0.53-0.26,0.79
					c-0.34,1.04-0.57,2.04-0.76,2.97c-0.18,0.93-0.31,1.8-0.39,2.57c-0.08,0.77-0.13,1.44-0.14,2c-0.02,0.55-0.01,0.99,0,1.29
					C53.66,146.21,53.68,146.37,53.68,146.37z"/>
				<path class="st217" d="M63.11,123.84c0,0,5.63-3.44,11.42-4.79C80.32,117.71,68.69,117.8,63.11,123.84z"/>
			</g>
			<g>
				<path class="st212" d="M80.86,118.24c0,0-4.31-1.49-5.72-1.62c0.36-2.89,0.36-2.89,0.36-2.89l-1.6,2.34l-2.81-0.44l0.13-1.98
					l-0.87,1.75l-4.13-0.25l-0.37-2.05l-0.38,1.82l-1.97,0.53l-0.95-2.38l-0.35,3.47l-4.19,0.98l-0.2-1.81l-0.7,2.32l-1.4,0.19
					l-0.53-1.8l-0.29,2.15c0,0-2.7,0.96-3.59,2.21c0.24-5.03,4.34-10.47,7.43-12.84c0.19,1.48,0.19,1.48,0.19,1.48l1.2-2.08
					l4.35-1.24l-0.14,1.4l1.04-1.83c0,0,1.97-0.7,3.95-0.73c-0.31,0.99-0.55,1.33-0.55,1.33l2.28-1.53c0,0,7.43,0.52,11.44,3.08
					c-0.4,0.92-0.4,0.92-0.4,0.92l1.64-0.52l-0.23,0.99c0,0,8.91,4.37,8.05,11.56C82.27,118.46,80.86,118.24,80.86,118.24z"/>
				<path class="st213" d="M51.3,120.76c0,0,0.03-0.18,0.13-0.52c0.1-0.33,0.26-0.82,0.52-1.41c0.52-1.18,1.45-2.83,3.04-4.41
					c0.79-0.79,1.74-1.55,2.82-2.23c1.09-0.68,2.31-1.27,3.62-1.74c1.32-0.47,2.72-0.82,4.16-1.06c1.44-0.25,2.93-0.36,4.42-0.41
					c1.49-0.05,2.98,0.07,4.43,0.29c1.45,0.22,2.85,0.57,4.18,1.01c2.65,0.88,4.94,2.18,6.73,3.51c1.79,1.34,3.06,2.71,3.85,3.75
					c0.39,0.52,0.66,0.96,0.81,1.27c0.08,0.15,0.13,0.28,0.16,0.36c0.03,0.09,0.04,0.13,0.04,0.13s-0.02-0.04-0.04-0.13
					c-0.03-0.08-0.08-0.21-0.16-0.36c-0.16-0.31-0.44-0.74-0.84-1.25c-0.8-1.02-2.11-2.35-3.89-3.66c-1.79-1.31-4.08-2.55-6.71-3.43
					c-1.31-0.43-2.71-0.76-4.15-0.98c-1.44-0.22-2.91-0.33-4.39-0.27c-1.47,0.04-2.95,0.14-4.39,0.39
					c-1.43,0.24-2.82,0.58-4.13,1.04c-1.3,0.46-2.52,1.03-3.6,1.69c-1.08,0.66-2.03,1.4-2.82,2.18c-1.59,1.54-2.56,3.15-3.1,4.33
					c-0.27,0.59-0.44,1.07-0.54,1.4C51.34,120.58,51.3,120.76,51.3,120.76z"/>
				<g>
					<path class="st218" d="M83.5,109.2l0.23-0.99l-1.64,0.52c0,0,0,0,0.4-0.92c-1.91-1.22-4.59-1.98-6.88-2.44
						c-1.16,2.16-1.1,2.73-6.84,3.02c-5.06,0.25-9.44,2.99-6.82,2.02c5.52-1.82,9.78-0.58,8.08,0.38c-1.19,0.66-1.76,3.05-2,4.44
						l2.31,0.14l0.87-1.75l-0.13,1.98l2.81,0.44l1.6-2.34c0,0,0,0-0.36,2.89c1.4,0.14,5.72,1.62,5.72,1.62s1.41,0.22,10.69,2.52
						C92.4,113.57,83.5,109.2,83.5,109.2z"/>
				</g>
				<g>
					<path class="st218" d="M83.5,109.2l0.23-0.99l-1.64,0.52c0,0,0,0,0.4-0.92c-0.5-0.31-1.04-0.6-1.62-0.86
						c-0.12,1.24-0.52,2.4-1.6,2.48c-2.38,0.17-5.04-0.43-5.04-0.43s2.57,1.04,6.57,2.82c2.57,1.14,3.19,2.69,2.28,3.9
						c-0.9,1.21-5.54,0.77-6.34,0.25c-0.8-0.52-1.12-3.03-1.12-3.03l-2.83,2.94l1.1,0.17l1.6-2.34c0,0,0,0-0.36,2.89
						c1.4,0.14,5.72,1.62,5.72,1.62s1.41,0.22,10.69,2.52C92.4,113.57,83.5,109.2,83.5,109.2z"/>
				</g>
				<g>
					<path class="st219" d="M87.39,111.87l0,0.02c0,0,1.52,1.95,1.54,2.94c0.02,0.99-3.24-1.3-4.61-1.64
						c2.76,2.55,0.96,4.25-4.19,4.8c0.45,0.15,0.74,0.25,0.74,0.25s1.41,0.22,10.69,2.52C92.01,116.91,89.66,113.86,87.39,111.87z"
						/>
				</g>
				<path class="st217" d="M61.86,109.64c0,0-4.8,1.2-8.77,7.21c1.3-3.12,4.92-8.25,5.19-7.02c0.27,1.23,1.33-1.88,3.3-2.04
					C63.55,107.63,65.3,108.47,61.86,109.64z"/>
			</g>
			<g>
				<path class="st212" d="M91.55,120.76l2.39,4.49l3.82,1.58l1.11-2.66l0.78,2.21l2.98,0.69l0.37-2.4l0.7,1.97l6.16,2.86l1.04-1.84
					l0.28,1.56l2.07,0.29l0.79-1.58l0.12,1.73l5.6,3.85l2.2-1.44l-0.22,1.49c0,0,5.14,1.55,9.88,7.98c0.64-0.92,0.64-0.92,0.64-0.92
					l0.26,0.9c0,0,2.05-0.54,3.36,3.07c0,0,2.05-5.15,0.09-12.87c-0.9,0.18-0.9,0.18-0.9,0.18l0.14-1.24c0,0-2.2-2.92-3.28-3.57
					c-0.64,0.84-0.64,0.84-0.64,0.84l-0.03-1.4c0,0-3.61-3.23-4.78-4.03c-0.31,1.08-0.71,1.5-0.71,1.5l0.12-2.23l-4.24-1.73
					l0.44-1.56l-2.55-1.13L118,118.7l0.44-1.82l-4.85-0.86l-1.74,1.07l0.48-1.15c0,0-3.56-0.52-6.52-0.44
					c-1.35,1.17-1.35,1.17-1.35,1.17l0.17-1.2C104.64,115.45,93.82,116.35,91.55,120.76z"/>
				<path class="st213" d="M91.55,120.76c0,0,0.21-0.06,0.6-0.15c0.39-0.09,0.97-0.23,1.71-0.37c0.74-0.14,1.65-0.29,2.69-0.43
					c0.52-0.06,1.08-0.12,1.67-0.17c0.59-0.04,1.21-0.1,1.86-0.11c0.32-0.01,0.65-0.02,0.99-0.03c0.34-0.01,0.68,0,1.03,0
					c0.7-0.01,1.42,0.04,2.16,0.07c0.37,0.01,0.75,0.06,1.13,0.09c0.38,0.04,0.77,0.07,1.15,0.12c0.38,0.06,0.77,0.12,1.17,0.18
					c0.2,0.03,0.39,0.06,0.59,0.09c0.2,0.05,0.39,0.09,0.59,0.13c0.4,0.09,0.8,0.18,1.2,0.26c0.4,0.1,0.8,0.23,1.2,0.34
					c0.81,0.22,1.61,0.49,2.41,0.79c1.6,0.58,3.19,1.27,4.74,2.05c3.09,1.55,6,3.49,8.44,5.63c2.45,2.14,4.39,4.5,5.76,6.71
					c0.69,1.1,1.22,2.17,1.65,3.13c0.43,0.96,0.73,1.83,0.96,2.55c0.22,0.73,0.37,1.3,0.45,1.69c0.09,0.4,0.14,0.61,0.14,0.61
					s-0.05-0.21-0.15-0.6c-0.09-0.4-0.26-0.96-0.48-1.69c-0.25-0.71-0.55-1.58-1-2.53c-0.44-0.95-0.99-2.01-1.69-3.09
					c-0.69-1.09-1.53-2.22-2.49-3.34c-0.97-1.12-2.07-2.22-3.29-3.28c-2.44-2.12-5.33-4.03-8.41-5.57
					c-1.54-0.77-3.12-1.47-4.71-2.05c-0.79-0.3-1.59-0.57-2.39-0.79c-0.4-0.11-0.79-0.24-1.19-0.34c-0.4-0.09-0.8-0.18-1.19-0.26
					c-0.2-0.04-0.39-0.09-0.59-0.13c-0.2-0.03-0.39-0.06-0.59-0.09c-0.39-0.06-0.78-0.13-1.16-0.19c-0.38-0.05-0.77-0.09-1.14-0.13
					c-0.38-0.04-0.75-0.09-1.12-0.1c-0.74-0.05-1.46-0.1-2.15-0.1c-0.35,0-0.69-0.02-1.03-0.01c-0.33,0.01-0.66,0.02-0.99,0.03
					c-0.65,0.01-1.26,0.07-1.85,0.09c-0.59,0.04-1.14,0.09-1.67,0.14c-1.04,0.12-1.95,0.25-2.69,0.38
					c-0.75,0.12-1.32,0.25-1.72,0.33C91.76,120.71,91.55,120.76,91.55,120.76z"/>
				<g>
					<path class="st29" d="M114.22,129.71l-0.07-0.05C114.14,129.66,114.17,129.68,114.22,129.71z"/>
					<path class="st218" d="M135.95,131.73c-0.9,0.18-0.9,0.18-0.9,0.18l0.14-1.24c0,0-2.2-2.92-3.28-3.57
						c-0.64,0.84-0.64,0.84-0.64,0.84l-0.03-1.4c0,0-3.61-3.23-4.78-4.03c-0.31,1.08-0.71,1.5-0.71,1.5l0.12-2.23l-4.24-1.73
						l0.44-1.56l-2.55-1.13L118,118.7l0.44-1.82l-0.45-0.08c-0.66,2.19-1.6,4.44-3.35,3.99c-2.24-0.58-7.31-0.73-7.31-0.73
						c8.2,1.83,12.85,6.07,10.8,8.59c-1.83,2.23-3.54,1.31-3.91,1.07l5.52,3.8l2.2-1.44l-0.22,1.49c0,0,5.14,1.55,9.88,7.98
						c0.64-0.92,0.64-0.92,0.64-0.92l0.26,0.9c0,0,2.05-0.54,3.36,3.07C135.86,144.59,137.91,139.44,135.95,131.73z"/>
				</g>
				<g class="st71">
					<path class="st220" d="M135.95,131.73c-0.9,0.18-0.9,0.18-0.9,0.18l0.14-1.24c0,0-0.68-0.9-1.47-1.81
						c-0.18,0.54-0.45,1.17-0.84,1.73c-0.96,1.38-10.76-4.5-14.89-7.02c2.52,2.3,13.23,10.64,11.9,12.27
						c-1.33,1.63-3.96-0.17-3.96-0.17l-0.28-0.03c1.76,1.23,3.9,3.1,5.96,5.9c0.64-0.92,0.64-0.92,0.64-0.92l0.26,0.9
						c0,0,2.05-0.54,3.36,3.07C135.86,144.59,137.91,139.44,135.95,131.73z"/>
				</g>
				<g class="st214">
					<path class="st216" d="M97.41,125.81c0,0-2.6-0.32-2.65-2.68c-0.04-2.35,1.43-2.75,8.59-3.75c-4.85-1.27-6.82-0.86-4.13-2.4
						c0.84-0.47,1.89-0.88,2.98-1.22c-3.33,0.54-9.08,1.91-10.66,4.99l2.39,4.49l3.82,1.58l1.11-2.66l0.78,2.21l0.28,0.07
						l-1.45-3.14L97.41,125.81z"/>
				</g>
				<path class="st217" d="M99.34,122.8c0,0,1.78,2.44,2.74,1.18c0.97-1.25,1.61-0.15,2.13,1.57l5.12,2.75l1.44-2.13l0.78,2.09
					l1.5,0.59l1.06-2.62c0,0,0.91,2.46,2.02,2.19c1.11-0.27,1.52-5.1-5.08-6.96C104.47,119.61,96.33,120.75,99.34,122.8z"/>
			</g>
			<g>
				<path class="st212" d="M91.44,120.19l1.38,4.44l-4.07,5.84l-2.18-1.19l1.12,1.93l-1.65,4.42l-1.16-0.34l0.82,1.28l-1.67,6.8
					l-1.87,0.03l1.24,1.06l-0.71,0.66l0.45,0.78l-0.16,6.7l-2.52,0.19l1.53,0.9l-1.06,0.81l1.38,0.55l0.85,6.9l-1.16-0.2l0.51,0.57
					l-0.77,0.95l0.79,0.2c0,0,0.57,3.66,0.96,4.95c0,0-6.04-5.98-7.33-8.99c0.6-1.12,0.6-1.12,0.6-1.12l-1.18-0.04
					c0,0-2.36-3.6-2.78-6.19c0.78-1.25,0.78-1.25,0.78-1.25l-1.1,0.52L72,149.41l0.72-1.13l-1.04,0.45c0,0-1.44-4.3-1.42-6.78
					c1.13-2.56,1.13-2.56,1.13-2.56l-1.23,0.58c0,0-0.15-7.85,0.66-10.77c1.47-1.14,1.83-1.27,1.83-1.27l-1.61,0.03
					c0,0,1.81-4.52,3.47-6.56C76.75,118.64,84.73,115.03,91.44,120.19z"/>
				<g>
					<path class="st218" d="M87.32,128.59c-1.5-0.84-1.99-0.58-1.59,1.27c0.41,1.85-0.15,5.07-3.76,4.03
						c-3.61-1.05-2.69-5.14,3.72-12.56c-3.45,0.93-9.13,8.09-10.08,16.52c-1.31,0.31-4.16,1.49-5.47,2.05c0,0.06,0,0.09,0,0.09
						l1.23-0.58c0,0,0,0-1.13,2.56c-0.02,2.47,1.42,6.78,1.42,6.78l1.04-0.45L72,149.41l0.47,1.97l1.1-0.52c0,0,0,0-0.78,1.25
						c0.42,2.59,2.78,6.19,2.78,6.19l1.18,0.04c0,0,0,0-0.6,1.12c1.29,3.01,7.33,8.99,7.33,8.99c-0.38-1.29-0.96-4.95-0.96-4.95
						l-0.79-0.2l0.77-0.95l-0.51-0.57l1.16,0.2l-0.85-6.9l-1.38-0.55l1.06-0.81l-1.53-0.9l2.52-0.19l0.16-6.7l-0.45-0.78l0.71-0.66
						l-1.24-1.06l1.87-0.03l1.67-6.8l-0.82-1.28l1.16,0.34l1.65-4.42l-1.12-1.93l2.18,1.19l4.07-5.84l-0.24-0.78
						C90.28,125.92,88.68,129.35,87.32,128.59z"/>
				</g>
				<path class="st213" d="M83.36,168.16c0,0-0.57-0.7-1.43-2.03c-0.86-1.32-2.02-3.27-3.13-5.75c-1.11-2.47-2.19-5.47-2.89-8.79
					c-0.7-3.32-1.01-6.96-0.76-10.58l0.12-1.35c0.06-0.47,0.15-0.9,0.23-1.34c0.09-0.44,0.18-0.88,0.27-1.32
					c0.1-0.44,0.2-0.87,0.31-1.3c0.45-1.73,1.01-3.39,1.7-4.95c0.68-1.56,1.5-2.99,2.4-4.26c0.91-1.27,1.91-2.36,2.95-3.24
					c0.52-0.45,1.05-0.83,1.57-1.16c0.53-0.33,1.04-0.62,1.54-0.84c1-0.46,1.93-0.73,2.71-0.88c0.78-0.15,1.4-0.18,1.82-0.19
					c0.43,0,0.65,0.01,0.65,0.01s-0.22,0-0.65,0c-0.42,0.02-1.04,0.05-1.82,0.22c-0.77,0.16-1.69,0.44-2.68,0.92
					c-0.99,0.47-2.03,1.15-3.06,2.03c-1.03,0.88-2.01,1.97-2.9,3.23c-0.88,1.27-1.69,2.7-2.36,4.24c-0.67,1.55-1.23,3.2-1.67,4.92
					c-0.11,0.43-0.21,0.87-0.31,1.3c-0.09,0.44-0.18,0.87-0.27,1.31c-0.07,0.44-0.16,0.89-0.22,1.32l-0.12,1.35
					c-0.26,3.59,0.04,7.21,0.73,10.52c0.68,3.31,1.71,6.31,2.8,8.78c1.09,2.47,2.19,4.45,3.03,5.78
					C82.8,167.45,83.36,168.16,83.36,168.16z"/>
				<g>
					<path class="st217" d="M80.99,133.03c0.02,0.92-0.43,1.67-1,1.68c-0.57,0.01-1.05-0.72-1.06-1.64c-0.02-0.92,0.43-1.67,1-1.68
						C80.49,131.38,80.97,132.11,80.99,133.03z"/>
					<path class="st217" d="M82.02,135.48c0.01,0.39-0.19,0.72-0.44,0.73c-0.25,0-0.46-0.31-0.46-0.71
						c-0.01-0.4,0.19-0.72,0.44-0.73C81.81,134.76,82.01,135.08,82.02,135.48z"/>
					<path class="st217" d="M83.09,130.07c0.01,0.49-0.22,0.9-0.52,0.91c-0.3,0.01-0.55-0.4-0.55-0.89c-0.01-0.49,0.22-0.9,0.52-0.9
						C82.83,129.18,83.08,129.58,83.09,130.07z"/>
				</g>
				<path class="st221" d="M73.04,135.23c-0.67,0.01-1.22-0.88-1.24-2.03c-0.02-1.15,0.49-2.06,1.16-2.07
					c0.67-0.01,1.21,0.88,1.24,2.03C74.22,134.31,73.72,135.22,73.04,135.23z M72.97,131.37c-0.52,0.01-0.94,0.85-0.92,1.82
					c0.02,0.98,0.47,1.8,0.99,1.78c0.52-0.01,0.94-0.84,0.92-1.82C73.94,132.18,73.49,131.36,72.97,131.37z"/>
				<path class="st221" d="M74.5,136.28c-0.23,0-0.4-0.29-0.41-0.7c-0.01-0.41,0.15-0.71,0.38-0.71c0.23,0,0.4,0.29,0.4,0.7
					C74.88,135.97,74.72,136.27,74.5,136.28z M74.47,135.11c-0.04,0-0.14,0.16-0.14,0.46c0,0.3,0.12,0.46,0.15,0.46
					c0.04,0,0.14-0.17,0.14-0.46C74.62,135.27,74.51,135.11,74.47,135.11z"/>
				<path class="st217" d="M83.23,121.49c0,0-4.63,4.05-7.44,12.51c-0.8,3.73-1.68,3-4.25,4.28c0,0-0.61-6.3,0.33-8.79
					c3.42-2.54,4.03-2.67,4.03-2.67l-4.07,0.45c0,0,3.16-9.71,12.7-9.02C92.46,118.97,84.33,120.85,83.23,121.49z"/>
				<g>
					<path class="st218" d="M75.54,146.95c-1.46,0.11-2.92,0.81-3.97,1.45c0.06,0.21,0.1,0.33,0.1,0.33l1.04-0.45L72,149.41
						l0.47,1.97l1.1-0.52c0,0,0,0-0.78,1.25c0.42,2.59,2.78,6.19,2.78,6.19l1.18,0.04c0,0,0,0-0.6,1.12
						c1.29,3.01,7.33,8.99,7.33,8.99c-0.38-1.29-0.96-4.95-0.96-4.95l-0.79-0.2l0.77-0.95l-0.51-0.57l1.16,0.2l-0.85-6.9l-1.38-0.55
						l1.06-0.81l-1.53-0.9l2.52-0.19l0.01-0.66C79.15,151.38,78.56,148.46,75.54,146.95z"/>
				</g>
			</g>
			<g>
				<path class="st212" d="M91.75,120.47c0,0,4.36-5.34,13.26-5.26c0.05-0.74,0.05-0.74,0.05-0.74l0.51,0.86l4.26-0.27l-0.09-1.36
					l0.7,0.98c0,0,5.05-0.96,7.4-0.88c0.53-1.37,0.46-1.74,0.46-1.74l0.52,1.47c0,0,3.46-0.06,5.14,0.46
					c0.66-1.12,0.65-1.37,0.65-1.37l0.02,1.24c0,0,6.45,1.18,9.05,4.35c-0.15-1.48-0.35-2.04-0.35-2.04s1.72,2.75,1.86,3.55
					c0,0,1.17-6.76-5.19-12.95c-1.23,0.27-1.23,0.27-1.23,0.27l0.29-0.75c0,0-4.57-3.19-8.66-3.67c-1.34,1.26-1.58,1.51-1.58,1.51
					l0.03-1.92c0,0-2.97,0-4.88,0.28c-0.9,1.44-0.9,1.44-0.9,1.44l-0.33-1.17c0,0-5.01,0.15-8.51,1.52c-0.96,1.5-1.2,1.82-1.2,1.82
					l-0.28-1.6c0,0-3.06,1.66-4.9,2.62c-0.28,1.37-0.46,1.99-0.46,1.99l-0.52-1.29C96.89,107.82,92.88,111.54,91.75,120.47z"/>
				<path class="st213" d="M135.27,117.06c0,0-0.04-0.2-0.17-0.55c-0.13-0.36-0.35-0.86-0.71-1.47c-0.36-0.6-0.87-1.29-1.54-2
					c-0.68-0.7-1.52-1.41-2.53-2.07c-1.01-0.66-2.18-1.24-3.46-1.73c-1.29-0.49-2.69-0.88-4.16-1.18c-1.47-0.29-3.01-0.5-4.59-0.6
					c-1.57-0.08-3.18-0.03-4.77,0.13c-3.19,0.31-6.33,1.11-9.11,2.24c-2.79,1.12-5.24,2.54-7.15,3.99
					c-0.96,0.73-1.79,1.46-2.47,2.16c-0.69,0.7-1.22,1.36-1.62,1.94c-0.41,0.57-0.65,1.07-0.82,1.41c-0.14,0.35-0.22,0.53-0.22,0.53
					s0.07-0.18,0.21-0.54c0.16-0.34,0.4-0.85,0.8-1.42c0.78-1.17,2.13-2.71,4.04-4.19c1.91-1.48,4.35-2.94,7.16-4.08
					c2.8-1.14,5.95-1.96,9.17-2.29c1.6-0.15,3.22-0.2,4.81-0.11c1.58,0.11,3.13,0.32,4.62,0.62c2.97,0.6,5.64,1.66,7.65,3.01
					c1.01,0.67,1.85,1.41,2.52,2.13c0.66,0.73,1.15,1.43,1.51,2.04c0.35,0.61,0.56,1.12,0.69,1.48
					C135.23,116.86,135.27,117.06,135.27,117.06z"/>
				<g>
					<path class="st217" d="M106.99,111.78c0.01,0.6-0.38,1.1-0.87,1.11c-0.49,0.01-0.9-0.47-0.91-1.08
						c-0.01-0.6,0.38-1.1,0.87-1.11C106.57,110.69,106.98,111.17,106.99,111.78z"/>
					<path class="st217" d="M109.55,110.43c0,0.18-0.08,0.32-0.19,0.32c-0.11,0-0.2-0.14-0.21-0.31c0-0.18,0.08-0.32,0.19-0.32
						C109.46,110.12,109.55,110.26,109.55,110.43z"/>
					<path class="st217" d="M109.82,106c0,0.24-0.17,0.43-0.39,0.44c-0.22,0-0.41-0.19-0.41-0.42c-0.01-0.24,0.17-0.44,0.39-0.44
						C109.63,105.57,109.81,105.76,109.82,106z"/>
				</g>
				<g class="st214">
					<path class="st215" d="M130.03,106.77c-1.23,0.27-1.23,0.27-1.23,0.27l0.29-0.75c0,0-4.57-3.19-8.66-3.67
						c-1.34,1.26-1.58,1.51-1.58,1.51l0.03-1.92c0,0-0.21,0-0.54,0.01c-0.03,3.75-6.73,5.53-12.08,6.35
						c4.36-0.49,7.16,1.35,7.12,3.83c-0.01,0.83-0.28,1.42-0.63,1.85c0.79-0.07,4.53-0.46,5.11-0.44c0.53-1.37,0.46-1.74,0.46-1.74
						l0.52,1.47c0,0,3.46-0.06,5.14,0.46c0.66-1.12,0.65-1.37,0.65-1.37l0.02,1.24c0,0,6.45,1.18,9.05,4.35
						c-0.15-1.48-0.35-2.04-0.35-2.04s1.72,2.75,1.86,3.55C135.22,119.72,136.39,112.96,130.03,106.77z"/>
				</g>
				<g class="st210">
					<path class="st216" d="M130.03,106.77c-1.23,0.27-1.23,0.27-1.23,0.27l0.29-0.75c0,0-0.49-0.34-1.28-0.81
						c1.02,1.11,0.54,2.33-0.42,2.45c-1.11,0.14-4.22-0.54-10.9-0.67c5.95,0.39,9.19,2.06,11.45,3.87c1.41,1.13,1.1,2.77,0.66,3.85
						c1.84,0.69,3.89,1.74,5.1,3.21c-0.15-1.48-0.35-2.04-0.35-2.04s1.72,2.75,1.86,3.55C135.22,119.72,136.39,112.96,130.03,106.77
						z"/>
				</g>
				<g>
					<path class="st29" d="M105.04,114.71c0.06,0.01,0.11,0.02,0.17,0.02l-0.16-0.26C105.06,114.47,105.06,114.47,105.04,114.71z"/>
					<path class="st212" d="M105.57,115.33l3.91-0.24c-1.45-0.07-2.91-0.19-4.26-0.35L105.57,115.33z"/>
					<path class="st219" d="M99.52,112.65c1.21-1.38,4.52-2.93,4.52-2.93s-0.74,0.01-3.07,1.05c-2.33,1.03-2.85,0.05-2.89-2.67
						c-0.01-0.45,0.16-0.9,0.44-1.33c-0.23,0.12-0.45,0.24-0.65,0.34c-0.28,1.37-0.46,1.99-0.46,1.99l-0.52-1.29
						c0,0-4.02,3.72-5.15,12.65c0,0,4.36-5.34,13.26-5.26c0.02-0.23,0.03-0.39,0.03-0.5C101.46,114.26,98.76,113.51,99.52,112.65z"
						/>
				</g>
				<g>
					<path class="st219" d="M95.97,114.57c-3.03,1.38-1.94-2.27-1.94-2.27L94,112.27c-0.92,1.99-1.8,4.69-2.25,8.2
						c0,0,1.51-1.84,4.55-3.34C94.83,117.1,94.12,116.56,95.97,114.57z"/>
				</g>
				<path class="st217" d="M101.99,105.68l0.77,1.34l1.81-2.26c0,0,4.3-1.44,7.27-1.37c-0.1,1.49,0.4,1.35,0.4,1.35l1.95-1.77
					l3.09-0.3c0,0-2.05,3.01-7.1,4.09c-5.05,1.09-4.8,1.08-8.62,2.39C97.75,110.46,98.67,106.73,101.99,105.68z"/>
			</g>
		</g>
	</g>
	<path class="st1" d="M245.36,117.65c0,0-0.03-0.2-0.05-0.33c0-2.63-0.63-6.55-3.83-10.33c-1.22,0.27-1.22,0.27-1.22,0.27l0.37-0.77
		c0,0-0.1-0.08-0.25-0.2c-0.04-0.03-0.07-0.05-0.12-0.09c-0.16-0.12-0.36-0.26-0.61-0.44c-0.06-0.05-0.09-0.07-0.16-0.12
		c0,0,0,0,0,0.01c-1.47-1.02-4.17-2.66-6.82-3.02c-1.44,1.29-1.71,1.55-1.71,1.55l0.25-1.98c0,0-2.87-0.03-4.76,0.25
		c-1.04,1.48-1.04,1.48-1.04,1.48l-0.18-1.21c0,0-4.87,0.12-8.42,1.49c-1.1,1.54-1.38,1.86-1.38,1.86l-0.08-1.65
		c0,0-3.16,1.69-5.05,2.66c-0.43,1.41-0.67,2.05-0.67,2.05l-0.35-1.33c0,0-1.05,0.93-2.37,2.97c0.09-0.57,0.18-1.14,0.23-1.68
		c0.02-0.19,0.02-0.35,0.04-0.53c0.05-0.61,0.09-1.19,0.1-1.73c0.01-0.23,0.01-0.43,0.01-0.65c0-0.46,0-0.88-0.02-1.25
		c-0.01-0.15-0.01-0.29-0.02-0.43c0-0.07,0-0.16-0.01-0.23c0,0.02,0,0.05,0,0.08c-0.05-0.83-0.12-1.39-0.12-1.39l-1.36,0.01
		l1.18-0.61l-0.33-1.18c0,0,0,0,0,0l-0.74-2.63l-0.78-0.25l0.23-0.77L204.59,95l-1.06,0.18c0,0,0,0,0.52-1.28
		c-2.74-5.66-9.2-7.46-9.2-7.46l0.2,4.58l1.2-0.01l-0.98,1.03l0.81,4.92l1.51,0.07l-1.23,1.12l0.57,3.22l1.17,0.33
		c0,0,0,0-0.96,0.86c1.2,2.24,1.33,6.14,1.31,8.04c0,0.09,0,0.15,0,0.23c-1.27-1.11-2.33-1.72-2.33-1.72l0.34-1.02l-1.65,0.53
		c0,0,0,0,0.49-0.94c-0.82-0.62-1.84-1.11-2.91-1.52c-0.06-0.02-0.11-0.05-0.17-0.08c-1.03-0.39-2.09-0.68-3.1-0.92
		c-0.06-0.01-0.13-0.04-0.19-0.05c0,0,0,0,0,0.01c-2.38-0.54-4.34-0.71-4.34-0.71l-2.39,1.55c0,0,0.27-0.35,0.69-1.37
		c-1.92,0.02-3.91,0.72-3.91,0.72l-1.22,1.88l0.3-1.45l-4.36,1.24l-1.4,2.14c0,0,0,0-0.01-1.53c-3.27,2.41-7.88,7.99-8.69,13.18
		c1-1.28,3.73-2.25,3.73-2.25l0.53-2.21l0.3,1.86l1.38-0.18l0.95-2.39l-0.02,1.87l4.17-0.98l0.74-3.58l0.64,2.46l1.97-0.53
		l0.58-1.87l0.12,2.12l1.75,0.13c0,0,0,0,0,0l2.22,0.16l1.05-1.8l-0.35,2.04l1.62,0.29l0,0l1.05,0.19l1.83-2.4c0,0,0,0-0.68,2.98
		c1,0.11,3.46,1.01,4.67,1.46c0,0,0,0,0,0c0.11,0.04,0.17,0.06,0.25,0.1c-0.18,0.05-0.35,0.09-0.53,0.15l0.1-0.14
		c0,0-0.1-0.01-0.26-0.03c-0.09-0.01-0.15-0.02-0.32-0.03c-0.07-0.01-0.11-0.01-0.2-0.02c0,0-0.01,0-0.01,0.01
		c-2.37-0.21-10.29-0.31-18.36,6.33c0.06,1.02,0.06,1.02,0.06,1.02l-1.38,0.18l0.25,0.76l-1.25,0.86l0,0l-2,1.38l0.18,0.59
		c0,0-0.73,0.59-1.66,2.08c-0.24,0.39-0.5,0.87-0.76,1.39c-0.08,0.15-0.15,0.29-0.22,0.46c-0.28,0.6-0.56,1.28-0.84,2.05
		c-0.05,0.14-0.09,0.29-0.14,0.43c-0.25,0.74-0.48,1.55-0.69,2.44c-0.05,0.19-0.09,0.35-0.14,0.55c-0.23,1.02-0.42,2.15-0.59,3.37
		c-0.04,0.27-0.07,0.55-0.1,0.84c-0.13,1.11-0.23,2.3-0.29,3.59c0,0.06-0.02,0.18-0.02,0.23c-0.02,0.31-0.02,0.47-0.02,0.47
		c0.56-0.96,1.09-1.82,1.61-2.62c0.16-0.24,0.31-0.46,0.46-0.68c0.38-0.56,0.74-1.08,1.1-1.56c0.14-0.19,0.28-0.39,0.42-0.56
		c0.45-0.59,0.88-1.13,1.29-1.6c0.01-0.01,0.02-0.02,0.03-0.03c0.42-0.49,0.81-0.9,1.17-1.27c0.1-0.11,0.2-0.2,0.3-0.3
		c0.26-0.25,0.5-0.48,0.71-0.68c0.08-0.07,0.16-0.15,0.24-0.21c0.26-0.22,0.5-0.42,0.68-0.56c0,0,0.01-0.01,0.01-0.01
		c0.43-0.33,0.67-0.46,0.67-0.46l-0.73-1.61l0.97,0.67c0,0,4.15-3.27,5.73-3.88l-0.06-1.87l0.53,1.1l0.56-0.86l0.3,0.25l3.75-1.63
		c-0.28,0.19-0.63,0.43-1.13,0.81c-1.13,3.01-1.9,11.1-1.9,11.1l1.26-0.59c0,0,0,0-1.39,2.63c-0.3,2.55,0.59,7,0.59,7l1.06-0.46
		l-0.83,1.16l0.22,2.03l1.13-0.52c0,0,0,0-0.9,1.29c0.1,2.67,1.97,6.41,1.97,6.41l1.13,0.05c0,0,0,0-0.71,1.15
		c0.9,3.11,6.05,9.33,6.05,9.33c-0.22-1.33-0.35-5.12-0.35-5.12l-0.75-0.21l0.86-0.97l-0.43-0.59l1.1,0.21l-0.02-7.12l-1.27-0.58
		l1.13-0.83l-1.38-0.94l2.46-0.18l0.94-6.91l-0.34-0.81l0.76-0.68l-1.08-1.1l1.82-0.02l2.41-7l-0.64-1.33l1.08,0.36l2.11-4.55
		l-0.86-2l1.98,1.24l2.51-3.25c0.49,1.87,1.4,5.48,1.74,7.44c0.21-0.1,0.32-0.15,0.5-0.24c0.01,0.03,0.02,0.08,0.03,0.12
		c0.61,2.62,1.75,8.12,1.41,11.65c0.37-0.12,0.61-0.2,0.87-0.28c0,0.05,0,0.07,0.01,0.12c0.01,0.14,0.01,0.32,0.02,0.48
		c0.13,3.08,0.29,9.21-0.3,13.52c0.27,0.03,0.41,0.04,0.62,0.06c-0.05,0.47-0.12,1.03-0.2,1.69c-0.46,3.88-1.35,10.49-2.37,13.65
		c0.3,0.06,0.47,0.1,0.7,0.15l-0.45,2.68l0,0l-1.93,11.37l0.6-0.01l-3.09,9.91l2.8,0.29l1.14-1.57l-0.34,1.72l0.8,0.15l0.82-0.89
		l0.14,1.18l0.26,0.03c0,0,0,0,0,0l2.44,0.31c0,0,0.66-1.49,0.71-1.29c0.05,0.2,0.05,1.17,0.05,1.17l1.34-0.22c0,0,0,0,0,0
		l1.33-0.22c0,0,0.67-5.26,0.77-8.65c0,0,0.01,0,0.01,0c0.01-0.2,0-0.37,0-0.55c0-0.16,0.01-0.33,0-0.47
		c-0.01-0.42-0.02-0.79-0.06-1.08c-0.02-0.12-0.09-0.26-0.13-0.38l0.55-0.22c0,0,0.36-6.98,0.29-11.43c0,0,0.01,0,0.01,0
		c0-0.26-0.01-0.47-0.02-0.71c-0.01-0.21-0.01-0.43-0.02-0.62c0-0.08,0-0.17-0.01-0.24l0.45-0.16c0,0,0.7-7.95-0.4-13.96
		c0,0,0,0,0,0c-0.08-0.42-0.19-0.79-0.29-1.19l0.7,0.04c0,0-0.31-7.18-1.36-13.87c0-0.02,0-0.04,0-0.06
		c-0.01-0.05-0.02-0.1-0.03-0.16c-0.05-0.33-0.11-0.65-0.17-0.98c0,0,0.01,0,0.01-0.01c-0.04-0.24-0.09-0.46-0.13-0.7l0.84-0.62
		c0,0-0.52-1.94-1.2-4.32c0,0,0-0.01,0-0.01c-0.04-0.13-0.08-0.27-0.12-0.4c-0.14-0.47-0.27-0.93-0.42-1.42
		c-0.09-0.3-0.17-0.58-0.26-0.88c-0.16-0.53-0.32-1.04-0.48-1.55c-0.08-0.25-0.16-0.5-0.23-0.74c-0.17-0.53-0.33-0.99-0.49-1.45
		c-0.05-0.13-0.1-0.3-0.14-0.42c0,0,0,0,0,0c-0.01-0.01-0.01-0.02-0.01-0.04c-0.01-0.04-0.03-0.06-0.04-0.1
		c-0.1-0.27-0.18-0.46-0.27-0.68l0.77-0.35l-2.69-5.74l1.57,0.74l1.38-2.73l0.5,2.29l0.27,0.07v0l2.54,0.66l0.64-2.47l0.44,2.03
		l5.63,3l1.22-1.89l0.09,1.62l1.97,0.32l0.95-1.63l-0.09,1.78l4.97,4.02l2.3-1.47l-0.39,1.53c0,0,1.73,0.62,3.92,2.51
		c0.17,0.15,0.34,0.3,0.51,0.46c0.28,0.26,0.56,0.55,0.85,0.85c0.18,0.19,0.36,0.37,0.55,0.58c0.31,0.35,0.62,0.74,0.92,1.14
		c0.17,0.21,0.33,0.41,0.5,0.64c0.47,0.65,0.94,1.36,1.39,2.14c0.73-0.94,0.73-0.94,0.73-0.94l0.15,0.93c0,0,2.05-0.53,2.89,3.19
		c0,0,2.59-5.29,1.59-13.27c-0.9,0.18-0.9,0.18-0.9,0.18l0.28-1.28c0,0-0.09-0.15-0.22-0.36c-0.04-0.07-0.04-0.07-0.09-0.15
		c-0.16-0.26-0.37-0.58-0.61-0.94c-0.05-0.08-0.09-0.13-0.14-0.21c-0.05-0.07-0.09-0.14-0.15-0.22c0,0,0,0.01-0.01,0.01
		c-0.53-0.76-1.12-1.53-1.55-1.83c-0.72,0.86-0.72,0.86-0.72,0.86l0.14-1.45c0,0-3.12-3.36-4.16-4.2c-0.43,1.11-0.87,1.54-0.87,1.54
		l0.38-2.3l-3.9-1.82l0.61-1.6l-2.34-1.18l-1.63,1.37l0.64-1.88l-4.59-0.93l-1.81,1.09l0.6-1.19c0,0-3.38-0.57-6.26-0.51
		c-1.44,1.19-1.44,1.19-1.44,1.19l0.31-1.24c0,0-1.01,0.09-2.43,0.32c0.01,0,0.02-0.01,0.04-0.02c-0.22,0.04-0.48,0.09-0.73,0.13
		c-0.17,0.03-0.31,0.05-0.48,0.09c-0.58,0.11-1.2,0.25-1.85,0.41c-0.16,0.04-0.32,0.09-0.48,0.13c-0.53,0.14-1.07,0.31-1.6,0.49
		c-0.18,0.06-0.36,0.12-0.53,0.18c-0.48,0.18-0.95,0.38-1.41,0.59c0.22-0.13,0.44-0.26,0.69-0.39c2.25-1.19,5.31-2.26,9.17-2.19
		c0.04-0.24,0.07-0.4,0.09-0.52h0c0.03-0.18,0.04-0.25,0.04-0.25s0,0-0.04,0.25c0.05,0.01,0.11,0.02,0.16,0.02l0.27,0.62l4.16-0.24
		l0.07-1.4l0.56,1.01c0,0,1.52-0.28,3.25-0.53c1.38-0.13,3.6-0.34,4.02-0.32c0.67-1.41,0.65-1.79,0.65-1.79l0.33,1.53
		c0,0,3.36-0.04,4.93,0.52c0.77-1.15,0.79-1.41,0.79-1.41l-0.12,1.28c0,0,1.81,0.39,3.81,1.27c0.79,0.34,1.61,0.77,2.36,1.28
		c0.06,0.04,0.11,0.09,0.17,0.13c0.76,0.54,1.45,1.16,1.93,1.89c0.02-1.53-0.1-2.1-0.1-2.1s1.35,2.86,1.39,3.68
		c0,0,0.3-1.2,0.31-3.03C245.33,117.46,245.36,117.65,245.36,117.65z M202.87,120.73c-0.08,0.1-0.17,0.2-0.24,0.3l-0.03-0.18
		c0.05-0.27,0.03-0.52,0.06-0.78l0.22,0.43c0.01-0.01,0.01-0.02,0.02-0.03c-0.03,0.12-0.06,0.21-0.09,0.33
		C202.8,120.8,202.86,120.74,202.87,120.73z M202.69,121.4l0.21,0.54c-0.03,0.04-0.06,0.07-0.09,0.11L202.69,121.4z"/>
</g>
</svg>
