<?xml version="1.0" encoding="utf-8"?>
<!-- Generator: Adobe Illustrator 25.1.0, SVG Export Plug-In . SVG Version: 6.00 Build 0)  -->
<svg version="1.1"  width="16px" height ="16px" id="Layer_1" xmlns="http://www.w3.org/2000/svg" xmlns:xlink="http://www.w3.org/1999/xlink" x="0px" y="0px"
	 viewBox="0 0 300 300"   style="enable-background:new 0 0 300 300;" xml:space="preserve">
<style type="text/css">
	.st0{clip-path:url(#SVGID_2_);}
	.st1{fill:#231F20;}
	.st2{fill:#FF0000;}
	.st3{fill:#FB8538;}
	.st4{fill:#91D050;}
	.st5{fill:#FF8F2A;}
	.st6{fill:#E22024;}
	.st7{fill:#FF2500;}
	.st8{fill:#FFFFFF;}
	.st9{fill:#006FC0;}
	.st10{fill:#FFFF01;}
	.st11{fill:#231F20;stroke:#231F20;stroke-width:0.25;stroke-miterlimit:10;}
	.st12{fill:#FF29FF;}
	.st13{opacity:0.24;fill:none;stroke:#231F20;stroke-width:0.25;stroke-miterlimit:10;}
	.st14{fill:#D0CECE;}
	.st15{fill:#02A0E3;}
	.st16{fill:#58585A;}
	.st17{fill:#AEB1B3;}
	.st18{fill:#7F7F7F;}
	.st19{fill:#888888;}
	.st20{fill:none;stroke:#231F20;stroke-miterlimit:10;}
	.st21{fill:#C46321;}
	.st22{fill:#231F20;stroke:#888888;stroke-width:0.25;stroke-miterlimit:10;}
	.st23{fill:#484949;}
	.st24{fill:#B4B6B6;}
	.st25{fill:none;stroke:#231F20;stroke-width:0.25;stroke-miterlimit:10;}
	.st26{clip-path:url(#SVGID_6_);}
	.st27{fill:#0A0A0A;}
	.st28{fill:#FDFDFD;}
	.st29{fill:none;}
	.st30{fill:#040404;stroke:#FFFFFF;stroke-width:0.25;stroke-miterlimit:10;}
	.st31{clip-path:url(#SVGID_8_);}
	.st32{fill:#161616;}
	.st33{fill:#323232;}
	.st34{fill:#C1C1C1;}
	.st35{fill:#AEB1B3;stroke:#161616;stroke-width:0.25;stroke-miterlimit:10;}
	.st36{fill:#0D0D0D;}
	.st37{fill:#FFFFFF;stroke:#161616;stroke-miterlimit:10;}
	.st38{fill:#6E6E6E;}
	.st39{fill:#D9D9D9;}
	.st40{fill:#161616;stroke:#161616;stroke-width:0.5;stroke-miterlimit:10;}
	.st41{fill:#888888;stroke:#58585A;stroke-width:0.25;stroke-miterlimit:10;}
	.st42{fill:#040404;stroke:#FFFFFF;stroke-width:0.5;stroke-miterlimit:10;}
</style>
<g>
	<defs>
		<rect id="SVGID_1_" x="-257695904" y="-257699136" width="515396064" height="515396064"/>
	</defs>
	<clipPath id="SVGID_2_">
		<use xlink:href="#SVGID_1_"  style="overflow:visible;"/>
	</clipPath>
</g>
<g>
	<g>
		<path class="st39" d="M274.7,151.11c0,5.85-2.96,9.61-7.73,10.08H42.1c3.76-2.22,6.38-6.38,6.38-11.22
			c0-4.77-2.62-8.94-6.38-11.16h224.74C271.74,139.48,274.7,144.12,274.7,151.11z"/>
	</g>
	<g>
		<path class="st32" d="M266.97,137.13H36.18c-0.06,0-0.06,0-0.14,0c0,0-0.06,0-0.14,0h-1.68v0.2c-5.98,0.95-10.62,6.25-10.62,12.64
			c0,6.45,4.64,11.76,10.62,12.7v0.2h1.68c0.07,0,0.14,0,0.14,0c0.07,0,0.07,0,0.14,0l230.85-0.06c5.78-0.54,9.35-4.97,9.35-11.69
			C276.38,143.18,272.88,137.93,266.97,137.13z M35.91,161.19c-5.84-0.14-10.62-5.1-10.62-11.22c0-6.05,4.77-11.02,10.62-11.16h0.27
			c5.84,0.14,10.62,5.1,10.62,11.16c0,6.12-4.77,11.09-10.62,11.22H35.91z M266.97,161.19H42.1c3.76-2.22,6.39-6.39,6.39-11.22
			c0-4.77-2.63-8.94-6.39-11.16h224.74c4.91,0.68,7.85,5.31,7.85,12.31C274.69,156.96,271.75,160.72,266.97,161.19z"/>
	</g>
	<g>
		<path class="st19" d="M46.8,149.97c0,6.12-4.77,11.09-10.62,11.22h-0.27c-5.84-0.14-10.62-5.1-10.62-11.22
			c0-6.05,4.77-11.02,10.62-11.16h0.27C42.03,138.95,46.8,143.91,46.8,149.97z"/>
	</g>
</g>
</svg>
