<?xml version="1.0" encoding="utf-8"?>
<!-- Generator: Adobe Illustrator 25.1.0, SVG Export Plug-In . SVG Version: 6.00 Build 0)  -->
<svg version="1.1"  width="16px" height ="16px" id="Layer_1" xmlns="http://www.w3.org/2000/svg" xmlns:xlink="http://www.w3.org/1999/xlink" x="0px" y="0px"
	 viewBox="0 0 300 300"   style="enable-background:new 0 0 300 300;" xml:space="preserve">
<style type="text/css">
	.st0{clip-path:url(#SVGID_2_);}
	.st1{fill:#231F20;}
	.st2{fill:#FF0000;}
	.st3{fill:#FB8538;}
	.st4{fill:#91D050;}
	.st5{fill:#FF8F2A;}
	.st6{fill:#E22024;}
	.st7{fill:#FF2500;}
	.st8{fill:#FFFFFF;}
	.st9{fill:#006FC0;}
	.st10{fill:#FFFF01;}
	.st11{fill:#231F20;stroke:#231F20;stroke-width:0.25;stroke-miterlimit:10;}
	.st12{fill:#FF29FF;}
	.st13{opacity:0.24;fill:none;stroke:#231F20;stroke-width:0.25;stroke-miterlimit:10;}
	.st14{fill:#D0CECE;}
	.st15{fill:#02A0E3;}
	.st16{fill:#58585A;}
	.st17{fill:#AEB1B3;}
	.st18{fill:#7F7F7F;}
	.st19{fill:#888888;}
	.st20{fill:none;stroke:#231F20;stroke-miterlimit:10;}
	.st21{fill:#C46321;}
	.st22{fill:#231F20;stroke:#888888;stroke-width:0.25;stroke-miterlimit:10;}
	.st23{fill:#484949;}
	.st24{fill:#B4B6B6;}
	.st25{fill:none;stroke:#231F20;stroke-width:0.25;stroke-miterlimit:10;}
	.st26{clip-path:url(#SVGID_6_);}
	.st27{fill:#0A0A0A;}
	.st28{fill:#FDFDFD;}
	.st29{fill:none;}
	.st30{fill:#040404;stroke:#FFFFFF;stroke-width:0.25;stroke-miterlimit:10;}
	.st31{clip-path:url(#SVGID_8_);}
	.st32{fill:#161616;}
	.st33{fill:#323232;}
	.st34{fill:#C1C1C1;}
	.st35{fill:#AEB1B3;stroke:#161616;stroke-width:0.25;stroke-miterlimit:10;}
	.st36{fill:#0D0D0D;}
	.st37{fill:#FFFFFF;stroke:#161616;stroke-miterlimit:10;}
	.st38{fill:#6E6E6E;}
	.st39{fill:#D9D9D9;}
	.st40{fill:#161616;stroke:#161616;stroke-width:0.5;stroke-miterlimit:10;}
	.st41{fill:#888888;stroke:#58585A;stroke-width:0.25;stroke-miterlimit:10;}
	.st42{fill:#040404;stroke:#FFFFFF;stroke-width:0.5;stroke-miterlimit:10;}
</style>
<g>
	<defs>
		<rect id="SVGID_1_" x="-257703152" y="-257698816" width="515396064" height="515396064"/>
	</defs>
	<clipPath id="SVGID_2_">
		<use xlink:href="#SVGID_1_"  style="overflow:visible;"/>
	</clipPath>
</g>
<path class="st1" d="M268.4,139.08v-5.49h-10.92v-6.71H252v6.71h-17.36v-6.71h-5.49v6.71h-17.36v-6.71h-5.49v6.71h-17.36v-6.71
	h-5.49v6.71H166.1v-6.71h-5.49v6.71h-17.36v-6.71h-5.49v6.71H120.4v-6.71h-5.49v6.71H97.55v-6.71h-5.49v6.71H74.71v-6.71h-5.49v6.71
	H51.86v-6.71h-5.49v6.71H31.6v5.49h14.77v22.89H31.6v5.49h14.77v5.66h5.49v-5.66h17.36v5.66h5.49v-5.66h17.36v5.66h5.49v-5.66h17.36
	v5.66h5.49v-5.66h17.36v5.66h5.49v-5.66h17.36v5.66h5.49v-5.66h17.36v5.66h5.49v-5.66h17.36v5.66h5.49v-5.66h17.36v5.66h5.49v-5.66
	H252v5.66h5.49v-5.66h10.92v-5.49h-10.92v-22.89H268.4z M51.86,161.97v-22.89h17.36v22.89H51.86z M74.71,161.97v-22.89h17.36v22.89
	H74.71z M97.55,161.97v-22.89h17.36v22.89H97.55z M120.4,161.97v-22.89h17.36v22.89H120.4z M143.25,161.97v-22.89h17.36v22.89
	H143.25z M166.1,161.97v-22.89h17.36v22.89H166.1z M188.94,161.97v-22.89h17.36v22.89H188.94z M211.79,161.97v-22.89h17.36v22.89
	H211.79z M252,161.97h-17.36v-22.89H252V161.97z"/>
</svg>
