<?xml version="1.0" encoding="UTF-8"?>
<!DOCTYPE svg PUBLIC "-//W3C//DTD SVG 1.1//EN" "http://www.w3.org/Graphics/SVG/1.1/DTD/svg11.dtd">
<!-- Creator: CorelDRAW 2020 (64-Bit) -->
<svg xmlns="http://www.w3.org/2000/svg" xml:space="preserve" width="3.93701in" height="3.93701in" version="1.1" style="shape-rendering:geometricPrecision; text-rendering:geometricPrecision; image-rendering:optimizeQuality; fill-rule:evenodd; clip-rule:evenodd"
viewBox="0 0 3934.02 3934.02"
 xmlns:xlink="http://www.w3.org/1999/xlink"
 xmlns:xodm="http://www.corel.com/coreldraw/odm/2003">
 <defs>
  <style type="text/css">
   <![CDATA[
    .fil0 {fill:none}
    .fil1 {fill:black}
    .fil2 {fill:#5F5F5F}
    .fil3 {fill:#A4A4A4}
   ]]>
  </style>
 </defs>
 <g id="Layer_x0020_1">
  <metadata id="CorelCorpID_0Corel-Layer"/>
  <rect class="fil0" width="3934.02" height="3934.02"/>
  <g id="_2071782152080">
   <path class="fil1" d="M2575.34 2381.03l6.25 1.96 -9.73 -101.8c98.74,26.22 67.98,94.84 95.32,62.53 -17.9,-12.09 -36.57,-43.31 -52.28,-61.7 -77.32,-90.49 -133.88,39.9 -170.24,-175.48 -15,-88.9 -41.56,-90.25 -99.57,-131.79 -30.58,-21.9 -153.69,-155.67 -43,-119.17 73.92,24.38 93.32,-26.86 161.54,-7.05 80.54,23.38 96.19,122.01 103.8,141.97 15.84,41.5 75.3,49.86 116.14,130.55 28.66,56.61 22.05,151.59 22.05,218 9.04,-9.54 1.11,7.81 13.08,-19.61 2.64,-6.03 5.33,-18.8 6.22,-24.03 41.23,-241.73 -104.63,-253.02 -103.57,-319.72 34.08,-11.53 55.97,0.32 86.12,21.26 102.14,70.95 44.23,51.2 108.29,137.38l61.07 64.47c-9.86,-107.97 -53.74,-54.64 -72.33,-113.59 -11.04,-35.02 4.99,-46.13 -20.19,-72.95 -37.12,-39.54 -140.55,-73.35 -179.38,-97.35 -23.19,-14.34 -87.98,-78.81 -45.26,-108.02 30.89,-21.12 90.23,41.58 114.13,54.67 48.04,26.31 77.68,-10.57 140,28.94 88.32,56 0.18,123.96 217.13,146.94l-73.04 -36.96c-27.32,-14.34 -46.65,-26.64 -58.6,-49.79 -18.81,-36.44 -9.38,-42.82 -38.53,-68.44 -83.6,-73.48 -107.12,-44.43 -162.36,-52.02 -23.8,-3.27 -52.8,-21.73 -75.78,-33.15 -195.16,-96.93 -71.55,-187.92 70.38,-116.29 28.2,14.23 53.99,29.9 73.87,49.09 31.29,30.19 22.44,52.41 41.81,73.52 5.04,5.5 61.3,32.73 79.02,43.85 92.92,58.33 78.99,-42.42 286.98,-35.54 -153.82,-102.3 -186.31,99.31 -324.06,-19.63 -14.57,-12.58 -21.37,-21.69 -31,-39.04 -24.46,-44.08 -3.96,-41.96 -2.41,-43.51 8.38,-8.37 78.39,-6.53 102.89,-2.62 39.52,6.32 52.44,25.21 100.78,25.37 48.93,0.17 140.08,-35.41 204.47,-43.93 -5.44,-4.98 -2.32,-12.24 -42.92,-21.04 -127.67,-27.66 -47.06,65.73 -296.48,12.13 -54.04,-11.61 -92.02,-63.44 -155.98,-56.64 -101.98,10.84 -61.38,-36.92 -170.65,-33.4 -71.23,2.3 -114.62,20.72 -162.63,54.25 -108.33,75.65 -222.03,123.19 -221.5,-67.6 0.25,-89.53 11.66,-96.01 42.9,-159.13l-69.15 -17.85 -125 0c-52.09,23.54 -137.3,25.75 -201.58,59.38 30.76,71.13 67.19,54.17 21.93,155.51 -28.85,64.61 -47.33,80.77 -131.16,92.06 -93.16,12.55 -319.23,5.55 -392.38,-36.87 -111.44,-64.63 -49.94,1.96 -161.04,-61.75 -81.97,-47.01 -88.2,-24.34 -177.3,-46.21 -160.74,-39.45 -217.81,1.18 -273.73,130.73 29.3,-37.68 58.48,-91.66 110.38,-103.19 27.35,-6.07 59.11,8.34 95.46,5.78 36.79,-2.59 51.41,-18.33 88.1,-13.99 57.46,6.81 90.12,49.43 155.61,58.79 30.96,4.43 111.17,4.1 128.12,34.82 43.6,79.04 -144.56,17.93 -161.14,20.46 -140.85,21.54 -44.98,17.66 -159.76,-9.32 -91.75,-21.56 -190.47,151.16 -207.75,163.41 26.66,-7.61 50.86,-40.98 75.85,-60.88 23.38,-18.63 53.79,-55.25 73.65,-65.47 41.89,-21.56 71.04,2.5 114.66,7.97 43.92,5.51 87.23,0.42 131.52,6.68 44.11,6.24 82.5,15.79 128.89,13.17 89.46,-5.06 324.63,-52.27 357.19,16.12 38.61,81.09 -124.54,194.01 -374.62,81.81 -105.38,-47.28 -97.9,-55 -227.39,-41.01 -56.24,6.07 -91.07,-18.48 -126.85,-11.45 -0.55,0.11 -102.95,45.86 -81.39,55.49 22.77,-21.17 44.48,-32.8 72.59,-24.44 9.5,24.18 8.13,35.57 -7.26,59.93l-20.91 24.83c-17.66,18.17 -15.66,6.95 -3.4,22.14 33.36,-72.02 71.88,-117.91 165.39,-109.2 80.29,7.47 170.79,12.15 207.14,60.95 48.47,65.08 -3.91,128.44 -76.5,142.32 -75.32,14.4 -163.87,23.32 -243.37,27.86 109.64,18.29 267.41,25.9 351.26,-50.22 89.97,-81.67 157.59,-22.1 341.43,-81.74 122.13,-39.62 147.88,-73.77 197.18,-46.77 1.18,28.9 -18.05,93.1 -28.62,115.63 -22.01,46.92 -49.66,18.17 -95.03,16.56 -43.21,-1.53 -38.97,32.12 -99.97,40.74 -49.18,6.96 -81.61,-6 -122.23,17.38 -117.91,67.86 -58.85,115.72 -169.58,86.25 -87.92,-23.41 -170.15,28.7 -210.24,58.04 37.79,-4.61 143.04,-68.5 170.38,10.36 -14.74,52.84 -53,48.28 -95.45,66.85 35.61,2.36 96.45,-11.73 124.94,-32.71 52.5,-38.66 -5.47,-43.17 86.12,-75.13 48.23,-16.83 55.82,-43.47 90.89,-70.23 30.21,-23.05 132.4,-73.37 124.52,1.18 -6.13,57.98 -92.42,31.12 -101.05,135.48 -4.63,55.98 -1.2,71.12 -30.72,109.17 -65.74,84.72 -78.25,56.26 -54.83,72.98 27.59,-28 65.17,-23.85 84.86,-65.61 44.05,-93.44 -4.78,-130.42 97.56,-202.53 27.73,-19.54 50.28,-48.57 93.31,-41.62 21.33,122.96 56.58,87.04 65.51,149.65 3.93,27.55 -17.05,145.46 -19.08,183.26 10.81,-33.15 60.74,-157.94 58.28,-183.71 -4.48,-46.91 -74.92,-95 -39.97,-172.15 13,-28.68 39.77,-31.85 67.86,-55.54 21.93,-18.49 39.41,-35.09 58.55,-56.32 20.69,-22.95 32.52,-40.48 48.64,-74.24 62.51,-130.84 108.8,-6.82 93.9,102.01 -10.11,73.87 -49.03,66.79 -72.8,118.58 -54.87,119.53 -80.38,131.87 -19.13,300.45 -8.01,-144.46 -50.77,-116.52 41.34,-224.06 82.35,-96.14 103.69,38.11 94.9,116.88 -6.9,61.82 20.24,160.17 24.79,148.14 0.43,-1.14 1.77,3.79 2.85,5.57 -6.03,-45.54 -20.28,-86.52 1.77,-131.18 78.58,-13.5 105.31,116.72 133.71,179.84 -0.99,-48.56 -23.91,-126.5 -42.4,-167.79 -56.21,-125.52 -69.03,-50.72 -91.05,-124.31 -12.74,-42.56 -17.34,-158.49 -0.08,-195.02 13.15,-27.82 75.38,-95.19 123.6,-76.18 31.44,12.4 88.53,74.4 89.44,128.13 1.03,60.38 -87.56,45.4 -56.02,147 22.2,71.53 79.95,30.55 80.81,136.88 0.71,88.02 -61.46,150.66 -49.34,159.52 27.4,-34.71 92.4,-113.98 93.87,-175.22 1.46,-60.82 -87.8,-91.28 -77.29,-184.15 25.28,-27.89 36.12,-11.27 48.19,-44.01 7.91,-21.43 -0.45,-26.33 13.15,-57.42 0.54,-1.22 2.78,-2.11 3.2,-4.91 0.42,-2.77 2.12,-3.25 3.45,-4.65 41.03,8.29 70.39,135.8 98.63,167.33 25.57,28.55 62.83,18.58 85.03,53.59 10.72,16.91 30.42,72.16 33.42,95.53z"/>
   <path class="fil2" d="M1723.85 2460.2c-1.59,2.36 -3.52,4.91 -4.75,7.09 -1.16,2.06 -3.03,4.32 -4.34,6.84 -7.93,15.26 -17.98,38.16 -5.91,52.92l15 -66.85z"/>
   <path class="fil3" d="M2581.59 2382.99l-6.25 -1.96 2.14 31.94c6.78,-9.12 35.04,19.06 4.11,-29.98z"/>
  </g>
 </g>
</svg>
