<?xml version="1.0" encoding="utf-8"?>
<!-- Generator: Adobe Illustrator 25.1.0, SVG Export Plug-In . SVG Version: 6.00 Build 0)  -->
<svg version="1.1"  width="16px" height ="16px" id="Layer_1" xmlns="http://www.w3.org/2000/svg" xmlns:xlink="http://www.w3.org/1999/xlink" x="0px" y="0px"
	 viewBox="0 0 300 300"   style="enable-background:new 0 0 300 300;" xml:space="preserve">
<style type="text/css">
	.st0{clip-path:url(#SVGID_2_);}
	.st1{fill:#231F20;}
	.st2{fill:#FF0000;}
	.st3{fill:#FB8538;}
	.st4{fill:#91D050;}
	.st5{fill:#FF8F2A;}
	.st6{fill:#E22024;}
	.st7{fill:#FF2500;}
	.st8{fill:#FFFFFF;}
	.st9{fill:#006FC0;}
	.st10{fill:#FFFF01;}
	.st11{fill:#231F20;stroke:#231F20;stroke-width:0.25;stroke-miterlimit:10;}
	.st12{fill:#FF29FF;}
	.st13{opacity:0.24;fill:none;stroke:#231F20;stroke-width:0.25;stroke-miterlimit:10;}
	.st14{fill:#D0CECE;}
	.st15{fill:#02A0E3;}
	.st16{fill:#58585A;}
	.st17{fill:#AEB1B3;}
	.st18{fill:#7F7F7F;}
	.st19{fill:#888888;}
	.st20{fill:none;stroke:#231F20;stroke-miterlimit:10;}
	.st21{fill:#C46321;}
	.st22{fill:#231F20;stroke:#888888;stroke-width:0.25;stroke-miterlimit:10;}
	.st23{fill:#484949;}
	.st24{fill:#B4B6B6;}
	.st25{fill:none;stroke:#231F20;stroke-width:0.25;stroke-miterlimit:10;}
	.st26{clip-path:url(#SVGID_6_);}
	.st27{fill:#0A0A0A;}
	.st28{fill:#FDFDFD;}
	.st29{fill:none;}
	.st30{fill:#040404;stroke:#FFFFFF;stroke-width:0.25;stroke-miterlimit:10;}
	.st31{clip-path:url(#SVGID_8_);}
	.st32{fill:#161616;}
	.st33{fill:#323232;}
	.st34{fill:#C1C1C1;}
	.st35{fill:#AEB1B3;stroke:#161616;stroke-width:0.25;stroke-miterlimit:10;}
	.st36{fill:#0D0D0D;}
	.st37{fill:#FFFFFF;stroke:#161616;stroke-miterlimit:10;}
	.st38{fill:#6E6E6E;}
	.st39{fill:#D9D9D9;}
	.st40{fill:#161616;stroke:#161616;stroke-width:0.5;stroke-miterlimit:10;}
	.st41{fill:#888888;stroke:#58585A;stroke-width:0.25;stroke-miterlimit:10;}
	.st42{fill:#040404;stroke:#FFFFFF;stroke-width:0.5;stroke-miterlimit:10;}
</style>
<g>
	<defs>
		<rect id="SVGID_1_" x="-257693984" y="-257699136" width="515396064" height="515396064"/>
	</defs>
	<clipPath id="SVGID_2_">
		<use xlink:href="#SVGID_1_"  style="overflow:visible;"/>
	</clipPath>
</g>
<g>
	<g>
		<path class="st32" d="M265.82,190.28c-0.57-0.74-14.17-18.75-20.22-23.58c-5.65-4.59-18.1-9.74-30.13-14.74
			c-11.3-4.67-23.01-9.5-24.81-12.36c-2.46-3.77-6.8-8.35-11.05-12.69c-3.03-3.19-5.9-6.22-7.86-8.68
			c-3.19-4.01-19.08-9.5-20.88-10.07l-117.91-0.08v83.85h234.1L265.82,190.28z M35,189.87v-79.75h115.37
			c4.91,1.64,17.44,6.39,19.73,9.42c2.05,2.54,4.99,5.57,8.02,8.76c4.18,4.34,8.52,8.84,10.81,12.36
			c2.21,3.44,13.1,7.94,25.79,13.18c11.87,4.91,24.16,10.07,29.64,14.41c4.75,3.85,14.98,16.95,18.59,21.62H35z"/>
		<path class="st17" d="M262.96,189.87H35v-79.75h115.37c4.91,1.64,17.44,6.39,19.73,9.42c2.05,2.54,4.99,5.57,8.02,8.76
			c4.18,4.34,8.52,8.84,10.81,12.36c2.21,3.44,13.1,7.94,25.79,13.18c11.87,4.91,24.16,10.07,29.64,14.41
			C249.12,172.1,259.36,185.21,262.96,189.87z"/>
	</g>
	<g>
		<path class="st32" d="M69.84,150.61v-6.47h-9.02v-8.01H47.1v10.93h5.87v7.64h5.81v7.2h18.42v-11.3H69.84z M49.14,138.18h9.62v6.84
			h-9.62V138.18z M55.02,152.66v-5.59h5.8v-0.88h6.98v4.42v1.03v1.02h-9.01v0H55.02z M75.16,159.86H60.83v-5.16h9.01v-2.05h5.32
			V159.86z"/>
	</g>
	<g>
		<path class="st32" d="M163.43,191.93h-42.99v-59.44l0.17-0.26c0.32-0.47,7.95-11.6,21.32-11.6c10.7,0,20.8,11.02,21.23,11.49
			l0.26,0.29V191.93z M122.49,189.88h38.89v-56.67c-1.64-1.7-10.56-10.54-19.45-10.54c-11.21,0-18.27,8.86-19.45,10.46V189.88z"/>
	</g>
	<g>
		<path class="st32" d="M191.75,164.84h-12.52c-1.39,0-2.51-1.13-2.51-2.51v-9.21c0-1.39,1.13-2.51,2.51-2.51h12.52
			c1.39,0,2.51,1.13,2.51,2.51v9.21C194.27,163.71,193.14,164.84,191.75,164.84z M179.23,152.64c-0.26,0-0.47,0.21-0.47,0.47v9.21
			c0,0.26,0.21,0.47,0.47,0.47h12.52c0.26,0,0.47-0.21,0.47-0.47v-9.21c0-0.26-0.21-0.47-0.47-0.47H179.23z"/>
	</g>
	<g>
		<path class="st32" d="M214.53,171.11h-8.6c-1.32,0-2.38-1.07-2.38-2.39v-5.12c0-1.32,1.07-2.38,2.38-2.38h8.6
			c1.32,0,2.38,1.07,2.38,2.38v5.12C216.92,170.04,215.85,171.11,214.53,171.11z M205.93,163.27c-0.18,0-0.34,0.15-0.34,0.34v5.12
			c0,0.19,0.15,0.34,0.34,0.34h8.6c0.18,0,0.34-0.15,0.34-0.34v-5.12c0-0.18-0.15-0.34-0.34-0.34H205.93z"/>
	</g>
</g>
</svg>
