<?xml version="1.0" encoding="utf-8"?>
<!-- Generator: Adobe Illustrator 25.1.0, SVG Export Plug-In . SVG Version: 6.00 Build 0)  -->
<svg version="1.1"  width="16px" height ="16px" id="Layer_1" xmlns="http://www.w3.org/2000/svg" xmlns:xlink="http://www.w3.org/1999/xlink" x="0px" y="0px"
	 viewBox="0 0 300 300"   style="enable-background:new 0 0 300 300;" xml:space="preserve">
<style type="text/css">
	.st0{clip-path:url(#SVGID_2_);}
	.st1{fill:#231F20;}
	.st2{fill:#FF0000;}
	.st3{fill:#FB8538;}
	.st4{fill:#91D050;}
	.st5{fill:#FF8F2A;}
	.st6{fill:#E22024;}
	.st7{fill:#FF2500;}
	.st8{fill:#FFFFFF;}
	.st9{fill:#006FC0;}
	.st10{fill:#FFFF01;}
	.st11{fill:#231F20;stroke:#231F20;stroke-width:0.25;stroke-miterlimit:10;}
	.st12{fill:#FF29FF;}
	.st13{opacity:0.24;fill:none;stroke:#231F20;stroke-width:0.25;stroke-miterlimit:10;}
	.st14{fill:#D0CECE;}
	.st15{fill:#02A0E3;}
	.st16{fill:#58585A;}
	.st17{fill:#AEB1B3;}
	.st18{fill:#7F7F7F;}
	.st19{fill:#888888;}
	.st20{fill:none;stroke:#231F20;stroke-miterlimit:10;}
	.st21{fill:#C46321;}
	.st22{fill:#231F20;stroke:#888888;stroke-width:0.25;stroke-miterlimit:10;}
	.st23{fill:#484949;}
	.st24{fill:#B4B6B6;}
	.st25{fill:none;stroke:#231F20;stroke-width:0.25;stroke-miterlimit:10;}
	.st26{clip-path:url(#SVGID_6_);}
	.st27{fill:#0A0A0A;}
	.st28{fill:#FDFDFD;}
	.st29{fill:none;}
	.st30{fill:#040404;stroke:#FFFFFF;stroke-width:0.25;stroke-miterlimit:10;}
	.st31{clip-path:url(#SVGID_8_);}
	.st32{fill:#161616;}
	.st33{fill:#323232;}
	.st34{fill:#C1C1C1;}
	.st35{fill:#AEB1B3;stroke:#161616;stroke-width:0.25;stroke-miterlimit:10;}
	.st36{fill:#0D0D0D;}
	.st37{fill:#FFFFFF;stroke:#161616;stroke-miterlimit:10;}
	.st38{fill:#6E6E6E;}
	.st39{fill:#D9D9D9;}
	.st40{fill:#161616;stroke:#161616;stroke-width:0.5;stroke-miterlimit:10;}
	.st41{fill:#888888;stroke:#58585A;stroke-width:0.25;stroke-miterlimit:10;}
	.st42{fill:#040404;stroke:#FFFFFF;stroke-width:0.5;stroke-miterlimit:10;}
</style>
<g>
	<defs>
		<rect id="SVGID_1_" x="-257705072" y="-257698816" width="515396064" height="515396064"/>
	</defs>
	<clipPath id="SVGID_2_">
		<use xlink:href="#SVGID_1_"  style="overflow:visible;"/>
	</clipPath>
</g>
<g>
	<g>
		<path class="st19" d="M102.05,247.17c-1.48-1.58-14.51-15.63-14.42-22.35c0.05-3.4,3.53-7.5,7.57-12.26
			c3.26-3.84,7.31-8.61,7.26-11.16c-0.03-1.78-3.48-4.41-6.82-6.95c-5.34-4.07-11.99-9.14-12.33-16.04
			c-0.36-7.49,5.9-13.19,11.43-18.22c3.99-3.64,7.77-7.08,7.73-10.07c-0.05-3.03-4.61-7.55-8.63-11.53
			c-4.89-4.84-9.51-9.41-9.81-13.87c-0.3-4.32,3.47-9.01,7.46-13.97c3.27-4.07,6.66-8.28,6.66-11.2c0-2.43-3.56-5.79-7.01-9.04
			c-4.07-3.83-8.28-7.8-8.82-12.06c-1.1-8.67,18.57-23.9,20.82-25.61l2.05,2.7c-7.89,6-20.15,17.41-19.51,22.49
			c0.39,3.05,4.32,6.76,7.79,10.03c4.14,3.91,8.06,7.6,8.06,11.49c0,4.12-3.6,8.59-7.4,13.33c-3.25,4.04-6.93,8.61-6.73,11.61
			c0.22,3.19,4.79,7.71,8.82,11.7c4.92,4.87,9.57,9.47,9.64,13.88c0.07,4.52-4.26,8.45-8.83,12.62
			c-5.22,4.75-10.62,9.66-10.32,15.55c0.26,5.33,5.97,9.68,11.01,13.52c4.34,3.31,8.09,6.17,8.15,9.58
			c0.07,3.83-3.88,8.48-8.06,13.41c-3.16,3.72-6.74,7.94-6.77,10.11c-0.05,4.04,8.26,14.4,13.51,20L102.05,247.17z"/>
	</g>
	<g>
		<path class="st19" d="M154.32,247.17c-1.48-1.58-14.51-15.63-14.42-22.35c0.04-3.4,3.53-7.51,7.58-12.27
			c3.25-3.83,7.3-8.61,7.26-11.15c-0.03-1.77-3.48-4.4-6.82-6.94c-5.34-4.08-11.99-9.15-12.33-16.04
			c-0.36-7.49,5.9-13.19,11.43-18.22c3.99-3.64,7.77-7.08,7.73-10.07c-0.05-3.03-4.61-7.55-8.63-11.53
			c-4.89-4.84-9.51-9.41-9.81-13.87c-0.3-4.32,3.47-9.01,7.46-13.97c3.27-4.07,6.66-8.28,6.66-11.2c0-2.43-3.56-5.79-7.01-9.03
			c-4.07-3.84-8.28-7.81-8.82-12.07c-1.1-8.67,18.57-23.9,20.82-25.61l2.05,2.7c-7.89,6-20.15,17.41-19.51,22.49
			c0.39,3.05,4.32,6.76,7.79,10.03c4.15,3.91,8.07,7.6,8.07,11.49c0,4.12-3.6,8.59-7.4,13.33c-3.25,4.04-6.93,8.61-6.73,11.61
			c0.22,3.19,4.79,7.71,8.82,11.7c4.92,4.87,9.57,9.47,9.64,13.88c0.07,4.52-4.26,8.45-8.83,12.62
			c-5.22,4.75-10.62,9.66-10.32,15.55c0.26,5.33,5.97,9.68,11.01,13.52c4.34,3.31,8.08,6.17,8.15,9.58
			c0.07,3.83-3.89,8.47-8.06,13.41c-3.16,3.72-6.74,7.95-6.77,10.12c-0.05,4.04,8.26,14.4,13.51,20L154.32,247.17z"/>
	</g>
	<g>
		<path class="st19" d="M213.94,247.17c-1.48-1.58-14.51-15.63-14.42-22.35c0.05-3.4,3.53-7.5,7.57-12.26
			c3.26-3.84,7.31-8.61,7.26-11.16c-0.03-1.78-3.48-4.41-6.82-6.95c-5.34-4.07-11.99-9.14-12.33-16.04
			c-0.36-7.49,5.9-13.19,11.43-18.22c4-3.64,7.77-7.07,7.73-10.07c-0.05-3.03-4.61-7.55-8.63-11.53c-4.88-4.84-9.51-9.4-9.81-13.86
			c-0.3-4.33,3.47-9.01,7.46-13.97c3.28-4.07,6.66-8.28,6.66-11.21c0-2.43-3.56-5.78-7.01-9.03c-4.07-3.84-8.28-7.81-8.82-12.07
			c-1.1-8.67,18.57-23.9,20.82-25.61l2.05,2.7c-7.89,6-20.15,17.41-19.51,22.49c0.39,3.06,4.32,6.76,7.79,10.03
			c4.15,3.91,8.06,7.6,8.07,11.49c0,4.12-3.6,8.59-7.41,13.33c-3.25,4.03-6.93,8.61-6.73,11.61c0.22,3.19,4.79,7.7,8.82,11.69
			c4.92,4.87,9.57,9.47,9.64,13.89c0.07,4.52-4.26,8.45-8.83,12.63c-5.22,4.75-10.62,9.66-10.32,15.55
			c0.26,5.33,5.97,9.68,11.01,13.52c4.34,3.31,8.09,6.17,8.15,9.58c0.07,3.83-3.88,8.48-8.06,13.41c-3.16,3.72-6.74,7.94-6.77,10.11
			c-0.05,4.04,8.26,14.4,13.51,20L213.94,247.17z"/>
	</g>
</g>
</svg>
