<?xml version="1.0" encoding="utf-8"?>
<!-- Generator: Adobe Illustrator 25.1.0, SVG Export Plug-In . SVG Version: 6.00 Build 0)  -->
<svg version="1.1"  width="16px" height ="16px" id="Layer_1" xmlns="http://www.w3.org/2000/svg" xmlns:xlink="http://www.w3.org/1999/xlink" x="0px" y="0px"
	 viewBox="0 0 300 300"   style="enable-background:new 0 0 300 300;" xml:space="preserve">
<style type="text/css">
	.st0{clip-path:url(#SVGID_2_);}
	.st1{fill:#231F20;}
	.st2{fill:#FF0000;}
	.st3{fill:#FB8538;}
	.st4{fill:#91D050;}
	.st5{fill:#FF8F2A;}
	.st6{fill:#E22024;}
	.st7{fill:#FF2500;}
	.st8{fill:#FFFFFF;}
	.st9{fill:#006FC0;}
	.st10{fill:#FFFF01;}
	.st11{fill:#231F20;stroke:#231F20;stroke-width:0.25;stroke-miterlimit:10;}
	.st12{fill:#FF29FF;}
	.st13{opacity:0.24;fill:none;stroke:#231F20;stroke-width:0.25;stroke-miterlimit:10;}
	.st14{fill:#D0CECE;}
	.st15{fill:#02A0E3;}
	.st16{fill:#58585A;}
	.st17{fill:#AEB1B3;}
	.st18{fill:#7F7F7F;}
	.st19{fill:#888888;}
	.st20{fill:none;stroke:#231F20;stroke-miterlimit:10;}
	.st21{fill:#C46321;}
	.st22{fill:#231F20;stroke:#888888;stroke-width:0.25;stroke-miterlimit:10;}
	.st23{fill:#484949;}
	.st24{fill:#B4B6B6;}
	.st25{fill:none;stroke:#231F20;stroke-width:0.25;stroke-miterlimit:10;}
	.st26{clip-path:url(#SVGID_6_);}
	.st27{fill:#0A0A0A;}
	.st28{fill:#FDFDFD;}
	.st29{fill:none;}
	.st30{fill:#040404;stroke:#FFFFFF;stroke-width:0.25;stroke-miterlimit:10;}
	.st31{clip-path:url(#SVGID_8_);}
	.st32{fill:#161616;}
	.st33{fill:#323232;}
	.st34{fill:#C1C1C1;}
	.st35{fill:#AEB1B3;stroke:#161616;stroke-width:0.25;stroke-miterlimit:10;}
	.st36{fill:#0D0D0D;}
	.st37{fill:#FFFFFF;stroke:#161616;stroke-miterlimit:10;}
	.st38{fill:#6E6E6E;}
	.st39{fill:#D9D9D9;}
	.st40{fill:#161616;stroke:#161616;stroke-width:0.5;stroke-miterlimit:10;}
	.st41{fill:#888888;stroke:#58585A;stroke-width:0.25;stroke-miterlimit:10;}
	.st42{fill:#040404;stroke:#FFFFFF;stroke-width:0.5;stroke-miterlimit:10;}
</style>
<g>
	<defs>
		<rect id="SVGID_1_" x="-257692704" y="-257699136" width="515396064" height="515396064"/>
	</defs>
	<clipPath id="SVGID_2_">
		<use xlink:href="#SVGID_1_"  style="overflow:visible;"/>
	</clipPath>
</g>
<polyline class="st25" points="112.82,72.31 112.82,72.42 110.72,72.42 "/>
<g>
	<path class="st32" d="M29.47,99.44v34.41h38.31v54.74h8.17v-54.74h30.18l12.73-16.67l-12.7-17.74H29.47z M74.53,187.18H69.2v-53.32
		h5.33V187.18z M104.73,131.03H32.3v-28.75h72.4l10.64,14.86L104.73,131.03z"/>
	<path class="st32" d="M122.82,157.24h10.53v20.99h8.17v-20.99h52.1v20.99h7.92v-20.99h10.71v-55.87h-89.44V157.24z M140.1,176.81
		h-5.33v-19.57h5.33V176.81z M200.13,176.81h-5.09v-19.57h5.09V176.81z M125.65,104.21h83.77v50.2h-83.77V104.21z"/>
	<path class="st32" d="M270.53,118.04c0-12.58-10.23-22.81-22.81-22.81c-12.58,0-22.81,10.23-22.81,22.81
		c0,11.22,8.16,20.52,18.85,22.41v48.15h7.92v-48.15C262.37,138.56,270.53,129.26,270.53,118.04z M250.27,187.18h-5.09v-46.59
		c0.85,0.1,1.68,0.26,2.55,0.26c0.87,0,1.7-0.16,2.54-0.26V187.18z M247.72,138.02c-11.02,0-19.98-8.96-19.98-19.98
		c0-11.01,8.96-19.98,19.98-19.98c11.01,0,19.98,8.96,19.98,19.98C267.7,129.05,258.74,138.02,247.72,138.02z"/>
</g>
</svg>
