<?xml version="1.0" encoding="utf-8"?>
<!-- Generator: Adobe Illustrator 25.1.0, SVG Export Plug-In . SVG Version: 6.00 Build 0)  -->
<svg version="1.1"  width="16px" height ="16px" id="Layer_1" xmlns="http://www.w3.org/2000/svg" xmlns:xlink="http://www.w3.org/1999/xlink" x="0px" y="0px"
	 viewBox="0 0 300 300"   style="enable-background:new 0 0 300 300;" xml:space="preserve">
<style type="text/css">
	.st0{clip-path:url(#SVGID_2_);}
	.st1{fill:#231F20;}
	.st2{fill:#FF0000;}
	.st3{fill:#FB8538;}
	.st4{fill:#91D050;}
	.st5{fill:#FF8F2A;}
	.st6{fill:#E22024;}
	.st7{fill:#FF2500;}
	.st8{fill:#FFFFFF;}
	.st9{fill:#006FC0;}
	.st10{fill:#FFFF01;}
	.st11{fill:#231F20;stroke:#231F20;stroke-width:0.25;stroke-miterlimit:10;}
	.st12{fill:#FF29FF;}
	.st13{opacity:0.24;fill:none;stroke:#231F20;stroke-width:0.25;stroke-miterlimit:10;}
	.st14{fill:#D0CECE;}
	.st15{fill:#02A0E3;}
	.st16{fill:#58585A;}
	.st17{fill:#AEB1B3;}
	.st18{fill:#7F7F7F;}
	.st19{fill:#888888;}
	.st20{fill:none;stroke:#231F20;stroke-miterlimit:10;}
	.st21{fill:#C46321;}
	.st22{fill:#231F20;stroke:#888888;stroke-width:0.25;stroke-miterlimit:10;}
	.st23{fill:#484949;}
	.st24{fill:#B4B6B6;}
	.st25{fill:none;stroke:#231F20;stroke-width:0.25;stroke-miterlimit:10;}
	.st26{clip-path:url(#SVGID_6_);}
	.st27{fill:#0A0A0A;}
	.st28{fill:#FDFDFD;}
	.st29{fill:none;}
	.st30{fill:#040404;stroke:#FFFFFF;stroke-width:0.25;stroke-miterlimit:10;}
	.st31{clip-path:url(#SVGID_8_);}
	.st32{fill:#161616;}
	.st33{fill:#323232;}
	.st34{fill:#C1C1C1;}
	.st35{fill:#AEB1B3;stroke:#161616;stroke-width:0.25;stroke-miterlimit:10;}
	.st36{fill:#0D0D0D;}
	.st37{fill:#FFFFFF;stroke:#161616;stroke-miterlimit:10;}
	.st38{fill:#6E6E6E;}
	.st39{fill:#D9D9D9;}
	.st40{fill:#161616;stroke:#161616;stroke-width:0.5;stroke-miterlimit:10;}
	.st41{fill:#888888;stroke:#58585A;stroke-width:0.25;stroke-miterlimit:10;}
	.st42{fill:#040404;stroke:#FFFFFF;stroke-width:0.5;stroke-miterlimit:10;}
	.st43{fill:#2B2B2B;}
	.st44{fill:#C2C2C2;}
	.st45{fill:url(#SVGID_11_);}
	.st46{fill:url(#SVGID_12_);}
	.st47{opacity:0.2;fill:#E0E47C;}
	.st48{fill:url(#SVGID_13_);}
	.st49{opacity:0.4;fill:url(#SVGID_14_);}
	.st50{fill:url(#SVGID_15_);}
	.st51{opacity:0.4;fill:url(#SVGID_16_);}
	.st52{fill:url(#SVGID_17_);}
	.st53{opacity:0.4;fill:url(#SVGID_18_);}
	.st54{fill:url(#SVGID_19_);}
	.st55{opacity:0.4;fill:url(#SVGID_20_);}
	.st56{fill:url(#SVGID_21_);}
	.st57{opacity:0.4;fill:url(#SVGID_22_);}
	.st58{fill:url(#SVGID_23_);}
	.st59{opacity:0.4;fill:url(#SVGID_24_);}
	.st60{fill:url(#SVGID_25_);}
	.st61{opacity:0.4;fill:url(#SVGID_26_);}
	.st62{fill:url(#SVGID_27_);}
	.st63{opacity:0.4;fill:url(#SVGID_28_);}
	.st64{fill:url(#SVGID_29_);}
	.st65{opacity:0.4;fill:url(#SVGID_30_);}
	.st66{fill:url(#SVGID_31_);}
	.st67{opacity:0.4;fill:url(#SVGID_32_);}
	.st68{fill:url(#SVGID_33_);}
	.st69{opacity:0.4;fill:url(#SVGID_34_);}
	.st70{fill:#654209;}
	.st71{opacity:0.5;}
	.st72{opacity:0.5;fill:#654209;}
	.st73{opacity:0.3;fill:#654209;}
	.st74{fill:#326613;}
	.st75{fill:#4F8821;}
	.st76{opacity:0.5;fill:url(#SVGID_35_);}
	.st77{opacity:0.2;fill:#E0E481;}
	.st78{fill:url(#SVGID_36_);}
	.st79{opacity:0.4;fill:#E3DC3D;}
	.st80{opacity:0.4;fill:url(#SVGID_37_);}
	.st81{opacity:0.3;fill:url(#SVGID_38_);}
	.st82{fill:url(#SVGID_39_);}
	.st83{opacity:0.7;fill:url(#SVGID_40_);}
	.st84{opacity:0.7;}
	.st85{opacity:0.8;fill:url(#SVGID_41_);}
	.st86{opacity:0.3;fill:url(#SVGID_42_);}
	.st87{opacity:0.5;fill:url(#SVGID_43_);}
	.st88{opacity:0.3;fill:url(#SVGID_44_);}
	.st89{opacity:0.6;fill:#E3DC3D;}
	.st90{fill:url(#SVGID_45_);}
	.st91{opacity:0.6;fill:url(#SVGID_46_);}
	.st92{opacity:0.3;fill:#77BE7F;}
	.st93{opacity:0.2;fill:#ECEA85;}
	.st94{fill:url(#SVGID_47_);}
	.st95{opacity:0.5;fill:#E3DC3D;}
	.st96{fill:url(#SVGID_48_);}
	.st97{opacity:0.7;fill:url(#SVGID_49_);}
	.st98{opacity:0.8;fill:url(#SVGID_50_);}
	.st99{opacity:0.3;fill:url(#SVGID_51_);}
	.st100{opacity:0.5;fill:url(#SVGID_52_);}
	.st101{opacity:0.3;fill:url(#SVGID_53_);}
	.st102{fill:url(#SVGID_54_);}
	.st103{opacity:0.8;fill:url(#SVGID_55_);}
	.st104{opacity:0.4;fill:url(#SVGID_56_);}
	.st105{fill:url(#SVGID_57_);}
	.st106{opacity:0.4;fill:url(#SVGID_58_);}
	.st107{fill:url(#SVGID_59_);}
	.st108{fill:url(#SVGID_60_);}
	.st109{fill:url(#SVGID_61_);}
	.st110{opacity:0.5;fill:url(#SVGID_62_);}
	.st111{opacity:0.3;fill:#7D9567;}
	.st112{opacity:0.3;fill:#00713A;}
	.st113{opacity:0.8;fill:#E3DC3D;}
	.st114{opacity:0.5;fill:url(#SVGID_63_);}
	.st115{fill:url(#SVGID_64_);}
	.st116{fill:url(#SVGID_65_);}
	.st117{fill:url(#SVGID_66_);}
	.st118{opacity:0.7;fill:url(#SVGID_67_);}
	.st119{opacity:0.8;fill:url(#SVGID_68_);}
	.st120{opacity:0.3;fill:url(#SVGID_69_);}
	.st121{opacity:0.5;fill:url(#SVGID_70_);}
	.st122{opacity:0.3;fill:url(#SVGID_71_);}
	.st123{fill:#E3DC3D;}
	.st124{fill:url(#SVGID_72_);}
	.st125{opacity:0.4;fill:url(#SVGID_73_);}
	.st126{fill:url(#SVGID_74_);}
	.st127{opacity:0.8;fill:url(#SVGID_75_);}
	.st128{opacity:0.4;fill:url(#SVGID_76_);}
	.st129{fill:url(#SVGID_77_);}
	.st130{opacity:0.8;fill:url(#SVGID_78_);}
	.st131{opacity:0.2;fill:url(#SVGID_79_);}
	.st132{opacity:0.6;fill:url(#SVGID_80_);}
	.st133{opacity:0.3;fill:url(#SVGID_81_);}
	.st134{fill:url(#SVGID_82_);}
	.st135{opacity:0.4;fill:url(#SVGID_83_);}
	.st136{opacity:0.3;fill:url(#SVGID_84_);}
	.st137{opacity:0.5;fill:url(#SVGID_85_);}
	.st138{fill:url(#SVGID_86_);}
	.st139{opacity:0.8;fill:url(#SVGID_87_);}
	.st140{opacity:0.4;fill:url(#SVGID_88_);}
	.st141{opacity:0.5;fill:url(#SVGID_89_);}
	.st142{fill:url(#SVGID_90_);}
	.st143{fill:url(#SVGID_91_);}
	.st144{fill:url(#SVGID_92_);}
	.st145{opacity:0.7;fill:url(#SVGID_93_);}
	.st146{opacity:0.8;fill:url(#SVGID_94_);}
	.st147{opacity:0.3;fill:url(#SVGID_95_);}
	.st148{opacity:0.5;fill:url(#SVGID_96_);}
	.st149{opacity:0.3;fill:url(#SVGID_97_);}
	.st150{fill:url(#SVGID_98_);}
	.st151{opacity:0.4;fill:url(#SVGID_99_);}
	.st152{fill:url(#SVGID_100_);}
	.st153{opacity:0.8;fill:url(#SVGID_101_);}
	.st154{opacity:0.4;fill:url(#SVGID_102_);}
	.st155{fill:url(#SVGID_103_);}
	.st156{opacity:0.8;fill:url(#SVGID_104_);}
	.st157{opacity:0.2;fill:url(#SVGID_105_);}
	.st158{opacity:0.6;fill:url(#SVGID_106_);}
	.st159{opacity:0.3;fill:url(#SVGID_107_);}
	.st160{fill:url(#SVGID_108_);}
	.st161{opacity:0.4;fill:url(#SVGID_109_);}
	.st162{opacity:0.3;fill:url(#SVGID_110_);}
	.st163{opacity:0.5;fill:url(#SVGID_111_);}
	.st164{fill:url(#SVGID_112_);}
	.st165{opacity:0.8;fill:url(#SVGID_113_);}
	.st166{opacity:0.4;fill:url(#SVGID_114_);}
	.st167{opacity:0.5;fill:url(#SVGID_115_);}
	.st168{fill:url(#SVGID_116_);}
	.st169{fill:url(#SVGID_117_);}
	.st170{fill:url(#SVGID_118_);}
	.st171{opacity:0.7;fill:url(#SVGID_119_);}
	.st172{opacity:0.8;fill:url(#SVGID_120_);}
	.st173{opacity:0.3;fill:url(#SVGID_121_);}
	.st174{opacity:0.5;fill:url(#SVGID_122_);}
	.st175{opacity:0.3;fill:url(#SVGID_123_);}
	.st176{fill:url(#SVGID_124_);}
	.st177{opacity:0.4;fill:url(#SVGID_125_);}
	.st178{fill:url(#SVGID_126_);}
	.st179{opacity:0.8;fill:url(#SVGID_127_);}
	.st180{opacity:0.4;fill:url(#SVGID_128_);}
	.st181{fill:url(#SVGID_129_);}
	.st182{opacity:0.8;fill:url(#SVGID_130_);}
	.st183{opacity:0.2;fill:url(#SVGID_131_);}
	.st184{opacity:0.6;fill:url(#SVGID_132_);}
	.st185{opacity:0.3;fill:url(#SVGID_133_);}
	.st186{fill:url(#SVGID_134_);}
	.st187{opacity:0.4;fill:url(#SVGID_135_);}
	.st188{opacity:0.3;fill:url(#SVGID_136_);}
	.st189{opacity:0.5;fill:url(#SVGID_137_);}
	.st190{fill:url(#SVGID_138_);}
	.st191{opacity:0.8;fill:url(#SVGID_139_);}
	.st192{opacity:0.4;fill:url(#SVGID_140_);}
	.st193{opacity:0.5;fill:url(#SVGID_141_);}
	.st194{fill:url(#SVGID_142_);}
	.st195{opacity:0.4;fill:url(#SVGID_143_);}
	.st196{fill:url(#SVGID_144_);}
	.st197{opacity:0.8;fill:url(#SVGID_145_);}
	.st198{opacity:0.4;fill:url(#SVGID_146_);}
	.st199{fill:url(#SVGID_147_);}
	.st200{opacity:0.8;fill:url(#SVGID_148_);}
	.st201{opacity:0.2;fill:url(#SVGID_149_);}
	.st202{opacity:0.6;fill:url(#SVGID_150_);}
	.st203{opacity:0.3;fill:url(#SVGID_151_);}
	.st204{fill:url(#SVGID_152_);}
	.st205{opacity:0.4;fill:url(#SVGID_153_);}
	.st206{opacity:0.3;fill:url(#SVGID_154_);}
	.st207{fill:#917305;}
	.st208{fill:#B49000;}
	.st209{fill:#6B5203;}
	.st210{opacity:0.6;}
	.st211{opacity:0.5;fill:#B49000;}
	.st212{fill:#6EBA00;}
	.st213{fill:#2D5B00;}
	.st214{opacity:0.3;}
	.st215{fill:#4E9200;}
	.st216{fill:#3E6B03;}
	.st217{fill:#8BD506;}
	.st218{opacity:0.3;fill:#4E9200;}
	.st219{opacity:0.3;fill:#3E6B03;}
	.st220{opacity:0.6;fill:#3E6B03;}
	.st221{fill:#1D1D1B;}
	.st222{fill:#9CB558;}
	.st223{fill:#729918;}
	.st224{fill:#A9D13D;}
	.st225{fill:#AAD03D;}
	.st226{fill:#7DB500;}
	.st227{fill:#7EB500;}
	.st228{fill:#99CA00;}
	.st229{fill:#02B050;}
	.st230{fill:#D2D2D2;}
	.st231{fill:#FFE090;}
	.st232{fill:#9ED6F7;}
	.st233{fill:#9FD7F7;}
	.st234{fill:#DA9458;}
	.st235{fill:#CCCCCC;}
	.st236{fill:#F1CA1E;}
	.st237{fill:#FFACF8;}
	.st238{fill:url(#SVGID_155_);}
	.st239{fill:url(#SVGID_156_);}
	.st240{fill:url(#SVGID_157_);}
	.st241{opacity:0.4;fill:url(#SVGID_158_);}
	.st242{fill:url(#SVGID_159_);}
	.st243{opacity:0.4;fill:url(#SVGID_160_);}
	.st244{fill:url(#SVGID_161_);}
	.st245{opacity:0.4;fill:url(#SVGID_162_);}
	.st246{fill:url(#SVGID_163_);}
	.st247{opacity:0.4;fill:url(#SVGID_164_);}
	.st248{fill:url(#SVGID_165_);}
	.st249{opacity:0.4;fill:url(#SVGID_166_);}
	.st250{fill:url(#SVGID_167_);}
	.st251{opacity:0.4;fill:url(#SVGID_168_);}
	.st252{fill:url(#SVGID_169_);}
	.st253{opacity:0.4;fill:url(#SVGID_170_);}
	.st254{fill:url(#SVGID_171_);}
	.st255{opacity:0.4;fill:url(#SVGID_172_);}
	.st256{fill:url(#SVGID_173_);}
	.st257{opacity:0.4;fill:url(#SVGID_174_);}
	.st258{fill:url(#SVGID_175_);}
	.st259{opacity:0.4;fill:url(#SVGID_176_);}
	.st260{fill:url(#SVGID_177_);}
	.st261{opacity:0.4;fill:url(#SVGID_178_);}
	.st262{opacity:0.5;fill:url(#SVGID_179_);}
	.st263{fill:url(#SVGID_180_);}
	.st264{opacity:0.4;fill:url(#SVGID_181_);}
	.st265{opacity:0.3;fill:url(#SVGID_182_);}
	.st266{fill:url(#SVGID_183_);}
	.st267{opacity:0.7;fill:url(#SVGID_184_);}
	.st268{opacity:0.8;fill:url(#SVGID_185_);}
	.st269{opacity:0.3;fill:url(#SVGID_186_);}
	.st270{opacity:0.5;fill:url(#SVGID_187_);}
	.st271{opacity:0.3;fill:url(#SVGID_188_);}
	.st272{fill:url(#SVGID_189_);}
	.st273{opacity:0.6;fill:url(#SVGID_190_);}
	.st274{fill:url(#SVGID_191_);}
	.st275{fill:url(#SVGID_192_);}
	.st276{opacity:0.7;fill:url(#SVGID_193_);}
	.st277{opacity:0.8;fill:url(#SVGID_194_);}
	.st278{opacity:0.3;fill:url(#SVGID_195_);}
	.st279{opacity:0.5;fill:url(#SVGID_196_);}
	.st280{opacity:0.3;fill:url(#SVGID_197_);}
	.st281{fill:url(#SVGID_198_);}
	.st282{opacity:0.8;fill:url(#SVGID_199_);}
	.st283{opacity:0.4;fill:url(#SVGID_200_);}
	.st284{fill:url(#SVGID_201_);}
	.st285{opacity:0.4;fill:url(#SVGID_202_);}
	.st286{fill:url(#SVGID_203_);}
	.st287{fill:url(#SVGID_204_);}
	.st288{fill:url(#SVGID_205_);}
	.st289{opacity:0.5;fill:url(#SVGID_206_);}
	.st290{opacity:0.5;fill:url(#SVGID_207_);}
	.st291{fill:url(#SVGID_208_);}
	.st292{fill:url(#SVGID_209_);}
	.st293{fill:url(#SVGID_210_);}
	.st294{opacity:0.7;fill:url(#SVGID_211_);}
	.st295{opacity:0.8;fill:url(#SVGID_212_);}
	.st296{opacity:0.3;fill:url(#SVGID_213_);}
	.st297{opacity:0.5;fill:url(#SVGID_214_);}
	.st298{opacity:0.3;fill:url(#SVGID_215_);}
	.st299{fill:url(#SVGID_216_);}
	.st300{opacity:0.4;fill:url(#SVGID_217_);}
	.st301{fill:url(#SVGID_218_);}
	.st302{opacity:0.8;fill:url(#SVGID_219_);}
	.st303{opacity:0.4;fill:url(#SVGID_220_);}
	.st304{fill:url(#SVGID_221_);}
	.st305{opacity:0.8;fill:url(#SVGID_222_);}
	.st306{opacity:0.2;fill:url(#SVGID_223_);}
	.st307{opacity:0.6;fill:url(#SVGID_224_);}
	.st308{opacity:0.3;fill:url(#SVGID_225_);}
	.st309{fill:url(#SVGID_226_);}
	.st310{opacity:0.4;fill:url(#SVGID_227_);}
	.st311{opacity:0.3;fill:url(#SVGID_228_);}
	.st312{opacity:0.5;fill:url(#SVGID_229_);}
	.st313{fill:url(#SVGID_230_);}
	.st314{opacity:0.8;fill:url(#SVGID_231_);}
	.st315{opacity:0.4;fill:url(#SVGID_232_);}
	.st316{opacity:0.5;fill:url(#SVGID_233_);}
	.st317{fill:url(#SVGID_234_);}
	.st318{fill:url(#SVGID_235_);}
	.st319{fill:url(#SVGID_236_);}
	.st320{opacity:0.7;fill:url(#SVGID_237_);}
	.st321{opacity:0.8;fill:url(#SVGID_238_);}
	.st322{opacity:0.3;fill:url(#SVGID_239_);}
	.st323{opacity:0.5;fill:url(#SVGID_240_);}
	.st324{opacity:0.3;fill:url(#SVGID_241_);}
	.st325{fill:url(#SVGID_242_);}
	.st326{opacity:0.4;fill:url(#SVGID_243_);}
	.st327{fill:url(#SVGID_244_);}
	.st328{opacity:0.8;fill:url(#SVGID_245_);}
	.st329{opacity:0.4;fill:url(#SVGID_246_);}
	.st330{fill:url(#SVGID_247_);}
	.st331{opacity:0.8;fill:url(#SVGID_248_);}
	.st332{opacity:0.2;fill:url(#SVGID_249_);}
	.st333{opacity:0.6;fill:url(#SVGID_250_);}
	.st334{opacity:0.3;fill:url(#SVGID_251_);}
	.st335{fill:url(#SVGID_252_);}
	.st336{opacity:0.4;fill:url(#SVGID_253_);}
	.st337{opacity:0.3;fill:url(#SVGID_254_);}
	.st338{opacity:0.5;fill:url(#SVGID_255_);}
	.st339{fill:url(#SVGID_256_);}
	.st340{opacity:0.8;fill:url(#SVGID_257_);}
	.st341{opacity:0.4;fill:url(#SVGID_258_);}
	.st342{opacity:0.5;fill:url(#SVGID_259_);}
	.st343{fill:url(#SVGID_260_);}
	.st344{fill:url(#SVGID_261_);}
	.st345{fill:url(#SVGID_262_);}
	.st346{opacity:0.7;fill:url(#SVGID_263_);}
	.st347{opacity:0.8;fill:url(#SVGID_264_);}
	.st348{opacity:0.3;fill:url(#SVGID_265_);}
	.st349{opacity:0.5;fill:url(#SVGID_266_);}
	.st350{opacity:0.3;fill:url(#SVGID_267_);}
	.st351{fill:url(#SVGID_268_);}
	.st352{opacity:0.4;fill:url(#SVGID_269_);}
	.st353{fill:url(#SVGID_270_);}
	.st354{opacity:0.8;fill:url(#SVGID_271_);}
	.st355{opacity:0.4;fill:url(#SVGID_272_);}
	.st356{fill:url(#SVGID_273_);}
	.st357{opacity:0.8;fill:url(#SVGID_274_);}
	.st358{opacity:0.2;fill:url(#SVGID_275_);}
	.st359{opacity:0.6;fill:url(#SVGID_276_);}
	.st360{opacity:0.3;fill:url(#SVGID_277_);}
	.st361{fill:url(#SVGID_278_);}
	.st362{opacity:0.4;fill:url(#SVGID_279_);}
	.st363{opacity:0.3;fill:url(#SVGID_280_);}
	.st364{opacity:0.5;fill:url(#SVGID_281_);}
	.st365{fill:url(#SVGID_282_);}
	.st366{opacity:0.8;fill:url(#SVGID_283_);}
	.st367{opacity:0.4;fill:url(#SVGID_284_);}
	.st368{opacity:0.5;fill:url(#SVGID_285_);}
	.st369{fill:url(#SVGID_286_);}
	.st370{opacity:0.4;fill:url(#SVGID_287_);}
	.st371{fill:url(#SVGID_288_);}
	.st372{opacity:0.8;fill:url(#SVGID_289_);}
	.st373{opacity:0.4;fill:url(#SVGID_290_);}
	.st374{fill:url(#SVGID_291_);}
	.st375{opacity:0.8;fill:url(#SVGID_292_);}
	.st376{opacity:0.2;fill:url(#SVGID_293_);}
	.st377{opacity:0.6;fill:url(#SVGID_294_);}
	.st378{opacity:0.3;fill:url(#SVGID_295_);}
	.st379{fill:url(#SVGID_296_);}
	.st380{opacity:0.4;fill:url(#SVGID_297_);}
	.st381{opacity:0.3;fill:url(#SVGID_298_);}
	.st382{fill:#EB974F;}
	.st383{fill:#F19B54;}
	.st384{fill:#DF8F4E;}
</style>
<g>
	<defs>
		<rect id="SVGID_1_" x="-257704224" y="-257699136" width="515396064" height="515396064"/>
	</defs>
	<clipPath id="SVGID_2_">
		<use xlink:href="#SVGID_1_"  style="overflow:visible;"/>
	</clipPath>
</g>
<g>
	<g>
		<g>
			<path class="st234" d="M24.51,161.99c0.1-2.54,0.65-4.99,1.39-7.43c2.08-6.81,5.16-8.44,9.99-11.38c2.4-1.46,4.13-2.57,6.93-4.27
				c6.78-4.12,14.83-10.4,23.78-13.67c6.95-2.54,14.48-2.61,22.11-2.61c5.37,0,11.67-0.78,16.65,0
				c12.07,1.89,17.24,6.18,24.71,13.06c8.87,8.19,21.29,8.54,21.74,19.77c0.09,2.27,1.02,4.3,1.11,6.53H24.51z"/>
			<path class="st21" d="M153.74,162.78H23.69l0.03-0.82c0.1-2.33,0.55-4.75,1.43-7.62c2.08-6.83,5.14-8.68,9.76-11.48l0.56-0.35
				c1.17-0.71,2.17-1.33,3.21-1.98c1.12-0.69,2.28-1.41,3.71-2.29c1.81-1.1,3.72-2.36,5.71-3.67c5.43-3.58,11.58-7.65,18.22-10.07
				c7.3-2.66,15.31-2.66,22.38-2.66c1.76,0,3.62-0.08,5.5-0.17c3.86-0.17,7.85-0.35,11.28,0.18c12.32,1.93,17.57,6.3,25.12,13.26
				c3.12,2.88,6.67,4.76,10.09,6.56c5.96,3.15,11.6,6.12,11.9,13.76c0.04,1.06,0.28,2.08,0.54,3.15c0.26,1.08,0.52,2.2,0.57,3.38
				L153.74,162.78z M25.35,161.2h126.71c-0.1-0.75-0.27-1.49-0.46-2.26c-0.26-1.1-0.53-2.23-0.58-3.45
				c-0.27-6.73-5.03-9.24-11.06-12.42c-3.35-1.77-7.15-3.77-10.42-6.8c-7.33-6.76-12.43-11-24.3-12.86
				c-3.26-0.52-7.17-0.33-10.96-0.16c-1.91,0.09-3.79,0.17-5.57,0.17c-6.94,0-14.81,0-21.84,2.57c-6.46,2.36-12.53,6.37-17.89,9.91
				c-2,1.32-3.92,2.59-5.75,3.7c-1.44,0.88-2.59,1.59-3.7,2.28c-1.05,0.65-2.05,1.27-3.22,1.99l-0.57,0.35
				c-4.47,2.71-7.16,4.35-9.07,10.59C25.92,157.19,25.5,159.25,25.35,161.2z"/>
		</g>
	</g>
	<g>
		<g>
			<path class="st234" d="M121.18,157.87c0.12-3.03,0.78-5.94,1.68-8.84c2.5-8.11,6.2-10.05,12-13.56c2.89-1.74,4.96-3.06,8.33-5.08
				c8.15-4.91,17.82-12.39,28.58-16.28c8.35-3.02,17.41-3.11,26.57-3.11c6.45,0,14.02-0.93,20.01,0
				c14.51,2.25,20.72,7.36,29.69,15.56c10.66,9.75,25.59,10.16,26.13,23.54c0.11,2.7,1.22,5.13,1.33,7.78H121.18z"/>
			<path class="st21" d="M276.31,158.66H120.35l0.04-0.82c0.12-2.76,0.66-5.63,1.71-9.04c2.49-8.07,6.14-10.27,11.66-13.59
				l0.68-0.41c1.33-0.8,2.49-1.52,3.68-2.25c1.39-0.86,2.83-1.74,4.64-2.83c2.17-1.31,4.43-2.79,6.83-4.35
				c6.52-4.27,13.92-9.11,21.88-11.99c8.73-3.16,18.36-3.16,26.84-3.16c2.11,0,4.3-0.1,6.61-0.2c4.64-0.2,9.43-0.42,13.53,0.21
				c14.75,2.29,21.05,7.48,30.09,15.75c3.77,3.44,8.04,5.68,12.16,7.83c7.44,3.89,13.86,7.25,14.22,16.26
				c0.05,1.28,0.34,2.5,0.65,3.78c0.31,1.28,0.62,2.6,0.68,4L276.31,158.66z M122.01,157.08h152.63c-0.12-0.95-0.34-1.89-0.57-2.87
				c-0.31-1.3-0.64-2.65-0.69-4.09c-0.33-8.1-6.08-11.11-13.38-14.92c-4.02-2.1-8.57-4.48-12.49-8.07
				c-8.84-8.08-14.98-13.14-29.28-15.36c-3.93-0.62-8.66-0.4-13.21-0.19c-2.23,0.1-4.54,0.2-6.69,0.2c-8.36,0-17.83,0-26.3,3.07
				c-7.8,2.82-15.11,7.61-21.56,11.83c-2.41,1.58-4.69,3.07-6.88,4.39c-1.81,1.09-3.24,1.97-4.63,2.83
				c-1.2,0.73-2.36,1.45-3.69,2.25l-0.68,0.41c-5.4,3.25-8.66,5.21-10.97,12.7C122.71,152.19,122.19,154.7,122.01,157.08z"/>
		</g>
	</g>
	<g>
		<g>
			<path class="st234" d="M94.52,189.42c0.12-3.03,0.73-5.94,1.57-8.84c2.34-8.11,5.79-10.05,11.22-13.56
				c2.7-1.74,4.64-3.06,7.78-5.08c7.62-4.91,16.66-12.39,26.72-16.28c7.81-3.02,16.27-3.11,24.85-3.11c6.03,0,13.11-0.93,18.71,0
				c13.56,2.25,19.37,7.36,27.76,15.56c9.97,9.75,23.93,10.16,24.43,23.54c0.1,2.7,1.14,5.13,1.24,7.78H94.52z"/>
			<path class="st21" d="M239.63,190.21H93.7l0.03-0.82c0.1-2.76,0.62-5.63,1.6-9.03c2.33-8.07,5.74-10.26,10.91-13.59l0.64-0.41
				c1.31-0.85,2.44-1.59,3.61-2.36c1.25-0.82,2.55-1.67,4.17-2.72c2.03-1.31,4.15-2.79,6.4-4.36c6.1-4.27,13.01-9.1,20.47-11.99
				c8.17-3.16,17.18-3.16,25.13-3.16c1.97,0,4.02-0.1,6.18-0.2c4.34-0.21,8.83-0.43,12.66,0.21c13.81,2.29,19.71,7.49,28.18,15.77
				c3.52,3.44,7.51,5.67,11.36,7.83c6.67,3.73,12.97,7.25,13.3,16.25c0.05,1.3,0.32,2.51,0.61,3.8c0.28,1.27,0.58,2.59,0.64,3.97
				L239.63,190.21z M95.36,188.63h142.6c-0.1-0.95-0.31-1.89-0.54-2.87c-0.29-1.3-0.59-2.65-0.65-4.09
				c-0.31-8.11-5.69-11.12-12.5-14.93c-3.76-2.1-8.02-4.48-11.69-8.07c-8.26-8.07-14-13.13-27.34-15.34
				c-3.66-0.61-8.07-0.4-12.32-0.19c-2.08,0.1-4.25,0.2-6.25,0.2c-7.81,0-16.67,0-24.56,3.06c-7.28,2.82-14.11,7.6-20.14,11.81
				c-2.26,1.58-4.39,3.07-6.45,4.39c-1.61,1.04-2.91,1.89-4.15,2.71c-1.18,0.78-2.32,1.52-3.63,2.37l-0.64,0.41
				c-5.05,3.24-8.09,5.2-10.25,12.7C96,183.73,95.52,186.25,95.36,188.63z"/>
		</g>
	</g>
</g>
</svg>
