<?xml version="1.0" encoding="utf-8"?>
<!-- Generator: Adobe Illustrator 25.1.0, SVG Export Plug-In . SVG Version: 6.00 Build 0)  -->
<svg version="1.1"  width="16px" height ="16px" id="Layer_1" xmlns="http://www.w3.org/2000/svg" xmlns:xlink="http://www.w3.org/1999/xlink" x="0px" y="0px"
	 viewBox="0 0 300 300"   style="enable-background:new 0 0 300 300;" xml:space="preserve">
<style type="text/css">
	.st0{clip-path:url(#SVGID_2_);}
	.st1{fill:#231F20;}
	.st2{fill:#FF0000;}
	.st3{fill:#FB8538;}
	.st4{fill:#91D050;}
	.st5{fill:#FF8F2A;}
	.st6{fill:#E22024;}
	.st7{fill:#FF2500;}
	.st8{fill:#FFFFFF;}
	.st9{fill:#006FC0;}
	.st10{fill:#FFFF01;}
	.st11{fill:#231F20;stroke:#231F20;stroke-width:0.25;stroke-miterlimit:10;}
	.st12{fill:#FF29FF;}
	.st13{opacity:0.24;fill:none;stroke:#231F20;stroke-width:0.25;stroke-miterlimit:10;}
	.st14{fill:#D0CECE;}
	.st15{fill:#02A0E3;}
	.st16{fill:#58585A;}
	.st17{fill:#AEB1B3;}
	.st18{fill:#7F7F7F;}
	.st19{fill:#888888;}
	.st20{fill:none;stroke:#231F20;stroke-miterlimit:10;}
	.st21{fill:#C46321;}
	.st22{fill:#231F20;stroke:#888888;stroke-width:0.25;stroke-miterlimit:10;}
	.st23{fill:#484949;}
	.st24{fill:#B4B6B6;}
	.st25{fill:none;stroke:#231F20;stroke-width:0.25;stroke-miterlimit:10;}
	.st26{clip-path:url(#SVGID_6_);}
	.st27{fill:#0A0A0A;}
	.st28{fill:#FDFDFD;}
	.st29{fill:none;}
	.st30{fill:#040404;stroke:#FFFFFF;stroke-width:0.25;stroke-miterlimit:10;}
	.st31{clip-path:url(#SVGID_8_);}
	.st32{fill:#161616;}
	.st33{fill:#323232;}
	.st34{fill:#C1C1C1;}
	.st35{fill:#AEB1B3;stroke:#161616;stroke-width:0.25;stroke-miterlimit:10;}
	.st36{fill:#0D0D0D;}
	.st37{fill:#FFFFFF;stroke:#161616;stroke-miterlimit:10;}
	.st38{fill:#6E6E6E;}
	.st39{fill:#D9D9D9;}
	.st40{fill:#161616;stroke:#161616;stroke-width:0.5;stroke-miterlimit:10;}
	.st41{fill:#888888;stroke:#58585A;stroke-width:0.25;stroke-miterlimit:10;}
	.st42{fill:#040404;stroke:#FFFFFF;stroke-width:0.5;stroke-miterlimit:10;}
</style>
<g>
	<defs>
		<rect id="SVGID_1_" x="-257696544" y="-257699136" width="515396064" height="515396064"/>
	</defs>
	<clipPath id="SVGID_2_">
		<use xlink:href="#SVGID_1_"  style="overflow:visible;"/>
	</clipPath>
</g>
<g>
	<g>
		<path class="st1" d="M173.41,134.21v-3.23c0-2.91-1.98-5.41-4.79-6.24c0.94-1.14,1.56-2.6,1.56-4.16v-1.14
			c0-2.81-1.66-5.2-4.06-6.24c1.25-1.25,1.98-2.91,1.98-4.79v-1.87c0-3.64-3.02-6.66-6.76-6.66h-17.38c-3.02,0-5.41,1.98-6.35,4.68
			c-0.94-0.62-2.19-1.04-3.43-1.04h-21.65c-1.25,0-2.39,0.42-3.43,1.04l-0.21-0.31l-0.31,0.31c-1.15-0.94-2.5-1.56-4.06-1.56H87.03
			c-2.29,0-4.27,1.25-5.41,3.02c-1.25-1.25-2.91-2.08-4.89-2.08H54.14c-3.75,0-6.76,3.02-6.76,6.77v1.87c0,0.62,0.1,1.14,0.21,1.66
			c-3.02,0.62-5.41,3.12-5.41,6.35v4.06c0,1.46,0.62,2.81,1.46,3.95c-2.71,0.83-4.79,3.33-4.79,6.35v0.73c0,2.19,1.04,4.06,2.6,5.2
			c-2.39,1.67-4.06,4.27-4.06,7.39v2.81c0,4.89,4.06,8.95,8.95,8.95h14.15c3.85,0,7.08-2.5,8.33-5.93c1.56,2.6,4.27,4.48,7.6,4.48
			h14.05c4.16,0,7.39-2.81,8.53-6.56c1.04,3.75,4.37,6.56,8.43,6.56h21.44c2.91,0,5.41-1.56,7.08-3.75
			c1.66,2.19,4.16,3.75,7.08,3.75h21.44c4.89,0,8.95-3.95,8.95-8.95v-2.81c0-2.81-1.35-5.2-3.43-6.87
			C171.96,138.79,173.41,136.71,173.41,134.21z M167.06,119.43v1.14c0,1.98-1.56,3.64-3.54,3.64h-7.6c0.73-1.04,1.14-2.19,1.14-3.43
			v-1.25c0-1.46-0.52-2.71-1.25-3.75h7.7C165.5,115.79,167.06,117.35,167.06,119.43z M140.42,106.53c0-1.98,1.56-3.54,3.54-3.54
			h17.38c1.98,0,3.64,1.56,3.64,3.54v1.87c0,1.98-1.66,3.64-3.64,3.64h-17.38c-1.35,0-2.5-0.83-3.12-1.98c0-0.42-0.1-0.94-0.21-1.35
			l0.21-0.21l-0.42-0.83V106.53z M150.41,115.89c1.98,0,3.54,1.66,3.54,3.64v1.25c0,1.87-1.56,3.54-3.54,3.54h-19.67
			c-1.98,0-3.54-1.67-3.54-3.54v-1.25c0-1.98,1.56-3.64,3.54-3.64H150.41z M147.08,130.98v3.23c0,1.98-1.56,3.64-3.54,3.64h-24.35
			c-1.98,0-3.64-1.67-3.64-3.64v-3.23c0-1.98,1.66-3.54,3.64-3.54h24.35C145.52,127.45,147.08,129.01,147.08,130.98z M110.76,107.15
			c0.52-0.31,1.15-0.52,1.77-0.52h21.65c1.15,0,2.19,0.52,2.81,1.46l-0.1,0.1l0.42,0.73c0.1,0.62,0.21,1.25,0.42,1.87v1.25
			c0,0.21-0.1,0.52-0.21,0.73h-6.76c-2.19,0-4.06,1.25-5.31,2.91h-0.52c-1.15-1.04-2.71-1.77-4.37-1.77h-9.78
			c0.31-0.73,0.52-1.56,0.52-2.39v-1.87C111.28,108.71,111.07,107.98,110.76,107.15z M107.95,117.46l0.42-0.42h12.18
			c1.98,0,3.54,1.56,3.54,3.54s-1.56,3.64-3.54,3.64h-17.8c-1.98,0-3.64-1.67-3.64-3.64s1.67-3.54,3.64-3.54h5L107.95,117.46z
			 M112.42,130.98v3.23c0,1.98-1.56,3.64-3.54,3.64H86.3c-1.98,0-3.64-1.67-3.64-3.64v-3.23c0-1.98,1.66-3.54,3.64-3.54h22.58
			C110.86,127.45,112.42,129.01,112.42,130.98z M83.49,109.65c0-1.98,1.56-3.54,3.54-3.54h17.48c0.94,0,1.66,0.42,2.29,0.94
			c-0.52,0.94-0.94,1.98-0.94,3.12v1.87c0,0.62,0.31,1.25,0.52,1.87h-3.64c-1.46,0-2.71,0.52-3.75,1.25h-2.91
			c-1.04-0.73-2.29-1.25-3.64-1.25h-7.91c-0.62-0.62-1.04-1.46-1.04-2.39V109.65z M92.44,117.04c1.98,0,3.54,1.56,3.54,3.75
			c0,1.87-1.56,3.54-3.54,3.54H72.98c-1.87,0-3.43-1.56-3.54-3.64v-0.1c0-1.98,1.66-3.54,3.54-3.54H92.44z M50.5,110.69
			c0-2.08,1.56-3.64,3.64-3.64h22.58c2.08,0,3.64,1.56,3.64,3.64v1.87c0,0.52-0.21,0.94-0.42,1.35h-6.97
			c-1.87,0-3.64,0.83-4.89,2.19h-0.62c-1.25-1.25-2.91-2.19-4.79-2.19H50.92c-0.21-0.42-0.42-0.83-0.42-1.35V110.69z M45.3,120.58
			c0-1.87,1.66-3.54,3.64-3.54h13.74c1.25,0,2.29,0.52,3.02,1.56c0.42,0.52,0.62,1.15,0.62,2.08c0,0,0,0,0,0.1v3.54h-8.64
			c-2.71,0-5,1.66-6.14,3.95h-2.6c-1.98,0-3.64-1.66-3.64-3.64V120.58z M41.97,134.94c0-1.98,1.56-3.54,3.54-3.54h2.39
			c1.35,0,2.39,0.73,3.02,1.77v1.04c0,0.83,0.21,1.46,0.52,2.19c-0.42,1.56-1.77,2.91-3.54,2.91H45.5c-1.98,0-3.54-1.67-3.54-3.64
			V134.94z M66.32,151.07c0,3.23-2.6,5.83-5.83,5.83H46.34c-3.23,0-5.83-2.6-5.83-5.83v-2.81c0-3.23,2.6-5.83,5.83-5.83h14.15
			c3.23,0,5.83,2.6,5.83,5.83V151.07z M67.98,143.79c-0.62-1.15-1.46-2.08-2.6-2.81h4.27C69.02,141.81,68.4,142.75,67.98,143.79z
			 M57.68,137.85c-1.35,0-2.5-0.83-3.12-1.87c0-0.1,0.1-0.21,0.1-0.31v-0.73c0-0.94-0.21-1.87-0.62-2.71v-1.25
			c0-1.98,1.66-3.54,3.64-3.54H76c1.98,0,3.54,1.56,3.54,3.54v3.23c0,1.98-1.56,3.64-3.54,3.64H57.68z M96.29,149.61
			c0,3.23-2.6,5.83-5.83,5.83H76.41c-3.23,0-5.83-2.6-5.83-5.83v-2.81c0-3.23,2.6-5.83,5.83-5.83h14.05c3.23,0,5.83,2.6,5.83,5.83
			V149.61z M99,144.41c-0.42-1.25-0.94-2.5-1.87-3.43h3.64C99.94,141.91,99.31,143.16,99,144.41z M134.38,151.28
			c-0.73,2.39-2.91,4.16-5.52,4.16h-21.44c-3.23,0-5.83-2.6-5.83-5.83v-2.81c0-3.23,2.6-5.83,5.83-5.83h21.44
			c2.6,0,4.79,1.77,5.52,4.16c-0.1,0.62-0.31,1.04-0.31,1.66v2.81C134.07,150.24,134.28,150.66,134.38,151.28z M135.95,141.6
			c-0.1-0.21-0.21-0.42-0.42-0.62h0.83C136.15,141.18,136.05,141.39,135.95,141.6z M170.29,146.8v2.81c0,3.23-2.6,5.83-5.83,5.83
			h-21.44c-2.71,0-4.79-1.77-5.52-4.16c0.1-0.62,0.31-1.04,0.31-1.66v-2.81c0-0.62-0.21-1.04-0.31-1.66
			c0.73-2.39,2.81-4.16,5.52-4.16h21.44C167.69,140.98,170.29,143.58,170.29,146.8z M170.29,134.21c0,1.98-1.67,3.64-3.64,3.64
			h-12.8c-1.98,0-3.64-1.67-3.64-3.64v-3.23c0-1.98,1.66-3.54,3.64-3.54h12.8c1.98,0,3.64,1.56,3.64,3.54V134.21z"/>
		<path class="st19" d="M80.37,110.69v1.87c0,0.52-0.21,0.94-0.42,1.35h-6.97c-1.87,0-3.64,0.83-4.89,2.19h-0.62
			c-1.25-1.25-2.91-2.19-4.79-2.19H50.92c-0.21-0.42-0.42-0.83-0.42-1.35v-1.87c0-2.08,1.56-3.64,3.64-3.64h22.58
			C78.81,107.05,80.37,108.61,80.37,110.69z"/>
		<path class="st19" d="M105.87,112.04c0,0.62,0.31,1.25,0.52,1.87h-3.64c-1.46,0-2.71,0.52-3.75,1.25h-2.91
			c-1.04-0.73-2.29-1.25-3.64-1.25h-7.91c-0.62-0.62-1.04-1.46-1.04-2.39v-1.87c0-1.98,1.56-3.54,3.54-3.54h17.48
			c0.94,0,1.66,0.42,2.29,0.94c-0.52,0.94-0.94,1.98-0.94,3.12V112.04z"/>
		<path class="st19" d="M137.71,110.79v1.25c0,0.21-0.1,0.52-0.21,0.73h-6.76c-2.19,0-4.06,1.25-5.31,2.91h-0.52
			c-1.15-1.04-2.71-1.77-4.37-1.77h-9.78c0.31-0.73,0.52-1.56,0.52-2.39v-1.87c0-0.94-0.21-1.66-0.52-2.5
			c0.52-0.31,1.15-0.52,1.77-0.52h21.65c1.15,0,2.19,0.52,2.81,1.46l-0.1,0.1l0.42,0.73C137.4,109.55,137.51,110.17,137.71,110.79z"
			/>
		<path class="st19" d="M164.98,106.53v1.87c0,1.98-1.66,3.64-3.64,3.64h-17.38c-1.35,0-2.5-0.83-3.12-1.98
			c0-0.42-0.1-0.94-0.21-1.35l0.21-0.21l-0.42-0.83v-1.14c0-1.98,1.56-3.54,3.54-3.54h17.38
			C163.32,102.99,164.98,104.55,164.98,106.53z"/>
		<path class="st19" d="M167.06,119.43v1.14c0,1.98-1.56,3.64-3.54,3.64h-7.6c0.73-1.04,1.14-2.19,1.14-3.43v-1.25
			c0-1.46-0.52-2.71-1.25-3.75h7.7C165.5,115.79,167.06,117.35,167.06,119.43z"/>
		<path class="st19" d="M153.95,119.54v1.25c0,1.87-1.56,3.54-3.54,3.54h-19.67c-1.98,0-3.54-1.67-3.54-3.54v-1.25
			c0-1.98,1.56-3.64,3.54-3.64h19.67C152.39,115.89,153.95,117.56,153.95,119.54z"/>
		<path class="st19" d="M124.08,120.58c0,1.98-1.56,3.64-3.54,3.64h-17.8c-1.98,0-3.64-1.67-3.64-3.64s1.67-3.54,3.64-3.54h5
			l0.21,0.42l0.42-0.42h12.18C122.52,117.04,124.08,118.6,124.08,120.58z"/>
		<path class="st19" d="M95.98,120.79c0,1.87-1.56,3.54-3.54,3.54H72.98c-1.87,0-3.43-1.56-3.54-3.64v-0.1
			c0-1.98,1.66-3.54,3.54-3.54h19.46C94.42,117.04,95.98,118.6,95.98,120.79z"/>
		<path class="st19" d="M66.32,120.68c0,0,0,0,0,0.1v3.54h-8.64c-2.71,0-5,1.66-6.14,3.95h-2.6c-1.98,0-3.64-1.66-3.64-3.64v-4.06
			c0-1.87,1.66-3.54,3.64-3.54h13.74c1.25,0,2.29,0.52,3.02,1.56C66.11,119.12,66.32,119.75,66.32,120.68z"/>
		<path class="st19" d="M51.44,136.4c-0.42,1.56-1.77,2.91-3.54,2.91H45.5c-1.98,0-3.54-1.67-3.54-3.64v-0.73
			c0-1.98,1.56-3.54,3.54-3.54h2.39c1.35,0,2.39,0.73,3.02,1.77v1.04C50.92,135.04,51.12,135.67,51.44,136.4z"/>
		<path class="st19" d="M79.54,130.98v3.23c0,1.98-1.56,3.64-3.54,3.64H57.68c-1.35,0-2.5-0.83-3.12-1.87c0-0.1,0.1-0.21,0.1-0.31
			v-0.73c0-0.94-0.21-1.87-0.62-2.71v-1.25c0-1.98,1.66-3.54,3.64-3.54H76C77.98,127.45,79.54,129.01,79.54,130.98z"/>
		<path class="st19" d="M112.42,130.98v3.23c0,1.98-1.56,3.64-3.54,3.64H86.3c-1.98,0-3.64-1.67-3.64-3.64v-3.23
			c0-1.98,1.66-3.54,3.64-3.54h22.58C110.86,127.45,112.42,129.01,112.42,130.98z"/>
		<path class="st19" d="M147.08,130.98v3.23c0,1.98-1.56,3.64-3.54,3.64h-24.35c-1.98,0-3.64-1.67-3.64-3.64v-3.23
			c0-1.98,1.66-3.54,3.64-3.54h24.35C145.52,127.45,147.08,129.01,147.08,130.98z"/>
		<path class="st19" d="M170.29,130.98v3.23c0,1.98-1.67,3.64-3.64,3.64h-12.8c-1.98,0-3.64-1.67-3.64-3.64v-3.23
			c0-1.98,1.66-3.54,3.64-3.54h12.8C168.62,127.45,170.29,129.01,170.29,130.98z"/>
		<path class="st19" d="M170.29,146.8v2.81c0,3.23-2.6,5.83-5.83,5.83h-21.44c-2.71,0-4.79-1.77-5.52-4.16
			c0.1-0.62,0.31-1.04,0.31-1.66v-2.81c0-0.62-0.21-1.04-0.31-1.66c0.73-2.39,2.81-4.16,5.52-4.16h21.44
			C167.69,140.98,170.29,143.58,170.29,146.8z"/>
		<path class="st19" d="M134.07,149.61c0,0.62,0.21,1.04,0.31,1.66c-0.73,2.39-2.91,4.16-5.52,4.16h-21.44
			c-3.23,0-5.83-2.6-5.83-5.83v-2.81c0-3.23,2.6-5.83,5.83-5.83h21.44c2.6,0,4.79,1.77,5.52,4.16c-0.1,0.62-0.31,1.04-0.31,1.66
			V149.61z"/>
		<path class="st19" d="M96.29,146.8v2.81c0,3.23-2.6,5.83-5.83,5.83H76.41c-3.23,0-5.83-2.6-5.83-5.83v-2.81
			c0-3.23,2.6-5.83,5.83-5.83h14.05C93.69,140.98,96.29,143.58,96.29,146.8z"/>
		<path class="st19" d="M66.32,148.26v2.81c0,3.23-2.6,5.83-5.83,5.83H46.34c-3.23,0-5.83-2.6-5.83-5.83v-2.81
			c0-3.23,2.6-5.83,5.83-5.83h14.15C63.72,142.43,66.32,145.04,66.32,148.26z"/>
	</g>
	<g>
		<g>
			<rect x="211.63" y="200.32" class="st19" width="49.49" height="42.18"/>
			<path class="st1" d="M262.43,243.81h-52.09v-44.78h52.09V243.81z M212.93,241.2h46.89v-39.58h-46.89V241.2z"/>
		</g>
		<g>
			<polygon class="st19" points="261.12,200.32 211.63,200.32 227.41,57.5 241.69,57.5 			"/>
			<path class="st1" d="M262.61,201.63h-52.43l0.16-1.44l15.9-143.99h16.59L262.61,201.63z M213.09,199.02h46.55L240.55,58.8h-11.98
				L213.09,199.02z"/>
		</g>
		<path class="st1" d="M260.95,212.15v-1.2c0-1.11-0.75-2.02-1.75-2.34c0.33-0.43,0.56-0.94,0.56-1.53v-0.43
			c0-1.04-0.62-1.93-1.51-2.31c0.45-0.45,0.73-1.07,0.73-1.76v-0.7c0-1.37-1.11-2.48-2.48-2.48h-6.45c-1.1,0-2.01,0.74-2.33,1.73
			c-0.38-0.23-0.82-0.38-1.29-0.38h-8.01c-0.46,0-0.88,0.17-1.26,0.4l-0.09-0.12l-0.1,0.11c-0.43-0.34-0.94-0.59-1.52-0.59h-6.47
			c-0.85,0-1.56,0.46-2.01,1.12c-0.45-0.47-1.09-0.77-1.81-0.77h-8.36c-1.4,0-2.5,1.1-2.5,2.51v0.69c0,0.21,0.04,0.41,0.09,0.6
			c-1.14,0.23-2.02,1.18-2.02,2.37v1.5c0,0.55,0.23,1.05,0.54,1.47c-1.02,0.31-1.78,1.22-1.78,2.34v0.28c0,0.8,0.4,1.48,0.99,1.93
			c-0.89,0.59-1.51,1.56-1.51,2.71v1.05c0,1.83,1.49,3.31,3.31,3.31h5.23c1.43,0,2.62-0.92,3.08-2.18c0.58,0.97,1.59,1.65,2.8,1.65
			h5.23c1.52,0,2.75-1.05,3.14-2.44c0.39,1.39,1.62,2.44,3.14,2.44h7.94c1.09,0,2.01-0.56,2.61-1.38c0.6,0.81,1.53,1.38,2.62,1.38
			h7.94c1.83,0,3.31-1.49,3.31-3.31v-1.05c0-1.04-0.51-1.92-1.25-2.53C260.43,213.83,260.95,213.06,260.95,212.15z M251.21,212.15
			c0,0.73-0.59,1.32-1.33,1.32h-0.2h-5.23h-3.6c-0.73,0-1.33-0.59-1.33-1.32v-1.2c0-0.73,0.59-1.32,1.33-1.32h4.3h4.72
			c0.73,0,1.33,0.59,1.33,1.32V212.15z M247.22,214.63c-0.06,0.07-0.09,0.15-0.15,0.22c-0.05-0.07-0.09-0.15-0.15-0.22H247.22z
			 M232.72,214.63h1.34c-0.32,0.37-0.53,0.8-0.67,1.28C233.25,215.43,233.04,215,232.72,214.63z M230.25,213.47h-1.56
			c-0.73,0-1.33-0.59-1.33-1.32v-1.2c0-0.73,0.6-1.32,1.33-1.32h2.28h6.09c0.73,0,1.33,0.59,1.33,1.32v1.2
			c0,0.73-0.6,1.32-1.33,1.32h-0.53H230.25z M218.1,213.47c-0.5,0-0.91-0.28-1.14-0.69c0-0.04,0.02-0.07,0.02-0.11v-0.28
			c0-0.35-0.08-0.68-0.21-0.99v-0.46c0-0.73,0.59-1.32,1.33-1.32h5.68h1.1c0.73,0,1.33,0.59,1.33,1.32v1.2
			c0,0.73-0.59,1.32-1.33,1.32H218.1z M230.97,205.77c0.73,0,1.33,0.59,1.33,1.37c0,0.73-0.59,1.32-1.33,1.32h-2.28h-3.81h-1.1
			c-0.72,0-1.3-0.58-1.32-1.33v-0.05c0-0.01,0-0.01,0-0.01c0.01-0.72,0.6-1.3,1.32-1.3H230.97z M236.63,205.77l0.1,0.16l0.16-0.16
			h4.47c0.73,0,1.33,0.59,1.33,1.32s-0.59,1.32-1.33,1.32h-6.59c-0.73,0-1.33-0.59-1.33-1.32s0.59-1.32,1.33-1.32H236.63z
			 M252.43,205.36c0.73,0,1.33,0.59,1.33,1.32v0.46c0,0.73-0.59,1.32-1.33,1.32h-2.54h-4.72c-0.73,0-1.33-0.59-1.33-1.32v-0.46
			c0-0.73,0.59-1.32,1.33-1.32H252.43z M258.6,207.09c0,0.74-0.59,1.35-1.31,1.35h-2.8c0.24-0.38,0.41-0.81,0.41-1.29v-0.46
			c0-0.52-0.2-0.97-0.47-1.37h2.85c0.74,0,1.31,0.59,1.31,1.35V207.09z M250.05,200.57h6.45c0.73,0,1.33,0.59,1.33,1.32v0.7
			c0,0.73-0.59,1.32-1.33,1.32h-6.45c-0.51,0-0.93-0.3-1.16-0.71c0-0.18-0.02-0.35-0.06-0.51l0.07-0.08l-0.18-0.3v-0.43
			C248.72,201.16,249.31,200.57,250.05,200.57z M246.42,201.92c0.42,0,0.81,0.2,1.05,0.52l-0.04,0.04l0.16,0.28
			c0.02,0.24,0.06,0.47,0.14,0.69v0.48c0,0.09-0.05,0.19-0.07,0.28h-2.5c-0.83,0-1.53,0.44-1.98,1.07h-0.17
			c-0.44-0.4-1.01-0.66-1.65-0.66h-3.59c0.11-0.27,0.17-0.57,0.17-0.88v-0.7c0-0.33-0.08-0.63-0.19-0.91c0.2-0.12,0.42-0.2,0.66-0.2
			H246.42z M227.66,203.04c0-0.72,0.59-1.31,1.31-1.31h6.47c0.33,0,0.61,0.14,0.85,0.33c-0.2,0.36-0.34,0.75-0.34,1.17v0.69
			c0,0.24,0.13,0.46,0.2,0.69h-1.37c-0.52,0-0.97,0.2-1.37,0.47h-1.08c-0.4-0.27-0.85-0.47-1.37-0.47h-2.93
			c-0.22-0.24-0.38-0.55-0.38-0.88v-0.31V203.04z M215.45,203.43c0-0.76,0.59-1.35,1.35-1.35h8.36c0.76,0,1.35,0.59,1.35,1.35v0.31
			v0.38c0,0.2-0.09,0.34-0.16,0.5h-2.57c-0.72,0-1.35,0.32-1.81,0.81h-0.25c-0.46-0.48-1.07-0.81-1.77-0.81h-4.35
			c-0.07-0.15-0.16-0.3-0.16-0.5V203.43z M213.52,207.09c0-0.71,0.62-1.31,1.35-1.31h5.09c0.46,0,0.86,0.2,1.12,0.58
			c0.16,0.21,0.22,0.44,0.22,0.79c0,0,0,0,0,0c0,0.01,0.01,0.02,0.01,0.04v1.29h-3.2c-1,0-1.86,0.61-2.25,1.47h-0.98
			c-0.72,0-1.35-0.63-1.35-1.35V207.09z M213.61,214.01c-0.73,0-1.33-0.59-1.33-1.32v-0.28c0-0.73,0.59-1.32,1.33-1.32h0.9
			c0.48,0,0.89,0.27,1.12,0.65v0.42c0,0.28,0.07,0.53,0.16,0.78c-0.12,0.61-0.63,1.07-1.28,1.07h-0.59H213.61z M221.3,218.37
			c0,1.19-0.97,2.16-2.16,2.16h-5.23c-1.19,0-2.16-0.97-2.16-2.16v-1.05c0-1.19,0.97-2.16,2.16-2.16h0.59h4.64
			c1.19,0,2.16,0.97,2.16,2.16V218.37z M220.97,214.63h1.58c-0.26,0.3-0.48,0.64-0.62,1.02
			C221.69,215.24,221.37,214.91,220.97,214.63z M232.41,217.84c0,1.19-0.97,2.16-2.16,2.16h-5.23c-1.19,0-2.16-0.97-2.16-2.16v-1.05
			c0-1.19,0.97-2.16,2.16-2.16h3.66h1.56c1.19,0,2.16,0.97,2.16,2.16V217.84z M244.46,219.99h-7.94c-1.19,0-2.16-0.97-2.16-2.16
			v-1.05c0-1.19,0.97-2.16,2.16-2.16h0.53h3.81h3.6c0.98,0,1.77,0.66,2.04,1.56c-0.04,0.2-0.12,0.39-0.12,0.6v1.05
			c0,0.21,0.08,0.4,0.12,0.6C246.23,219.33,245.44,219.99,244.46,219.99z M259.79,217.84c0,1.19-0.97,2.16-2.16,2.16h-7.94
			c-0.98,0-1.77-0.66-2.04-1.56c0.04-0.2,0.12-0.39,0.12-0.6v-1.05c0-0.21-0.08-0.4-0.12-0.6c0.26-0.89,1.06-1.56,2.04-1.56h0.2
			h3.81h3.94c1.19,0,2.16,0.97,2.16,2.16V217.84z M259.79,212.15c0,0.73-0.59,1.32-1.33,1.32h-0.83h-3.94
			c-0.73,0-1.33-0.59-1.33-1.32v-1.2c0-0.73,0.59-1.32,1.33-1.32h4.77c0.73,0,1.33,0.59,1.33,1.32V212.15z"/>
		<path class="st1" d="M260.95,191.04v-1.2c0-1.11-0.74-2.02-1.73-2.34c0.33-0.43,0.55-0.94,0.55-1.53v-0.43
			c0-1.04-0.61-1.93-1.49-2.31c0.45-0.45,0.72-1.07,0.72-1.76v-0.7c0-1.37-1.1-2.48-2.45-2.48h-6.36c-1.09,0-1.98,0.74-2.3,1.73
			c-0.38-0.23-0.81-0.38-1.27-0.38h-7.9c-0.45,0-0.87,0.17-1.24,0.4l-0.09-0.12l-0.1,0.11c-0.43-0.34-0.93-0.59-1.5-0.59h-6.38
			c-0.84,0-1.54,0.46-1.98,1.12c-0.45-0.47-1.07-0.77-1.78-0.77h-8.24c-1.38,0-2.47,1.1-2.47,2.51v0.69c0,0.21,0.04,0.41,0.09,0.6
			c-1.12,0.23-1.99,1.18-1.99,2.37v1.5c0,0.55,0.22,1.05,0.54,1.47c-1.01,0.31-1.76,1.22-1.76,2.34v0.28c0,0.8,0.4,1.48,0.97,1.93
			c-0.88,0.59-1.49,1.56-1.49,2.71v1.05c0,1.83,1.47,3.31,3.27,3.31h5.15c1.41,0,2.58-0.92,3.04-2.18c0.57,0.97,1.57,1.65,2.76,1.65
			h5.15c1.5,0,2.71-1.05,3.09-2.44c0.39,1.39,1.6,2.44,3.09,2.44h7.83c1.07,0,1.98-0.56,2.58-1.38c0.6,0.81,1.51,1.38,2.58,1.38
			h7.83c1.8,0,3.27-1.49,3.27-3.31v-1.05c0-1.04-0.5-1.92-1.23-2.53C260.44,192.71,260.95,191.95,260.95,191.04z M251.35,191.04
			c0,0.73-0.59,1.32-1.31,1.32h-0.19h-5.16h-3.55c-0.72,0-1.31-0.59-1.31-1.32v-1.2c0-0.73,0.59-1.32,1.31-1.32h4.24h4.65
			c0.72,0,1.31,0.59,1.31,1.32V191.04z M247.41,193.52c-0.06,0.07-0.09,0.15-0.14,0.22c-0.05-0.07-0.09-0.15-0.14-0.22H247.41z
			 M233.11,193.52h1.32c-0.31,0.37-0.53,0.8-0.66,1.28C233.63,194.32,233.42,193.89,233.11,193.52z M230.67,192.36h-1.54
			c-0.72,0-1.31-0.59-1.31-1.32v-1.2c0-0.73,0.59-1.32,1.31-1.32h2.25h6c0.72,0,1.31,0.59,1.31,1.32v1.2c0,0.73-0.59,1.32-1.31,1.32
			h-0.53H230.67z M218.69,192.36c-0.49,0-0.9-0.28-1.12-0.69c0-0.04,0.02-0.07,0.02-0.11v-0.28c0-0.35-0.08-0.68-0.21-0.99v-0.46
			c0-0.73,0.59-1.32,1.31-1.32h5.6h1.08c0.72,0,1.31,0.59,1.31,1.32v1.2c0,0.73-0.59,1.32-1.31,1.32H218.69z M231.38,184.66
			c0.72,0,1.31,0.59,1.31,1.37c0,0.73-0.59,1.32-1.31,1.32h-2.25h-3.76h-1.08c-0.71,0-1.28-0.58-1.3-1.33v-0.05
			c0-0.01,0-0.01,0-0.01c0.01-0.72,0.59-1.3,1.3-1.3H231.38z M236.97,184.66l0.1,0.16l0.15-0.16h4.41c0.72,0,1.31,0.59,1.31,1.32
			s-0.59,1.32-1.31,1.32h-6.5c-0.72,0-1.31-0.59-1.31-1.32s0.59-1.32,1.31-1.32H236.97z M252.54,184.25c0.72,0,1.31,0.59,1.31,1.32
			v0.46c0,0.73-0.59,1.32-1.31,1.32h-2.5h-4.65c-0.72,0-1.31-0.59-1.31-1.32v-0.46c0-0.73,0.59-1.32,1.31-1.32H252.54z
			 M258.63,185.97c0,0.74-0.58,1.35-1.29,1.35h-2.76c0.24-0.38,0.41-0.81,0.41-1.29v-0.46c0-0.52-0.19-0.97-0.46-1.37h2.81
			c0.73,0,1.29,0.59,1.29,1.35V185.97z M250.2,179.46h6.36c0.72,0,1.31,0.59,1.31,1.32v0.7c0,0.73-0.59,1.32-1.31,1.32h-6.36
			c-0.5,0-0.92-0.3-1.14-0.71c0-0.18-0.02-0.35-0.06-0.51l0.07-0.08l-0.18-0.3v-0.43C248.89,180.05,249.47,179.46,250.2,179.46z
			 M246.63,180.81c0.42,0,0.8,0.2,1.04,0.52l-0.04,0.04l0.16,0.28c0.02,0.24,0.06,0.47,0.14,0.69v0.48c0,0.09-0.05,0.19-0.07,0.28
			h-2.47c-0.82,0-1.51,0.44-1.96,1.07h-0.17c-0.43-0.4-1-0.66-1.63-0.66h-3.54c0.11-0.27,0.17-0.57,0.17-0.88v-0.7
			c0-0.33-0.08-0.63-0.19-0.91c0.2-0.12,0.41-0.2,0.65-0.2H246.63z M228.12,181.93c0-0.72,0.58-1.31,1.29-1.31h6.38
			c0.33,0,0.6,0.14,0.83,0.33c-0.2,0.36-0.34,0.75-0.34,1.17v0.69c0,0.24,0.13,0.46,0.19,0.69h-1.35c-0.51,0-0.96,0.2-1.35,0.47
			h-1.06c-0.39-0.27-0.84-0.47-1.35-0.47h-2.89c-0.22-0.24-0.37-0.55-0.37-0.88v-0.31V181.93z M216.08,182.31
			c0-0.76,0.58-1.35,1.33-1.35h8.24c0.75,0,1.33,0.59,1.33,1.35v0.31v0.38c0,0.2-0.08,0.34-0.15,0.5h-2.53
			c-0.71,0-1.34,0.32-1.78,0.81h-0.25c-0.46-0.48-1.06-0.81-1.74-0.81h-4.29c-0.07-0.15-0.16-0.3-0.16-0.5V182.31z M214.18,185.97
			c0-0.71,0.61-1.31,1.33-1.31h5.01c0.45,0,0.85,0.2,1.1,0.58c0.15,0.21,0.22,0.44,0.22,0.79c0,0,0,0,0,0
			c0,0.01,0.01,0.02,0.01,0.04v1.29h-3.16c-0.99,0-1.84,0.61-2.22,1.47h-0.97c-0.71,0-1.33-0.63-1.33-1.35V185.97z M214.26,192.89
			c-0.72,0-1.31-0.59-1.31-1.32v-0.28c0-0.73,0.59-1.32,1.31-1.32h0.88c0.47,0,0.87,0.27,1.1,0.65v0.42c0,0.28,0.07,0.53,0.16,0.78
			c-0.12,0.61-0.62,1.07-1.26,1.07h-0.58H214.26z M221.85,197.25c0,1.19-0.96,2.16-2.13,2.16h-5.15c-1.17,0-2.13-0.97-2.13-2.16
			v-1.05c0-1.19,0.96-2.16,2.13-2.16h0.58h4.57c1.17,0,2.13,0.97,2.13,2.16V197.25z M221.52,193.52h1.56
			c-0.26,0.3-0.47,0.64-0.61,1.02C222.24,194.13,221.92,193.79,221.52,193.52z M232.8,196.72c0,1.19-0.96,2.16-2.13,2.16h-5.15
			c-1.17,0-2.13-0.97-2.13-2.16v-1.05c0-1.19,0.96-2.16,2.13-2.16h3.61h1.54c1.17,0,2.13,0.97,2.13,2.16V196.72z M244.69,198.88
			h-7.83c-1.17,0-2.13-0.97-2.13-2.16v-1.05c0-1.19,0.96-2.16,2.13-2.16h0.53h3.76h3.55c0.96,0,1.75,0.66,2.01,1.56
			c-0.04,0.2-0.12,0.39-0.12,0.6v1.05c0,0.21,0.08,0.4,0.12,0.6C246.44,198.22,245.65,198.88,244.69,198.88z M259.81,196.72
			c0,1.19-0.96,2.16-2.13,2.16h-7.83c-0.96,0-1.75-0.66-2.01-1.56c0.04-0.2,0.12-0.39,0.12-0.6v-1.05c0-0.21-0.08-0.4-0.12-0.6
			c0.26-0.89,1.05-1.56,2.01-1.56h0.19h3.75h3.88c1.17,0,2.13,0.97,2.13,2.16V196.72z M259.81,191.04c0,0.73-0.59,1.32-1.31,1.32
			h-0.82h-3.88c-0.72,0-1.31-0.59-1.31-1.32v-1.2c0-0.73,0.59-1.32,1.31-1.32h4.7c0.72,0,1.31,0.59,1.31,1.32V191.04z"/>
		<path class="st1" d="M258.38,171.6v-1.2c0-1.11-0.66-2.02-1.55-2.34c0.3-0.43,0.5-0.94,0.5-1.53v-0.43c0-1.04-0.55-1.93-1.34-2.31
			c0.4-0.45,0.65-1.07,0.65-1.76v-0.7c0-1.37-0.99-2.48-2.2-2.48h-5.72c-0.98,0-1.78,0.74-2.07,1.73c-0.34-0.23-0.73-0.38-1.14-0.38
			h-7.11c-0.41,0-0.78,0.17-1.12,0.4l-0.08-0.12l-0.09,0.11c-0.38-0.34-0.83-0.59-1.35-0.59h-5.74c-0.75,0-1.39,0.46-1.78,1.12
			c-0.4-0.47-0.96-0.77-1.6-0.77h-7.41c-1.24,0-2.22,1.1-2.22,2.51v0.69c0,0.21,0.04,0.41,0.08,0.6c-1.01,0.23-1.79,1.18-1.79,2.37
			v1.5c0,0.55,0.2,1.05,0.48,1.47c-0.91,0.31-1.58,1.22-1.58,2.34v0.28c0,0.8,0.36,1.48,0.88,1.93c-0.79,0.59-1.34,1.56-1.34,2.71
			v1.05c0,1.83,1.32,3.31,2.94,3.31h4.63c1.26,0,2.32-0.92,2.73-2.18c0.51,0.97,1.41,1.65,2.48,1.65h4.63
			c1.35,0,2.43-1.05,2.78-2.44c0.35,1.39,1.44,2.44,2.78,2.44h7.04c0.97,0,1.78-0.56,2.32-1.38c0.54,0.81,1.35,1.38,2.32,1.38h7.04
			c1.62,0,2.94-1.49,2.94-3.31v-1.05c0-1.04-0.45-1.92-1.11-2.53C257.92,173.28,258.38,172.51,258.38,171.6z M249.75,171.6
			c0,0.73-0.53,1.32-1.18,1.32h-0.17h-4.64h-3.19c-0.65,0-1.18-0.59-1.18-1.32v-1.2c0-0.73,0.53-1.32,1.18-1.32h3.82h4.19
			c0.65,0,1.18,0.59,1.18,1.32V171.6z M246.21,174.08c-0.05,0.07-0.08,0.15-0.13,0.22c-0.05-0.07-0.08-0.15-0.13-0.22H246.21z
			 M233.35,174.08h1.19c-0.28,0.37-0.47,0.8-0.59,1.28C233.82,174.89,233.63,174.45,233.35,174.08z M231.16,172.93h-1.39
			c-0.65,0-1.18-0.59-1.18-1.32v-1.2c0-0.73,0.53-1.32,1.18-1.32h2.02h5.4c0.65,0,1.18,0.59,1.18,1.32v1.2
			c0,0.73-0.53,1.32-1.18,1.32h-0.47H231.16z M220.39,172.93c-0.44,0-0.81-0.28-1.01-0.69c0-0.04,0.02-0.07,0.02-0.11v-0.28
			c0-0.35-0.07-0.68-0.19-0.99v-0.46c0-0.73,0.53-1.32,1.18-1.32h5.03h0.97c0.65,0,1.18,0.59,1.18,1.32v1.2
			c0,0.73-0.53,1.32-1.18,1.32H220.39z M231.79,165.22c0.65,0,1.18,0.59,1.18,1.37c0,0.73-0.53,1.32-1.18,1.32h-2.02h-3.38h-0.97
			c-0.64,0-1.15-0.58-1.17-1.33v-0.05c0-0.01,0-0.01,0-0.01c0.01-0.72,0.53-1.3,1.17-1.3H231.79z M236.82,165.22l0.09,0.16
			l0.14-0.16h3.97c0.65,0,1.18,0.59,1.18,1.32s-0.53,1.32-1.18,1.32h-5.84c-0.65,0-1.18-0.59-1.18-1.32s0.53-1.32,1.18-1.32H236.82z
			 M250.82,164.81c0.65,0,1.18,0.59,1.18,1.32v0.46c0,0.73-0.53,1.32-1.18,1.32h-2.25h-4.19c-0.65,0-1.18-0.59-1.18-1.32v-0.46
			c0-0.73,0.53-1.32,1.18-1.32H250.82z M256.3,166.54c0,0.74-0.52,1.35-1.16,1.35h-2.48c0.21-0.38,0.37-0.81,0.37-1.29v-0.46
			c0-0.52-0.17-0.97-0.42-1.37h2.53c0.65,0,1.16,0.59,1.16,1.35V166.54z M248.71,160.02h5.72c0.65,0,1.18,0.59,1.18,1.32v0.7
			c0,0.73-0.53,1.32-1.18,1.32h-5.72c-0.45,0-0.83-0.3-1.03-0.71c0-0.18-0.02-0.35-0.05-0.51l0.07-0.08l-0.16-0.3v-0.43
			C247.53,160.61,248.06,160.02,248.71,160.02z M245.5,161.37c0.38,0,0.72,0.2,0.93,0.52l-0.04,0.04l0.14,0.28
			c0.01,0.24,0.05,0.47,0.12,0.69v0.48c0,0.09-0.04,0.19-0.06,0.28h-2.22c-0.74,0-1.36,0.44-1.76,1.07h-0.15
			c-0.39-0.4-0.9-0.66-1.46-0.66h-3.18c0.1-0.27,0.15-0.57,0.15-0.88v-0.7c0-0.33-0.07-0.63-0.17-0.91c0.18-0.12,0.37-0.2,0.58-0.2
			H245.5z M228.86,162.49c0-0.72,0.52-1.31,1.16-1.31h5.74c0.29,0,0.54,0.14,0.75,0.33c-0.18,0.36-0.3,0.75-0.3,1.17v0.69
			c0,0.24,0.12,0.46,0.17,0.69h-1.21c-0.46,0-0.86,0.2-1.21,0.47h-0.95c-0.35-0.27-0.75-0.47-1.21-0.47h-2.6
			c-0.2-0.24-0.33-0.55-0.33-0.88v-0.31V162.49z M218.03,162.88c0-0.76,0.53-1.35,1.2-1.35h7.41c0.67,0,1.2,0.59,1.2,1.35v0.31v0.38
			c0,0.2-0.08,0.34-0.14,0.5h-2.28c-0.64,0-1.2,0.32-1.6,0.81h-0.22c-0.41-0.48-0.95-0.81-1.57-0.81h-3.86
			c-0.06-0.15-0.14-0.3-0.14-0.5V162.88z M216.33,166.54c0-0.71,0.55-1.31,1.2-1.31h4.51c0.4,0,0.76,0.2,0.99,0.58
			c0.14,0.21,0.2,0.44,0.2,0.79c0,0,0,0,0,0c0,0.01,0.01,0.02,0.01,0.04v1.29h-2.84c-0.89,0-1.65,0.61-2,1.47h-0.87
			c-0.64,0-1.2-0.63-1.2-1.35V166.54z M216.4,173.46c-0.65,0-1.18-0.59-1.18-1.32v-0.28c0-0.73,0.53-1.32,1.18-1.32h0.79
			c0.43,0,0.78,0.27,0.99,0.65v0.42c0,0.28,0.07,0.53,0.14,0.78c-0.11,0.61-0.56,1.07-1.13,1.07h-0.52H216.4z M223.22,177.82
			c0,1.19-0.86,2.16-1.91,2.16h-4.63c-1.05,0-1.91-0.97-1.91-2.16v-1.05c0-1.19,0.86-2.16,1.91-2.16h0.52h4.11
			c1.05,0,1.91,0.97,1.91,2.16V177.82z M222.93,174.08h1.4c-0.23,0.3-0.42,0.64-0.55,1.02C223.57,174.7,223.28,174.36,222.93,174.08
			z M233.07,177.29c0,1.19-0.86,2.16-1.91,2.16h-4.63c-1.05,0-1.91-0.97-1.91-2.16v-1.05c0-1.19,0.86-2.16,1.91-2.16h3.25h1.39
			c1.05,0,1.91,0.97,1.91,2.16V177.29z M243.76,179.44h-7.04c-1.05,0-1.91-0.97-1.91-2.16v-1.05c0-1.19,0.86-2.16,1.91-2.16h0.47
			h3.38h3.19c0.87,0,1.57,0.66,1.81,1.56c-0.03,0.2-0.11,0.39-0.11,0.6v1.05c0,0.21,0.07,0.4,0.11,0.6
			C245.33,178.78,244.63,179.44,243.76,179.44z M257.35,177.29c0,1.19-0.86,2.16-1.91,2.16h-7.04c-0.87,0-1.57-0.66-1.81-1.56
			c0.03-0.2,0.11-0.39,0.11-0.6v-1.05c0-0.21-0.07-0.4-0.11-0.6c0.23-0.89,0.94-1.56,1.81-1.56h0.17h3.38h3.49
			c1.05,0,1.91,0.97,1.91,2.16V177.29z M257.35,171.6c0,0.73-0.53,1.32-1.18,1.32h-0.74h-3.49c-0.65,0-1.18-0.59-1.18-1.32v-1.2
			c0-0.73,0.53-1.32,1.18-1.32h4.23c0.65,0,1.18,0.59,1.18,1.32V171.6z"/>
		<path class="st1" d="M255.61,151.87v-1.17c0-1.09-0.59-1.97-1.38-2.28c0.26-0.42,0.44-0.92,0.44-1.49v-0.42
			c0-1.01-0.49-1.88-1.19-2.26c0.36-0.44,0.58-1.05,0.58-1.72v-0.68c0-1.34-0.88-2.43-1.96-2.43h-5.09c-0.87,0-1.58,0.72-1.84,1.69
			c-0.3-0.23-0.65-0.37-1.02-0.37h-6.32c-0.36,0-0.69,0.16-0.99,0.4l-0.07-0.12l-0.08,0.11c-0.34-0.33-0.74-0.58-1.2-0.58h-5.1
			c-0.67,0-1.23,0.45-1.58,1.09c-0.36-0.46-0.86-0.75-1.42-0.75h-6.59c-1.11,0-1.97,1.08-1.97,2.45v0.68c0,0.21,0.03,0.4,0.07,0.58
			c-0.9,0.23-1.59,1.15-1.59,2.32v1.47c0,0.54,0.18,1.02,0.43,1.44c-0.81,0.3-1.41,1.19-1.41,2.29v0.28c0,0.78,0.32,1.44,0.78,1.89
			c-0.7,0.58-1.19,1.52-1.19,2.65v1.02c0,1.79,1.17,3.24,2.61,3.24h4.12c1.12,0,2.06-0.89,2.43-2.13c0.46,0.95,1.25,1.61,2.21,1.61
			h4.12c1.2,0,2.16-1.02,2.47-2.38c0.31,1.36,1.28,2.38,2.47,2.38h6.26c0.86,0,1.58-0.55,2.06-1.34c0.48,0.79,1.2,1.34,2.06,1.34
			H253c1.44,0,2.61-1.45,2.61-3.24v-1.02c0-1.01-0.4-1.88-0.99-2.47C255.2,153.51,255.61,152.76,255.61,151.87z M247.94,151.87
			c0,0.71-0.47,1.29-1.05,1.29h-0.15h-4.12h-2.84c-0.58,0-1.05-0.58-1.05-1.29v-1.17c0-0.71,0.47-1.29,1.05-1.29h3.39h3.72
			c0.58,0,1.05,0.58,1.05,1.29V151.87z M244.79,154.3c-0.05,0.06-0.07,0.14-0.12,0.21c-0.04-0.07-0.07-0.15-0.12-0.21H244.79z
			 M233.36,154.3h1.05c-0.25,0.36-0.42,0.78-0.53,1.25C233.78,155.08,233.61,154.66,233.36,154.3z M231.41,153.17h-1.23
			c-0.58,0-1.05-0.58-1.05-1.29v-1.17c0-0.71,0.47-1.29,1.05-1.29h1.8h4.8c0.58,0,1.05,0.58,1.05,1.29v1.17
			c0,0.71-0.47,1.29-1.05,1.29h-0.42H231.41z M221.84,153.17c-0.39,0-0.72-0.28-0.9-0.67c0-0.04,0.02-0.07,0.02-0.1v-0.28
			c0-0.34-0.06-0.67-0.16-0.96v-0.45c0-0.71,0.47-1.29,1.05-1.29h4.48h0.86c0.58,0,1.05,0.58,1.05,1.29v1.17
			c0,0.71-0.47,1.29-1.05,1.29H221.84z M231.98,145.64c0.58,0,1.05,0.58,1.05,1.34c0,0.71-0.47,1.29-1.05,1.29h-1.8h-3h-0.86
			c-0.57,0-1.02-0.56-1.04-1.3v-0.05c0-0.01,0-0.01,0-0.01c0.01-0.7,0.47-1.27,1.04-1.27H231.98z M236.44,145.64l0.08,0.15
			l0.12-0.15h3.53c0.58,0,1.05,0.58,1.05,1.29s-0.47,1.29-1.05,1.29h-5.19c-0.58,0-1.05-0.58-1.05-1.29s0.47-1.29,1.05-1.29H236.44z
			 M248.89,145.24c0.58,0,1.05,0.58,1.05,1.29v0.44c0,0.71-0.47,1.29-1.05,1.29h-2h-3.72c-0.58,0-1.05-0.58-1.05-1.29v-0.44
			c0-0.71,0.47-1.29,1.05-1.29H248.89z M253.76,146.92c0,0.73-0.46,1.32-1.03,1.32h-2.2c0.19-0.37,0.33-0.79,0.33-1.26v-0.44
			c0-0.51-0.16-0.95-0.37-1.34h2.25c0.58,0,1.03,0.58,1.03,1.32V146.92z M247.02,140.56h5.09c0.58,0,1.05,0.58,1.05,1.29v0.68
			c0,0.71-0.47,1.29-1.05,1.29h-5.09c-0.4,0-0.74-0.29-0.91-0.7c0-0.18-0.02-0.34-0.05-0.5l0.06-0.08l-0.14-0.29v-0.42
			C245.97,141.14,246.44,140.56,247.02,140.56z M244.16,141.88c0.33,0,0.64,0.19,0.83,0.51l-0.03,0.04l0.13,0.27
			c0.01,0.24,0.05,0.46,0.11,0.68v0.47c0,0.09-0.04,0.18-0.05,0.27h-1.97c-0.66,0-1.21,0.43-1.56,1.04h-0.14
			c-0.35-0.39-0.8-0.64-1.3-0.64h-2.83c0.09-0.27,0.14-0.55,0.14-0.86v-0.68c0-0.32-0.06-0.61-0.15-0.89
			c0.16-0.12,0.33-0.2,0.52-0.2H244.16z M229.37,142.97c0-0.71,0.46-1.28,1.03-1.28h5.1c0.26,0,0.48,0.13,0.67,0.32
			c-0.16,0.35-0.27,0.73-0.27,1.14v0.68c0,0.24,0.1,0.44,0.16,0.67h-1.08c-0.41,0-0.76,0.19-1.08,0.46h-0.85
			c-0.31-0.26-0.67-0.46-1.08-0.46h-2.31c-0.18-0.23-0.3-0.54-0.3-0.86v-0.3V142.97z M219.74,143.35c0-0.74,0.47-1.32,1.06-1.32
			h6.59c0.6,0,1.06,0.58,1.06,1.32v0.3v0.37c0,0.19-0.07,0.33-0.12,0.49h-2.03c-0.57,0-1.07,0.31-1.42,0.79h-0.2
			c-0.36-0.47-0.85-0.79-1.39-0.79h-3.43c-0.06-0.15-0.12-0.29-0.12-0.49V143.35z M218.23,146.92c0-0.69,0.49-1.28,1.06-1.28h4.01
			c0.36,0,0.68,0.2,0.88,0.56c0.12,0.2,0.17,0.43,0.18,0.77c0,0,0,0,0,0c0,0.01,0.01,0.02,0.01,0.04v1.26h-2.52
			c-0.79,0-1.47,0.59-1.78,1.43h-0.77c-0.57,0-1.06-0.61-1.06-1.32V146.92z M218.29,153.68c-0.58,0-1.05-0.58-1.05-1.29v-0.28
			c0-0.71,0.47-1.29,1.05-1.29H219c0.38,0,0.7,0.26,0.88,0.64v0.41c0,0.27,0.06,0.52,0.12,0.76c-0.1,0.59-0.5,1.05-1.01,1.05h-0.47
			H218.29z M224.36,157.94c0,1.16-0.76,2.11-1.7,2.11h-4.12c-0.94,0-1.7-0.94-1.7-2.11v-1.02c0-1.16,0.76-2.11,1.7-2.11H219h3.65
			c0.94,0,1.7,0.94,1.7,2.11V157.94z M224.1,154.3h1.25c-0.21,0.3-0.37,0.63-0.49,1C224.67,154.89,224.41,154.56,224.1,154.3z
			 M233.11,157.43c0,1.16-0.76,2.11-1.7,2.11h-4.12c-0.94,0-1.7-0.94-1.7-2.11v-1.02c0-1.16,0.76-2.11,1.7-2.11h2.89h1.23
			c0.94,0,1.7,0.94,1.7,2.11V157.43z M242.62,159.53h-6.26c-0.94,0-1.7-0.94-1.7-2.11v-1.02c0-1.16,0.76-2.11,1.7-2.11h0.42h3h2.84
			c0.77,0,1.4,0.65,1.61,1.52c-0.03,0.2-0.1,0.38-0.1,0.59v1.02c0,0.21,0.07,0.39,0.1,0.59
			C244.01,158.88,243.39,159.53,242.62,159.53z M254.7,157.43c0,1.16-0.76,2.11-1.7,2.11h-6.26c-0.77,0-1.4-0.65-1.61-1.52
			c0.03-0.2,0.1-0.38,0.1-0.59v-1.02c0-0.21-0.07-0.39-0.1-0.59c0.21-0.87,0.84-1.52,1.61-1.52h0.15h3h3.1c0.94,0,1.7,0.94,1.7,2.11
			V157.43z M254.7,151.87c0,0.71-0.47,1.29-1.05,1.29H253h-3.1c-0.58,0-1.05-0.58-1.05-1.29v-1.17c0-0.71,0.47-1.29,1.05-1.29h3.76
			c0.58,0,1.05,0.58,1.05,1.29V151.87z"/>
		<path class="st1" d="M252.75,132.38v-1.17c0-1.09-0.52-1.97-1.23-2.28c0.23-0.42,0.39-0.92,0.39-1.49v-0.42
			c0-1.01-0.44-1.88-1.06-2.26c0.32-0.44,0.51-1.05,0.51-1.72v-0.68c0-1.34-0.78-2.43-1.74-2.43h-4.52c-0.77,0-1.41,0.72-1.63,1.69
			c-0.27-0.23-0.58-0.37-0.9-0.37h-5.61c-0.32,0-0.62,0.16-0.88,0.4l-0.06-0.12l-0.07,0.11c-0.3-0.33-0.66-0.58-1.06-0.58h-4.53
			c-0.6,0-1.1,0.45-1.41,1.09c-0.32-0.46-0.76-0.75-1.27-0.75h-5.86c-0.98,0-1.75,1.08-1.75,2.45v0.68c0,0.21,0.03,0.4,0.06,0.58
			c-0.8,0.23-1.41,1.15-1.41,2.32v1.47c0,0.54,0.16,1.02,0.38,1.44c-0.72,0.3-1.25,1.19-1.25,2.29v0.28c0,0.78,0.28,1.44,0.69,1.89
			c-0.62,0.58-1.06,1.52-1.06,2.65v1.02c0,1.79,1.04,3.24,2.32,3.24h3.66c1,0,1.83-0.89,2.16-2.13c0.41,0.95,1.12,1.61,1.96,1.61
			h3.66c1.06,0,1.92-1.02,2.2-2.38c0.27,1.36,1.13,2.38,2.2,2.38h5.56c0.76,0,1.41-0.55,1.83-1.34c0.42,0.79,1.07,1.34,1.83,1.34
			h5.56c1.28,0,2.32-1.45,2.32-3.24v-1.02c0-1.01-0.35-1.88-0.88-2.47C252.39,134.02,252.75,133.27,252.75,132.38z M245.93,132.38
			c0,0.71-0.42,1.29-0.93,1.29h-0.14h-3.66h-2.52c-0.51,0-0.93-0.58-0.93-1.29v-1.17c0-0.71,0.42-1.29,0.93-1.29h3.01H245
			c0.51,0,0.93,0.58,0.93,1.29V132.38z M243.14,134.81c-0.04,0.06-0.07,0.14-0.1,0.21c-0.04-0.07-0.06-0.15-0.1-0.21H243.14z
			 M232.98,134.81h0.94c-0.22,0.36-0.37,0.78-0.47,1.25C233.35,135.59,233.2,135.16,232.98,134.81z M231.25,133.67h-1.1
			c-0.51,0-0.93-0.58-0.93-1.29v-1.17c0-0.71,0.42-1.29,0.93-1.29h1.6h4.26c0.51,0,0.93,0.58,0.93,1.29v1.17
			c0,0.71-0.42,1.29-0.93,1.29h-0.37H231.25z M222.74,133.67c-0.35,0-0.64-0.28-0.8-0.67c0-0.04,0.02-0.07,0.02-0.1v-0.28
			c0-0.34-0.05-0.67-0.15-0.96v-0.45c0-0.71,0.42-1.29,0.93-1.29h3.98h0.77c0.51,0,0.93,0.58,0.93,1.29v1.17
			c0,0.71-0.42,1.29-0.93,1.29H222.74z M231.75,126.15c0.51,0,0.93,0.58,0.93,1.34c0,0.71-0.42,1.29-0.93,1.29h-1.6h-2.67h-0.77
			c-0.5,0-0.91-0.56-0.93-1.3v-0.05c0-0.01,0-0.01,0-0.01c0.01-0.7,0.42-1.27,0.93-1.27H231.75z M235.72,126.15l0.07,0.15l0.11-0.15
			h3.13c0.51,0,0.93,0.58,0.93,1.29c0,0.71-0.42,1.29-0.93,1.29h-4.61c-0.51,0-0.93-0.58-0.93-1.29c0-0.71,0.42-1.29,0.93-1.29
			H235.72z M246.78,125.75c0.51,0,0.93,0.58,0.93,1.29v0.44c0,0.71-0.42,1.29-0.93,1.29H245h-3.31c-0.51,0-0.93-0.58-0.93-1.29
			v-0.44c0-0.71,0.42-1.29,0.93-1.29H246.78z M251.11,127.43c0,0.73-0.41,1.32-0.92,1.32h-1.96c0.17-0.37,0.29-0.79,0.29-1.26v-0.44
			c0-0.51-0.14-0.95-0.33-1.34h2c0.52,0,0.92,0.58,0.92,1.32V127.43z M245.11,121.07h4.52c0.51,0,0.93,0.58,0.93,1.29v0.68
			c0,0.71-0.42,1.29-0.93,1.29h-4.52c-0.36,0-0.65-0.29-0.81-0.7c0-0.18-0.01-0.34-0.04-0.5l0.05-0.08l-0.13-0.29v-0.42
			C244.18,121.65,244.6,121.07,245.11,121.07z M242.58,122.39c0.3,0,0.57,0.19,0.74,0.51l-0.03,0.04l0.11,0.27
			c0.01,0.24,0.04,0.46,0.1,0.68v0.47c0,0.09-0.03,0.18-0.05,0.27h-1.75c-0.58,0-1.07,0.43-1.39,1.04h-0.12
			c-0.31-0.39-0.71-0.64-1.16-0.64h-2.51c0.08-0.27,0.12-0.55,0.12-0.86v-0.68c0-0.32-0.05-0.61-0.13-0.89
			c0.14-0.12,0.29-0.2,0.46-0.2H242.58z M229.44,123.48c0-0.71,0.41-1.28,0.92-1.28h4.53c0.23,0,0.43,0.13,0.59,0.32
			c-0.14,0.35-0.24,0.73-0.24,1.14v0.68c0,0.24,0.09,0.44,0.14,0.67h-0.96c-0.36,0-0.68,0.19-0.96,0.46h-0.75
			c-0.28-0.26-0.6-0.46-0.96-0.46h-2.05c-0.16-0.23-0.26-0.54-0.26-0.86v-0.3V123.48z M220.88,123.86c0-0.74,0.42-1.32,0.94-1.32
			h5.86c0.53,0,0.94,0.58,0.94,1.32v0.3v0.37c0,0.19-0.06,0.33-0.11,0.49h-1.8c-0.5,0-0.95,0.31-1.27,0.79h-0.17
			c-0.32-0.47-0.75-0.79-1.24-0.79h-3.05c-0.05-0.15-0.11-0.29-0.11-0.49V123.86z M219.53,127.43c0-0.69,0.43-1.28,0.94-1.28h3.56
			c0.32,0,0.6,0.2,0.78,0.56c0.11,0.2,0.15,0.43,0.16,0.77c0,0,0,0,0,0c0,0.01,0.01,0.02,0.01,0.04v1.26h-2.24
			c-0.7,0-1.3,0.59-1.58,1.43h-0.69c-0.5,0-0.94-0.61-0.94-1.32V127.43z M219.59,134.19c-0.51,0-0.93-0.58-0.93-1.29v-0.28
			c0-0.71,0.42-1.29,0.93-1.29h0.63c0.34,0,0.62,0.26,0.78,0.64v0.41c0,0.27,0.05,0.52,0.11,0.76c-0.08,0.59-0.44,1.05-0.89,1.05
			h-0.41H219.59z M224.98,138.45c0,1.16-0.68,2.11-1.51,2.11h-3.66c-0.83,0-1.51-0.94-1.51-2.11v-1.02c0-1.16,0.68-2.11,1.51-2.11
			h0.41h3.25c0.83,0,1.51,0.94,1.51,2.11V138.45z M224.75,134.81h1.11c-0.18,0.3-0.33,0.63-0.43,1
			C225.26,135.4,225.03,135.07,224.75,134.81z M232.76,137.94c0,1.16-0.68,2.11-1.51,2.11h-3.66c-0.83,0-1.51-0.94-1.51-2.11v-1.02
			c0-1.16,0.68-2.11,1.51-2.11h2.57h1.1c0.83,0,1.51,0.94,1.51,2.11V137.94z M241.2,140.04h-5.56c-0.83,0-1.51-0.94-1.51-2.11v-1.02
			c0-1.16,0.68-2.11,1.51-2.11h0.37h2.67h2.52c0.68,0,1.24,0.65,1.43,1.52c-0.03,0.2-0.08,0.38-0.08,0.59v1.02
			c0,0.21,0.06,0.39,0.08,0.59C242.44,139.39,241.89,140.04,241.2,140.04z M251.94,137.94c0,1.16-0.68,2.11-1.51,2.11h-5.56
			c-0.69,0-1.24-0.65-1.43-1.52c0.03-0.2,0.08-0.38,0.08-0.59v-1.02c0-0.21-0.06-0.39-0.08-0.59c0.19-0.87,0.74-1.52,1.43-1.52H245
			h2.67h2.76c0.83,0,1.51,0.94,1.51,2.11V137.94z M251.94,132.38c0,0.71-0.42,1.29-0.93,1.29h-0.58h-2.76
			c-0.51,0-0.93-0.58-0.93-1.29v-1.17c0-0.71,0.42-1.29,0.93-1.29h3.34c0.51,0,0.93,0.58,0.93,1.29V132.38z"/>
		<path class="st1" d="M250.28,113.39v-1.17c0-1.09-0.45-1.97-1.06-2.28c0.2-0.42,0.34-0.92,0.34-1.49v-0.42
			c0-1.01-0.38-1.88-0.91-2.26c0.27-0.44,0.44-1.05,0.44-1.72v-0.68c0-1.34-0.67-2.43-1.5-2.43h-3.89c-0.67,0-1.21,0.72-1.41,1.69
			c-0.23-0.23-0.5-0.37-0.78-0.37h-4.83c-0.28,0-0.53,0.16-0.76,0.4l-0.05-0.12l-0.06,0.11c-0.26-0.33-0.57-0.58-0.92-0.58H231
			c-0.51,0-0.94,0.45-1.21,1.09c-0.27-0.46-0.65-0.75-1.09-0.75h-5.04c-0.85,0-1.51,1.08-1.51,2.45v0.68c0,0.21,0.03,0.4,0.05,0.58
			c-0.69,0.23-1.22,1.15-1.22,2.32v1.47c0,0.54,0.14,1.02,0.33,1.44c-0.62,0.3-1.08,1.19-1.08,2.29v0.28c0,0.78,0.24,1.44,0.6,1.89
			c-0.54,0.58-0.91,1.52-0.91,2.65v1.02c0,1.79,0.9,3.24,2,3.24h3.15c0.86,0,1.58-0.89,1.86-2.13c0.35,0.95,0.96,1.61,1.69,1.61
			h3.15c0.91,0,1.66-1.02,1.89-2.38c0.24,1.36,0.98,2.38,1.89,2.38h4.79c0.66,0,1.21-0.55,1.58-1.34c0.36,0.79,0.92,1.34,1.58,1.34
			h4.79c1.1,0,2-1.45,2-3.24v-1.02c0-1.01-0.3-1.88-0.75-2.47C249.97,115.03,250.28,114.28,250.28,113.39z M244.41,113.39
			c0,0.71-0.36,1.29-0.8,1.29h-0.12h-3.15h-2.17c-0.44,0-0.8-0.58-0.8-1.29v-1.17c0-0.71,0.36-1.29,0.8-1.29h2.6h2.85
			c0.44,0,0.8,0.58,0.8,1.29V113.39z M242.01,115.82c-0.03,0.06-0.06,0.14-0.09,0.21c-0.03-0.07-0.05-0.15-0.09-0.21H242.01z
			 M233.26,115.82h0.81c-0.19,0.36-0.32,0.78-0.4,1.25C233.58,116.6,233.45,116.17,233.26,115.82z M231.77,114.68h-0.94
			c-0.44,0-0.8-0.58-0.8-1.29v-1.17c0-0.71,0.36-1.29,0.8-1.29h1.37h3.67c0.44,0,0.8,0.58,0.8,1.29v1.17c0,0.71-0.36,1.29-0.8,1.29
			h-0.32H231.77z M224.45,114.68c-0.3,0-0.55-0.28-0.69-0.67c0-0.04,0.01-0.07,0.01-0.1v-0.28c0-0.34-0.05-0.67-0.13-0.96v-0.45
			c0-0.71,0.36-1.29,0.8-1.29h3.42h0.66c0.44,0,0.8,0.58,0.8,1.29v1.17c0,0.71-0.36,1.29-0.8,1.29H224.45z M232.2,107.16
			c0.44,0,0.8,0.58,0.8,1.34c0,0.71-0.36,1.29-0.8,1.29h-1.37h-2.3h-0.66c-0.43,0-0.78-0.56-0.8-1.3v-0.05c0-0.01,0-0.01,0-0.01
			c0.01-0.7,0.36-1.27,0.8-1.27H232.2z M235.62,107.16l0.06,0.15l0.09-0.15h2.7c0.44,0,0.8,0.58,0.8,1.29c0,0.71-0.36,1.29-0.8,1.29
			h-3.97c-0.44,0-0.8-0.58-0.8-1.29c0-0.71,0.36-1.29,0.8-1.29H235.62z M245.14,106.76c0.44,0,0.8,0.58,0.8,1.29v0.44
			c0,0.71-0.36,1.29-0.8,1.29h-1.53h-2.85c-0.44,0-0.8-0.58-0.8-1.29v-0.44c0-0.71,0.36-1.29,0.8-1.29H245.14z M248.87,108.44
			c0,0.73-0.36,1.32-0.79,1.32h-1.69c0.14-0.37,0.25-0.79,0.25-1.26v-0.44c0-0.51-0.12-0.95-0.28-1.34h1.72
			c0.44,0,0.79,0.58,0.79,1.32V108.44z M243.71,102.07h3.89c0.44,0,0.8,0.58,0.8,1.29v0.68c0,0.71-0.36,1.29-0.8,1.29h-3.89
			c-0.31,0-0.56-0.29-0.7-0.7c0-0.18-0.01-0.34-0.04-0.5l0.04-0.08l-0.11-0.29v-0.42C242.91,102.66,243.27,102.07,243.71,102.07z
			 M241.52,103.4c0.26,0,0.49,0.19,0.63,0.51l-0.02,0.04l0.1,0.27c0.01,0.24,0.04,0.46,0.08,0.68v0.47c0,0.09-0.03,0.18-0.04,0.27
			h-1.51c-0.5,0-0.92,0.43-1.2,1.04h-0.1c-0.27-0.39-0.61-0.64-1-0.64h-2.16c0.07-0.27,0.1-0.55,0.1-0.86v-0.68
			c0-0.32-0.05-0.61-0.12-0.89c0.12-0.12,0.25-0.2,0.4-0.2H241.52z M230.21,104.49c0-0.71,0.36-1.28,0.79-1.28h3.9
			c0.2,0,0.37,0.13,0.51,0.32c-0.12,0.35-0.21,0.73-0.21,1.14v0.68c0,0.24,0.08,0.44,0.12,0.67h-0.83c-0.31,0-0.58,0.19-0.82,0.46
			h-0.65c-0.24-0.26-0.51-0.46-0.82-0.46h-1.77c-0.14-0.23-0.23-0.54-0.23-0.86v-0.3V104.49z M222.85,104.87
			c0-0.74,0.36-1.32,0.81-1.32h5.04c0.46,0,0.81,0.58,0.81,1.32v0.3v0.37c0,0.19-0.05,0.33-0.09,0.49h-1.55
			c-0.43,0-0.82,0.31-1.09,0.79h-0.15c-0.28-0.47-0.65-0.79-1.07-0.79h-2.62c-0.04-0.15-0.1-0.29-0.1-0.49V104.87z M221.69,108.44
			c0-0.69,0.37-1.28,0.81-1.28h3.07c0.27,0,0.52,0.2,0.67,0.56c0.09,0.2,0.13,0.43,0.14,0.77c0,0,0,0,0,0c0,0.01,0,0.02,0,0.04v1.26
			h-1.93c-0.61,0-1.12,0.59-1.36,1.43h-0.59c-0.43,0-0.81-0.61-0.81-1.32V108.44z M221.74,115.2c-0.44,0-0.8-0.58-0.8-1.29v-0.28
			c0-0.71,0.36-1.29,0.8-1.29h0.54c0.29,0,0.53,0.26,0.67,0.64v0.41c0,0.27,0.04,0.52,0.1,0.76c-0.07,0.59-0.38,1.05-0.77,1.05
			h-0.36H221.74z M226.37,119.46c0,1.16-0.58,2.11-1.3,2.11h-3.15c-0.72,0-1.3-0.94-1.3-2.11v-1.02c0-1.16,0.58-2.11,1.3-2.11h0.36
			h2.79c0.72,0,1.3,0.94,1.3,2.11V119.46z M226.18,115.82h0.96c-0.16,0.3-0.29,0.63-0.37,1
			C226.61,116.41,226.42,116.08,226.18,115.82z M233.07,118.94c0,1.16-0.58,2.11-1.3,2.11h-3.15c-0.72,0-1.3-0.94-1.3-2.11v-1.02
			c0-1.16,0.58-2.11,1.3-2.11h2.21h0.94c0.72,0,1.3,0.94,1.3,2.11V118.94z M240.34,121.05h-4.79c-0.72,0-1.3-0.94-1.3-2.11v-1.02
			c0-1.16,0.58-2.11,1.3-2.11h0.32h2.3h2.17c0.59,0,1.07,0.65,1.23,1.52c-0.02,0.2-0.07,0.38-0.07,0.59v1.02
			c0,0.21,0.05,0.39,0.07,0.59C241.41,120.4,240.93,121.05,240.34,121.05z M249.58,118.94c0,1.16-0.58,2.11-1.3,2.11h-4.79
			c-0.59,0-1.07-0.65-1.23-1.52c0.02-0.2,0.07-0.38,0.07-0.59v-1.02c0-0.21-0.05-0.39-0.07-0.59c0.16-0.87,0.64-1.52,1.23-1.52h0.12
			h2.3h2.37c0.72,0,1.3,0.94,1.3,2.11V118.94z M249.58,113.39c0,0.71-0.36,1.29-0.8,1.29h-0.5h-2.37c-0.44,0-0.8-0.58-0.8-1.29
			v-1.17c0-0.71,0.36-1.29,0.8-1.29h2.88c0.44,0,0.8,0.58,0.8,1.29V113.39z"/>
		<path class="st1" d="M247,93.9v-1.17c0-1.09-0.37-1.97-0.86-2.28c0.16-0.42,0.28-0.92,0.28-1.49v-0.42c0-1.01-0.31-1.88-0.74-2.26
			c0.22-0.44,0.36-1.05,0.36-1.72v-0.68c0-1.34-0.55-2.43-1.22-2.43h-3.18c-0.54,0-0.99,0.72-1.15,1.69
			c-0.19-0.23-0.41-0.37-0.64-0.37h-3.95c-0.23,0-0.43,0.16-0.62,0.4l-0.04-0.12l-0.05,0.11c-0.21-0.33-0.46-0.58-0.75-0.58h-3.19
			c-0.42,0-0.77,0.45-0.99,1.09c-0.22-0.46-0.54-0.75-0.89-0.75h-4.12c-0.69,0-1.23,1.08-1.23,2.45v0.68c0,0.21,0.02,0.4,0.04,0.58
			c-0.56,0.23-0.99,1.15-0.99,2.32v1.47c0,0.54,0.11,1.02,0.27,1.44c-0.5,0.3-0.88,1.19-0.88,2.29v0.28c0,0.78,0.2,1.44,0.49,1.89
			c-0.44,0.58-0.75,1.52-0.75,2.65v1.02c0,1.79,0.73,3.24,1.63,3.24h2.57c0.7,0,1.29-0.89,1.52-2.13c0.29,0.95,0.78,1.61,1.38,1.61
			h2.57c0.75,0,1.35-1.02,1.54-2.38c0.19,1.36,0.8,2.38,1.54,2.38h3.91c0.54,0,0.99-0.55,1.29-1.34c0.3,0.79,0.75,1.34,1.29,1.34
			h3.91c0.9,0,1.63-1.45,1.63-3.24v-1.02c0-1.01-0.25-1.88-0.62-2.47C246.74,95.54,247,94.79,247,93.9z M242.2,93.9
			c0,0.71-0.29,1.29-0.65,1.29h-0.1h-2.58h-1.77c-0.36,0-0.65-0.58-0.65-1.29v-1.17c0-0.71,0.29-1.29,0.65-1.29h2.12h2.33
			c0.36,0,0.65,0.58,0.65,1.29V93.9z M240.24,96.33c-0.03,0.06-0.05,0.14-0.07,0.21c-0.03-0.07-0.04-0.15-0.07-0.21H240.24z
			 M233.09,96.33h0.66c-0.16,0.36-0.26,0.78-0.33,1.25C233.35,97.11,233.25,96.68,233.09,96.33z M231.87,95.19h-0.77
			c-0.36,0-0.65-0.58-0.65-1.29v-1.17c0-0.71,0.29-1.29,0.65-1.29h1.12h3c0.36,0,0.65,0.58,0.65,1.29v1.17
			c0,0.71-0.29,1.29-0.65,1.29h-0.26H231.87z M225.89,95.19c-0.24,0-0.45-0.28-0.56-0.67c0-0.04,0.01-0.07,0.01-0.1v-0.28
			c0-0.34-0.04-0.67-0.1-0.96v-0.45c0-0.71,0.29-1.29,0.65-1.29h2.8h0.54c0.36,0,0.65,0.58,0.65,1.29v1.17
			c0,0.71-0.29,1.29-0.65,1.29H225.89z M232.23,87.67c0.36,0,0.65,0.58,0.65,1.34c0,0.71-0.29,1.29-0.65,1.29h-1.12h-1.88h-0.54
			c-0.35,0-0.64-0.56-0.65-1.3v-0.05c0-0.01,0-0.01,0-0.01c0.01-0.7,0.3-1.27,0.65-1.27H232.23z M235.02,87.67l0.05,0.15l0.08-0.15
			h2.2c0.36,0,0.65,0.58,0.65,1.29s-0.29,1.29-0.65,1.29h-3.24c-0.36,0-0.65-0.58-0.65-1.29s0.29-1.29,0.65-1.29H235.02z
			 M242.8,87.27c0.36,0,0.65,0.58,0.65,1.29v0.44c0,0.71-0.29,1.29-0.65,1.29h-1.25h-2.33c-0.36,0-0.65-0.58-0.65-1.29v-0.44
			c0-0.71,0.29-1.29,0.65-1.29H242.8z M245.84,88.95c0,0.73-0.29,1.32-0.65,1.32h-1.38c0.12-0.37,0.2-0.79,0.2-1.26v-0.44
			c0-0.51-0.1-0.95-0.23-1.34h1.41c0.36,0,0.65,0.58,0.65,1.32V88.95z M241.63,82.58h3.18c0.36,0,0.65,0.58,0.65,1.29v0.68
			c0,0.71-0.29,1.29-0.65,1.29h-3.18c-0.25,0-0.46-0.29-0.57-0.7c0-0.18-0.01-0.34-0.03-0.5l0.04-0.08l-0.09-0.29v-0.42
			C240.97,83.17,241.27,82.58,241.63,82.58z M239.84,83.91c0.21,0,0.4,0.19,0.52,0.51l-0.02,0.04l0.08,0.27
			c0.01,0.24,0.03,0.46,0.07,0.68v0.47c0,0.09-0.02,0.18-0.03,0.27h-1.23c-0.41,0-0.75,0.43-0.98,1.04h-0.09
			c-0.22-0.39-0.5-0.64-0.81-0.64h-1.77c0.06-0.27,0.09-0.55,0.09-0.86V85c0-0.32-0.04-0.61-0.09-0.89c0.1-0.12,0.21-0.2,0.32-0.2
			H239.84z M230.6,85c0-0.71,0.29-1.28,0.65-1.28h3.19c0.16,0,0.3,0.13,0.42,0.32c-0.1,0.35-0.17,0.73-0.17,1.14v0.68
			c0,0.24,0.06,0.44,0.1,0.67h-0.67c-0.25,0-0.48,0.19-0.67,0.46h-0.53c-0.2-0.26-0.42-0.46-0.67-0.46h-1.44
			c-0.11-0.23-0.19-0.54-0.19-0.86v-0.3V85z M224.58,85.37c0-0.74,0.29-1.32,0.66-1.32h4.12c0.37,0,0.66,0.58,0.66,1.32v0.3v0.37
			c0,0.19-0.04,0.33-0.08,0.49h-1.27c-0.35,0-0.67,0.31-0.89,0.79h-0.12c-0.23-0.47-0.53-0.79-0.87-0.79h-2.14
			c-0.04-0.15-0.08-0.29-0.08-0.49V85.37z M223.63,88.95c0-0.69,0.3-1.28,0.66-1.28h2.51c0.22,0,0.42,0.2,0.55,0.56
			c0.08,0.2,0.11,0.43,0.11,0.77c0,0,0,0,0,0c0,0.01,0,0.02,0,0.04v1.26h-1.58c-0.49,0-0.92,0.59-1.11,1.43h-0.48
			c-0.35,0-0.66-0.61-0.66-1.32V88.95z M223.68,95.71c-0.36,0-0.65-0.58-0.65-1.29v-0.28c0-0.71,0.29-1.29,0.65-1.29h0.44
			c0.24,0,0.44,0.26,0.55,0.64v0.41c0,0.27,0.04,0.52,0.08,0.76c-0.06,0.59-0.31,1.05-0.63,1.05h-0.29H223.68z M227.46,99.97
			c0,1.16-0.48,2.11-1.06,2.11h-2.57c-0.59,0-1.06-0.94-1.06-2.11v-1.02c0-1.16,0.48-2.11,1.06-2.11h0.29h2.28
			c0.59,0,1.06,0.94,1.06,2.11V99.97z M227.3,96.33h0.78c-0.13,0.3-0.23,0.63-0.3,1C227.66,96.92,227.5,96.59,227.3,96.33z
			 M232.94,99.45c0,1.16-0.48,2.11-1.06,2.11h-2.57c-0.59,0-1.06-0.94-1.06-2.11v-1.02c0-1.16,0.48-2.11,1.06-2.11h1.8h0.77
			c0.59,0,1.06,0.94,1.06,2.11V99.45z M238.88,101.56h-3.91c-0.59,0-1.06-0.94-1.06-2.11v-1.02c0-1.16,0.48-2.11,1.06-2.11h0.26
			h1.88h1.77c0.48,0,0.87,0.65,1,1.52c-0.02,0.2-0.06,0.38-0.06,0.59v1.02c0,0.21,0.04,0.39,0.06,0.59
			C239.75,100.91,239.36,101.56,238.88,101.56z M246.43,99.45c0,1.16-0.48,2.11-1.06,2.11h-3.91c-0.48,0-0.87-0.65-1-1.52
			c0.02-0.2,0.06-0.38,0.06-0.59v-1.02c0-0.21-0.04-0.39-0.06-0.59c0.13-0.87,0.52-1.52,1-1.52h0.1h1.88h1.94
			c0.59,0,1.06,0.94,1.06,2.11V99.45z M246.43,93.9c0,0.71-0.29,1.29-0.65,1.29h-0.41h-1.94c-0.36,0-0.65-0.58-0.65-1.29v-1.17
			c0-0.71,0.29-1.29,0.65-1.29h2.35c0.36,0,0.65,0.58,0.65,1.29V93.9z"/>
		<path class="st1" d="M243.3,72.08v-1.47c0-1.36-0.27-2.47-0.64-2.85c0.12-0.52,0.21-1.15,0.21-1.87v-0.52
			c0-1.27-0.23-2.36-0.55-2.82c0.17-0.55,0.27-1.31,0.27-2.15v-0.86c0-1.67-0.41-3.03-0.91-3.03h-2.36c-0.4,0-0.73,0.9-0.85,2.12
			c-0.14-0.29-0.3-0.46-0.47-0.46h-2.93c-0.17,0-0.32,0.21-0.46,0.49l-0.03-0.15l-0.04,0.14c-0.16-0.42-0.34-0.72-0.55-0.72h-2.36
			c-0.31,0-0.57,0.56-0.73,1.36c-0.17-0.58-0.4-0.94-0.66-0.94h-3.05c-0.51,0-0.91,1.35-0.91,3.06v0.85c0,0.26,0.02,0.5,0.03,0.73
			c-0.42,0.28-0.74,1.44-0.74,2.9v1.83c0,0.68,0.08,1.28,0.2,1.8c-0.37,0.38-0.65,1.49-0.65,2.86v0.34c0,0.97,0.15,1.8,0.36,2.36
			c-0.33,0.73-0.55,1.91-0.55,3.31v1.28c0,2.23,0.54,4.05,1.21,4.05h1.91c0.52,0,0.96-1.12,1.13-2.67c0.21,1.18,0.58,2.02,1.02,2.02
			h1.91c0.55,0,1-1.28,1.15-2.98c0.14,1.7,0.59,2.98,1.15,2.98h2.9c0.4,0,0.73-0.69,0.95-1.68c0.22,0.99,0.56,1.68,0.96,1.68h2.9
			c0.67,0,1.21-1.82,1.21-4.05v-1.28c0-1.26-0.18-2.35-0.46-3.09C243.11,74.12,243.3,73.19,243.3,72.08z M239.75,72.08
			c0,0.89-0.22,1.62-0.48,1.62h-0.07h-1.91h-1.31c-0.27,0-0.48-0.73-0.48-1.62v-1.47c0-0.89,0.22-1.62,0.48-1.62h1.57h1.72
			c0.27,0,0.48,0.73,0.48,1.62V72.08z M238.29,75.11c-0.02,0.08-0.03,0.18-0.05,0.27c-0.02-0.09-0.03-0.18-0.05-0.27H238.29z
			 M232.99,75.11h0.49c-0.12,0.45-0.19,0.98-0.24,1.57C233.18,76.09,233.11,75.56,232.99,75.11z M232.09,73.69h-0.57
			c-0.27,0-0.49-0.73-0.49-1.62v-1.47c0-0.89,0.22-1.62,0.49-1.62h0.83h2.22c0.27,0,0.49,0.73,0.49,1.62v1.47
			c0,0.89-0.22,1.62-0.49,1.62h-0.19H232.09z M227.65,73.69c-0.18,0-0.33-0.35-0.42-0.84c0-0.05,0.01-0.08,0.01-0.13v-0.34
			c0-0.43-0.03-0.83-0.08-1.2v-0.57c0-0.89,0.22-1.62,0.48-1.62h2.07h0.4c0.27,0,0.48,0.73,0.48,1.62v1.47
			c0,0.89-0.22,1.62-0.48,1.62H227.65z M232.35,64.28c0.27,0,0.48,0.73,0.48,1.67c0,0.89-0.22,1.62-0.48,1.62h-0.83h-1.39h-0.4
			c-0.26,0-0.47-0.7-0.48-1.63v-0.06c0-0.01,0-0.01,0-0.02c0.01-0.88,0.22-1.59,0.48-1.59H232.35z M234.42,64.28l0.04,0.19
			l0.06-0.19h1.63c0.27,0,0.48,0.73,0.48,1.62c0,0.89-0.22,1.62-0.48,1.62h-2.41c-0.27,0-0.48-0.73-0.48-1.62
			c0-0.89,0.22-1.62,0.48-1.62H234.42z M240.19,63.78c0.27,0,0.48,0.73,0.48,1.62v0.56c0,0.89-0.22,1.62-0.48,1.62h-0.93h-1.72
			c-0.27,0-0.48-0.73-0.48-1.62V65.4c0-0.89,0.22-1.62,0.48-1.62H240.19z M242.45,65.89c0,0.91-0.22,1.65-0.48,1.65h-1.02
			c0.09-0.47,0.15-0.99,0.15-1.58V65.4c0-0.63-0.07-1.19-0.17-1.68h1.04c0.27,0,0.48,0.72,0.48,1.65V65.89z M239.32,57.93h2.36
			c0.27,0,0.48,0.73,0.48,1.62v0.86c0,0.89-0.22,1.62-0.48,1.62h-2.36c-0.19,0-0.34-0.36-0.42-0.87c0-0.22-0.01-0.43-0.02-0.62
			l0.03-0.1l-0.07-0.36v-0.52C238.84,58.65,239.05,57.93,239.32,57.93z M238,59.58c0.15,0,0.3,0.24,0.38,0.63l-0.01,0.05l0.06,0.34
			c0.01,0.29,0.02,0.58,0.05,0.85v0.58c0,0.11-0.02,0.23-0.02,0.34h-0.91c-0.3,0-0.56,0.54-0.72,1.31h-0.06
			c-0.16-0.49-0.37-0.8-0.6-0.8h-1.31c0.04-0.34,0.06-0.69,0.06-1.08v-0.85c0-0.41-0.03-0.77-0.07-1.11
			c0.07-0.15,0.15-0.25,0.24-0.25H238z M231.14,60.94c0-0.88,0.22-1.6,0.48-1.6h2.36c0.12,0,0.22,0.17,0.31,0.41
			c-0.07,0.44-0.13,0.91-0.13,1.43v0.85c0,0.29,0.05,0.56,0.07,0.84h-0.5c-0.19,0-0.35,0.24-0.5,0.57h-0.39
			c-0.15-0.33-0.31-0.57-0.5-0.57h-1.07c-0.08-0.29-0.14-0.67-0.14-1.08v-0.38V60.94z M226.68,61.42c0-0.92,0.22-1.65,0.49-1.65
			h3.05c0.28,0,0.49,0.72,0.49,1.65v0.38v0.47c0,0.24-0.03,0.42-0.06,0.61h-0.94c-0.26,0-0.49,0.39-0.66,0.99h-0.09
			c-0.17-0.59-0.39-0.99-0.65-0.99h-1.59c-0.03-0.19-0.06-0.37-0.06-0.61V61.42z M225.98,65.89c0-0.87,0.23-1.6,0.49-1.6h1.86
			c0.17,0,0.31,0.25,0.41,0.7c0.06,0.25,0.08,0.53,0.08,0.96c0,0,0,0,0,0.01c0,0.02,0,0.03,0,0.05v1.57h-1.17
			c-0.37,0-0.68,0.74-0.82,1.79h-0.36c-0.26,0-0.49-0.77-0.49-1.65V65.89z M226.01,74.34c-0.27,0-0.48-0.73-0.48-1.62v-0.34
			c0-0.89,0.22-1.62,0.48-1.62h0.33c0.18,0,0.32,0.33,0.41,0.8v0.51c0,0.34,0.03,0.65,0.06,0.95c-0.04,0.74-0.23,1.31-0.47,1.31
			h-0.22H226.01z M228.82,79.67c0,1.45-0.35,2.63-0.79,2.63h-1.91c-0.43,0-0.79-1.18-0.79-2.63v-1.28c0-1.45,0.35-2.63,0.79-2.63
			h0.22h1.69c0.43,0,0.79,1.18,0.79,2.63V79.67z M228.7,75.11h0.58c-0.1,0.37-0.17,0.78-0.23,1.25
			C228.96,75.86,228.84,75.44,228.7,75.11z M232.88,79.02c0,1.45-0.35,2.63-0.79,2.63h-1.91c-0.43,0-0.79-1.18-0.79-2.63v-1.28
			c0-1.45,0.35-2.63,0.79-2.63h1.34h0.57c0.43,0,0.79,1.18,0.79,2.63V79.02z M237.28,81.66h-2.9c-0.43,0-0.79-1.18-0.79-2.63v-1.28
			c0-1.45,0.35-2.63,0.79-2.63h0.19h1.39h1.31c0.36,0,0.65,0.81,0.74,1.9c-0.01,0.25-0.04,0.47-0.04,0.73v1.28
			c0,0.26,0.03,0.49,0.04,0.73C237.93,80.84,237.64,81.66,237.28,81.66z M242.88,79.02c0,1.45-0.35,2.63-0.79,2.63h-2.9
			c-0.36,0-0.65-0.81-0.74-1.9c0.01-0.25,0.04-0.47,0.04-0.73v-1.28c0-0.26-0.03-0.49-0.04-0.73c0.1-1.09,0.39-1.9,0.74-1.9h0.07
			h1.39h1.44c0.43,0,0.79,1.18,0.79,2.63V79.02z M242.88,72.08c0,0.89-0.22,1.62-0.48,1.62h-0.3h-1.44c-0.27,0-0.48-0.73-0.48-1.62
			v-1.47c0-0.89,0.22-1.62,0.48-1.62h1.74c0.27,0,0.48,0.73,0.48,1.62V72.08z"/>
		<path class="st1" d="M261.55,229.63v1.21c0,1.12-0.75,2.04-1.75,2.36c0.33,0.43,0.56,0.95,0.56,1.55v0.43
			c0,1.05-0.62,1.95-1.51,2.33c0.45,0.46,0.73,1.08,0.73,1.78V240c0,1.38-1.11,2.51-2.48,2.51h-6.45c-1.1,0-2.01-0.74-2.33-1.75
			c-0.38,0.24-0.82,0.38-1.29,0.38h-8.01c-0.46,0-0.88-0.17-1.26-0.41l-0.09,0.12l-0.1-0.11c-0.43,0.35-0.94,0.6-1.52,0.6h-6.47
			c-0.85,0-1.56-0.46-2.01-1.13c-0.45,0.48-1.09,0.78-1.81,0.78h-8.36c-1.4,0-2.5-1.11-2.5-2.53v-0.7c0-0.22,0.04-0.41,0.09-0.6
			c-1.14-0.23-2.02-1.19-2.02-2.4v-1.52c0-0.56,0.23-1.06,0.54-1.49c-1.02-0.31-1.78-1.23-1.78-2.37v-0.29
			c0-0.81,0.4-1.49,0.99-1.95c-0.89-0.6-1.51-1.58-1.51-2.74v-1.06c0-1.85,1.49-3.35,3.31-3.35h5.23c1.43,0,2.62,0.93,3.08,2.21
			c0.58-0.98,1.59-1.67,2.8-1.67h5.23c1.52,0,2.75,1.06,3.14,2.47c0.39-1.41,1.62-2.47,3.14-2.47h7.94c1.09,0,2.01,0.57,2.61,1.39
			c0.6-0.82,1.53-1.39,2.62-1.39h7.94c1.83,0,3.31,1.5,3.31,3.35v1.06c0,1.05-0.51,1.94-1.25,2.56
			C261.03,227.93,261.55,228.71,261.55,229.63z M251.82,229.63c0-0.74-0.59-1.34-1.33-1.34h-0.2h-5.23h-3.6
			c-0.73,0-1.33,0.6-1.33,1.34v1.21c0,0.74,0.59,1.34,1.33,1.34h4.3h4.72c0.73,0,1.33-0.6,1.33-1.34V229.63z M247.83,227.12
			c-0.06-0.07-0.09-0.15-0.15-0.22c-0.05,0.07-0.09,0.15-0.15,0.22H247.83z M233.32,227.12h1.34c-0.32-0.37-0.53-0.81-0.67-1.3
			C233.86,226.31,233.64,226.75,233.32,227.12z M230.85,228.29h-1.56c-0.73,0-1.33,0.6-1.33,1.34v1.21c0,0.74,0.6,1.34,1.33,1.34
			h2.28h6.09c0.73,0,1.33-0.6,1.33-1.34v-1.21c0-0.74-0.6-1.34-1.33-1.34h-0.53H230.85z M218.71,228.29c-0.5,0-0.91,0.29-1.14,0.69
			c0,0.04,0.02,0.07,0.02,0.11v0.29c0,0.35-0.08,0.69-0.21,1v0.47c0,0.74,0.59,1.34,1.33,1.34h5.68h1.1c0.73,0,1.33-0.6,1.33-1.34
			v-1.21c0-0.74-0.59-1.34-1.33-1.34H218.71z M231.57,236.07c0.73,0,1.33-0.6,1.33-1.38c0-0.74-0.59-1.34-1.33-1.34h-2.28h-3.81
			h-1.1c-0.72,0-1.3,0.58-1.32,1.35v0.05c0,0.01,0,0.01,0,0.01c0.01,0.73,0.6,1.31,1.32,1.31H231.57z M237.24,236.07l0.1-0.16
			l0.16,0.16h4.47c0.73,0,1.33-0.6,1.33-1.34c0-0.74-0.59-1.34-1.33-1.34h-6.59c-0.73,0-1.33,0.6-1.33,1.34
			c0,0.74,0.59,1.34,1.33,1.34H237.24z M253.03,236.49c0.73,0,1.33-0.6,1.33-1.34v-0.46c0-0.74-0.59-1.34-1.33-1.34h-2.54h-4.72
			c-0.73,0-1.33,0.6-1.33,1.34v0.46c0,0.74,0.59,1.34,1.33,1.34H253.03z M259.21,234.75c0-0.75-0.59-1.36-1.31-1.36h-2.8
			c0.24,0.39,0.41,0.82,0.41,1.3v0.46c0,0.52-0.2,0.99-0.47,1.39h2.85c0.74,0,1.31-0.6,1.31-1.36V234.75z M250.65,241.34h6.45
			c0.73,0,1.33-0.6,1.33-1.34v-0.71c0-0.74-0.59-1.34-1.33-1.34h-6.45c-0.51,0-0.93,0.3-1.16,0.72c0,0.18-0.02,0.36-0.06,0.51
			l0.07,0.08l-0.18,0.3V240C249.32,240.73,249.92,241.34,250.65,241.34z M247.03,239.97c0.42,0,0.81-0.2,1.05-0.52l-0.04-0.04
			l0.16-0.28c0.02-0.24,0.06-0.48,0.14-0.7v-0.48c0-0.09-0.05-0.19-0.07-0.28h-2.5c-0.83,0-1.53-0.44-1.98-1.08h-0.17
			c-0.44,0.4-1.01,0.67-1.65,0.67h-3.59c0.11,0.28,0.17,0.57,0.17,0.89v0.7c0,0.34-0.08,0.64-0.19,0.92
			c0.2,0.12,0.42,0.21,0.66,0.21H247.03z M228.27,238.84c0,0.73,0.59,1.32,1.31,1.32h6.47c0.33,0,0.61-0.14,0.85-0.34
			c-0.2-0.37-0.34-0.75-0.34-1.18v-0.7c0-0.24,0.13-0.46,0.2-0.7h-1.37c-0.52,0-0.97-0.2-1.37-0.47h-1.08
			c-0.4,0.27-0.85,0.47-1.37,0.47h-2.93c-0.22,0.24-0.38,0.55-0.38,0.89v0.31V238.84z M216.05,238.45c0,0.76,0.59,1.36,1.35,1.36
			h8.36c0.76,0,1.35-0.6,1.35-1.36v-0.31v-0.39c0-0.2-0.09-0.35-0.16-0.5h-2.57c-0.72,0-1.35-0.32-1.81-0.82h-0.25
			c-0.46,0.49-1.07,0.82-1.77,0.82h-4.35c-0.07,0.16-0.16,0.3-0.16,0.51V238.45z M214.13,234.75c0,0.72,0.62,1.32,1.35,1.32h5.09
			c0.46,0,0.86-0.21,1.12-0.58c0.16-0.21,0.22-0.44,0.22-0.79c0,0,0,0,0,0c0-0.01,0.01-0.02,0.01-0.04v-1.3h-3.2
			c-1,0-1.86-0.61-2.25-1.48h-0.98c-0.72,0-1.35,0.64-1.35,1.36V234.75z M214.21,227.75c-0.73,0-1.33,0.6-1.33,1.34v0.29
			c0,0.74,0.59,1.34,1.33,1.34h0.9c0.48,0,0.89-0.27,1.12-0.66v-0.43c0-0.28,0.07-0.54,0.16-0.79c-0.12-0.61-0.63-1.09-1.28-1.09
			h-0.59H214.21z M221.9,223.34c0-1.2-0.97-2.18-2.16-2.18h-5.23c-1.19,0-2.16,0.98-2.16,2.18v1.06c0,1.2,0.97,2.18,2.16,2.18h0.59
			h4.64c1.19,0,2.16-0.98,2.16-2.18V223.34z M221.58,227.12h1.58c-0.26-0.31-0.48-0.65-0.62-1.04
			C222.3,226.5,221.97,226.84,221.58,227.12z M233.01,223.88c0-1.2-0.97-2.18-2.16-2.18h-5.23c-1.19,0-2.16,0.98-2.16,2.18v1.06
			c0,1.2,0.97,2.18,2.16,2.18h3.66h1.56c1.19,0,2.16-0.98,2.16-2.18V223.88z M245.07,221.7h-7.94c-1.19,0-2.16,0.98-2.16,2.18v1.06
			c0,1.2,0.97,2.18,2.16,2.18h0.53h3.81h3.6c0.98,0,1.77-0.67,2.04-1.57c-0.04-0.2-0.12-0.39-0.12-0.61v-1.06
			c0-0.21,0.08-0.4,0.12-0.61C246.84,222.37,246.04,221.7,245.07,221.7z M260.4,223.88c0-1.2-0.97-2.18-2.16-2.18h-7.94
			c-0.98,0-1.77,0.67-2.04,1.57c0.04,0.2,0.12,0.39,0.12,0.61v1.06c0,0.21-0.08,0.4-0.12,0.61c0.26,0.9,1.06,1.57,2.04,1.57h0.2
			h3.81h3.94c1.19,0,2.16-0.98,2.16-2.18V223.88z M260.4,229.63c0-0.74-0.59-1.34-1.33-1.34h-0.83h-3.94c-0.73,0-1.33,0.6-1.33,1.34
			v1.21c0,0.74,0.59,1.34,1.33,1.34h4.77c0.73,0,1.33-0.6,1.33-1.34V229.63z"/>
	</g>
</g>
</svg>
