<?xml version="1.0" encoding="UTF-8"?>
<!DOCTYPE svg PUBLIC "-//W3C//DTD SVG 1.1//EN" "http://www.w3.org/Graphics/SVG/1.1/DTD/svg11.dtd">
<!-- Creator: CorelDRAW 2020 (64-Bit) -->
<svg xmlns="http://www.w3.org/2000/svg" xml:space="preserve" width="3.93701in" height="3.93701in" version="1.1" style="shape-rendering:geometricPrecision; text-rendering:geometricPrecision; image-rendering:optimizeQuality; fill-rule:evenodd; clip-rule:evenodd"
viewBox="0 0 3934.02 3934.02"
 xmlns:xlink="http://www.w3.org/1999/xlink"
 xmlns:xodm="http://www.corel.com/coreldraw/odm/2003">
 <defs>
  <style type="text/css">
   <![CDATA[
    .fil0 {fill:none}
    .fil1 {fill:black;fill-rule:nonzero}
   ]]>
  </style>
 </defs>
 <g id="Layer_x0020_1">
  <metadata id="CorelCorpID_0Corel-Layer"/>
  <rect class="fil0" width="3934.02" height="3934.02"/>
  <path class="fil1" d="M1925.78 1296.38c196.54,0 376.16,29.74 507.57,77.78 145.55,53.22 239.44,133.82 251.79,230.8 6.28,12.02 14.5,28.6 24.84,49.34 54.04,108.6 169.12,339.87 188.19,371l6.26 11.4c18.56,36.95 51.17,148.68 72.16,253.34 25.58,127.52 28.2,255.36 -31.59,292.01l-7.45 4.1c-42.09,20.9 -106.26,26.5 -165.37,18.78 -58.53,-7.6 -117.6,-29.01 -152.65,-62.26 -26.35,-25.04 -47.42,-51.08 -65.89,-78.4 -17.04,-25.2 -32.08,-51.94 -47.4,-80.23 -15.08,-27.86 -35.91,-45.59 -55.89,-52.52l-0.31 0c-7.08,-2.45 -13.25,-3.33 -17.77,-2.51l-0.59 0.11c-3.22,3.62 -5.09,12.37 -4.78,27.23 4.87,225.18 -47.55,279.2 -145.81,281.27 -28.24,0.62 -53.24,-5.55 -81.53,-12.5 -23.92,-5.89 -51.5,-12.68 -79.1,-12.68 -154.19,0 -171.37,-80.65 -190.81,-172.27 -5.91,-27.78 -12.37,-58.14 -30.36,-71.39 -46.03,-33.95 -74.76,-66.78 -100.51,-96.19 -32.14,-36.75 -56.79,-64.91 -134.66,-64.91 -96.92,0 -136.78,87.35 -174.17,169.32 -59.33,130.07 -115,252.01 -300.45,226.55 -26.32,-3.59 -52.16,-3.52 -74.49,-3.46 -104.85,0.37 -174.78,0.66 -174.78,-128.16 0,-8.86 29.5,-127.87 66.85,-274.34 63.36,-248.53 156.15,-594.95 158.64,-598.54l1.41 0.97c14.86,-94.78 108.03,-173.55 251.08,-225.86 131.42,-48.04 311.03,-77.78 507.57,-77.78zm668.82 496.84c-41.74,33.64 -96.34,62.83 -161.25,86.56 -131.42,48.04 -311.03,77.78 -507.57,77.78 -196.54,0 -376.16,-29.74 -507.57,-77.78 -56.63,-20.7 -105.45,-45.59 -144.69,-73.92 -26.81,111.2 -68.72,285.17 -106.26,432.44 -22.33,87.63 -41.67,157.34 -52.47,197.16l0.22 -0.05c28.07,-0.09 60.52,-0.17 96.45,4.74 64.55,8.86 95.59,-59.13 128.66,-131.62 58.8,-128.86 121.45,-266.19 323.99,-266.19 152.16,0 198.4,52.8 258.69,121.74 19.88,22.71 42.11,48.11 74.01,71.63 68.87,50.77 82.15,113.12 94.29,170.24 4.63,21.85 8.75,41.14 29.34,41.14 46.06,0 84.86,9.54 118.52,17.83 17.53,4.3 33.05,8.12 38.89,8.01 8.51,-0.18 -13.67,-21.34 -15.65,-113.36 -1.3,-60.23 16.6,-107.08 46.1,-140.24 25.33,-28.51 58.33,-45.84 94.91,-52.45 32.48,-5.86 67.31,-2.71 101.06,9 56.11,19.66 111.44,63.82 147.29,130.03 12.61,23.31 25,45.31 38.98,65.99 12.58,18.58 26.34,35.78 42.66,51.28 8.67,8.23 32.76,14.77 60.28,18.34 27.14,3.55 52.85,3.3 67.11,-1.61 7.82,-10.8 -32.43,-52.54 -45.46,-117.6 -18.28,-91.1 -44.62,-184.27 -58.44,-212.04l0 -0.24c-21.41,-35.6 -103.68,-199.67 -162.09,-316.81zm-1484.54 659.83c-2.91,10.93 -4.5,17.46 -4.5,18.89 0,24.32 1.72,0.02 4.5,-18.89zm1267.12 -923.86c-113.98,-41.67 -273.49,-67.46 -451.4,-67.46 -177.91,0 -337.42,25.8 -451.4,67.46 -88.96,32.52 -144.03,67.7 -144.03,97.78 0,30.07 55.07,65.26 144.03,97.78 113.98,41.67 273.49,67.46 451.4,67.46 177.92,0 337.42,-25.8 451.4,-67.46 88.96,-32.52 144.03,-67.7 144.03,-97.78 0,-30.07 -55.07,-65.26 -144.03,-97.78z"/>
 </g>
</svg>
