<?xml version="1.0" encoding="utf-8"?>
<!-- Generator: Adobe Illustrator 25.1.0, SVG Export Plug-In . SVG Version: 6.00 Build 0)  -->
<svg version="1.1"  width="16px" height ="16px" id="Layer_1" xmlns="http://www.w3.org/2000/svg" xmlns:xlink="http://www.w3.org/1999/xlink" x="0px" y="0px"
	 viewBox="0 0 300 300"   style="enable-background:new 0 0 300 300;" xml:space="preserve">
<style type="text/css">
	.st0{clip-path:url(#SVGID_2_);}
	.st1{fill:#231F20;}
	.st2{fill:#FF0000;}
	.st3{fill:#FB8538;}
	.st4{fill:#91D050;}
	.st5{fill:#FF8F2A;}
	.st6{fill:#E22024;}
	.st7{fill:#FF2500;}
	.st8{fill:#FFFFFF;}
	.st9{fill:#006FC0;}
	.st10{fill:#FFFF01;}
	.st11{fill:#231F20;stroke:#231F20;stroke-width:0.25;stroke-miterlimit:10;}
	.st12{fill:#FF29FF;}
	.st13{opacity:0.24;fill:none;stroke:#231F20;stroke-width:0.25;stroke-miterlimit:10;}
	.st14{fill:#D0CECE;}
	.st15{fill:#02A0E3;}
	.st16{fill:#58585A;}
	.st17{fill:#AEB1B3;}
	.st18{fill:#7F7F7F;}
	.st19{fill:#888888;}
	.st20{fill:none;stroke:#231F20;stroke-miterlimit:10;}
	.st21{fill:#C46321;}
	.st22{fill:#231F20;stroke:#888888;stroke-width:0.25;stroke-miterlimit:10;}
	.st23{fill:#484949;}
	.st24{fill:#B4B6B6;}
	.st25{fill:none;stroke:#231F20;stroke-width:0.25;stroke-miterlimit:10;}
	.st26{clip-path:url(#SVGID_6_);}
	.st27{fill:#0A0A0A;}
	.st28{fill:#FDFDFD;}
	.st29{fill:none;}
	.st30{fill:#040404;stroke:#FFFFFF;stroke-width:0.25;stroke-miterlimit:10;}
	.st31{clip-path:url(#SVGID_8_);}
	.st32{fill:#161616;}
	.st33{fill:#323232;}
	.st34{fill:#C1C1C1;}
	.st35{fill:#AEB1B3;stroke:#161616;stroke-width:0.25;stroke-miterlimit:10;}
	.st36{fill:#0D0D0D;}
	.st37{fill:#FFFFFF;stroke:#161616;stroke-miterlimit:10;}
	.st38{fill:#6E6E6E;}
	.st39{fill:#D9D9D9;}
	.st40{fill:#161616;stroke:#161616;stroke-width:0.5;stroke-miterlimit:10;}
	.st41{fill:#888888;stroke:#58585A;stroke-width:0.25;stroke-miterlimit:10;}
	.st42{fill:#040404;stroke:#FFFFFF;stroke-width:0.5;stroke-miterlimit:10;}
	.st43{fill:#2B2B2B;}
	.st44{fill:#C2C2C2;}
	.st45{fill:url(#SVGID_11_);}
	.st46{fill:url(#SVGID_12_);}
	.st47{opacity:0.2;fill:#E0E47C;}
	.st48{fill:url(#SVGID_13_);}
	.st49{opacity:0.4;fill:url(#SVGID_14_);}
	.st50{fill:url(#SVGID_15_);}
	.st51{opacity:0.4;fill:url(#SVGID_16_);}
	.st52{fill:url(#SVGID_17_);}
	.st53{opacity:0.4;fill:url(#SVGID_18_);}
	.st54{fill:url(#SVGID_19_);}
	.st55{opacity:0.4;fill:url(#SVGID_20_);}
	.st56{fill:url(#SVGID_21_);}
	.st57{opacity:0.4;fill:url(#SVGID_22_);}
	.st58{fill:url(#SVGID_23_);}
	.st59{opacity:0.4;fill:url(#SVGID_24_);}
	.st60{fill:url(#SVGID_25_);}
	.st61{opacity:0.4;fill:url(#SVGID_26_);}
	.st62{fill:url(#SVGID_27_);}
	.st63{opacity:0.4;fill:url(#SVGID_28_);}
	.st64{fill:url(#SVGID_29_);}
	.st65{opacity:0.4;fill:url(#SVGID_30_);}
	.st66{fill:url(#SVGID_31_);}
	.st67{opacity:0.4;fill:url(#SVGID_32_);}
	.st68{fill:url(#SVGID_33_);}
	.st69{opacity:0.4;fill:url(#SVGID_34_);}
	.st70{fill:#654209;}
	.st71{opacity:0.5;}
	.st72{opacity:0.5;fill:#654209;}
	.st73{opacity:0.3;fill:#654209;}
	.st74{fill:#326613;}
	.st75{fill:#4F8821;}
	.st76{opacity:0.5;fill:url(#SVGID_35_);}
	.st77{opacity:0.2;fill:#E0E481;}
	.st78{fill:url(#SVGID_36_);}
	.st79{opacity:0.4;fill:#E3DC3D;}
	.st80{opacity:0.4;fill:url(#SVGID_37_);}
	.st81{opacity:0.3;fill:url(#SVGID_38_);}
	.st82{fill:url(#SVGID_39_);}
	.st83{opacity:0.7;fill:url(#SVGID_40_);}
	.st84{opacity:0.7;}
	.st85{opacity:0.8;fill:url(#SVGID_41_);}
	.st86{opacity:0.3;fill:url(#SVGID_42_);}
	.st87{opacity:0.5;fill:url(#SVGID_43_);}
	.st88{opacity:0.3;fill:url(#SVGID_44_);}
	.st89{opacity:0.6;fill:#E3DC3D;}
	.st90{fill:url(#SVGID_45_);}
	.st91{opacity:0.6;fill:url(#SVGID_46_);}
	.st92{opacity:0.3;fill:#77BE7F;}
	.st93{opacity:0.2;fill:#ECEA85;}
	.st94{fill:url(#SVGID_47_);}
	.st95{opacity:0.5;fill:#E3DC3D;}
	.st96{fill:url(#SVGID_48_);}
	.st97{opacity:0.7;fill:url(#SVGID_49_);}
	.st98{opacity:0.8;fill:url(#SVGID_50_);}
	.st99{opacity:0.3;fill:url(#SVGID_51_);}
	.st100{opacity:0.5;fill:url(#SVGID_52_);}
	.st101{opacity:0.3;fill:url(#SVGID_53_);}
	.st102{fill:url(#SVGID_54_);}
	.st103{opacity:0.8;fill:url(#SVGID_55_);}
	.st104{opacity:0.4;fill:url(#SVGID_56_);}
	.st105{fill:url(#SVGID_57_);}
	.st106{opacity:0.4;fill:url(#SVGID_58_);}
	.st107{fill:url(#SVGID_59_);}
	.st108{fill:url(#SVGID_60_);}
	.st109{fill:url(#SVGID_61_);}
	.st110{opacity:0.5;fill:url(#SVGID_62_);}
	.st111{opacity:0.3;fill:#7D9567;}
	.st112{opacity:0.3;fill:#00713A;}
	.st113{opacity:0.8;fill:#E3DC3D;}
	.st114{opacity:0.5;fill:url(#SVGID_63_);}
	.st115{fill:url(#SVGID_64_);}
	.st116{fill:url(#SVGID_65_);}
	.st117{fill:url(#SVGID_66_);}
	.st118{opacity:0.7;fill:url(#SVGID_67_);}
	.st119{opacity:0.8;fill:url(#SVGID_68_);}
	.st120{opacity:0.3;fill:url(#SVGID_69_);}
	.st121{opacity:0.5;fill:url(#SVGID_70_);}
	.st122{opacity:0.3;fill:url(#SVGID_71_);}
	.st123{fill:#E3DC3D;}
	.st124{fill:url(#SVGID_72_);}
	.st125{opacity:0.4;fill:url(#SVGID_73_);}
	.st126{fill:url(#SVGID_74_);}
	.st127{opacity:0.8;fill:url(#SVGID_75_);}
	.st128{opacity:0.4;fill:url(#SVGID_76_);}
	.st129{fill:url(#SVGID_77_);}
	.st130{opacity:0.8;fill:url(#SVGID_78_);}
	.st131{opacity:0.2;fill:url(#SVGID_79_);}
	.st132{opacity:0.6;fill:url(#SVGID_80_);}
	.st133{opacity:0.3;fill:url(#SVGID_81_);}
	.st134{fill:url(#SVGID_82_);}
	.st135{opacity:0.4;fill:url(#SVGID_83_);}
	.st136{opacity:0.3;fill:url(#SVGID_84_);}
	.st137{opacity:0.5;fill:url(#SVGID_85_);}
	.st138{fill:url(#SVGID_86_);}
	.st139{opacity:0.8;fill:url(#SVGID_87_);}
	.st140{opacity:0.4;fill:url(#SVGID_88_);}
	.st141{opacity:0.5;fill:url(#SVGID_89_);}
	.st142{fill:url(#SVGID_90_);}
	.st143{fill:url(#SVGID_91_);}
	.st144{fill:url(#SVGID_92_);}
	.st145{opacity:0.7;fill:url(#SVGID_93_);}
	.st146{opacity:0.8;fill:url(#SVGID_94_);}
	.st147{opacity:0.3;fill:url(#SVGID_95_);}
	.st148{opacity:0.5;fill:url(#SVGID_96_);}
	.st149{opacity:0.3;fill:url(#SVGID_97_);}
	.st150{fill:url(#SVGID_98_);}
	.st151{opacity:0.4;fill:url(#SVGID_99_);}
	.st152{fill:url(#SVGID_100_);}
	.st153{opacity:0.8;fill:url(#SVGID_101_);}
	.st154{opacity:0.4;fill:url(#SVGID_102_);}
	.st155{fill:url(#SVGID_103_);}
	.st156{opacity:0.8;fill:url(#SVGID_104_);}
	.st157{opacity:0.2;fill:url(#SVGID_105_);}
	.st158{opacity:0.6;fill:url(#SVGID_106_);}
	.st159{opacity:0.3;fill:url(#SVGID_107_);}
	.st160{fill:url(#SVGID_108_);}
	.st161{opacity:0.4;fill:url(#SVGID_109_);}
	.st162{opacity:0.3;fill:url(#SVGID_110_);}
	.st163{opacity:0.5;fill:url(#SVGID_111_);}
	.st164{fill:url(#SVGID_112_);}
	.st165{opacity:0.8;fill:url(#SVGID_113_);}
	.st166{opacity:0.4;fill:url(#SVGID_114_);}
	.st167{opacity:0.5;fill:url(#SVGID_115_);}
	.st168{fill:url(#SVGID_116_);}
	.st169{fill:url(#SVGID_117_);}
	.st170{fill:url(#SVGID_118_);}
	.st171{opacity:0.7;fill:url(#SVGID_119_);}
	.st172{opacity:0.8;fill:url(#SVGID_120_);}
	.st173{opacity:0.3;fill:url(#SVGID_121_);}
	.st174{opacity:0.5;fill:url(#SVGID_122_);}
	.st175{opacity:0.3;fill:url(#SVGID_123_);}
	.st176{fill:url(#SVGID_124_);}
	.st177{opacity:0.4;fill:url(#SVGID_125_);}
	.st178{fill:url(#SVGID_126_);}
	.st179{opacity:0.8;fill:url(#SVGID_127_);}
	.st180{opacity:0.4;fill:url(#SVGID_128_);}
	.st181{fill:url(#SVGID_129_);}
	.st182{opacity:0.8;fill:url(#SVGID_130_);}
	.st183{opacity:0.2;fill:url(#SVGID_131_);}
	.st184{opacity:0.6;fill:url(#SVGID_132_);}
	.st185{opacity:0.3;fill:url(#SVGID_133_);}
	.st186{fill:url(#SVGID_134_);}
	.st187{opacity:0.4;fill:url(#SVGID_135_);}
	.st188{opacity:0.3;fill:url(#SVGID_136_);}
	.st189{opacity:0.5;fill:url(#SVGID_137_);}
	.st190{fill:url(#SVGID_138_);}
	.st191{opacity:0.8;fill:url(#SVGID_139_);}
	.st192{opacity:0.4;fill:url(#SVGID_140_);}
	.st193{opacity:0.5;fill:url(#SVGID_141_);}
	.st194{fill:url(#SVGID_142_);}
	.st195{opacity:0.4;fill:url(#SVGID_143_);}
	.st196{fill:url(#SVGID_144_);}
	.st197{opacity:0.8;fill:url(#SVGID_145_);}
	.st198{opacity:0.4;fill:url(#SVGID_146_);}
	.st199{fill:url(#SVGID_147_);}
	.st200{opacity:0.8;fill:url(#SVGID_148_);}
	.st201{opacity:0.2;fill:url(#SVGID_149_);}
	.st202{opacity:0.6;fill:url(#SVGID_150_);}
	.st203{opacity:0.3;fill:url(#SVGID_151_);}
	.st204{fill:url(#SVGID_152_);}
	.st205{opacity:0.4;fill:url(#SVGID_153_);}
	.st206{opacity:0.3;fill:url(#SVGID_154_);}
	.st207{fill:#917305;}
	.st208{fill:#B49000;}
	.st209{fill:#6B5203;}
	.st210{opacity:0.6;}
	.st211{opacity:0.5;fill:#B49000;}
	.st212{fill:#6EBA00;}
	.st213{fill:#2D5B00;}
	.st214{opacity:0.3;}
	.st215{fill:#4E9200;}
	.st216{fill:#3E6B03;}
	.st217{fill:#8BD506;}
	.st218{opacity:0.3;fill:#4E9200;}
	.st219{opacity:0.3;fill:#3E6B03;}
	.st220{opacity:0.6;fill:#3E6B03;}
	.st221{fill:#1D1D1B;}
	.st222{fill:#9CB558;}
	.st223{fill:#729918;}
	.st224{fill:#A9D13D;}
	.st225{fill:#AAD03D;}
	.st226{fill:#7DB500;}
	.st227{fill:#7EB500;}
	.st228{fill:#99CA00;}
	.st229{fill:#02B050;}
	.st230{fill:#D2D2D2;}
	.st231{fill:#FFE090;}
	.st232{fill:#9ED6F7;}
	.st233{fill:#9FD7F7;}
	.st234{fill:#CCCCCC;}
	.st235{fill:#FFACF8;}
	.st236{fill:url(#SVGID_155_);}
	.st237{fill:url(#SVGID_156_);}
	.st238{fill:url(#SVGID_157_);}
	.st239{opacity:0.4;fill:url(#SVGID_158_);}
	.st240{fill:url(#SVGID_159_);}
	.st241{opacity:0.4;fill:url(#SVGID_160_);}
	.st242{fill:url(#SVGID_161_);}
	.st243{opacity:0.4;fill:url(#SVGID_162_);}
	.st244{fill:url(#SVGID_163_);}
	.st245{opacity:0.4;fill:url(#SVGID_164_);}
	.st246{fill:url(#SVGID_165_);}
	.st247{opacity:0.4;fill:url(#SVGID_166_);}
	.st248{fill:url(#SVGID_167_);}
	.st249{opacity:0.4;fill:url(#SVGID_168_);}
	.st250{fill:url(#SVGID_169_);}
	.st251{opacity:0.4;fill:url(#SVGID_170_);}
	.st252{fill:url(#SVGID_171_);}
	.st253{opacity:0.4;fill:url(#SVGID_172_);}
	.st254{fill:url(#SVGID_173_);}
	.st255{opacity:0.4;fill:url(#SVGID_174_);}
	.st256{fill:url(#SVGID_175_);}
	.st257{opacity:0.4;fill:url(#SVGID_176_);}
	.st258{fill:url(#SVGID_177_);}
	.st259{opacity:0.4;fill:url(#SVGID_178_);}
	.st260{opacity:0.5;fill:url(#SVGID_179_);}
	.st261{fill:url(#SVGID_180_);}
	.st262{opacity:0.4;fill:url(#SVGID_181_);}
	.st263{opacity:0.3;fill:url(#SVGID_182_);}
	.st264{fill:url(#SVGID_183_);}
	.st265{opacity:0.7;fill:url(#SVGID_184_);}
	.st266{opacity:0.8;fill:url(#SVGID_185_);}
	.st267{opacity:0.3;fill:url(#SVGID_186_);}
	.st268{opacity:0.5;fill:url(#SVGID_187_);}
	.st269{opacity:0.3;fill:url(#SVGID_188_);}
	.st270{fill:url(#SVGID_189_);}
	.st271{opacity:0.6;fill:url(#SVGID_190_);}
	.st272{fill:url(#SVGID_191_);}
	.st273{fill:url(#SVGID_192_);}
	.st274{opacity:0.7;fill:url(#SVGID_193_);}
	.st275{opacity:0.8;fill:url(#SVGID_194_);}
	.st276{opacity:0.3;fill:url(#SVGID_195_);}
	.st277{opacity:0.5;fill:url(#SVGID_196_);}
	.st278{opacity:0.3;fill:url(#SVGID_197_);}
	.st279{fill:url(#SVGID_198_);}
	.st280{opacity:0.8;fill:url(#SVGID_199_);}
	.st281{opacity:0.4;fill:url(#SVGID_200_);}
	.st282{fill:url(#SVGID_201_);}
	.st283{opacity:0.4;fill:url(#SVGID_202_);}
	.st284{fill:url(#SVGID_203_);}
	.st285{fill:url(#SVGID_204_);}
	.st286{fill:url(#SVGID_205_);}
	.st287{opacity:0.5;fill:url(#SVGID_206_);}
	.st288{opacity:0.5;fill:url(#SVGID_207_);}
	.st289{fill:url(#SVGID_208_);}
	.st290{fill:url(#SVGID_209_);}
	.st291{fill:url(#SVGID_210_);}
	.st292{opacity:0.7;fill:url(#SVGID_211_);}
	.st293{opacity:0.8;fill:url(#SVGID_212_);}
	.st294{opacity:0.3;fill:url(#SVGID_213_);}
	.st295{opacity:0.5;fill:url(#SVGID_214_);}
	.st296{opacity:0.3;fill:url(#SVGID_215_);}
	.st297{fill:url(#SVGID_216_);}
	.st298{opacity:0.4;fill:url(#SVGID_217_);}
	.st299{fill:url(#SVGID_218_);}
	.st300{opacity:0.8;fill:url(#SVGID_219_);}
	.st301{opacity:0.4;fill:url(#SVGID_220_);}
	.st302{fill:url(#SVGID_221_);}
	.st303{opacity:0.8;fill:url(#SVGID_222_);}
	.st304{opacity:0.2;fill:url(#SVGID_223_);}
	.st305{opacity:0.6;fill:url(#SVGID_224_);}
	.st306{opacity:0.3;fill:url(#SVGID_225_);}
	.st307{fill:url(#SVGID_226_);}
	.st308{opacity:0.4;fill:url(#SVGID_227_);}
	.st309{opacity:0.3;fill:url(#SVGID_228_);}
	.st310{opacity:0.5;fill:url(#SVGID_229_);}
	.st311{fill:url(#SVGID_230_);}
	.st312{opacity:0.8;fill:url(#SVGID_231_);}
	.st313{opacity:0.4;fill:url(#SVGID_232_);}
	.st314{opacity:0.5;fill:url(#SVGID_233_);}
	.st315{fill:url(#SVGID_234_);}
	.st316{fill:url(#SVGID_235_);}
	.st317{fill:url(#SVGID_236_);}
	.st318{opacity:0.7;fill:url(#SVGID_237_);}
	.st319{opacity:0.8;fill:url(#SVGID_238_);}
	.st320{opacity:0.3;fill:url(#SVGID_239_);}
	.st321{opacity:0.5;fill:url(#SVGID_240_);}
	.st322{opacity:0.3;fill:url(#SVGID_241_);}
	.st323{fill:url(#SVGID_242_);}
	.st324{opacity:0.4;fill:url(#SVGID_243_);}
	.st325{fill:url(#SVGID_244_);}
	.st326{opacity:0.8;fill:url(#SVGID_245_);}
	.st327{opacity:0.4;fill:url(#SVGID_246_);}
	.st328{fill:url(#SVGID_247_);}
	.st329{opacity:0.8;fill:url(#SVGID_248_);}
	.st330{opacity:0.2;fill:url(#SVGID_249_);}
	.st331{opacity:0.6;fill:url(#SVGID_250_);}
	.st332{opacity:0.3;fill:url(#SVGID_251_);}
	.st333{fill:url(#SVGID_252_);}
	.st334{opacity:0.4;fill:url(#SVGID_253_);}
	.st335{opacity:0.3;fill:url(#SVGID_254_);}
	.st336{opacity:0.5;fill:url(#SVGID_255_);}
	.st337{fill:url(#SVGID_256_);}
	.st338{opacity:0.8;fill:url(#SVGID_257_);}
	.st339{opacity:0.4;fill:url(#SVGID_258_);}
	.st340{opacity:0.5;fill:url(#SVGID_259_);}
	.st341{fill:url(#SVGID_260_);}
	.st342{fill:url(#SVGID_261_);}
	.st343{fill:url(#SVGID_262_);}
	.st344{opacity:0.7;fill:url(#SVGID_263_);}
	.st345{opacity:0.8;fill:url(#SVGID_264_);}
	.st346{opacity:0.3;fill:url(#SVGID_265_);}
	.st347{opacity:0.5;fill:url(#SVGID_266_);}
	.st348{opacity:0.3;fill:url(#SVGID_267_);}
	.st349{fill:url(#SVGID_268_);}
	.st350{opacity:0.4;fill:url(#SVGID_269_);}
	.st351{fill:url(#SVGID_270_);}
	.st352{opacity:0.8;fill:url(#SVGID_271_);}
	.st353{opacity:0.4;fill:url(#SVGID_272_);}
	.st354{fill:url(#SVGID_273_);}
	.st355{opacity:0.8;fill:url(#SVGID_274_);}
	.st356{opacity:0.2;fill:url(#SVGID_275_);}
	.st357{opacity:0.6;fill:url(#SVGID_276_);}
	.st358{opacity:0.3;fill:url(#SVGID_277_);}
	.st359{fill:url(#SVGID_278_);}
	.st360{opacity:0.4;fill:url(#SVGID_279_);}
	.st361{opacity:0.3;fill:url(#SVGID_280_);}
	.st362{opacity:0.5;fill:url(#SVGID_281_);}
	.st363{fill:url(#SVGID_282_);}
	.st364{opacity:0.8;fill:url(#SVGID_283_);}
	.st365{opacity:0.4;fill:url(#SVGID_284_);}
	.st366{opacity:0.5;fill:url(#SVGID_285_);}
	.st367{fill:url(#SVGID_286_);}
	.st368{opacity:0.4;fill:url(#SVGID_287_);}
	.st369{fill:url(#SVGID_288_);}
	.st370{opacity:0.8;fill:url(#SVGID_289_);}
	.st371{opacity:0.4;fill:url(#SVGID_290_);}
	.st372{fill:url(#SVGID_291_);}
	.st373{opacity:0.8;fill:url(#SVGID_292_);}
	.st374{opacity:0.2;fill:url(#SVGID_293_);}
	.st375{opacity:0.6;fill:url(#SVGID_294_);}
	.st376{opacity:0.3;fill:url(#SVGID_295_);}
	.st377{fill:url(#SVGID_296_);}
	.st378{opacity:0.4;fill:url(#SVGID_297_);}
	.st379{opacity:0.3;fill:url(#SVGID_298_);}
</style>
<g>
	<defs>
		<rect id="SVGID_1_" x="-257700704" y="-257699136" width="515396064" height="515396064"/>
	</defs>
	<clipPath id="SVGID_2_">
		<use xlink:href="#SVGID_1_"  style="overflow:visible;"/>
	</clipPath>
</g>
<g>
	<path class="st222" d="M119.73,180.69c4.03,5.59,13.68,30.99,16.75,39.22h8.36c-3.45-9.9-12.31-34.32-18.67-43.12
		c-8.05-11.15-7.25-29.54-19.32-52.94s-44.28-20.62-44.28-20.62s15.76,2.03,25.93,9.45c11.39,8.3,13.51,13.4,16.74,29
		C108.46,157.29,114.9,174.01,119.73,180.69z"/>
	<path class="st223" d="M143.24,155.77c-0.03,15.13,0.92,53.53,1.64,64.14h9.7c-0.66-2.19-3.03-5.53-3.48-10.96
		c-1.08-13.36-1.08-32.27-1.48-58.93c-0.32-21.58-0.6-31.94-7.49-41.9c-4.35-6.29-15.28-10.58-15.28-10.58
		C147.83,115.58,143.28,137.17,143.24,155.77z"/>
	<path class="st224" d="M210.84,153.52c-9.22,3.75-46.36,20.88-57.15,40.98c-6.1,11.36-4.3,20.03-1.59,25.41h2.56
		c-0.89-2.78-1.61-7.03-0.61-12.62c1.9-10.61,15.01-24.37,27.3-32.14c12.28-7.78,24.75-14.59,39.66-20.97
		c14.91-6.39,28.11-12.03,28.11-12.03C234.88,145.79,220.06,149.77,210.84,153.52z"/>
	<path class="st225" d="M163.5,219.91c-2.38-5.19-4.34-13.25-1.81-23.94c4.74-20.02,8.45-53.34,11.91-65.87
		c3.46-12.53,1.2-32.77,1.2-32.77s-14.3,51.78-18.08,71.83c-3.16,16.77-6.6,37.45,3.6,50.75H163.5z"/>
	<path class="st226" d="M206.84,141.62c-13.92,2.97-23.81,8.96-40.08,26.63c-12.79,13.89-13.74,39.77-13.44,51.66h4.15
		c1.28-3.29,2.64-8.22,3.61-15.54c2.49-18.66,5.39-26.13,17.44-38.99c12.04-12.87,23.02-18.56,40.23-22.19
		c17.21-3.63,26.17-9.77,26.17-9.77S219.58,138.9,206.84,141.62z"/>
	<path class="st223" d="M200.78,110.59c-14.67,6.46-22.21,18.44-32.59,40.54c-8.56,18.22-14.95,56.03-16.27,68.78h5.22
		c1.75-10.43,5.32-31.69,6.48-38.63c1.57-9.33,9.87-33.06,27.64-56.56c17.77-23.5,36.04-10.95,36.04-10.95
		C222.19,107.24,212.02,105.64,200.78,110.59z"/>
	<path class="st227" d="M161.35,137.43c-1.33-10.39-7.92-22.49-9.12-38.67c-1.08-14.55-0.59-18.67-0.59-18.67
		s-6.16,11.22-4.25,23.04c1.91,11.81,12.35,47.88,7.78,65.13c-3.62,13.66-6.47,40.92-7.49,51.65h8.73
		c1.05-5.79,1.5-31.88,5.67-43.44C166.27,164.86,162.68,147.82,161.35,137.43z"/>
	<path class="st226" d="M105.28,137.98c11.42,10.07,22.35,19.47,27.63,36.35c3.8,12.16,7.3,33.09,9.19,45.58h5.03
		c-0.75-15.46-3.3-43-11.88-59.11c-9.24-17.34-37.37-35.31-61.12-42.31C74.12,118.49,96.49,130.23,105.28,137.98z"/>
	<path class="st228" d="M188.41,167.62c-20.37,18.01-30.09,42.62-32.27,52.29h6.8c1.29-4.91,3.91-12.67,9.07-21.81
		c8.88-15.75,15.88-21.5,30.91-35.73c15.03-14.22,21.01-45.55,21.01-45.55S213.69,145.27,188.41,167.62z"/>
	<path class="st223" d="M161.36,219.91c-0.61-5-1.86-24.3,14.05-29.97c7.31-2.6,12.46-1.68,15.41-0.52
		c-2.71-3.27-8.74-4.07-8.74-4.07c0.02,0,0.05,0,0.07,0c-3.51-0.18-7.96,0.41-13.56,2.43c-17.7,6.37-16.68,26.72-15.49,32.13H161.36
		z"/>
	<path class="st228" d="M132.27,162.93c-1.07,9.98,6.27,41.87,9.95,56.98h9.47c-3.04-11.33-9.68-37.15-11.05-52.06
		c-1.44-15.66-2-40.72-11.21-52.98c-9.21-12.26-26.22-25.01-30.47-26.98c0,0,9.79,14.07,18.17,22
		C132.33,124.27,133.69,149.69,132.27,162.93z"/>
	<path class="st224" d="M117.69,164.21c8.57,16.5,9.67,27.7,10.41,45.51c0.15,3.67,0.27,7.08,0.37,10.19h9.31
		c-0.01-16.08-1.34-38.93-8.19-49.27c-11.15-16.82-17.1-19.29-17.1-19.29c-3.41-2.27-21.78-11.49-31.17-12.54
		C88.41,141.91,112.73,154.66,117.69,164.21z"/>
	<path class="st226" d="M124.31,219.91h8.36c-2.25-14.92-13.39-71.81-52.14-71.47c0,0,14.37,1.55,27.3,21.59
		C117.86,185.59,122.66,209.82,124.31,219.91z"/>
	<path class="st227" d="M142.93,219.91c-1.53-10.3-3.55-27.33-1.09-32.15c3.6-7.05,18.88-7.26,18.88-7.26s-13.48-5.6-23.67,4.77
		c-6.74,6.86-4.56,23.9-2.31,34.64H142.93z"/>
	<path class="st222" d="M126.81,219.91h8.31c-1.28-4.27-4.29-10.68-10.31-20.46c-18-29.24-36.64-32.11-63.67-57.29
		c0,0,7.67,12.81,15.53,19.2c9.12,7.42,26.57,16.04,42.13,42.07C123.18,210.75,126.25,215.86,126.81,219.91z"/>
	<path class="st223" d="M101.69,192.95c12.65,11.02,18.62,20.93,20.96,26.96h5.5c-3.06-10.66-13.73-35.61-47.44-40.03
		c-14.73-1.93-27.44,2.54-27.44,2.54S84.11,177.63,101.69,192.95z"/>
	<path class="st225" d="M119.67,203.11c2.56,3.6,4.66,10.65,6.11,16.8h4.51c0.84-10.35-1.39-24.45-18.84-27.56
		c-18.75-3.34-22.99,0.19-35.58,0.61c-12.11,0.4-24.98-1.68-24.98-1.68s18.84,7.96,34.1,4.79
		C104.2,192.08,114.54,195.9,119.67,203.11z"/>
	<path class="st225" d="M158.62,181.12c-4.97-1.29-6.29-2.28-10.49-1.87c0,0,15.46-3.09,27.27,4.36c11.98,7.56,3.89,22.6,3.89,22.6
		s1.37-14.22-5.69-18.87C167.31,183.2,163.41,182.37,158.62,181.12z"/>
	<path class="st228" d="M182.08,185.35c0,0,5.22,1.62,8.74,4.07c4.86,3.39,9.96,8.08,15.12,10.71c0,0-5.15-10.77-11.9-13.17
		C187.3,184.58,182.08,185.35,182.08,185.35z"/>
</g>
</svg>
