<?xml version="1.0" encoding="UTF-8"?>
<!DOCTYPE svg PUBLIC "-//W3C//DTD SVG 1.1//EN" "http://www.w3.org/Graphics/SVG/1.1/DTD/svg11.dtd">
<!-- Creator: CorelDRAW 2020 (64-Bit) -->
<svg xmlns="http://www.w3.org/2000/svg" xml:space="preserve" width="3.93701in" height="3.93701in" version="1.1" style="shape-rendering:geometricPrecision; text-rendering:geometricPrecision; image-rendering:optimizeQuality; fill-rule:evenodd; clip-rule:evenodd"
viewBox="0 0 3934.02 3934.02"
 xmlns:xlink="http://www.w3.org/1999/xlink"
 xmlns:xodm="http://www.corel.com/coreldraw/odm/2003">
 <defs>
  <style type="text/css">
   <![CDATA[
    .fil0 {fill:none}
    .fil1 {fill:black}
   ]]>
  </style>
 </defs>
 <g id="Layer_x0020_1">
  <metadata id="CorelCorpID_0Corel-Layer"/>
  <rect class="fil0" width="3934.02" height="3934.02"/>
  <path class="fil1" d="M2093.72 2296.88l175.45 -214.44 60.98 289.93c18.43,93.35 43.47,199.36 65.74,294.92l-150.46 -180.96c-51.98,-66.57 -106.61,-122.09 -151.71,-189.45zm-545.85 360.66l126.71 -565.35c24.98,16.73 67.68,71.61 87.79,97.41l87.66 107.28c-19.6,29.27 -50.29,61.43 -74.96,90.75l-149.29 182.12c-22.24,28.55 -48.83,68.31 -77.91,87.79zm233.94 -1062.46l380.14 0c1.53,68.61 48.74,184.32 48.74,263.18l-179.56 220.08c-13.77,17.44 -51.54,63.13 -64.12,72.35 -35.02,-52.29 -78.75,-97.01 -117.03,-146.14 -26.31,-33.77 -95.77,-125.6 -126.65,-146.28 20,-85.88 38.13,-175.81 58.48,-263.18zm-185.2 -516.61l750.55 0 0 292.42 -750.55 0 0 -292.42zm-243.68 -68.23l0 575.09c82.53,0 124.03,9.75 204.7,9.75 0,70.22 -270.61,1247.06 -306.32,1409.22 -14.11,64.09 -39.52,147.99 -44.58,208.85l214.44 0c48.95,-102.02 -27.23,-66.42 99.72,-221.95l446.14 -548.1c21.76,15.94 50.37,60.01 71.24,84.72l445.76 548.47c7.98,19.28 28.24,109.15 28.85,136.85l214.44 0c0,-67.38 -23.97,-150.76 -37.05,-206.63l-313.86 -1411.43c82.53,0 124.03,-9.75 204.7,-9.75l0 -575.09c0,-36 -85.88,-59.29 -139.74,-84.46l-473.23 -204.92c-27.25,0.72 -261.15,114.22 -311.67,134.78l-276.31 123.34c-20.25,11.15 -27.23,1.12 -27.23,31.26z"/>
 </g>
</svg>
