<svg id="Layer_1" data-name="Layer 1" xmlns="http://www.w3.org/2000/svg" viewBox="0 0 5.49 4.67"><path d="M8.08,7.79l0,0s-.07.08-.12.06,0,0,0,0l0,0,0,0h0v0h0l0,0v0h0l0,0s0,0,0,0h0l0,0,0,0h0v0h0s0,0,0,0,0,0,0,0a.35.35,0,0,1,0,.08h0l0,0h0l0,0s0,0,0,0v0h0l0,0,0,0,0,0h0l-.09,0,0,0s0,0,0,0h0a.17.17,0,0,0,.12,0,.11.11,0,0,0,.08,0s0,0,0,0H7.47s0,0,0,0H7.35s0,0,0,0H7.25l.09,0h0l0,0s0,0,0,0h0s.06,0,.08,0l.07,0h0l0,0s0,0-.07,0h.07s.13,0,.15,0,0,0,0,0l-.1,0,0,0,0,0,0,0s0,0,0,0H7.38l0,0h0l0,0h0l0,0,0,0h0s0,0,0,0h0l.07,0s0,0,0,0l0,0,0,0v0h0v0h0s0,0,0-.08h0a.06.06,0,0,1,0,0V7.27h0s0,.06,0,.06h0a.1.1,0,0,0,0-.09v0s0,0,0,0h0s0,0,0,0h0a.1.1,0,0,0,0,0h0s0,0,0,0H7.14a.16.16,0,0,0,.08-.06H7.1l0,0h0s0,0,0,0,0,0-.07,0,0,0,0-.06h0a.07.07,0,0,1-.05,0H7s0,0,0,0H7l0,0H7A.09.09,0,0,0,7,7H7l0,0h0A.08.08,0,0,0,7,7h0s-.08,0-.12,0H6.77l.06,0s0,0,0,0L6.75,7l.06,0h0l0,0s0,0,0,0a.23.23,0,0,1-.16,0h0l0,0s0,0,0,0l0,0h0l0,0s0,0,0,0L6.6,7h0l0,0s0,0,0,0h0s0,0,0,0h0s0,0,0,0h0v0l0,0h0a.06.06,0,0,0,0-.06s0,0,0,0h0s0,.06-.06.06h0a.13.13,0,0,0,0-.1v0l0,0h0s0,0,0,0h0l0,0h0s0,0,0,0l0,0H6.39l.08,0h-.1l0,0H6.3a.1.1,0,0,0,0-.06s0,0,0,0a.07.07,0,0,1-.06,0h0l0,0h0s0,0,0,0h0s0,0,0,0h0l0,0h0a.05.05,0,0,0,0,0h0s-.07,0-.11,0h0s0,0,0,0H6l0,0h0L6,6.6l.07,0s0,0,0,0h0l0,0s0,0,0,0a.25.25,0,0,1-.17,0h0l0,0s0,0,0,0l-.06,0h0l0,0s0,0,0,0l-.06,0h0l0,0s0,0,0,0l0,0,0,0h0l0,0h0s0,0,0,0h0a.21.21,0,0,1-.11,0H5.64s0,0,0,0h0l0,0h0l0,0h0l-.06,0h0s0,0,0,0H5.43a.23.23,0,0,0,.12-.06h0l-.1,0v0s0,0,0,0h0l0,0h0l0,0h0l0,0h0a.28.28,0,0,0,.09-.1s0,0,0,0v0a.27.27,0,0,1-.08.07.54.54,0,0,0,.09-.12h0a.57.57,0,0,1-.11.11h0l0,0h0v0l0,0s0,0,0,0l0,0h0l0,0h0a.16.16,0,0,0,.08-.08s0,0,0,0A.2.2,0,0,1,5,6.55H5a.26.26,0,0,0,.09-.09h0A.27.27,0,0,1,5,6.54a.1.1,0,0,0,0-.06s0,0,0,0A.17.17,0,0,1,5,6.55h0a.28.28,0,0,0,.14-.18l0,0a.32.32,0,0,1-.1.13l-.06,0,0,0s0,0,0,0l-.06,0H4.79l0,0h0l.11,0s0,0,0,0l-.07,0h0s0,0,0,0l0,0H4.68a.33.33,0,0,1-.17,0l0,0a.1.1,0,0,0,0,0H4.45a.15.15,0,0,1-.07,0l0,0s.08,0,.14,0h.08l0,0,0,0,0,0h0s0,0,0,0h0l0,0s0,0,0,0,0,0,0,0v0h0s0,0,0,0h0s0,0,0,0l0,0h0s0,0,0,0H4.13s0,0,0-.07,0,0,0,0a0,0,0,0,0,0,.07s0,0,0,.05A.39.39,0,0,1,4,6.65s0,0,0,0a.36.36,0,0,0,.16.11l0,0h0v0H4.1a0,0,0,0,0,0,0s0,0,0,0A.13.13,0,0,1,4,6.74H4l0,0c0,.06.1.1.14.1H4.09a.08.08,0,0,0,0,0H4l0,0s0,0,0,0h0s0,0,0,0-.06,0,0,0a.1.1,0,0,0,0,0l0,0H4s0,0-.06,0h0l0,0h0l.07,0H4a.42.42,0,0,1-.14-.09h0a.51.51,0,0,0,.13.09.22.22,0,0,1-.11-.05h0s-.07,0-.05,0l.07.06h0l0,0h0l0,0h0l-.06,0s0,0,0,0l.07.07h0l0,0a.25.25,0,0,1-.12,0s0,0,0,0l.08,0c-.06,0-.11,0-.11-.07s0,0,0,0,0,.07.06.09H3.54s0,0,0,0h0a.05.05,0,0,0,0,0h0l0,0L3.4,7h0s0,0,0,0l0,0s0,0,0,0A.13.13,0,0,0,3.35,7h0s-.1,0-.11-.08h0s0,.07.08.09h0a.09.09,0,0,1-.07,0h0s0,0,0,0L3.13,7h0A.2.2,0,0,0,3.18,7h0s0,0,0,0h0a.1.1,0,0,1,0-.06s0,0,0,0,0,.07.08.08H3.06a0,0,0,0,0,0,0h0S3,7.05,3,7l0,0s0,.06.05.07H3s0,0,.08,0h0s-.08,0-.11,0h0c0,.06.1.07.16,0a.11.11,0,0,0,.07,0,.16.16,0,0,1-.12,0s0,0,0,0l0,0h0l0,0h0s0,0,0,0h0a0,0,0,0,0,0,0h0s-.1,0-.13,0h0a.08.08,0,0,0,0,0h0a.09.09,0,0,1-.07,0h0s0,0,0,0h0a0,0,0,0,1,0,0h0a.09.09,0,0,0,.05,0h0a.08.08,0,0,1-.07,0h0s0,0,.07.05a.15.15,0,0,1-.09,0h0s0,0,0,0,0,0,0,0h0a.27.27,0,0,1-.12,0s0,0,0,0h0a.19.19,0,0,0,.1,0h0a.1.1,0,0,1-.09,0h0s0,0,0,0h0l.07,0H2.6l0,0a.06.06,0,0,0,0,0,.11.11,0,0,0,.07.09h0s-.06,0-.08-.06h0a.06.06,0,0,0,0,0,.19.19,0,0,0,0,.07s0,0,0,0h0s0,.06.06.07v0h0v0h0s0,0,0,0v0l.05,0H2.6s0,0,0,0a.35.35,0,0,0,.11,0h.07a.17.17,0,0,1-.14,0s0,0,0,0a.31.31,0,0,0,.12,0H2.66s0,0,0,0a.37.37,0,0,0,.18,0l0,0H3a.28.28,0,0,1-.12,0l0,0A.34.34,0,0,0,3,7.85a.14.14,0,0,0,.09,0,.05.05,0,0,1,0,0h0a.2.2,0,0,0,.12-.08.36.36,0,0,0,.14.11l.1,0H3.36l0,0h0s0,0,0,0H3.2l0,0h0l0,0H3.1l0,0H3l0,0,0,0s0,0,0,0l0,0H3s0,0,0,0h-.1L3,8H2.83s.06,0,.1,0h0l0,0s0,0,0,0h0s0,0,0,0l.07,0s-.08,0-.1,0h0a.16.16,0,0,0,.1,0H2.8a.16.16,0,0,1-.13,0h0a.13.13,0,0,0,.11.06h0a.17.17,0,0,1-.12,0h0l.05,0a.19.19,0,0,0,.09,0H2.71a.19.19,0,0,0,.18,0A.14.14,0,0,0,3,8.2h0a.93.93,0,0,1-.24,0h0c.09,0,.19,0,.26,0s0,0,0,0,.06,0,.07,0h.1l0,0a.25.25,0,0,0,.12,0,.45.45,0,0,1-.28,0h0a.34.34,0,0,0,.22,0l.12,0,.15,0h0a.34.34,0,0,1,.14,0c.1,0,.12.19.14.27a1.18,1.18,0,0,0,.07.2.37.37,0,0,0,.07.14,1,1,0,0,1,.2.34s0,.08,0,.12a2,2,0,0,1,.09.33.88.88,0,0,0,0,.16s0,.1,0,.15a.34.34,0,0,0,0,.1.43.43,0,0,0,0,.12v.12a0,0,0,0,0,0,0,.21.21,0,0,0,0,.15l0,0a.35.35,0,0,0,0,.13s0,.11,0,.17v.12a.25.25,0,0,1,0,.11v0h.06l0,0v0s0,0,0,0v0h.14s0,0,0,0h0s0,0,0,0h0v0h0s.05,0,.06,0h0s0,0,0,0,0,0,0,0l0,0v0l0-.09a.73.73,0,0,0,0-.2c0-.09-.15-.17-.17-.28h0s0-.09,0-.14a.08.08,0,0,0,0,0,.33.33,0,0,0,.06-.1h0l0,0a.36.36,0,0,0,0-.11h0v0h0a1.42,1.42,0,0,0-.11.18s0-.06,0-.09V10a.88.88,0,0,0,.05-.15.69.69,0,0,1,0-.13l0-.06,0-.05.06,0L5,9.49,5,9.43a.48.48,0,0,0,.11-.09l.06-.06.06-.07a.76.76,0,0,0,.11-.14l.16-.26,0-.07h0l0,0,.12-.17.13-.15.09,0H6l.14,0h.13a.68.68,0,0,0,.25-.09h.06a.55.55,0,0,1,.18,0l.08,0,.12,0,.05,0a1.06,1.06,0,0,0,.3.1h0l0,0a.26.26,0,0,0,.19,0h0l.06,0h.07s0,0,0,0l0,0a.11.11,0,0,0,.08,0s0,0,0,0h0l0,0,0,0,0,0a0,0,0,0,0,0,0l.06,0A.17.17,0,0,0,8,7.86H8A.13.13,0,0,0,8.08,7.79Zm-.92-.65h0Zm-.75-.43h0Zm-3.7.7h0Zm0,.71h.07S2.76,8.12,2.74,8.12Zm5-.12,0,0H7.65l.06,0h.06ZM3.7,8H3.51l.05,0h0l.07,0h0ZM3.2,8h0Zm0,0h0ZM3.17,8Zm0-.06h0Zm0,.2Zm0,0h0Zm.34-.16h0Zm.49-.15L4,7.71l-.06,0,0,0,0,0,0,0h0v0l0,0s0,0,0,0h0a.67.67,0,0,1,.07.18v.08Zm-.22-.12-.08,0a.22.22,0,0,0,.08-.09h0l0,0h0l.06,0h0s0,0,0,0H4v0H3.9l0,0H4l0,0,0,0Zm-.42,0h0s0,0-.06,0a.3.3,0,0,1-.13,0h0l0,0,.08-.05h0S3.43,7.7,3.44,7.7ZM3.85,7h0Zm1.67-.39h0Zm.6.12h0Zm0,0h0Zm.75.39Zm0,0h0Zm.44.32h0Zm.05.12ZM7.71,8h0l0,0h.07Zm-3.19.74a.06.06,0,0,0,0,0V8.6a.13.13,0,0,0,0-.06,1.42,1.42,0,0,1,0-.2,1.71,1.71,0,0,0,.13-.23.51.51,0,0,0-.08-.34,1.52,1.52,0,0,1-.06-.2h0s.05,0,.05-.06h0a.15.15,0,0,0,.11,0,.19.19,0,0,0,.1,0h0a.11.11,0,0,0,0,0h0a.43.43,0,0,0,0,0l.06.09,0-.05s0-.08,0-.12h0a.36.36,0,0,0,0,.11.45.45,0,0,1,.06.12s0,.07,0,.1,0,0,0,0A.39.39,0,0,1,5,7.92H5a.65.65,0,0,0-.05.2.14.14,0,0,1,0,.11.28.28,0,0,0,0,.09.43.43,0,0,1,0,.11.24.24,0,0,1,0,.14v0s0,0,0,.05h0l0,0h0a.47.47,0,0,0-.14.14.18.18,0,0,0-.06.09.25.25,0,0,0,0,.12h0A.11.11,0,0,1,4.6,9s0-.05,0-.08,0-.07,0-.1A.54.54,0,0,0,4.52,8.69ZM4.26,7.56h0l0,0h0l0,0Zm-1.39.2Zm1.34-1Zm2.94.79h0ZM7.5,8h0Zm-.94-.25h0Zm0,0h0Zm-1.06.25h.11a.65.65,0,0,0-.39.07.38.38,0,0,0-.09.15.67.67,0,0,1-.06.12l0,.07a.11.11,0,0,0,0,0,.36.36,0,0,0,0-.11v0H5a0,0,0,0,0,0,0l0,0H5a.66.66,0,0,1,0-.15L5.14,8a.2.2,0,0,0,.06-.09h0v0l.06-.08s0-.06,0-.09.05,0,.06,0a.26.26,0,0,0,0-.08.17.17,0,0,0,.14,0,.36.36,0,0,0,.17,0,.16.16,0,0,0,.15.07s0,0,0,0h0s0,0,0,0h0A.26.26,0,0,0,6,7.65l0,0,0,0h.1l0,0a.22.22,0,0,1,0,.11H6l0,0H6a.09.09,0,0,1-.07,0h0l0,0,0,0s0,0,0,0l.05,0H5.81s0,0,0,0h0a.11.11,0,0,1-.1,0h0a.18.18,0,0,0,.17.09h-.1l0,0-.07,0H5.64l0,0a.2.2,0,0,1-.09,0h0a.23.23,0,0,0,.2.08h0l-.17,0s0,0,0,0l.06,0,.06,0h0s0,0,0,0l.11,0,0,0h0L5.8,8a.17.17,0,0,1-.1,0h0l0,0A.81.81,0,0,1,5.51,8.05ZM4.87,9.26h0ZM4.8,7.41l0,0a.19.19,0,0,0,.13,0H5a0,0,0,0,0,0,0H5s-.05.08-.06.11v0l0-.07A.29.29,0,0,1,4.8,7.41Zm-.1,0a.2.2,0,0,0,.07-.06h0l0,0,0,0h0Zm-1.05,0h0l0,0Zm-.58,0h0Zm.05-.08ZM7,7.28H7Zm.17.2Zm.09.12h0Zm-.66.12h0Zm-.27-.17h0Zm-.15,0Zm0,0h0S6.13,7.57,6.12,7.56Zm-.57,0h0a.25.25,0,0,1-.12,0Zm-.18,0,0,.06,0,.05h0s0,0,0,.07a.05.05,0,0,1,0,0c0-.09,0-.18,0-.28h.08l.07,0h0l0,0,0,0,0,0a.23.23,0,0,0,.07-.1ZM5,8.18H5Zm0-.73Zm-.62-.21Zm-.24.13h.05l0,0h0S4.15,7.36,4.14,7.37Zm-.41,0h0Zm-.13.11h0Zm-.08,0h0ZM3,7.5l0,0H3Zm0,0H3Zm.5,0s0,0,0,0h0l0,0Zm-.24.07s0,0,0,0h0l0,0Zm-.11,0,0,0h0l-.06,0Zm.46-.25h0Zm.06.05,0,0h0Zm-.53.26h0l0,0H3.07a.11.11,0,0,0,.07,0h0Zm0,0h0Zm.33,0h0Zm2.74-.66h0ZM7,7.5Zm.13.13h0S7.15,7.62,7.15,7.63Zm-1-.11H6.07l0,0,.06,0ZM4,7.33l0,0,0,0H4s0,0,0,0,0,0,.07,0h0A.08.08,0,0,1,4,7.33Zm2.72,0h0ZM7.19,8Zm-.79-.4,0,0h0ZM6,7.49H6ZM5.7,6.94Zm.48,0h0v0ZM5,7.31H5l0,0H5Zm1-.38H6Zm.12,0h0V7h0s0,0,0,0Zm.41.44Zm.23.18,0,0h0s0,0,0,0h0Zm0,0h0a0,0,0,0,0,0,0Zm-.24-.14Zm0,0h0Zm0,0h0Zm-.08,0h0Zm0,.09h0Zm0-.12h0s0,0,0,0h0s0,0,0,0ZM5.1,7.27h0Zm0-.29Zm.72,0h0Zm0,0h0Zm0,0Zm.55.4h0Zm0,0h0ZM6,7.36H6Zm0,0s0,0,0,0H6Zm0,0h0l0,0Zm0,0H6S6,7.35,6,7.35Zm0,0H6Zm-.77-.15h0Zm.21,0Zm-.07,0h0Zm0-.21ZM5.22,7Zm0,0h0s0,0,0,0h0Zm-.07.23Zm0,0s0,0,0,0H5.05l0,0Zm.17.06Zm0,0h0ZM6,7.37Zm.31-.1h0l.06,0Zm-1,0Zm.43.07h0Zm.08,0h0Zm.59-.17h0ZM6.1,6.92l0,0h0l0,0h0Zm0,0ZM5.75,7h0Zm0-.05ZM5,6.94Zm.86.47h0l0,0h0Zm.48,0Zm.1.17,0,0h0Zm.29.15Zm0-.08h0Zm-.1-.13Zm-.64-.55h0ZM6,6.93Zm-.36,0h0Zm0,0h0Zm-.3,0h0Zm-.38.4h0Zm1.47.15v0h0Zm0,0,0,0a0,0,0,0,1,0,0Zm.29.22h0Zm.19-.25Zm-.1-.1h.06Zm-.7-.48h0a0,0,0,0,1,0,0Zm-.4,0Zm-.37,0,0,0H5.21l0,0h0Zm-.07,0Zm-1.15.4h0Zm.2,0h0Zm2.32.42h0Zm.15,0Zm.25,0H7Zm-.07-.21h0ZM6.8,7.39h0l0,0,0,0h0l-.09,0Zm0,0H6.74l.07,0a0,0,0,0,0,0,0Zm-.64-.49Zm-.56-.08h0Zm0,0,0,0h0Zm0,.05h0ZM4,7.34H4Zm.26,0Zm.81.11h0Zm.72.14-.06,0Zm.23,0H6Zm.13,0h.08A.12.12,0,0,1,6.17,7.55Zm0,0h0S6.21,7.51,6.21,7.52ZM7.13,8h0l0,0Zm.11,0s0,0,0,0h0Zm0-.19h0Zm-.15-.06h0Zm.05-.22Zm-.18-.28h0Zm-.37-.21Zm0,0Zm-.4-.27h0Zm-2.61.34h0Zm-.06,0h0Zm-.17.47Zm0,0h0l.07,0h0l-.05,0Zm.16-.16Zm.06,0h0Zm.16,0Zm0,0h0Zm0-.15h0Zm1.22.31h0v0h0Zm0,0s0,0,0-.07v0a.1.1,0,0,1,0-.11.14.14,0,0,0,0-.06H5v0h.18c0,.1,0,.19,0,.29l0,0h0l0,0A.69.69,0,0,0,5,8H5a.09.09,0,0,0,0,0,.14.14,0,0,0,0-.07A.19.19,0,0,1,5,7.74Zm.2.14,0,.06,0,0Zm-.21.34a.25.25,0,0,0,0,.12.13.13,0,0,1,0-.06.25.25,0,0,1,0-.07Zm0,.33a.25.25,0,0,1,0-.07.14.14,0,0,1,0,.06Zm.43-.48Zm.38-.15h0Zm.07,0h0ZM6,7.82H6Zm-.19.06h0ZM5.91,8ZM6,8H6ZM6.1,8h0Zm0-.14h0Zm.1-.07H6.11l0,0a.24.24,0,0,0,0-.08.17.17,0,0,0,.12,0h0l-.12,0h0v0h0l.1,0h0a.05.05,0,0,0,0,0H6.23l0,0,.06,0h0l0,0A.33.33,0,0,1,6.23,7.74Zm.15-.06h0l-.06,0Zm.14,0h0l0,0Zm.23.14h0l0,0,0,0H6.78s0,0,0,0l-.07,0a.05.05,0,0,0,0,0Zm.5.19h0Zm.22-.2h0l0,0h0Zm-.15,0s0,0,0,0l0,0H7.22l.07,0h.13A.17.17,0,0,1,7.32,7.83Zm-.15,0Zm-.3-.52Zm0-.07Zm0,0h0Zm-.22-.12h0Zm-.42-.3h0Zm-.1,0Zm0,0h0Zm-.29-.1h0l0,0h0Zm-.11,0h0Zm-2.3.53h0Zm0,0h0Zm-.19.18ZM3,7.42H3ZM3,7.78Zm.18-.07h0Zm.15,0h0v0h0Zm.21-.07,0,0a0,0,0,0,0,0,0ZM4,7.52H4Zm0,0H4Zm.07,0h0v0Zm.42-.16h.06a.14.14,0,0,1-.11,0v0Zm0,.06,0,0s0,0,0,0Zm1,1.12a.82.82,0,0,1-.11.17c-.09.11-.17.23-.27.34A.66.66,0,0,1,5,9.26l-.08,0h0s0,0,0,0l0,0a.06.06,0,0,1,0,0l0-.06,0-.11a.13.13,0,0,1,0-.12h0l0-.05.09-.1L5,8.69v0s0,0,0-.05l.12-.16A.52.52,0,0,0,5.2,8.3s0,0,0,0a.21.21,0,0,0,0-.06l.07,0,.09,0,.11,0h.14A.34.34,0,0,0,5.83,8h.09L6,8s.06,0,.06,0,0,0,0,0h.08a.62.62,0,0,0,.19,0l0,0H6.14l0,0h.06a.21.21,0,0,0,.19,0l0,0-.09,0h0s.12,0,.14,0l0,0a.4.4,0,0,1-.15,0h0c.06,0,.13,0,.14-.07H6.28l0,0a.37.37,0,0,0,.14,0h0l0,0h0v0h0s0,0,0,0l0,0h0l0,0a.28.28,0,0,0,0,.09L6.43,8a.87.87,0,0,1-.09.11h0a1.17,1.17,0,0,0-.32,0,.67.67,0,0,0-.14.09s0,0-.06.05a.47.47,0,0,0-.17.14C5.57,8.5,5.56,8.56,5.53,8.61ZM6.47,8a.28.28,0,0,0,0-.13.36.36,0,0,1,0-.11h0a.16.16,0,0,0,.13,0h0a.14.14,0,0,1-.09,0s0,0,0,0h.08l.1,0h0L6.74,8,6.62,8h0l-.12,0h0ZM6.88,8,7,8,6.87,8Zm.48,0s0,0,0,0h0l.05,0h0Zm.26,0h0Zm0,0h0s0,0,0,0h0Zm-.13-.14h0Zm-.26,0h0l.06,0h0Zm0-.13h0Zm-.38-.41h0ZM6.65,7.1h0l0,0,0,0Zm-.74-.44h0s0,0,0,0Zm-.1,0h0Zm-2.26.4h0Zm-.27.15h0l0,0h0Zm-.23.13Zm0,0s0,0,0,0h0Zm.54.27Zm-.09.05h.05l-.06,0Zm.24-.1Zm.58.76,0-.17a.42.42,0,0,0,0-.15l0-.11a.49.49,0,0,0,0-.12.48.48,0,0,0-.08-.16s0,0,0,0l.09,0h0a.31.31,0,0,0,.15-.13h0s0,0,0,0h0a.64.64,0,0,1,0,.07h0a.1.1,0,0,1-.09,0h0a.13.13,0,0,0,.09,0,.71.71,0,0,0,0,.2c0,.13.12.25,0,.39a.53.53,0,0,1-.06.1l0-.07h0a1.4,1.4,0,0,0-.09.17s0,.06,0,.09v.1A.72.72,0,0,1,4.33,8.35Zm0-.11v0s0,0,0,0Zm0,.89,0,.12v0h0v0S4.35,9.17,4.34,9.13Zm2.8-.93h0L7,8.17,7,8.13l-.11-.06H6.77A.27.27,0,0,0,6.85,8,.2.2,0,0,0,7,8L7,8h.06l0,0a.13.13,0,0,0,.09,0h0a.21.21,0,0,0,.11,0h0l0,0-.1,0-.11,0Zm.22,0a.86.86,0,0,1-.16,0h0l.07,0,.11,0h0l.07,0Zm-.09-.07h0Zm.14-.09Zm0,0h0Zm.13,0h0Zm-.21-.27Zm-.07-.11Zm.12-.1h0A0,0,0,0,1,7.39,7.57Zm0-.06h0Zm-.12,0,0,0h0Zm0-.09h0ZM6.92,7.1h0ZM6.57,7Zm-.39-.3Zm-.32,0h0Zm-.05-.14h0l0,0Zm0,.07h0Zm-.06,0h0Zm-.09.05Zm-.08,0h0Zm-.21,0h0Zm-.72.05Zm0,.06Zm-.5.16,0,0,0,0ZM3.89,7h0ZM3.48,7h0Zm-.36.13h0s0,0,0,0h0a.09.09,0,0,0,.07,0A.11.11,0,0,1,3.12,7.11ZM3,7.3H3Zm-.27.44h0Zm.53,0h0a.34.34,0,0,0,.14,0,.27.27,0,0,0,.12-.06.18.18,0,0,0,.13-.06l0,0h.07l-.06,0,0,0s0,0,.06,0a.6.6,0,0,0,.08.08h0l0,0h0l.1,0a.23.23,0,0,1,.11.11L4.19,8s0,.08,0,.09a.41.41,0,0,1,0,.11l0,.15a1,1,0,0,0,.1.24l.07.1a.28.28,0,0,1,0,.09c0,.06,0,.1,0,.16a.2.2,0,0,0,0,.11l0,0,.07.07.08.12a.07.07,0,0,0,0,.05.06.06,0,0,1,0,.06h0a.35.35,0,0,1,0,.08.81.81,0,0,0-.12.14h0l-.06.09a.19.19,0,0,0,0-.08h0v0a.61.61,0,0,0,0-.14.71.71,0,0,0-.08-.15s0,0,0,0,0-.14,0-.21l0-.06a.11.11,0,0,0,0-.07,1.14,1.14,0,0,0-.21-.28A.34.34,0,0,1,4,8.53c0-.06,0-.13,0-.2a.28.28,0,0,0,0-.12h0A.43.43,0,0,0,3.72,8a.49.49,0,0,0-.17-.06H3.48a.33.33,0,0,1-.19-.06Zm.57.28h0l0-.05Zm-.27-.13ZM3.44,8h0ZM3.38,8h0Zm0,0ZM3.28,8h0Zm-.09,0Zm-.26.24h0Zm.06,0H3Zm.21,0h0s0,0,0,0h0Zm.52,0-.13,0h0a.34.34,0,0,1-.2,0l-.08,0h0a.11.11,0,0,0,.08,0s0,0,0,0h0l.06,0h.08l0,0V8h.11l.21,0,.09.07ZM4.54,11h0ZM6.66,8.1h0Zm0,0h0Zm.82.06h0l0,0-.08,0h0l0,0h0s0,0,0,0h.16l0,0H7.5s0,0,0,0l0,0Z" transform="translate(-2.59 -6.37)"/></svg>