<?xml version="1.0" encoding="utf-8"?>
<!-- Generator: Adobe Illustrator 25.1.0, SVG Export Plug-In . SVG Version: 6.00 Build 0)  -->
<svg version="1.1"  width="16px" height ="16px" id="Layer_1" xmlns="http://www.w3.org/2000/svg" xmlns:xlink="http://www.w3.org/1999/xlink" x="0px" y="0px"
	 viewBox="0 0 300 300"   style="enable-background:new 0 0 300 300;" xml:space="preserve">
<style type="text/css">
	.st0{clip-path:url(#SVGID_2_);}
	.st1{fill:#231F20;}
	.st2{fill:#FF0000;}
	.st3{fill:#FB8538;}
	.st4{fill:#91D050;}
	.st5{fill:#FF8F2A;}
	.st6{fill:#E22024;}
	.st7{fill:#FF2500;}
	.st8{fill:#FFFFFF;}
	.st9{fill:#006FC0;}
	.st10{fill:#FFFF01;}
	.st11{fill:#231F20;stroke:#231F20;stroke-width:0.25;stroke-miterlimit:10;}
	.st12{fill:#FF29FF;}
	.st13{opacity:0.24;fill:none;stroke:#231F20;stroke-width:0.25;stroke-miterlimit:10;}
	.st14{fill:#D0CECE;}
	.st15{fill:#02A0E3;}
	.st16{fill:#58585A;}
	.st17{fill:#AEB1B3;}
	.st18{fill:#7F7F7F;}
	.st19{fill:#888888;}
	.st20{fill:none;stroke:#231F20;stroke-miterlimit:10;}
	.st21{fill:#C46321;}
	.st22{fill:#231F20;stroke:#888888;stroke-width:0.25;stroke-miterlimit:10;}
	.st23{fill:#484949;}
	.st24{fill:#B4B6B6;}
	.st25{fill:none;stroke:#231F20;stroke-width:0.25;stroke-miterlimit:10;}
	.st26{clip-path:url(#SVGID_6_);}
	.st27{fill:#0A0A0A;}
	.st28{fill:#FDFDFD;}
	.st29{fill:none;}
	.st30{fill:#040404;stroke:#FFFFFF;stroke-width:0.25;stroke-miterlimit:10;}
	.st31{clip-path:url(#SVGID_8_);}
	.st32{fill:#161616;}
	.st33{fill:#323232;}
	.st34{fill:#C1C1C1;}
	.st35{fill:#AEB1B3;stroke:#161616;stroke-width:0.25;stroke-miterlimit:10;}
	.st36{fill:#0D0D0D;}
	.st37{fill:#FFFFFF;stroke:#161616;stroke-miterlimit:10;}
	.st38{fill:#6E6E6E;}
	.st39{fill:#D9D9D9;}
	.st40{fill:#161616;stroke:#161616;stroke-width:0.5;stroke-miterlimit:10;}
	.st41{fill:#888888;stroke:#58585A;stroke-width:0.25;stroke-miterlimit:10;}
	.st42{fill:#040404;stroke:#FFFFFF;stroke-width:0.5;stroke-miterlimit:10;}
	.st43{fill:#2B2B2B;}
	.st44{fill:#C2C2C2;}
	.st45{fill:url(#SVGID_11_);}
	.st46{fill:url(#SVGID_12_);}
	.st47{opacity:0.2;fill:#E0E47C;}
	.st48{fill:url(#SVGID_13_);}
	.st49{opacity:0.4;fill:url(#SVGID_14_);}
	.st50{fill:url(#SVGID_15_);}
	.st51{opacity:0.4;fill:url(#SVGID_16_);}
	.st52{fill:url(#SVGID_17_);}
	.st53{opacity:0.4;fill:url(#SVGID_18_);}
	.st54{fill:url(#SVGID_19_);}
	.st55{opacity:0.4;fill:url(#SVGID_20_);}
	.st56{fill:url(#SVGID_21_);}
	.st57{opacity:0.4;fill:url(#SVGID_22_);}
	.st58{fill:url(#SVGID_23_);}
	.st59{opacity:0.4;fill:url(#SVGID_24_);}
	.st60{fill:url(#SVGID_25_);}
	.st61{opacity:0.4;fill:url(#SVGID_26_);}
	.st62{fill:url(#SVGID_27_);}
	.st63{opacity:0.4;fill:url(#SVGID_28_);}
	.st64{fill:url(#SVGID_29_);}
	.st65{opacity:0.4;fill:url(#SVGID_30_);}
	.st66{fill:url(#SVGID_31_);}
	.st67{opacity:0.4;fill:url(#SVGID_32_);}
	.st68{fill:url(#SVGID_33_);}
	.st69{opacity:0.4;fill:url(#SVGID_34_);}
	.st70{fill:#654209;}
	.st71{opacity:0.5;}
	.st72{opacity:0.5;fill:#654209;}
	.st73{opacity:0.3;fill:#654209;}
	.st74{fill:#326613;}
	.st75{fill:#4F8821;}
	.st76{opacity:0.5;fill:url(#SVGID_35_);}
	.st77{opacity:0.2;fill:#E0E481;}
	.st78{fill:url(#SVGID_36_);}
	.st79{opacity:0.4;fill:#E3DC3D;}
	.st80{opacity:0.4;fill:url(#SVGID_37_);}
	.st81{opacity:0.3;fill:url(#SVGID_38_);}
	.st82{fill:url(#SVGID_39_);}
	.st83{opacity:0.7;fill:url(#SVGID_40_);}
	.st84{opacity:0.7;}
	.st85{opacity:0.8;fill:url(#SVGID_41_);}
	.st86{opacity:0.3;fill:url(#SVGID_42_);}
	.st87{opacity:0.5;fill:url(#SVGID_43_);}
	.st88{opacity:0.3;fill:url(#SVGID_44_);}
	.st89{opacity:0.6;fill:#E3DC3D;}
	.st90{fill:url(#SVGID_45_);}
	.st91{opacity:0.6;fill:url(#SVGID_46_);}
	.st92{opacity:0.3;fill:#77BE7F;}
	.st93{opacity:0.2;fill:#ECEA85;}
	.st94{fill:url(#SVGID_47_);}
	.st95{opacity:0.5;fill:#E3DC3D;}
	.st96{fill:url(#SVGID_48_);}
	.st97{opacity:0.7;fill:url(#SVGID_49_);}
	.st98{opacity:0.8;fill:url(#SVGID_50_);}
	.st99{opacity:0.3;fill:url(#SVGID_51_);}
	.st100{opacity:0.5;fill:url(#SVGID_52_);}
	.st101{opacity:0.3;fill:url(#SVGID_53_);}
	.st102{fill:url(#SVGID_54_);}
	.st103{opacity:0.8;fill:url(#SVGID_55_);}
	.st104{opacity:0.4;fill:url(#SVGID_56_);}
	.st105{fill:url(#SVGID_57_);}
	.st106{opacity:0.4;fill:url(#SVGID_58_);}
	.st107{fill:url(#SVGID_59_);}
	.st108{fill:url(#SVGID_60_);}
	.st109{fill:url(#SVGID_61_);}
	.st110{opacity:0.5;fill:url(#SVGID_62_);}
	.st111{opacity:0.3;fill:#7D9567;}
	.st112{opacity:0.3;fill:#00713A;}
	.st113{opacity:0.8;fill:#E3DC3D;}
	.st114{opacity:0.5;fill:url(#SVGID_63_);}
	.st115{fill:url(#SVGID_64_);}
	.st116{fill:url(#SVGID_65_);}
	.st117{fill:url(#SVGID_66_);}
	.st118{opacity:0.7;fill:url(#SVGID_67_);}
	.st119{opacity:0.8;fill:url(#SVGID_68_);}
	.st120{opacity:0.3;fill:url(#SVGID_69_);}
	.st121{opacity:0.5;fill:url(#SVGID_70_);}
	.st122{opacity:0.3;fill:url(#SVGID_71_);}
	.st123{fill:#E3DC3D;}
	.st124{fill:url(#SVGID_72_);}
	.st125{opacity:0.4;fill:url(#SVGID_73_);}
	.st126{fill:url(#SVGID_74_);}
	.st127{opacity:0.8;fill:url(#SVGID_75_);}
	.st128{opacity:0.4;fill:url(#SVGID_76_);}
	.st129{fill:url(#SVGID_77_);}
	.st130{opacity:0.8;fill:url(#SVGID_78_);}
	.st131{opacity:0.2;fill:url(#SVGID_79_);}
	.st132{opacity:0.6;fill:url(#SVGID_80_);}
	.st133{opacity:0.3;fill:url(#SVGID_81_);}
	.st134{fill:url(#SVGID_82_);}
	.st135{opacity:0.4;fill:url(#SVGID_83_);}
	.st136{opacity:0.3;fill:url(#SVGID_84_);}
	.st137{opacity:0.5;fill:url(#SVGID_85_);}
	.st138{fill:url(#SVGID_86_);}
	.st139{opacity:0.8;fill:url(#SVGID_87_);}
	.st140{opacity:0.4;fill:url(#SVGID_88_);}
	.st141{opacity:0.5;fill:url(#SVGID_89_);}
	.st142{fill:url(#SVGID_90_);}
	.st143{fill:url(#SVGID_91_);}
	.st144{fill:url(#SVGID_92_);}
	.st145{opacity:0.7;fill:url(#SVGID_93_);}
	.st146{opacity:0.8;fill:url(#SVGID_94_);}
	.st147{opacity:0.3;fill:url(#SVGID_95_);}
	.st148{opacity:0.5;fill:url(#SVGID_96_);}
	.st149{opacity:0.3;fill:url(#SVGID_97_);}
	.st150{fill:url(#SVGID_98_);}
	.st151{opacity:0.4;fill:url(#SVGID_99_);}
	.st152{fill:url(#SVGID_100_);}
	.st153{opacity:0.8;fill:url(#SVGID_101_);}
	.st154{opacity:0.4;fill:url(#SVGID_102_);}
	.st155{fill:url(#SVGID_103_);}
	.st156{opacity:0.8;fill:url(#SVGID_104_);}
	.st157{opacity:0.2;fill:url(#SVGID_105_);}
	.st158{opacity:0.6;fill:url(#SVGID_106_);}
	.st159{opacity:0.3;fill:url(#SVGID_107_);}
	.st160{fill:url(#SVGID_108_);}
	.st161{opacity:0.4;fill:url(#SVGID_109_);}
	.st162{opacity:0.3;fill:url(#SVGID_110_);}
	.st163{opacity:0.5;fill:url(#SVGID_111_);}
	.st164{fill:url(#SVGID_112_);}
	.st165{opacity:0.8;fill:url(#SVGID_113_);}
	.st166{opacity:0.4;fill:url(#SVGID_114_);}
	.st167{opacity:0.5;fill:url(#SVGID_115_);}
	.st168{fill:url(#SVGID_116_);}
	.st169{fill:url(#SVGID_117_);}
	.st170{fill:url(#SVGID_118_);}
	.st171{opacity:0.7;fill:url(#SVGID_119_);}
	.st172{opacity:0.8;fill:url(#SVGID_120_);}
	.st173{opacity:0.3;fill:url(#SVGID_121_);}
	.st174{opacity:0.5;fill:url(#SVGID_122_);}
	.st175{opacity:0.3;fill:url(#SVGID_123_);}
	.st176{fill:url(#SVGID_124_);}
	.st177{opacity:0.4;fill:url(#SVGID_125_);}
	.st178{fill:url(#SVGID_126_);}
	.st179{opacity:0.8;fill:url(#SVGID_127_);}
	.st180{opacity:0.4;fill:url(#SVGID_128_);}
	.st181{fill:url(#SVGID_129_);}
	.st182{opacity:0.8;fill:url(#SVGID_130_);}
	.st183{opacity:0.2;fill:url(#SVGID_131_);}
	.st184{opacity:0.6;fill:url(#SVGID_132_);}
	.st185{opacity:0.3;fill:url(#SVGID_133_);}
	.st186{fill:url(#SVGID_134_);}
	.st187{opacity:0.4;fill:url(#SVGID_135_);}
	.st188{opacity:0.3;fill:url(#SVGID_136_);}
	.st189{opacity:0.5;fill:url(#SVGID_137_);}
	.st190{fill:url(#SVGID_138_);}
	.st191{opacity:0.8;fill:url(#SVGID_139_);}
	.st192{opacity:0.4;fill:url(#SVGID_140_);}
	.st193{opacity:0.5;fill:url(#SVGID_141_);}
	.st194{fill:url(#SVGID_142_);}
	.st195{opacity:0.4;fill:url(#SVGID_143_);}
	.st196{fill:url(#SVGID_144_);}
	.st197{opacity:0.8;fill:url(#SVGID_145_);}
	.st198{opacity:0.4;fill:url(#SVGID_146_);}
	.st199{fill:url(#SVGID_147_);}
	.st200{opacity:0.8;fill:url(#SVGID_148_);}
	.st201{opacity:0.2;fill:url(#SVGID_149_);}
	.st202{opacity:0.6;fill:url(#SVGID_150_);}
	.st203{opacity:0.3;fill:url(#SVGID_151_);}
	.st204{fill:url(#SVGID_152_);}
	.st205{opacity:0.4;fill:url(#SVGID_153_);}
	.st206{opacity:0.3;fill:url(#SVGID_154_);}
	.st207{fill:#917305;}
	.st208{fill:#B49000;}
	.st209{fill:#6B5203;}
	.st210{opacity:0.6;}
	.st211{opacity:0.5;fill:#B49000;}
	.st212{fill:#6EBA00;}
	.st213{fill:#2D5B00;}
	.st214{opacity:0.3;}
	.st215{fill:#4E9200;}
	.st216{fill:#3E6B03;}
	.st217{fill:#8BD506;}
	.st218{opacity:0.3;fill:#4E9200;}
	.st219{opacity:0.3;fill:#3E6B03;}
	.st220{opacity:0.6;fill:#3E6B03;}
	.st221{fill:#1D1D1B;}
	.st222{fill:#9CB558;}
	.st223{fill:#729918;}
	.st224{fill:#A9D13D;}
	.st225{fill:#AAD03D;}
	.st226{fill:#7DB500;}
	.st227{fill:#7EB500;}
	.st228{fill:#99CA00;}
	.st229{fill:#02B050;}
	.st230{fill:#D2D2D2;}
	.st231{fill:#FFE090;}
	.st232{fill:#9ED6F7;}
	.st233{fill:#9FD7F7;}
	.st234{fill:#CCCCCC;}
	.st235{fill:#FFACF8;}
	.st236{fill:url(#SVGID_155_);}
	.st237{fill:url(#SVGID_156_);}
	.st238{fill:url(#SVGID_157_);}
	.st239{opacity:0.4;fill:url(#SVGID_158_);}
	.st240{fill:url(#SVGID_159_);}
	.st241{opacity:0.4;fill:url(#SVGID_160_);}
	.st242{fill:url(#SVGID_161_);}
	.st243{opacity:0.4;fill:url(#SVGID_162_);}
	.st244{fill:url(#SVGID_163_);}
	.st245{opacity:0.4;fill:url(#SVGID_164_);}
	.st246{fill:url(#SVGID_165_);}
	.st247{opacity:0.4;fill:url(#SVGID_166_);}
	.st248{fill:url(#SVGID_167_);}
	.st249{opacity:0.4;fill:url(#SVGID_168_);}
	.st250{fill:url(#SVGID_169_);}
	.st251{opacity:0.4;fill:url(#SVGID_170_);}
	.st252{fill:url(#SVGID_171_);}
	.st253{opacity:0.4;fill:url(#SVGID_172_);}
	.st254{fill:url(#SVGID_173_);}
	.st255{opacity:0.4;fill:url(#SVGID_174_);}
	.st256{fill:url(#SVGID_175_);}
	.st257{opacity:0.4;fill:url(#SVGID_176_);}
	.st258{fill:url(#SVGID_177_);}
	.st259{opacity:0.4;fill:url(#SVGID_178_);}
	.st260{opacity:0.5;fill:url(#SVGID_179_);}
	.st261{fill:url(#SVGID_180_);}
	.st262{opacity:0.4;fill:url(#SVGID_181_);}
	.st263{opacity:0.3;fill:url(#SVGID_182_);}
	.st264{fill:url(#SVGID_183_);}
	.st265{opacity:0.7;fill:url(#SVGID_184_);}
	.st266{opacity:0.8;fill:url(#SVGID_185_);}
	.st267{opacity:0.3;fill:url(#SVGID_186_);}
	.st268{opacity:0.5;fill:url(#SVGID_187_);}
	.st269{opacity:0.3;fill:url(#SVGID_188_);}
	.st270{fill:url(#SVGID_189_);}
	.st271{opacity:0.6;fill:url(#SVGID_190_);}
	.st272{fill:url(#SVGID_191_);}
	.st273{fill:url(#SVGID_192_);}
	.st274{opacity:0.7;fill:url(#SVGID_193_);}
	.st275{opacity:0.8;fill:url(#SVGID_194_);}
	.st276{opacity:0.3;fill:url(#SVGID_195_);}
	.st277{opacity:0.5;fill:url(#SVGID_196_);}
	.st278{opacity:0.3;fill:url(#SVGID_197_);}
	.st279{fill:url(#SVGID_198_);}
	.st280{opacity:0.8;fill:url(#SVGID_199_);}
	.st281{opacity:0.4;fill:url(#SVGID_200_);}
	.st282{fill:url(#SVGID_201_);}
	.st283{opacity:0.4;fill:url(#SVGID_202_);}
	.st284{fill:url(#SVGID_203_);}
	.st285{fill:url(#SVGID_204_);}
	.st286{fill:url(#SVGID_205_);}
	.st287{opacity:0.5;fill:url(#SVGID_206_);}
	.st288{opacity:0.5;fill:url(#SVGID_207_);}
	.st289{fill:url(#SVGID_208_);}
	.st290{fill:url(#SVGID_209_);}
	.st291{fill:url(#SVGID_210_);}
	.st292{opacity:0.7;fill:url(#SVGID_211_);}
	.st293{opacity:0.8;fill:url(#SVGID_212_);}
	.st294{opacity:0.3;fill:url(#SVGID_213_);}
	.st295{opacity:0.5;fill:url(#SVGID_214_);}
	.st296{opacity:0.3;fill:url(#SVGID_215_);}
	.st297{fill:url(#SVGID_216_);}
	.st298{opacity:0.4;fill:url(#SVGID_217_);}
	.st299{fill:url(#SVGID_218_);}
	.st300{opacity:0.8;fill:url(#SVGID_219_);}
	.st301{opacity:0.4;fill:url(#SVGID_220_);}
	.st302{fill:url(#SVGID_221_);}
	.st303{opacity:0.8;fill:url(#SVGID_222_);}
	.st304{opacity:0.2;fill:url(#SVGID_223_);}
	.st305{opacity:0.6;fill:url(#SVGID_224_);}
	.st306{opacity:0.3;fill:url(#SVGID_225_);}
	.st307{fill:url(#SVGID_226_);}
	.st308{opacity:0.4;fill:url(#SVGID_227_);}
	.st309{opacity:0.3;fill:url(#SVGID_228_);}
	.st310{opacity:0.5;fill:url(#SVGID_229_);}
	.st311{fill:url(#SVGID_230_);}
	.st312{opacity:0.8;fill:url(#SVGID_231_);}
	.st313{opacity:0.4;fill:url(#SVGID_232_);}
	.st314{opacity:0.5;fill:url(#SVGID_233_);}
	.st315{fill:url(#SVGID_234_);}
	.st316{fill:url(#SVGID_235_);}
	.st317{fill:url(#SVGID_236_);}
	.st318{opacity:0.7;fill:url(#SVGID_237_);}
	.st319{opacity:0.8;fill:url(#SVGID_238_);}
	.st320{opacity:0.3;fill:url(#SVGID_239_);}
	.st321{opacity:0.5;fill:url(#SVGID_240_);}
	.st322{opacity:0.3;fill:url(#SVGID_241_);}
	.st323{fill:url(#SVGID_242_);}
	.st324{opacity:0.4;fill:url(#SVGID_243_);}
	.st325{fill:url(#SVGID_244_);}
	.st326{opacity:0.8;fill:url(#SVGID_245_);}
	.st327{opacity:0.4;fill:url(#SVGID_246_);}
	.st328{fill:url(#SVGID_247_);}
	.st329{opacity:0.8;fill:url(#SVGID_248_);}
	.st330{opacity:0.2;fill:url(#SVGID_249_);}
	.st331{opacity:0.6;fill:url(#SVGID_250_);}
	.st332{opacity:0.3;fill:url(#SVGID_251_);}
	.st333{fill:url(#SVGID_252_);}
	.st334{opacity:0.4;fill:url(#SVGID_253_);}
	.st335{opacity:0.3;fill:url(#SVGID_254_);}
	.st336{opacity:0.5;fill:url(#SVGID_255_);}
	.st337{fill:url(#SVGID_256_);}
	.st338{opacity:0.8;fill:url(#SVGID_257_);}
	.st339{opacity:0.4;fill:url(#SVGID_258_);}
	.st340{opacity:0.5;fill:url(#SVGID_259_);}
	.st341{fill:url(#SVGID_260_);}
	.st342{fill:url(#SVGID_261_);}
	.st343{fill:url(#SVGID_262_);}
	.st344{opacity:0.7;fill:url(#SVGID_263_);}
	.st345{opacity:0.8;fill:url(#SVGID_264_);}
	.st346{opacity:0.3;fill:url(#SVGID_265_);}
	.st347{opacity:0.5;fill:url(#SVGID_266_);}
	.st348{opacity:0.3;fill:url(#SVGID_267_);}
	.st349{fill:url(#SVGID_268_);}
	.st350{opacity:0.4;fill:url(#SVGID_269_);}
	.st351{fill:url(#SVGID_270_);}
	.st352{opacity:0.8;fill:url(#SVGID_271_);}
	.st353{opacity:0.4;fill:url(#SVGID_272_);}
	.st354{fill:url(#SVGID_273_);}
	.st355{opacity:0.8;fill:url(#SVGID_274_);}
	.st356{opacity:0.2;fill:url(#SVGID_275_);}
	.st357{opacity:0.6;fill:url(#SVGID_276_);}
	.st358{opacity:0.3;fill:url(#SVGID_277_);}
	.st359{fill:url(#SVGID_278_);}
	.st360{opacity:0.4;fill:url(#SVGID_279_);}
	.st361{opacity:0.3;fill:url(#SVGID_280_);}
	.st362{opacity:0.5;fill:url(#SVGID_281_);}
	.st363{fill:url(#SVGID_282_);}
	.st364{opacity:0.8;fill:url(#SVGID_283_);}
	.st365{opacity:0.4;fill:url(#SVGID_284_);}
	.st366{opacity:0.5;fill:url(#SVGID_285_);}
	.st367{fill:url(#SVGID_286_);}
	.st368{opacity:0.4;fill:url(#SVGID_287_);}
	.st369{fill:url(#SVGID_288_);}
	.st370{opacity:0.8;fill:url(#SVGID_289_);}
	.st371{opacity:0.4;fill:url(#SVGID_290_);}
	.st372{fill:url(#SVGID_291_);}
	.st373{opacity:0.8;fill:url(#SVGID_292_);}
	.st374{opacity:0.2;fill:url(#SVGID_293_);}
	.st375{opacity:0.6;fill:url(#SVGID_294_);}
	.st376{opacity:0.3;fill:url(#SVGID_295_);}
	.st377{fill:url(#SVGID_296_);}
	.st378{opacity:0.4;fill:url(#SVGID_297_);}
	.st379{opacity:0.3;fill:url(#SVGID_298_);}
</style>
<g>
	<defs>
		<rect id="SVGID_1_" x="-257700064" y="-257699136" width="515396064" height="515396064"/>
	</defs>
	<clipPath id="SVGID_2_">
		<use xlink:href="#SVGID_1_"  style="overflow:visible;"/>
	</clipPath>
</g>
<g>
	<path d="M157.94,160.25c1.88-0.49,3.68-0.95,6.53-5.02l-2.11-1.47c-2.31,3.3-3.46,3.59-5.06,4.01c-1.29,0.33-2.92,0.85-5.15,2.52
		c-2.27,0.03-4.4,0.13-6.49,0.26c1.67-0.47,3.36-1.23,5.88-4.83l-2.11-1.47c-2.31,3.29-3.46,3.59-5.06,4.01
		c-1.37,0.36-3.08,0.8-5.55,2.77l0.1,0.13c-1.05,0.12-2.17,0.21-3.17,0.36c-2.16-0.48-4.5-0.23-7.06,1.41
		c-2.1,0.53-4.09,1.14-5.94,1.84c0.85-1.42,1.61-2.67,3.17-3.91c2.17-1.72,3.11-1.65,4.19-1.63c1.75,0.09,3.39-0.1,6.24-3.01
		l-1.82-1.79c-2.28,2.31-3.05,2.27-4.3,2.24c-1.32-0.05-2.99-0.13-5.91,2.19c-1.97,1.57-2.92,3.17-3.85,4.73
		c-0.67,1.13-1.36,2.22-2.42,3.32c-3.66,1.9-6.8,4.19-9.41,6.96c-1.03,1.09-1.75,2.42-2.61,3.64c-1.1-4.75-5.41-9-10.52-13.29
		c-0.25-4.6,0.39-7.84,1.57-10.29c1.24-1.79,2.37-2.85,3.32-2.97c1.03-0.07,2.46,1.03,3.96,2.39c1.56,1.42,3.34,3.04,5.62,3.64
		c0.88,0.23,1.62,0.33,2.28,0.33c2.31,0,3.32-1.24,4.04-2.12c0.79-0.97,1.21-1.51,3.85-0.45l0.94-2.39
		c-4.05-1.6-5.51-0.35-6.78,1.21c-0.79,0.98-1.29,1.56-3.67,0.93c-1.68-0.44-3.15-1.77-4.56-3.06c-1.22-1.1-2.45-2.18-3.86-2.7
		c2.87-1.4,6.4-1.99,10.15-2.58c2.81-0.44,5.76-0.91,8.45-1.85c1.9,1.3,3.4,1.85,4.55,2.15c1.61,0.42,2.77,0.72,5.07,4.01l2.11-1.47
		c-2.85-4.07-4.64-4.53-6.53-5.02c-0.73-0.19-1.52-0.47-2.41-0.92c0.7-0.39,1.39-0.8,2.02-1.3l0.16,0.11
		c0.39-0.6,0.75-0.94,1.11-1.38c0.31-0.33,0.62-0.67,0.9-1.04c0.56-0.49,1.09-0.81,1.57-0.87c0.07-0.01,0.14-0.02,0.2-0.02
		c1.12,0,2.35,1.12,3.75,2.4c1.57,1.42,3.35,3.04,5.63,3.64c0.88,0.23,1.63,0.33,2.28,0.33c2.32,0,3.33-1.24,4.05-2.13
		c0.78-0.96,1.2-1.5,3.85-0.45l0.94-2.39c-4.05-1.6-5.51-0.35-6.79,1.21c-0.78,0.98-1.27,1.56-3.67,0.93
		c-0.67-0.17-1.28-0.56-1.88-0.96c1.18-0.7,2.2-1.11,3.08-1.34c1.88-0.49,3.68-0.95,6.53-5.02l-2.11-1.47
		c-2.31,3.3-3.46,3.59-5.06,4.01c-1.17,0.3-2.68,0.86-4.59,2.17c-0.17-0.16-0.36-0.29-0.53-0.45c-1.68-1.52-3.49-2.97-5.54-2.99
		c0.24-0.67,0.51-1.3,0.67-2.07c2.45-11.53,10.88-12.81,27.68-11.22l0.24-2.56c-10.2-0.95-19.24-1.12-24.94,3.58
		c-0.02-0.07,0.03-0.17,0.01-0.24c-0.2-0.68-0.58-1.22-1.03-1.71c-0.61-2.18-0.07-3.58,0.58-5.1c0.54-1.28,1.16-2.73,1.01-4.61
		c-0.24-2.9-1.65-3.7-2.6-4.24c-0.74-0.42-1.08-0.61-0.91-2.49l-2.55-0.24c-0.31,3.26,0.86,4.21,2.2,4.96
		c0.73,0.41,1.17,0.66,1.29,2.21c0.11,1.25-0.32,2.24-0.81,3.39c-0.49,1.15-0.99,2.49-1.03,4.17c-0.44-0.21-0.9-0.42-1.35-0.63
		c-1.74-0.78-3.55-1.58-4.63-2.95c-1.53-1.94-1.18-2.62-0.61-3.74c0.92-1.79,1.48-3.65-1.61-6.7l-1.8,1.82
		c2.02,1.99,1.7,2.6,1.13,3.71c-0.66,1.3-1.67,3.27,0.89,6.5c1.47,1.85,3.66,2.84,5.59,3.7c1.43,0.64,2.53,1.27,3.18,2.02
		c0.17,0.45,0.25,0.85,0.5,1.34l0.03-0.01c0,0.97-0.42,2.23-1.51,3.92l0.05,0.03c-0.43,0.94-0.74,2.06-1.05,3.19
		c-1.41,0.12-1.67-0.19-2.06-0.84c-0.57-0.92-1.42-2.3-4.34-2.42c-0.1-0.01-0.19-0.01-0.28-0.01c-1.74,0-3.09,0.64-4.28,1.21
		c-1.94,0.91-3.62,1.68-7.09,0.11L109,132.5c4.63,2.09,7.19,0.86,9.25-0.13c1.13-0.54,2.15-1.03,3.36-0.95
		c1.54,0.06,1.81,0.49,2.26,1.21c0.65,1.04,1.51,1.9,3.43,2.01c-0.41,1.34-0.94,2.51-1.64,3.45c-0.13,0.13-0.26,0.31-0.38,0.45
		c-2.93,3.43-7.84,4.24-13.32,5.1c-6.56,1.03-13.65,2.28-17.04,8.89c-0.09,0.14-0.18,0.18-0.28,0.33l0.08,0.05
		c-1.11,2.34-1.72,5.38-1.75,9.24c-0.22-0.18-0.43-0.35-0.65-0.53c-0.85-0.7-1.72-1.41-2.59-2.13l-0.03-0.22
		c-0.09,0.01-0.13,0.01-0.22,0.02c-2.1-1.75-4.2-3.59-6.15-5.51c-1.37-2.33-2.03-4.23-1.66-5.46c0.49-1.65,2.64-2.61,5.12-3.72
		c2.49-1.11,5.29-2.36,7.15-4.71c3.19-4.02,2-6.36,1.12-8.06c-0.8-1.56-1.28-2.5,1.54-5.28l-1.8-1.82c-3.85,3.79-3.2,6-2.03,8.28
		c0.76,1.49,1.31,2.57-0.84,5.3c-1.47,1.85-3.87,2.92-6.19,3.96c-2.94,1.31-5.71,2.56-6.55,5.34c-0.14,0.47,0.05,1.07,0.04,1.58
		c-0.29-0.37-0.59-0.74-0.86-1.12l0.41-0.22c-0.95-1.78-1.9-3.13-2.87-4.14c-0.75-1.65-1.35-3.36-1.62-5.18l0.44-0.1
		c-0.91-4.14-0.79-6.88,0.35-8.4c1.35-1.79,4.29-1.98,7.7-2.19c3.29-0.21,7.01-0.44,10.09-2.3c1.48-0.89,2.43-1.76,3.14-2.61
		c1.01-0.77,1.68-0.98,2.35-1.15c1.37-0.36,2.48-0.79,4.13-3.15l-2.11-1.47c-1.23,1.77-1.77,1.91-2.67,2.14
		c-0.06,0.01-0.13,0.05-0.19,0.06c0.06-0.81,0.03-1.59-0.06-2.31c-0.25-2.18-0.41-3.62,4.21-5.69l-1.04-2.35
		c-5.88,2.63-6.07,5.33-5.71,8.34c0.24,2.07,0.43,3.7-3.38,6c-2.54,1.53-5.79,1.73-8.92,1.93c-2.27,0.14-4.42,0.34-6.27,0.99
		c0.33-1.61,0.26-2.91,0.14-4.07c-0.12-1.13-0.22-2.11,0.12-3.38c0.44-1.67,0.89-1.98,1.46-2.37c1.09-0.74,1.97-1.54,2.37-4.48
		l-2.55-0.34c-0.27,2.03-0.66,2.29-1.26,2.7c-0.96,0.65-1.87,1.43-2.51,3.83c-0.45,1.73-0.31,3.1-0.19,4.31
		c0.19,1.85,0.37,3.6-1.6,7.07l0.11,0.06c-0.35,0.73-0.6,1.55-0.73,2.49c-4.22-6.34-12.77-11.01-20.89-14.98l-1.12,2.31
		c3.15,1.54,6.34,3.2,9.32,5c-1.58,0.08-2.86,0.63-3.98,1.16c-1.92,0.92-3.62,1.69-7.09,0.11l-1.06,2.34
		c4.63,2.09,7.18,0.86,9.25-0.13c1.13-0.54,2.16-1.03,3.36-0.95c1.55,0.06,1.81,0.49,2.27,1.21c0.68,1.11,1.5,2.09,3.73,2.09
		c0.38,0,0.81-0.03,1.28-0.09c2.63,2.56,4.46,5.41,4.93,8.63c0.14,0.99,0.42,1.93,0.69,2.87c-2.2-0.42-4.13,0.59-6.06,1.96
		c-0.04-0.02-0.1-0.04-0.11-0.04c-0.03-0.09-0.03-0.38-0.03-0.57c0.01-0.92,0.02-2.65-2.32-3.52c-1.45-0.54-2.78-0.23-3.95,0.05
		c-1.74,0.4-2.92,0.67-4.41-1.22l-2.01,1.6c2.5,3.12,5.09,2.56,6.99,2.12c0.95-0.21,1.78-0.4,2.48-0.14
		c0.66,0.25,0.66,0.33,0.65,1.1c0,0.54,0.07,1.4,0.64,2.13c-1.89,1.42-3.84,2.81-6,3.17c-3.45,0.6-4.1-0.43-5.04-1.83
		c-1.42-2.12-3-3.76-8.23-2.24l0.72,2.47c3.83-1.13,4.41-0.25,5.37,1.21c0.91,1.34,2.1,3.11,5.51,3.11c0.62,0,1.31-0.06,2.09-0.19
		c2.95-0.49,5.4-2.34,7.58-3.97c2.16-1.63,3.99-3.07,5.74-2.69c0.59,0.13,1.2,0.63,1.82,1.21c1.79,3.71,4.44,7.03,7.49,10.07
		c0.14,0.23,0.16,0.4,0.31,0.63l0.2-0.13c0.09,0.08,0.18,0.16,0.27,0.25c-1.58,0.11-2.74,0.59-3.82,1.1
		c-1.92,0.91-3.56,1.7-7.09,0.1l-1.06,2.34c4.61,2.1,7.19,0.86,9.25-0.12c1.13-0.54,2.16-0.98,3.36-0.95
		c1.54,0.06,1.81,0.49,2.26,1.2c0.66,1.08,1.51,2.01,3.6,2.06c0.7,0.58,1.41,1.16,2.1,1.73c7.39,6.05,13.76,11.27,12.99,17.15
		c-0.28,0.52-0.41,1.17-0.67,1.71c-0.02,0-0.05,0-0.07,0.01c-0.63-1.35-1.65-2.34-2.92-3.09l0.12-0.46
		c-1.82-0.48-1.88-0.86-2.03-1.7c-0.17-1.06-0.44-2.67-3.08-3.89c-1.71-0.78-3.29-0.71-4.68-0.64c-2.12,0.12-3.95,0.21-6.6-2.61
		l-1.86,1.75c3.47,3.69,6.3,3.53,8.59,3.42c1.25-0.09,2.33-0.13,3.47,0.4c1.41,0.65,1.49,1.15,1.62,1.98c0,0.02,0.01,0.04,0.01,0.05
		c-1.23-0.31-2.49-0.57-3.76-0.82c-3.17-0.61-6.53-1.37-9.55-2.85c-0.49-0.68-1.32-1.36-2.86-1.66c-1.15-0.89-2.2-1.95-3.09-3.28
		c-0.46-0.69-1.02-1.02-1.54-1.5l0.27-0.18c-1.8-2.73-3.31-2.73-4.83-2.49c-0.84,0.14-1.34,0.21-2.4-0.9
		c-0.86-0.91-1.15-1.95-1.49-3.16c-0.62-2.21-1.4-4.95-6.01-7.04l-1.06,2.34c3.52,1.6,4.02,3.36,4.59,5.4
		c0.35,1.24,0.82,2.63,1.91,3.92c-0.97,0.14-1.94,0.29-2.91,0.47c-4.01,0.75-8.16,1.51-12.01-0.37l-1.12,2.31
		c4.6,2.26,9.38,1.37,13.61,0.59c5.25-0.96,8.59-1.4,10.86,2.03c0.54,0.8,1.23,1.32,1.85,1.98c-0.83,0.25-1.58,0.58-2.26,0.91
		c-1.92,0.91-3.59,1.69-7.09,0.1l-1.06,2.34c4.59,2.08,7.16,0.87,9.25-0.12c1.07-0.51,2.02-0.96,3.18-0.96c0.06,0,0.12,0,0.19,0.01
		c0.15,0.01,0.17,0.06,0.29,0.07c0.62,0.43,1.29,0.77,1.95,1.12c0.01,0.01,0.01,0.01,0.02,0.02c0.68,1.11,1.5,2.1,3.73,2.1
		c0.35,0,0.75-0.03,1.18-0.09c2.03,0.59,4.05,1.06,5.93,1.42c0.79,0.15,1.36,0.31,2.06,0.46c-0.43,0.18-0.88,0.35-1.26,0.54
		c-1.95,0.91-3.62,1.68-7.09,0.11L84,182.82c4.63,2.09,7.18,0.86,9.25-0.12c1.13-0.54,2.13-1.04,3.36-0.95
		c1.55,0.06,1.81,0.49,2.26,1.2c0.45,0.71,1.11,1.26,2,1.65c0.15,0.7,0.2,1.5,0.09,2.47c-0.13,0.11-0.32,0.13-0.44,0.25
		c-1.64,1.71-2.04,4.4-1.19,8.2l0.24-0.05c-0.12,1.04-0.37,1.98-0.44,3.07c-1.94-1.88-5.07-2.31-8.89-2.26
		c-1.68-1.54-2.74-1.69-4-1.67c-0.67,0.03-1.23,0.06-2.59-1.02c-1.03-0.83-1.53-1.67-2.12-2.64c-1.07-1.79-2.28-3.82-6.7-5.76
		l-1.02,2.35c3.66,1.61,4.56,3.12,5.51,4.73c0.62,1.04,1.32,2.22,2.72,3.33c0.64,0.51,1.1,0.68,1.6,0.92
		c-4.74,0.16-9.57,0.01-13.29-1.96l-0.12-0.57c-0.25,0.05-0.4,0.12-0.62,0.18c-1.41-0.88-2.64-2.04-3.59-3.64
		c-1.06-1.77-2.26-2.95-3.55-3.8c-1.71-2.38-3.14-2.44-4.6-2.2c-0.81,0.14-1.32,0.23-2.4-0.9c-0.86-0.91-1.15-1.96-1.49-3.16
		c-0.62-2.21-1.4-4.95-6.01-7.04l-1.06,2.34c3.52,1.6,4.02,3.36,4.59,5.4c0.34,1.19,0.81,2.52,1.8,3.76
		c-0.48,0.02-0.96,0.04-1.45,0.06c-3.89,0.19-7.93,0.38-12.2-1.53l-1.04,2.35c4.8,2.15,9.34,1.95,13.37,1.75
		c1.99-0.09,3.7-0.08,5.28,0.1c-0.17,0.15-0.33,0.31-0.49,0.48c-0.47,0.51-0.83,0.92-2.55,1.12c-1.32,0.14-2.26-0.09-3.37-0.36
		c-2.04-0.51-4.34-1.07-8.8,0.7l0.94,2.39c3.74-1.46,5.44-1.03,7.24-0.6c1.18,0.3,2.52,0.63,4.29,0.42
		c2.47-0.29,3.37-1.09,4.15-1.95c0.45-0.49,0.94-0.82,2.56-0.84c0.93,0.65,1.8,1.52,2.57,2.82c0.88,1.47,1.98,2.58,3.17,3.53
		c-0.45,0.39-0.78,0.82-1.06,1.29c-0.34,0.6-0.62,1.07-2.26,1.63c-1.27,0.43-2.27,0.38-3.37,0.35c-2.11-0.07-4.45-0.15-8.46,2.52
		l1.42,2.14c3.33-2.21,5.07-2.14,6.95-2.09c1.23,0.04,2.6,0.09,4.28-0.49c2.36-0.8,3.08-1.76,3.66-2.76
		c0.25-0.42,0.48-0.75,1.2-1.04c5.01,2.54,11.44,2.32,16.94,2.07c4.95-0.22,9.65-0.44,11.3,1.53c0.83,1,0.98,2.66,0.45,5.07
		l1.18,0.26c0.07,1.62-0.03,3.09,0.14,4.8l2.55-0.25c-0.83-8.56-0.24-15.72,1.53-21.82c0.15-0.07,0.29-0.17,0.46-0.22
		c1.35,1.02,2.31,1.11,3.33,1.08c0.71-0.04,1.24-0.05,2.59,1.02c1.03,0.82,1.53,1.66,2.12,2.64c1.06,1.79,2.27,3.82,6.69,5.76
		l1.02-2.35c-3.66-1.61-4.55-3.12-5.5-4.72c-0.62-1.04-1.32-2.23-2.72-3.34c-0.11-0.09-0.17-0.08-0.27-0.16
		c1.22,0.18,2.47,0.4,3.72,0.62l0.02,0.04c0.02-0.01,0.03-0.02,0.05-0.03c0.04,0.01,0.09,0.01,0.13,0.02
		c3.52,0.63,7.06,1.17,10.14,1.04c2.02,1.43,3.57,1.98,4.77,2.28c1.61,0.42,2.77,0.72,5.07,4.01l2.11-1.47
		c-2.85-4.07-4.64-4.53-6.53-5.02c-0.52-0.14-1.07-0.31-1.66-0.54c0.41-0.16,0.89-0.22,1.26-0.44c3.79-2.3,5.37-0.86,7.75,1.34
		c2.52,2.31,5.63,5.2,11.77,2.45l-1.04-2.35c-4.58,2.06-6.62,0.19-8.99-1.99c-0.06-0.05-0.13-0.11-0.19-0.16
		c0.74-0.35,1.36-0.64,1.8-0.84c1.69-0.78,1.87-0.87,3.91-2.37c1.27-0.93,1.74-0.99,2.3-1.05c1.01-0.12,1.95-0.34,3.78-1.96
		l-1.68-1.93c-1.39,1.21-1.83,1.26-2.4,1.33c-0.93,0.11-1.83,0.3-3.52,1.54c-1.86,1.37-1.89,1.39-3.45,2.1
		c-0.65,0.3-1.64,0.76-3,1.42c-2.03-1.33-4.58-2.02-8.36,0.28c-2.28,1.37-6.3,0.98-10.52,0.3c1.66-1.28,2.51-2.54,3.2-3.71
		c0.58-0.98,1.08-1.82,2.12-2.64c1.35-1.08,1.9-1.07,2.59-1.02c1.44,0.08,2.52-0.08,4.56-2.18l-1.82-1.79
		c-1.42,1.45-1.89,1.41-2.63,1.41c-1.19-0.1-2.36,0.03-4.3,1.58c-1.39,1.11-2.1,2.3-2.72,3.33c-0.88,1.49-1.82,2.9-4.85,4.38
		c-3.67-0.64-7.11-1.09-9.9-0.68c-0.02-0.02-0.03-0.02-0.06-0.04c1.47-3.73,3.3-7.14,5.9-9.9c0.93-0.99,1.99-1.88,3.07-2.75
		c2.78-1.28,4.67-2.57,5.99-3.85c4.44-2.25,9.78-3.86,16.17-4.87c1.42,0.4,2.85,1.11,4.42,1.99c1.73,0.96,3.53,1.95,5.51,2.47
		c0.88,0.23,1.62,0.33,2.28,0.33c2.31,0,3.32-1.24,4.04-2.13c0.77-0.95,1.2-1.5,3.85-0.45l0.94-2.39c-4.05-1.63-5.5-0.34-6.78,1.21
		c-0.81,0.99-1.33,1.54-3.67,0.94c-1.68-0.44-3.34-1.35-4.93-2.24c-0.22-0.12-0.45-0.23-0.67-0.35c6.35-0.66,13.51-0.88,21.81-0.56
		l0.1-2.57c-1.73-0.07-3.29-0.05-4.94-0.08C157.76,160.32,157.85,160.27,157.94,160.25z"/>
	<path d="M261.92,171.78c1.3-0.34,2.55-0.66,4.52-3.48l-1.46-1.02c-1.6,2.28-2.39,2.49-3.5,2.77c-0.89,0.23-2.02,0.59-3.56,1.74
		c-1.57,0.02-3.04,0.09-4.49,0.18c1.16-0.33,2.32-0.85,4.07-3.34l-1.46-1.02c-1.6,2.28-2.39,2.49-3.5,2.77
		c-0.95,0.25-2.13,0.55-3.84,1.92l0.07,0.09c-0.73,0.09-1.5,0.15-2.2,0.25c-1.5-0.33-3.11-0.16-4.88,0.98
		c-1.46,0.37-2.83,0.79-4.11,1.27c0.59-0.98,1.11-1.85,2.19-2.7c1.5-1.19,2.15-1.14,2.9-1.13c1.21,0.06,2.34-0.07,4.31-2.08
		l-1.26-1.24c-1.57,1.6-2.11,1.57-2.98,1.55c-0.92-0.03-2.07-0.09-4.09,1.51c-1.36,1.09-2.02,2.2-2.66,3.27
		c-0.46,0.78-0.94,1.54-1.67,2.3c-2.53,1.32-4.71,2.9-6.51,4.82c-0.71,0.75-1.21,1.68-1.81,2.52c-0.76-3.29-3.74-6.23-7.28-9.19
		c-0.17-3.18,0.27-5.43,1.08-7.12c0.86-1.24,1.64-1.97,2.3-2.05c0.71-0.05,1.7,0.71,2.74,1.65c1.08,0.99,2.31,2.1,3.89,2.52
		c0.61,0.16,1.12,0.23,1.57,0.23c1.6,0,2.3-0.86,2.8-1.47c0.55-0.67,0.84-1.05,2.66-0.31l0.65-1.65c-2.8-1.11-3.82-0.24-4.69,0.84
		c-0.55,0.68-0.89,1.08-2.54,0.65c-1.17-0.31-2.18-1.22-3.16-2.12c-0.84-0.76-1.69-1.51-2.67-1.87c1.99-0.97,4.43-1.38,7.03-1.79
		c1.94-0.3,3.98-0.63,5.85-1.28c1.31,0.9,2.35,1.28,3.15,1.49c1.12,0.29,1.91,0.5,3.51,2.77l1.46-1.02
		c-1.97-2.81-3.21-3.14-4.52-3.47c-0.5-0.13-1.05-0.33-1.67-0.63c0.49-0.27,0.96-0.55,1.4-0.9l0.11,0.07
		c0.27-0.42,0.52-0.65,0.77-0.96c0.21-0.23,0.43-0.46,0.62-0.72c0.39-0.34,0.75-0.56,1.09-0.6c0.05-0.01,0.1-0.01,0.14-0.01
		c0.78,0,1.62,0.77,2.59,1.66c1.09,0.99,2.32,2.1,3.9,2.52c0.61,0.16,1.13,0.23,1.57,0.23c1.6,0,2.3-0.86,2.8-1.47
		c0.54-0.66,0.83-1.04,2.66-0.31l0.65-1.65c-2.8-1.11-3.82-0.24-4.7,0.84c-0.54,0.68-0.88,1.08-2.54,0.65
		c-0.46-0.12-0.88-0.39-1.3-0.66c0.82-0.49,1.52-0.77,2.13-0.93c1.3-0.34,2.55-0.66,4.52-3.48l-1.46-1.02
		c-1.6,2.28-2.39,2.49-3.5,2.77c-0.81,0.21-1.85,0.59-3.18,1.5c-0.12-0.11-0.25-0.2-0.37-0.31c-1.16-1.05-2.41-2.06-3.83-2.07
		c0.17-0.46,0.35-0.9,0.46-1.43c1.69-7.97,7.53-8.87,19.15-7.76l0.17-1.77c-7.06-0.66-13.31-0.78-17.26,2.48
		c-0.01-0.05,0.02-0.12,0-0.17c-0.14-0.47-0.4-0.85-0.71-1.19c-0.42-1.51-0.05-2.47,0.4-3.53c0.37-0.88,0.8-1.89,0.7-3.19
		c-0.17-2.01-1.14-2.56-1.8-2.93c-0.51-0.29-0.75-0.42-0.63-1.72l-1.76-0.17c-0.22,2.25,0.6,2.91,1.52,3.43
		c0.51,0.28,0.81,0.46,0.89,1.53c0.08,0.86-0.22,1.55-0.56,2.35c-0.34,0.8-0.69,1.72-0.71,2.88c-0.31-0.15-0.62-0.29-0.93-0.43
		c-1.21-0.54-2.46-1.1-3.2-2.04c-1.06-1.34-0.82-1.81-0.42-2.59c0.64-1.24,1.03-2.53-1.12-4.64l-1.25,1.26
		c1.39,1.38,1.18,1.8,0.78,2.57c-0.46,0.9-1.16,2.26,0.62,4.5c1.02,1.28,2.53,1.96,3.87,2.56c0.99,0.44,1.75,0.88,2.2,1.4
		c0.12,0.31,0.17,0.58,0.34,0.93l0.02-0.01c0,0.67-0.29,1.54-1.04,2.71l0.03,0.02c-0.3,0.65-0.51,1.43-0.73,2.21
		c-0.98,0.09-1.15-0.13-1.43-0.58c-0.4-0.63-0.99-1.59-3-1.68c-0.07,0-0.13,0-0.19,0c-1.21,0-2.14,0.44-2.96,0.84
		c-1.34,0.63-2.5,1.17-4.9,0.07l-0.74,1.62c3.2,1.44,4.97,0.59,6.4-0.09c0.78-0.37,1.48-0.71,2.32-0.66
		c1.07,0.04,1.26,0.34,1.56,0.84c0.45,0.72,1.04,1.32,2.37,1.39c-0.28,0.93-0.65,1.74-1.13,2.38c-0.09,0.09-0.18,0.21-0.26,0.31
		c-2.03,2.37-5.43,2.93-9.22,3.53c-4.54,0.71-9.44,1.58-11.79,6.15c-0.07,0.09-0.13,0.13-0.19,0.23l0.05,0.03
		c-0.77,1.62-1.19,3.72-1.21,6.4c-0.15-0.12-0.3-0.24-0.45-0.37c-0.59-0.48-1.19-0.98-1.79-1.48l-0.02-0.15
		c-0.06,0.01-0.09,0-0.15,0.01c-1.46-1.21-2.91-2.48-4.26-3.81c-0.95-1.61-1.4-2.93-1.15-3.78c0.34-1.14,1.82-1.81,3.54-2.58
		c1.72-0.77,3.66-1.63,4.95-3.26c2.21-2.78,1.38-4.4,0.78-5.58c-0.55-1.08-0.89-1.73,1.07-3.66l-1.25-1.26
		c-2.66,2.63-2.21,4.15-1.4,5.73c0.53,1.03,0.91,1.78-0.58,3.67c-1.02,1.28-2.68,2.02-4.28,2.74c-2.03,0.91-3.95,1.77-4.53,3.69
		c-0.1,0.33,0.04,0.74,0.03,1.1c-0.2-0.26-0.41-0.51-0.6-0.78l0.28-0.15c-0.66-1.23-1.31-2.17-1.99-2.87
		c-0.52-1.15-0.93-2.33-1.12-3.58l0.3-0.07c-0.63-2.86-0.55-4.76,0.24-5.81c0.94-1.24,2.97-1.37,5.33-1.52
		c2.28-0.14,4.85-0.3,6.98-1.59c1.02-0.62,1.68-1.22,2.18-1.81c0.7-0.53,1.16-0.68,1.63-0.8c0.95-0.25,1.71-0.55,2.86-2.18
		l-1.46-1.02c-0.85,1.22-1.23,1.32-1.85,1.48c-0.04,0.01-0.09,0.03-0.13,0.04c0.04-0.56,0.02-1.1-0.04-1.6
		c-0.17-1.51-0.28-2.51,2.91-3.94l-0.72-1.62c-4.07,1.82-4.2,3.69-3.95,5.77c0.17,1.43,0.3,2.56-2.34,4.15
		c-1.76,1.06-4,1.2-6.17,1.34c-1.57,0.1-3.06,0.24-4.34,0.68c0.23-1.12,0.18-2.01,0.1-2.81c-0.08-0.78-0.15-1.46,0.08-2.34
		c0.31-1.16,0.62-1.37,1.01-1.64c0.76-0.51,1.36-1.07,1.64-3.1l-1.76-0.24c-0.19,1.4-0.46,1.59-0.87,1.87
		c-0.67,0.45-1.3,0.99-1.73,2.65c-0.31,1.2-0.22,2.14-0.13,2.98c0.13,1.28,0.26,2.49-1.11,4.89l0.08,0.04
		c-0.24,0.5-0.42,1.07-0.51,1.72c-2.92-4.38-8.84-7.61-14.45-10.36l-0.78,1.6c2.18,1.07,4.39,2.22,6.45,3.46
		c-1.1,0.05-1.98,0.43-2.75,0.8c-1.32,0.63-2.5,1.17-4.9,0.07l-0.74,1.62c3.2,1.45,4.97,0.6,6.4-0.09c0.78-0.37,1.49-0.71,2.32-0.66
		c1.08,0.04,1.26,0.34,1.57,0.84c0.47,0.77,1.04,1.45,2.58,1.45c0.26,0,0.56-0.02,0.88-0.06c1.82,1.77,3.09,3.74,3.41,5.97
		c0.1,0.69,0.29,1.33,0.48,1.98c-1.52-0.29-2.86,0.41-4.2,1.36c-0.03-0.01-0.07-0.03-0.07-0.03c-0.02-0.06-0.02-0.26-0.02-0.4
		c0.01-0.64,0.01-1.83-1.6-2.44c-1.01-0.37-1.92-0.16-2.73,0.03c-1.21,0.28-2.02,0.46-3.05-0.84l-1.39,1.11
		c1.73,2.16,3.52,1.77,4.84,1.46c0.66-0.15,1.23-0.27,1.71-0.1c0.46,0.17,0.46,0.23,0.45,0.76c0,0.38,0.05,0.97,0.44,1.47
		c-1.31,0.98-2.66,1.95-4.15,2.19c-2.39,0.41-2.84-0.3-3.49-1.27c-0.99-1.46-2.07-2.6-5.7-1.55l0.5,1.71
		c2.65-0.78,3.05-0.17,3.72,0.84c0.63,0.93,1.45,2.15,3.82,2.15c0.43,0,0.91-0.04,1.44-0.13c2.04-0.34,3.74-1.62,5.24-2.75
		c1.49-1.13,2.76-2.13,3.97-1.86c0.41,0.09,0.83,0.44,1.26,0.84c1.24,2.56,3.07,4.86,5.18,6.96c0.1,0.16,0.11,0.27,0.22,0.44
		l0.14-0.09c0.06,0.06,0.12,0.11,0.18,0.17c-1.09,0.08-1.9,0.41-2.64,0.76c-1.32,0.63-2.46,1.18-4.9,0.07l-0.74,1.62
		c3.19,1.45,4.97,0.6,6.4-0.08c0.78-0.37,1.49-0.68,2.32-0.66c1.07,0.04,1.26,0.34,1.56,0.83c0.46,0.75,1.04,1.39,2.49,1.43
		c0.49,0.4,0.97,0.8,1.45,1.2c5.11,4.18,9.52,7.8,8.98,11.86c-0.19,0.36-0.28,0.81-0.46,1.18c-0.02,0-0.03,0-0.05,0
		c-0.43-0.94-1.14-1.62-2.02-2.13l0.08-0.32c-1.26-0.33-1.3-0.6-1.4-1.18c-0.12-0.74-0.31-1.85-2.13-2.69
		c-1.19-0.54-2.28-0.49-3.24-0.44c-1.46,0.08-2.73,0.15-4.56-1.81l-1.29,1.21c2.4,2.56,4.36,2.44,5.95,2.37
		c0.87-0.06,1.61-0.09,2.4,0.28c0.98,0.45,1.03,0.8,1.12,1.37c0,0.01,0.01,0.02,0.01,0.04c-0.85-0.21-1.72-0.4-2.6-0.57
		c-2.19-0.42-4.52-0.95-6.61-1.97c-0.34-0.47-0.91-0.94-1.98-1.15c-0.8-0.62-1.52-1.35-2.14-2.27c-0.32-0.48-0.71-0.7-1.07-1.04
		l0.19-0.12c-1.25-1.89-2.29-1.89-3.34-1.72c-0.58,0.09-0.93,0.14-1.66-0.62c-0.6-0.63-0.8-1.35-1.03-2.19
		c-0.43-1.53-0.97-3.42-4.16-4.87l-0.74,1.62c2.43,1.11,2.78,2.32,3.18,3.74c0.24,0.86,0.56,1.82,1.32,2.71
		c-0.67,0.1-1.34,0.2-2.01,0.33c-2.77,0.52-5.65,1.04-8.31-0.25l-0.78,1.6c3.18,1.56,6.49,0.95,9.41,0.41
		c3.64-0.67,5.95-0.97,7.51,1.4c0.37,0.56,0.85,0.92,1.28,1.37c-0.57,0.17-1.1,0.4-1.56,0.63c-1.32,0.63-2.48,1.17-4.9,0.07
		l-0.74,1.62c3.18,1.44,4.95,0.6,6.4-0.08c0.74-0.35,1.39-0.66,2.2-0.66c0.04,0,0.08,0,0.13,0c0.1,0,0.12,0.04,0.2,0.05
		c0.43,0.3,0.89,0.53,1.35,0.77c0,0.01,0.01,0.01,0.01,0.01c0.47,0.77,1.04,1.45,2.58,1.45c0.24,0,0.52-0.02,0.82-0.06
		c1.4,0.41,2.8,0.73,4.1,0.99c0.55,0.11,0.94,0.21,1.43,0.32c-0.3,0.13-0.61,0.25-0.87,0.37c-1.35,0.63-2.5,1.17-4.9,0.07
		l-0.74,1.62c3.2,1.45,4.97,0.6,6.4-0.08c0.78-0.37,1.47-0.72,2.32-0.66c1.08,0.04,1.26,0.34,1.56,0.83
		c0.31,0.49,0.77,0.87,1.39,1.14c0.1,0.49,0.14,1.04,0.06,1.71c-0.09,0.08-0.22,0.09-0.3,0.18c-1.14,1.19-1.41,3.05-0.83,5.67
		l0.16-0.04c-0.08,0.72-0.26,1.37-0.3,2.13c-1.34-1.3-3.51-1.6-6.15-1.57c-1.16-1.06-1.89-1.17-2.77-1.16
		c-0.46,0.02-0.85,0.04-1.79-0.71c-0.71-0.57-1.06-1.16-1.46-1.83c-0.74-1.24-1.57-2.64-4.63-3.99l-0.71,1.62
		c2.53,1.12,3.16,2.16,3.82,3.27c0.43,0.72,0.92,1.54,1.88,2.31c0.44,0.35,0.76,0.47,1.11,0.64c-3.28,0.11-6.62,0.01-9.2-1.35
		l-0.08-0.39c-0.17,0.04-0.28,0.08-0.43,0.12c-0.98-0.61-1.83-1.41-2.48-2.52c-0.73-1.22-1.56-2.04-2.45-2.63
		c-1.18-1.64-2.17-1.68-3.18-1.52c-0.56,0.09-0.92,0.16-1.66-0.62c-0.6-0.63-0.8-1.35-1.03-2.19c-0.43-1.53-0.97-3.43-4.16-4.87
		l-0.74,1.62c2.43,1.11,2.78,2.33,3.18,3.74c0.23,0.83,0.56,1.74,1.25,2.6c-0.33,0.01-0.67,0.03-1,0.04
		c-2.69,0.13-5.49,0.26-8.44-1.06l-0.72,1.62c3.32,1.48,6.47,1.35,9.25,1.21c1.38-0.06,2.56-0.06,3.65,0.07
		c-0.12,0.11-0.23,0.21-0.34,0.33c-0.33,0.35-0.58,0.63-1.76,0.78c-0.92,0.1-1.56-0.06-2.33-0.25c-1.41-0.35-3-0.74-6.09,0.48
		l0.65,1.65c2.59-1.01,3.77-0.71,5.01-0.41c0.82,0.21,1.74,0.44,2.97,0.29c1.71-0.2,2.33-0.75,2.87-1.35
		c0.31-0.34,0.65-0.57,1.77-0.58c0.64,0.45,1.24,1.05,1.78,1.95c0.61,1.02,1.37,1.78,2.19,2.44c-0.31,0.27-0.54,0.56-0.73,0.89
		c-0.24,0.41-0.43,0.74-1.56,1.13c-0.88,0.3-1.57,0.26-2.33,0.24c-1.46-0.05-3.08-0.1-5.85,1.74l0.99,1.48
		c2.3-1.53,3.51-1.48,4.81-1.44c0.85,0.03,1.8,0.06,2.96-0.34c1.63-0.55,2.13-1.22,2.53-1.91c0.17-0.29,0.33-0.52,0.83-0.72
		c3.47,1.76,7.91,1.61,11.72,1.43c3.43-0.15,6.67-0.3,7.82,1.06c0.58,0.69,0.68,1.84,0.31,3.51l0.81,0.18
		c0.05,1.12-0.02,2.14,0.09,3.32l1.76-0.17c-0.57-5.92-0.17-10.88,1.06-15.1c0.11-0.05,0.2-0.12,0.32-0.16
		c0.93,0.71,1.6,0.77,2.31,0.75c0.49-0.03,0.86-0.03,1.79,0.71c0.71,0.57,1.06,1.15,1.46,1.83c0.74,1.24,1.57,2.64,4.63,3.99
		l0.71-1.62c-2.53-1.11-3.15-2.16-3.81-3.27c-0.43-0.72-0.92-1.54-1.88-2.31c-0.07-0.06-0.12-0.05-0.19-0.11
		c0.84,0.12,1.71,0.28,2.58,0.43l0.01,0.03c0.01-0.01,0.02-0.01,0.03-0.02c0.03,0.01,0.06,0.01,0.09,0.02
		c2.44,0.43,4.88,0.81,7.01,0.72c1.4,0.99,2.47,1.37,3.3,1.58c1.12,0.29,1.91,0.5,3.51,2.77l1.46-1.02
		c-1.97-2.81-3.21-3.14-4.52-3.47c-0.36-0.09-0.74-0.22-1.15-0.38c0.28-0.11,0.62-0.15,0.87-0.31c2.62-1.59,3.72-0.6,5.36,0.93
		c1.74,1.6,3.9,3.6,8.14,1.69l-0.72-1.62c-3.17,1.42-4.58,0.13-6.22-1.38c-0.04-0.04-0.09-0.07-0.13-0.11
		c0.51-0.24,0.94-0.44,1.25-0.58c1.17-0.54,1.3-0.6,2.71-1.64c0.88-0.65,1.21-0.68,1.59-0.73c0.7-0.08,1.35-0.23,2.62-1.35
		l-1.17-1.33c-0.96,0.84-1.27,0.87-1.66,0.92c-0.65,0.08-1.27,0.21-2.43,1.06c-1.29,0.95-1.31,0.96-2.39,1.45
		c-0.45,0.21-1.13,0.52-2.07,0.98c-1.4-0.92-3.17-1.4-5.79,0.19c-1.58,0.95-4.36,0.68-7.28,0.2c1.15-0.88,1.73-1.76,2.22-2.57
		c0.4-0.68,0.75-1.26,1.46-1.83c0.94-0.75,1.32-0.74,1.79-0.71c1,0.05,1.74-0.05,3.16-1.51l-1.26-1.24c-0.99,1-1.31,0.98-1.82,0.97
		c-0.83-0.07-1.63,0.02-2.98,1.09c-0.96,0.77-1.45,1.59-1.88,2.31c-0.61,1.03-1.26,2.01-3.36,3.03c-2.54-0.45-4.92-0.75-6.85-0.47
		c-0.02-0.02-0.02-0.01-0.04-0.03c1.01-2.58,2.28-4.94,4.08-6.85c0.65-0.69,1.38-1.3,2.12-1.9c1.93-0.88,3.23-1.78,4.14-2.66
		c3.07-1.56,6.77-2.67,11.19-3.37c0.99,0.28,1.97,0.77,3.06,1.37c1.2,0.66,2.44,1.35,3.82,1.71c0.61,0.16,1.12,0.23,1.57,0.23
		c1.6,0,2.3-0.86,2.8-1.47c0.53-0.66,0.83-1.04,2.66-0.31l0.65-1.65c-2.8-1.13-3.81-0.24-4.69,0.84c-0.56,0.68-0.92,1.07-2.54,0.65
		c-1.17-0.31-2.31-0.94-3.41-1.55c-0.15-0.08-0.31-0.16-0.46-0.24c4.4-0.45,9.35-0.61,15.09-0.39l0.07-1.78
		c-1.2-0.05-2.28-0.04-3.42-0.05C261.79,171.83,261.86,171.8,261.92,171.78z"/>
</g>
</svg>
