<?xml version="1.0" encoding="utf-8"?>
<!-- Generator: Adobe Illustrator 25.1.0, SVG Export Plug-In . SVG Version: 6.00 Build 0)  -->
<svg version="1.1"  width="16px" height ="16px" id="Layer_1" xmlns="http://www.w3.org/2000/svg" xmlns:xlink="http://www.w3.org/1999/xlink" x="0px" y="0px"
	 viewBox="0 0 300 300"   style="enable-background:new 0 0 300 300;" xml:space="preserve">
<style type="text/css">
	.st0{clip-path:url(#SVGID_2_);}
	.st1{fill:#231F20;}
	.st2{fill:#FF0000;}
	.st3{fill:#FB8538;}
	.st4{fill:#91D050;}
	.st5{fill:#FF8F2A;}
	.st6{fill:#E22024;}
	.st7{fill:#FF2500;}
	.st8{fill:#FFFFFF;}
	.st9{fill:#006FC0;}
	.st10{fill:#FFFF01;}
	.st11{fill:#231F20;stroke:#231F20;stroke-width:0.25;stroke-miterlimit:10;}
	.st12{fill:#FF29FF;}
	.st13{opacity:0.24;fill:none;stroke:#231F20;stroke-width:0.25;stroke-miterlimit:10;}
	.st14{fill:#D0CECE;}
	.st15{fill:#02A0E3;}
	.st16{fill:#58585A;}
	.st17{fill:#AEB1B3;}
	.st18{fill:#7F7F7F;}
	.st19{fill:#888888;}
	.st20{fill:none;stroke:#231F20;stroke-miterlimit:10;}
	.st21{fill:#C46321;}
	.st22{fill:#231F20;stroke:#888888;stroke-width:0.25;stroke-miterlimit:10;}
	.st23{fill:#484949;}
	.st24{fill:#B4B6B6;}
	.st25{fill:none;stroke:#231F20;stroke-width:0.25;stroke-miterlimit:10;}
	.st26{clip-path:url(#SVGID_6_);}
	.st27{fill:#0A0A0A;}
	.st28{fill:#FDFDFD;}
	.st29{fill:none;}
	.st30{fill:#040404;stroke:#FFFFFF;stroke-width:0.25;stroke-miterlimit:10;}
	.st31{clip-path:url(#SVGID_8_);}
	.st32{fill:#161616;}
	.st33{fill:#323232;}
	.st34{fill:#C1C1C1;}
	.st35{fill:#AEB1B3;stroke:#161616;stroke-width:0.25;stroke-miterlimit:10;}
	.st36{fill:#0D0D0D;}
	.st37{fill:#FFFFFF;stroke:#161616;stroke-miterlimit:10;}
	.st38{fill:#6E6E6E;}
	.st39{fill:#D9D9D9;}
	.st40{fill:#161616;stroke:#161616;stroke-width:0.5;stroke-miterlimit:10;}
	.st41{fill:#888888;stroke:#58585A;stroke-width:0.25;stroke-miterlimit:10;}
	.st42{fill:#040404;stroke:#FFFFFF;stroke-width:0.5;stroke-miterlimit:10;}
</style>
<g>
	<defs>
		<rect id="SVGID_1_" x="-257696224" y="-257699136" width="515396064" height="515396064"/>
	</defs>
	<clipPath id="SVGID_2_">
		<use xlink:href="#SVGID_1_"  style="overflow:visible;"/>
	</clipPath>
</g>
<g>
	<g>
		<g>
			<rect x="35.94" y="178.43" class="st19" width="16.02" height="21.64"/>
			<path class="st16" d="M53.61,201.72H34.29v-24.95h19.32V201.72z M37.6,198.42h12.72v-18.34H37.6V198.42z"/>
		</g>
		<path class="st19" d="M43.42,100.45l-7.47,76.16h16.02l-7.47-76.16C44.42,99.76,43.48,99.76,43.42,100.45z"/>
		<g>
			<path class="st16" d="M53.79,178.25H34.12l7.65-77.97c0.11-1.15,1.05-2.01,2.18-2.01h0c1.14,0,2.07,0.86,2.18,2.01L53.79,178.25z
				 M37.77,174.95h12.37l-6.19-63.07L37.77,174.95z M42.85,100.61C42.85,100.61,42.85,100.61,42.85,100.61L42.85,100.61z
				 M43.42,100.45l1.64,0.16L43.42,100.45z"/>
		</g>
	</g>
	<g>
		<rect x="161.5" y="170.49" class="st19" width="103.92" height="27.19"/>
		<path class="st16" d="M265.88,198.13H161.05v-28.1h104.83V198.13z M161.96,197.22h103.01v-26.28H161.96V197.22z"/>
	</g>
	<g>
		<polygon class="st19" points="205.35,111.88 94.91,172.42 95.11,197.68 206.4,125.8 		"/>
		<path class="st16" d="M94.29,199.19l-0.21-27.25l0.43-0.24l111.56-61.16l1.19,15.69l-0.41,0.27L94.29,199.19z M95.74,172.9
			l0.18,23.26l109.62-70.79l-0.92-12.15L95.74,172.9z"/>
	</g>
	<g>
		<polygon class="st19" points="205.35,111.88 200.28,111.65 83.46,172 83.42,172.54 94.91,173.02 		"/>
		<path class="st16" d="M95.11,173.85l-0.23-0.01l-12.35-0.52l0.15-1.85l0.41-0.21l117.01-60.44l8.21,0.36L95.11,173.85z
			 M85.63,171.81l9.08,0.38l107.67-59.61l-1.92-0.09L85.63,171.81z"/>
	</g>
	<g>
		<rect x="83.42" y="172.77" class="st19" width="11.05" height="25.68"/>
		<path class="st16" d="M95.3,199.28H82.59v-27.33H95.3V199.28z M84.24,197.63h9.4v-24.03h-9.4V197.63z"/>
	</g>
</g>
</svg>
