<?xml version="1.0" encoding="utf-8"?>
<!-- Generator: Adobe Illustrator 25.1.0, SVG Export Plug-In . SVG Version: 6.00 Build 0)  -->
<svg version="1.1"  width="16px" height ="16px" id="Layer_1" xmlns="http://www.w3.org/2000/svg" xmlns:xlink="http://www.w3.org/1999/xlink" x="0px" y="0px"
	 viewBox="0 0 300 300"   style="enable-background:new 0 0 300 300;" xml:space="preserve">
<style type="text/css">
	.st0{clip-path:url(#SVGID_2_);}
	.st1{fill:#231F20;}
	.st2{fill:#FF0000;}
	.st3{fill:#FB8538;}
	.st4{fill:#91D050;}
	.st5{fill:#FF8F2A;}
	.st6{fill:#E22024;}
	.st7{fill:#FF2500;}
	.st8{fill:#FFFFFF;}
	.st9{fill:#006FC0;}
	.st10{fill:#FFFF01;}
	.st11{fill:#231F20;stroke:#231F20;stroke-width:0.25;stroke-miterlimit:10;}
	.st12{fill:#FF29FF;}
	.st13{opacity:0.24;fill:none;stroke:#231F20;stroke-width:0.25;stroke-miterlimit:10;}
	.st14{fill:#D0CECE;}
	.st15{fill:#02A0E3;}
	.st16{fill:#58585A;}
	.st17{fill:#AEB1B3;}
	.st18{fill:#7F7F7F;}
	.st19{fill:#888888;}
	.st20{fill:none;stroke:#231F20;stroke-miterlimit:10;}
	.st21{fill:#C46321;}
	.st22{fill:#231F20;stroke:#888888;stroke-width:0.25;stroke-miterlimit:10;}
	.st23{fill:#484949;}
	.st24{fill:#B4B6B6;}
	.st25{fill:none;stroke:#231F20;stroke-width:0.25;stroke-miterlimit:10;}
	.st26{clip-path:url(#SVGID_6_);}
	.st27{fill:#0A0A0A;}
	.st28{fill:#FDFDFD;}
	.st29{fill:none;}
	.st30{fill:#040404;stroke:#FFFFFF;stroke-width:0.25;stroke-miterlimit:10;}
	.st31{clip-path:url(#SVGID_8_);}
	.st32{fill:#161616;}
	.st33{fill:#323232;}
	.st34{fill:#C1C1C1;}
	.st35{fill:#AEB1B3;stroke:#161616;stroke-width:0.25;stroke-miterlimit:10;}
	.st36{fill:#0D0D0D;}
	.st37{fill:#FFFFFF;stroke:#161616;stroke-miterlimit:10;}
	.st38{fill:#6E6E6E;}
	.st39{fill:#D9D9D9;}
	.st40{fill:#161616;stroke:#161616;stroke-width:0.5;stroke-miterlimit:10;}
	.st41{fill:#888888;stroke:#58585A;stroke-width:0.25;stroke-miterlimit:10;}
	.st42{fill:#040404;stroke:#FFFFFF;stroke-width:0.5;stroke-miterlimit:10;}
</style>
<g>
	<defs>
		<rect id="SVGID_1_" x="-257691424" y="-257699136" width="515396064" height="515396064"/>
	</defs>
	<clipPath id="SVGID_2_">
		<use xlink:href="#SVGID_1_"  style="overflow:visible;"/>
	</clipPath>
</g>
<g>
	<g>
		<rect x="109.64" y="76.44" class="st23" width="84.16" height="61.74"/>
		<path class="st1" d="M195.24,139.63h-87.05V75h87.05V139.63z M111.08,136.74h81.28V77.88h-81.28V136.74z"/>
	</g>
	<g>
		<rect x="113.02" y="80.25" class="st24" width="75.55" height="54.12"/>
	</g>
	<g>
		<path class="st1" d="M191.04,77.88H111.5c-1.01,0-1.88-0.65-2.15-1.63c-0.27-0.97,0.13-1.98,1-2.5l40.2-24.47
			c0.72-0.44,1.66-0.43,2.35,0.01l39.32,24.48c0.86,0.53,1.24,1.53,0.97,2.5C192.91,77.23,192.05,77.88,191.04,77.88z M113.84,75
			h74.91l-37.04-23.05L113.84,75z M151.37,51.72c0,0.01,0.01,0.01,0.01,0.01L151.37,51.72z"/>
	</g>
	<path class="st1" d="M196.33,140.16l-0.34-0.97l-24.05,0.01l10.26,29.75l-32.23,18.81l-32.56-17.7l10.64-30.87L104,139.19
		L65.44,251.04l24.06,0.01l11.2-32.48L150,191.06l49.31,27.51l10.86,31.51l0.33,0.97l24.06-0.01L196.33,140.16z M87.43,248.17
		l-17.95-0.01l36.58-106.09l17.95,0.01L87.43,248.17z M102.1,214.48l14.36-41.65l30.55,16.61L102.1,214.48z M152.91,189.38
		l30.25-17.66l14.74,42.76L152.91,189.38z M175.99,142.08l17.95-0.01l36.58,106.09l-17.95,0.01L175.99,142.08z"/>
</g>
</svg>
