<?xml version="1.0" encoding="utf-8"?>
<!-- Generator: Adobe Illustrator 25.1.0, SVG Export Plug-In . SVG Version: 6.00 Build 0)  -->
<svg version="1.1"  width="16px" height ="16px" id="Layer_1" xmlns="http://www.w3.org/2000/svg" xmlns:xlink="http://www.w3.org/1999/xlink" x="0px" y="0px"
	 viewBox="0 0 300 300"   style="enable-background:new 0 0 300 300;" xml:space="preserve">
<style type="text/css">
	.st0{clip-path:url(#SVGID_2_);}
	.st1{fill:#231F20;}
	.st2{fill:#FF0000;}
	.st3{fill:#FB8538;}
	.st4{fill:#91D050;}
	.st5{fill:#FF8F2A;}
	.st6{fill:#E22024;}
	.st7{fill:#FF2500;}
	.st8{fill:#FFFFFF;}
	.st9{fill:#006FC0;}
	.st10{fill:#FFFF01;}
	.st11{fill:#231F20;stroke:#231F20;stroke-width:0.25;stroke-miterlimit:10;}
	.st12{fill:#FF29FF;}
	.st13{opacity:0.24;fill:none;stroke:#231F20;stroke-width:0.25;stroke-miterlimit:10;}
	.st14{fill:#D0CECE;}
	.st15{fill:#02A0E3;}
	.st16{fill:#58585A;}
	.st17{fill:#AEB1B3;}
	.st18{fill:#7F7F7F;}
	.st19{fill:#888888;}
	.st20{fill:none;stroke:#231F20;stroke-miterlimit:10;}
	.st21{fill:#C46321;}
	.st22{fill:#231F20;stroke:#888888;stroke-width:0.25;stroke-miterlimit:10;}
	.st23{fill:#484949;}
	.st24{fill:#B4B6B6;}
	.st25{fill:none;stroke:#231F20;stroke-width:0.25;stroke-miterlimit:10;}
	.st26{clip-path:url(#SVGID_6_);}
	.st27{fill:#0A0A0A;}
	.st28{fill:#FDFDFD;}
	.st29{fill:none;}
	.st30{fill:#040404;stroke:#FFFFFF;stroke-width:0.25;stroke-miterlimit:10;}
	.st31{clip-path:url(#SVGID_8_);}
	.st32{fill:#161616;}
	.st33{fill:#323232;}
	.st34{fill:#C1C1C1;}
	.st35{fill:#AEB1B3;stroke:#161616;stroke-width:0.25;stroke-miterlimit:10;}
	.st36{fill:#0D0D0D;}
	.st37{fill:#FFFFFF;stroke:#161616;stroke-miterlimit:10;}
	.st38{fill:#6E6E6E;}
	.st39{fill:#D9D9D9;}
	.st40{fill:#161616;stroke:#161616;stroke-width:0.5;stroke-miterlimit:10;}
	.st41{fill:#888888;stroke:#58585A;stroke-width:0.25;stroke-miterlimit:10;}
	.st42{fill:#040404;stroke:#FFFFFF;stroke-width:0.5;stroke-miterlimit:10;}
</style>
<g>
	<defs>
		<rect id="SVGID_1_" x="-257691104" y="-257699136" width="515396064" height="515396064"/>
	</defs>
	<clipPath id="SVGID_2_">
		<use xlink:href="#SVGID_1_"  style="overflow:visible;"/>
	</clipPath>
</g>
<g>
	<path d="M149.48,130.64c-21.35,0-38.65,8.15-38.65,18.21c0,10.06,17.31,18.21,38.65,18.21c21.35,0,38.65-8.15,38.65-18.21
		C188.14,138.8,170.83,130.64,149.48,130.64z"/>
	<path d="M207.15,64.33V57h-7.7v-0.2H99.52V57h-6.67v7.33h6.67v78.84c-1.02,2.24-1.72,4.55-1.72,6.97c0,2.42,0.7,4.73,1.72,6.97
		v64.92c0,11.86,21.95,21.16,49.96,21.16c28.02,0,49.96-9.29,49.96-21.16v-64.62c1.11-2.34,1.89-4.75,1.89-7.28
		c0-2.53-0.78-4.94-1.89-7.27V64.33H207.15z M196.76,156.9c-5.65,11.08-24.56,19.3-47.18,19.3c-22.83,0-41.9-8.36-47.36-19.58
		v-12.95c5.46-11.23,24.53-19.58,47.36-19.58c22.62,0,41.54,8.21,47.18,19.29V156.9z M196.76,222.04
		c0,10.01-21.65,18.47-47.27,18.47c-25.62,0-47.27-8.46-47.27-18.47v-60.37c8.02,10.12,26.2,17.23,47.36,17.23
		c21.03,0,39.09-7.03,47.18-17.05V222.04z M196.76,138.45c-8.09-10.02-26.15-17.05-47.18-17.05c-21.16,0-39.34,7.1-47.36,17.22
		V64.33h94.54V138.45z"/>
</g>
</svg>
