<?xml version="1.0" encoding="utf-8"?>
<!-- Generator: Adobe Illustrator 25.1.0, SVG Export Plug-In . SVG Version: 6.00 Build 0)  -->
<svg version="1.1"  width="16px" height ="16px" id="Layer_1" xmlns="http://www.w3.org/2000/svg" xmlns:xlink="http://www.w3.org/1999/xlink" x="0px" y="0px"
	 viewBox="0 0 300 300"   style="enable-background:new 0 0 300 300;" xml:space="preserve">
<style type="text/css">
	.st0{clip-path:url(#SVGID_2_);}
	.st1{fill:#231F20;}
	.st2{fill:#FF0000;}
	.st3{fill:#FB8538;}
	.st4{fill:#91D050;}
	.st5{fill:#FF8F2A;}
	.st6{fill:#E22024;}
	.st7{fill:#FF2500;}
	.st8{fill:#FFFFFF;}
	.st9{fill:#006FC0;}
	.st10{fill:#FFFF01;}
	.st11{fill:url(#);stroke:#231F20;stroke-width:0.25;stroke-miterlimit:10;}
	.st12{fill:#006FC0;stroke:#231F20;stroke-miterlimit:10;}
	.st13{fill:#FF29FF;}
	.st14{opacity:0.24;fill:none;stroke:#231F20;stroke-width:0.25;stroke-miterlimit:10;}
	.st15{fill:#D0CECE;}
	.st16{fill:#02A0E3;}
</style>
<g>
	<defs>
		<rect id="SVGID_1_" x="-257693664" y="-257698816" width="515396064" height="515396064"/>
	</defs>
	<clipPath id="SVGID_2_">
		<use xlink:href="#SVGID_1_"  style="overflow:visible;"/>
	</clipPath>
</g>
<g>
	<path d="M110.99,220.76H89.5l-8.54-26.9H41.85l-8.08,26.9H12.81l38.11-118.43h20.89L110.99,220.76z M74.62,173.9l-13.48-43.95
		L47.92,173.9H74.62z"/>
	<path d="M116.46,182.22l19.22-2.26c1.16,7.81,3.5,13.54,7.04,17.21c3.54,3.66,8.31,5.49,14.32,5.49c6.36,0,11.16-1.63,14.38-4.89
		s4.84-7.07,4.84-11.43c0-2.8-0.68-5.18-2.04-7.15c-1.36-1.97-3.73-3.68-7.11-5.13c-2.31-0.97-7.59-2.69-15.82-5.17
		c-10.59-3.18-18.02-7.08-22.29-11.71c-6.01-6.52-9.01-14.46-9.01-23.83c0-6.03,1.41-11.67,4.24-16.92c2.83-5.25,6.9-9.25,12.21-12
		c5.32-2.75,11.74-4.12,19.25-4.12c12.28,0,21.52,3.26,27.73,9.77c6.21,6.52,9.47,15.21,9.78,26.09l-19.76,1.05
		c-0.85-6.09-2.66-10.46-5.44-13.13c-2.78-2.67-6.95-4-12.51-4c-5.74,0-10.23,1.43-13.48,4.28c-2.09,1.83-3.14,4.28-3.14,7.35
		c0,2.8,0.98,5.2,2.94,7.19c2.49,2.53,8.54,5.17,18.15,7.92c9.61,2.75,16.72,5.59,21.32,8.52c4.61,2.94,8.21,6.95,10.81,12.04
		c2.6,5.09,3.9,11.38,3.9,18.86c0,6.79-1.56,13.14-4.67,19.06c-3.11,5.92-7.52,10.33-13.21,13.21s-12.79,4.32-21.29,4.32
		c-12.37,0-21.87-3.46-28.5-10.38C121.71,205.56,117.75,195.47,116.46,182.22z"/>
	<path d="M207.63,182.22l19.22-2.26c1.16,7.81,3.5,13.54,7.04,17.21s8.31,5.49,14.32,5.49c6.36,0,11.16-1.63,14.38-4.89
		s4.84-7.07,4.84-11.43c0-2.8-0.68-5.18-2.04-7.15c-1.36-1.97-3.73-3.68-7.11-5.13c-2.31-0.97-7.59-2.69-15.82-5.17
		c-10.59-3.18-18.02-7.08-22.29-11.71c-6.01-6.52-9.01-14.46-9.01-23.83c0-6.03,1.41-11.67,4.24-16.92c2.83-5.25,6.9-9.25,12.21-12
		c5.32-2.75,11.74-4.12,19.25-4.12c12.28,0,21.52,3.26,27.73,9.77c6.21,6.52,9.47,15.21,9.78,26.09l-19.76,1.05
		c-0.85-6.09-2.66-10.46-5.44-13.13c-2.78-2.67-6.95-4-12.51-4c-5.74,0-10.23,1.43-13.48,4.28c-2.09,1.83-3.14,4.28-3.14,7.35
		c0,2.8,0.98,5.2,2.94,7.19c2.49,2.53,8.54,5.17,18.15,7.92c9.61,2.75,16.72,5.59,21.32,8.52s8.21,6.95,10.81,12.04
		c2.6,5.09,3.9,11.38,3.9,18.86c0,6.79-1.56,13.14-4.67,19.06c-3.11,5.92-7.52,10.33-13.21,13.21c-5.7,2.88-12.79,4.32-21.29,4.32
		c-12.37,0-21.87-3.46-28.5-10.38C212.88,205.56,208.92,195.47,207.63,182.22z"/>
</g>
</svg>
