<?xml version="1.0" encoding="utf-8"?>
<!-- Generator: Adobe Illustrator 25.1.0, SVG Export Plug-In . SVG Version: 6.00 Build 0)  -->
<svg version="1.1"  width="16px" height ="16px" id="Layer_1" xmlns="http://www.w3.org/2000/svg" xmlns:xlink="http://www.w3.org/1999/xlink" x="0px" y="0px"
	 viewBox="0 0 300 300"   style="enable-background:new 0 0 300 300;" xml:space="preserve">
<style type="text/css">
	.st0{clip-path:url(#SVGID_2_);}
	.st1{fill:#231F20;}
	.st2{fill:#FF0000;}
	.st3{fill:#FB8538;}
	.st4{fill:#91D050;}
	.st5{fill:#FF8F2A;}
	.st6{fill:#E22024;}
	.st7{fill:#FF2500;}
	.st8{fill:#FFFFFF;}
	.st9{fill:#006FC0;}
	.st10{fill:#FFFF01;}
	.st11{fill:url(#);stroke:#231F20;stroke-width:0.25;stroke-miterlimit:10;}
	.st12{fill:#006FC0;stroke:#231F20;stroke-miterlimit:10;}
	.st13{fill:#FF29FF;}
	.st14{opacity:0.24;fill:none;stroke:#231F20;stroke-width:0.25;stroke-miterlimit:10;}
	.st15{fill:#D0CECE;}
	.st16{fill:#02A0E3;}
</style>
<g>
	<defs>
		<rect id="SVGID_1_" x="-257694304" y="-257698816" width="515396064" height="515396064"/>
	</defs>
	<clipPath id="SVGID_2_">
		<use xlink:href="#SVGID_1_"  style="overflow:visible;"/>
	</clipPath>
</g>
<g>
	<g>
		<circle class="st5" cx="150" cy="161.58" r="92.25"/>
		<path class="st1" d="M150,259.17c-53.81,0-97.59-43.77-97.59-97.59S96.19,64,150,64s97.59,43.77,97.59,97.59
			S203.81,259.17,150,259.17z M150,74.66c-47.93,0-86.92,38.99-86.92,86.92S102.07,248.5,150,248.5s86.92-38.99,86.92-86.92
			S197.93,74.66,150,74.66z"/>
	</g>
	<g>
		
			<rect x="42.65" y="138.54" transform="matrix(0.7381 -0.6747 0.6747 0.7381 -62.7214 126.1702)" class="st1" width="177.02" height="10.67"/>
	</g>
	<g>
		
			<rect x="61.09" y="156.25" transform="matrix(0.7168 -0.6973 0.6973 0.7168 -70.1875 150.3502)" class="st1" width="177.82" height="10.67"/>
	</g>
	<g>
		
			<rect x="81.49" y="173.73" transform="matrix(0.7325 -0.6808 0.6808 0.7325 -76.7196 162.8637)" class="st1" width="174.78" height="10.66"/>
	</g>
</g>
</svg>
