<?xml version="1.0" encoding="utf-8"?>
<!-- Generator: Adobe Illustrator 25.1.0, SVG Export Plug-In . SVG Version: 6.00 Build 0)  -->
<svg version="1.1"  width="16px" height ="16px" id="Layer_1" xmlns="http://www.w3.org/2000/svg" xmlns:xlink="http://www.w3.org/1999/xlink" x="0px" y="0px"
	 viewBox="0 0 300 300"   style="enable-background:new 0 0 300 300;" xml:space="preserve">
<style type="text/css">
	.st0{clip-path:url(#SVGID_2_);}
	.st1{fill:#231F20;}
	.st2{fill:#FF0000;}
	.st3{fill:#FB8538;}
	.st4{fill:#91D050;}
	.st5{fill:#FF8F2A;}
	.st6{fill:#E22024;}
	.st7{fill:#FF2500;}
	.st8{fill:#FFFFFF;}
	.st9{fill:#006FC0;}
	.st10{fill:#FFFF01;}
	.st11{fill:url(#);stroke:#231F20;stroke-width:0.25;stroke-miterlimit:10;}
	.st12{fill:#006FC0;stroke:#231F20;stroke-miterlimit:10;}
	.st13{fill:#FF29FF;}
	.st14{opacity:0.24;fill:none;stroke:#231F20;stroke-width:0.25;stroke-miterlimit:10;}
	.st15{fill:#D0CECE;}
	.st16{fill:#02A0E3;}
</style>
<g>
	<defs>
		<rect id="SVGID_1_" x="-257693024" y="-257698816" width="515396064" height="515396064"/>
	</defs>
	<clipPath id="SVGID_2_">
		<use xlink:href="#SVGID_1_"  style="overflow:visible;"/>
	</clipPath>
</g>
<g>
	<path d="M17.89,103.63h36.07c8.13,0,14.33,0.74,18.6,2.21c5.73,2,10.65,5.56,14.73,10.67s7.2,11.36,9.33,18.76
		c2.13,7.4,3.2,16.53,3.2,27.38c0,9.53-1,17.75-3,24.65c-2.44,8.43-5.93,15.25-10.47,20.46c-3.42,3.95-8.04,7.03-13.87,9.24
		c-4.36,1.63-10.18,2.45-17.47,2.45H17.89V103.63z M37.63,123.22v76.72h14.73c5.51,0,9.49-0.37,11.93-1.11
		c3.2-0.95,5.86-2.55,7.97-4.82c2.11-2.26,3.83-5.99,5.17-11.18c1.33-5.19,2-12.26,2-21.21s-0.67-15.83-2-20.62
		c-1.33-4.79-3.2-8.53-5.6-11.22s-5.44-4.5-9.13-5.45c-2.76-0.74-8.16-1.11-16.2-1.11H37.63z"/>
	<path d="M111.56,181.77l19.2-2.21c1.16,7.64,3.5,13.25,7.03,16.83c3.53,3.58,8.3,5.37,14.3,5.37c6.36,0,11.15-1.59,14.37-4.78
		c3.22-3.19,4.83-6.91,4.83-11.18c0-2.74-0.68-5.07-2.03-6.99c-1.36-1.92-3.72-3.59-7.1-5.02c-2.31-0.95-7.58-2.63-15.8-5.06
		c-10.58-3.11-18-6.93-22.27-11.46c-6-6.37-9-14.14-9-23.31c0-5.9,1.41-11.42,4.23-16.55c2.82-5.14,6.89-9.05,12.2-11.73
		c5.31-2.69,11.72-4.03,19.23-4.03c12.27,0,21.5,3.19,27.7,9.56c6.2,6.37,9.46,14.88,9.77,25.52l-19.73,1.03
		c-0.84-5.95-2.66-10.23-5.43-12.84c-2.78-2.61-6.94-3.91-12.5-3.91c-5.73,0-10.22,1.4-13.47,4.19c-2.09,1.79-3.13,4.19-3.13,7.19
		c0,2.74,0.98,5.08,2.93,7.03c2.49,2.48,8.53,5.06,18.13,7.74c9.6,2.69,16.7,5.46,21.3,8.34c4.6,2.87,8.2,6.79,10.8,11.77
		s3.9,11.13,3.9,18.45c0,6.64-1.56,12.85-4.67,18.65c-3.11,5.79-7.51,10.1-13.2,12.92c-5.69,2.82-12.78,4.23-21.27,4.23
		c-12.36,0-21.85-3.38-28.47-10.15C116.81,204.59,112.85,194.72,111.56,181.77z"/>
	<path d="M202.64,181.77l19.2-2.21c1.16,7.64,3.5,13.25,7.03,16.83c3.53,3.58,8.3,5.37,14.3,5.37c6.36,0,11.15-1.59,14.37-4.78
		c3.22-3.19,4.83-6.91,4.83-11.18c0-2.74-0.68-5.07-2.03-6.99c-1.36-1.92-3.72-3.59-7.1-5.02c-2.31-0.95-7.58-2.63-15.8-5.06
		c-10.58-3.11-18-6.93-22.27-11.46c-6-6.37-9-14.14-9-23.31c0-5.9,1.41-11.42,4.23-16.55c2.82-5.14,6.89-9.05,12.2-11.73
		s11.72-4.03,19.23-4.03c12.27,0,21.5,3.19,27.7,9.56c6.2,6.37,9.46,14.88,9.77,25.52l-19.73,1.03c-0.84-5.95-2.66-10.23-5.43-12.84
		c-2.78-2.61-6.94-3.91-12.5-3.91c-5.73,0-10.22,1.4-13.47,4.19c-2.09,1.79-3.13,4.19-3.13,7.19c0,2.74,0.98,5.08,2.93,7.03
		c2.49,2.48,8.53,5.06,18.13,7.74c9.6,2.69,16.7,5.46,21.3,8.34c4.6,2.87,8.2,6.79,10.8,11.77s3.9,11.13,3.9,18.45
		c0,6.64-1.56,12.85-4.67,18.65c-3.11,5.79-7.51,10.1-13.2,12.92c-5.69,2.82-12.78,4.23-21.27,4.23c-12.36,0-21.85-3.38-28.47-10.15
		C207.88,204.59,203.93,194.72,202.64,181.77z"/>
</g>
</svg>
