<?xml version="1.0" encoding="utf-8"?>
<!-- Generator: Adobe Illustrator 25.1.0, SVG Export Plug-In . SVG Version: 6.00 Build 0)  -->
<svg version="1.1"  width="16px" height ="16px" id="Layer_1" xmlns="http://www.w3.org/2000/svg" xmlns:xlink="http://www.w3.org/1999/xlink" x="0px" y="0px"
	 viewBox="0 0 483.21 300" style="enable-background:new 0 0 483.21 300;" xml:space="preserve">
<style type="text/css">
	.st0{clip-path:url(#SVGID_2_);}
	.st1{fill:#231F20;}
	.st2{fill:#FF0000;}
	.st3{fill:#FB8538;}
	.st4{fill:#91D050;}
	.st5{fill:#FF8F2A;}
	.st6{fill:#E22024;}
	.st7{fill:#FF2500;}
	.st8{fill:#FFFFFF;}
	.st9{fill:#006FC0;}
	.st10{fill:#FFFF01;}
	.st11{fill:#231F20;stroke:#231F20;stroke-width:0.25;stroke-miterlimit:10;}
	.st12{fill:#FF29FF;}
	.st13{opacity:0.24;fill:none;stroke:#231F20;stroke-width:0.25;stroke-miterlimit:10;}
	.st14{fill:#D0CECE;}
	.st15{fill:#02A0E3;}
</style>
<g>
	<defs>
		<rect id="SVGID_1_" x="-257695264" y="-257698816" width="515396064" height="515396064"/>
	</defs>
	<clipPath id="SVGID_2_">
		<use xlink:href="#SVGID_1_"  style="overflow:visible;"/>
	</clipPath>
</g>
<g>
	<g>
		<path class="st12" d="M129.77,256.45c-52.31,0-94.86-42.56-94.86-94.86c0-52.31,42.56-94.87,94.86-94.87s94.86,42.56,94.86,94.87
			C224.63,213.89,182.08,256.45,129.77,256.45z M129.77,77.38c-46.43,0-84.2,37.77-84.2,84.2c0,46.43,37.77,84.2,84.2,84.2
			s84.2-37.77,84.2-84.2C213.97,115.15,176.2,77.38,129.77,77.38z"/>
	</g>
	<g>
		<g>
			<circle class="st1" cx="169.86" cy="124.54" r="17.7"/>
			<path class="st1" d="M169.85,146.24c-11.96,0-21.7-9.73-21.7-21.7c0-11.96,9.73-21.7,21.7-21.7c11.97,0,21.7,9.73,21.7,21.7
				C191.56,136.51,181.82,146.24,169.85,146.24z M169.85,110.84c-7.55,0-13.7,6.15-13.7,13.7c0,7.56,6.15,13.7,13.7,13.7
				c7.56,0,13.7-6.15,13.7-13.7C183.56,116.99,177.41,110.84,169.85,110.84z"/>
		</g>
		<g>
			<g>
				<path class="st1" d="M93.97,171.09l-4.85-7.58c0-1.5,43.82-17.89,62.4-35.66l3.97,6.95l-29.4,28.56c-1.15,1.12,1.58-0.27,0,0
					C119.36,161.96,95.25,174.01,93.97,171.09z"/>
			</g>
		</g>
		<g>
			<g>
				<path class="st1" d="M107.52,191.96c-1.72,1.01-5.6-5.71-5.6-5.71c0-1.69,15.99-24.02,29.21-32.92l21.75-20.84l7.46,7.6
					C160.34,140.09,123.76,182.43,107.52,191.96z"/>
			</g>
		</g>
		<g>
			<g>
				<path class="st1" d="M128.24,202.47l-9.28-4.65c0-19.7,13.11-40.76,30.76-62.29l15.06,6.69
					C145.82,160.51,133.89,180.66,128.24,202.47z"/>
			</g>
		</g>
		<g>
			<path class="st1" d="M142.4,211.17c-3.2,12.16-16.96,18.99-35.84,15.68c-21.33-3.52-48.64-37.33-48.64-54.19
				c0-12.27,5.87-21.97,16.11-25.28c-1.07,3.2-1.71,6.93-1.71,10.77c0,16.96,27.31,50.66,48.53,54.29
				C129.18,213.84,136.54,213.31,142.4,211.17z"/>
			<path class="st1" d="M115.59,229c-2.95,0-6.05-0.27-9.25-0.83c-21.95-3.62-49.74-37.53-49.74-55.5c0-13.18,6.36-23.1,17.03-26.55
				l2.51-0.81l-0.83,2.5c-1.07,3.22-1.64,6.8-1.64,10.35c0,16.65,26.95,49.48,47.42,52.98c7.87,1.3,15.09,0.88,20.86-1.22l2.4-0.87
				l-0.65,2.46C140.8,222.52,129.96,229,115.59,229z M72.01,149.6c-8.04,3.73-12.75,12.16-12.75,23.06
				c0,16.7,27.01,49.48,47.52,52.87c16.22,2.85,29.26-2.07,33.52-12.31c-5.72,1.55-12.45,1.74-19.67,0.54
				c-21.92-3.74-49.64-37.7-49.64-55.61C70.99,155.27,71.34,152.36,72.01,149.6z"/>
		</g>
		<g>
			<path class="st1" d="M129.71,214.54c-2.91,0-5.95-0.26-9.08-0.78c-21.91-3.74-49.64-37.7-49.64-55.61c0-3.83,0.61-7.7,1.77-11.2
				l0.21-0.62l0.62-0.21c4.3-1.48,9.2-1.77,14.52-0.91c25.19,4,53.47,25.67,56.26,57.95v0.01c0.23,2.94,0,5.74-0.68,8.33l-0.18,0.68
				l-0.66,0.24C138.98,213.84,134.53,214.54,129.71,214.54z M75.09,148.44c-0.94,3.06-1.43,6.4-1.43,9.72
				c0,16.65,26.95,49.48,47.42,52.98c7.56,1.26,14.53,0.91,20.2-0.99c0.47-2.11,0.62-4.38,0.44-6.75l0,0
				c-2.68-30.93-29.83-51.7-54.02-55.54C82.98,147.09,78.86,147.28,75.09,148.44z"/>
		</g>
		<g>
			<path class="st8" d="M81.06,196.91c-3.83,2.62-8.16,2.94-15.07-7.16c-6.91-10.1-5.44-16.34-1.61-18.95
				c3.83-2.62,8.56-0.63,15.47,9.48C86.76,190.37,84.89,194.29,81.06,196.91z"/>
			<path class="st1" d="M76.75,199.8c-0.78,0-1.62-0.13-2.52-0.44c-2.92-1.03-5.97-3.92-9.34-8.85c-9.37-13.7-3.34-19.4-1.27-20.81
				c6.49-4.44,12.98,3.49,17.32,9.82c3.37,4.93,4.96,8.83,4.86,11.92c-0.11,3.52-2.33,5.43-3.99,6.57l0,0
				C80.6,198.84,78.88,199.8,76.75,199.8z M67.55,171.09c-0.99,0-1.77,0.36-2.41,0.8c-4.16,2.84-3.43,9.24,1.95,17.1
				c3,4.39,5.7,7.03,8.03,7.84c1.71,0.6,3.25,0.29,5.18-1.03l0,0c1.93-1.32,2.78-2.66,2.84-4.45c0.08-2.47-1.4-5.95-4.4-10.33
				C73.34,173.12,69.88,171.09,67.55,171.09z"/>
		</g>
		<g>
			<path class="st8" d="M164.96,117.15c-10.62,8.18-0.29,15.57-5.75,16.87c-2.38,0.57-4.42-3.32-4.42-10.99s8.71-13.38,11.15-13.38
				S170.37,112.98,164.96,117.15z"/>
			<path class="st1" d="M158.75,135.41c-0.74,0-1.45-0.26-2.09-0.77c-2.06-1.63-3.2-5.76-3.2-11.61c0-8.61,9.47-14.71,12.48-14.71
				c1.64,0,3.08,1.01,3.6,2.51c0.36,1.07,0.72,3.93-3.77,7.39l0,0c-5.65,4.35-4.71,8.2-3.96,11.3c0.39,1.59,0.75,3.09-0.01,4.33
				c-0.45,0.74-1.21,1.22-2.3,1.48C159.26,135.38,159,135.41,158.75,135.41z M165.94,110.98c-1.63,0-9.82,4.99-9.82,12.05
				c0,5.76,1.18,8.73,2.19,9.53c0.27,0.22,0.46,0.21,0.59,0.17c0.43-0.1,0.6-0.23,0.64-0.29c0.18-0.29-0.1-1.45-0.31-2.31
				c-0.79-3.22-2.1-8.63,4.92-14.04l0,0c2.55-1.96,3.14-3.6,2.86-4.41C166.86,111.26,166.44,110.98,165.94,110.98z"/>
		</g>
	</g>
	<g>
		<path class="st12" d="M276.3,226.74V104.92h32.05c12.15,0,20.07,0.61,23.75,1.83c5.67,1.83,10.41,5.8,14.24,11.92
			c3.82,6.12,5.74,14.03,5.74,23.73c0,7.48-1.1,13.77-3.31,18.86c-2.2,5.1-5.01,9.1-8.4,12.01c-3.4,2.91-6.85,4.83-10.36,5.78
			c-4.77,1.16-11.67,1.75-20.72,1.75h-13.02v45.95H276.3z M296.28,125.53v34.57h10.93c7.87,0,13.14-0.64,15.79-1.91
			c2.65-1.27,4.74-3.27,6.24-5.98s2.26-5.87,2.26-9.47c0-4.43-1.06-8.09-3.17-10.97c-2.11-2.88-4.79-4.68-8.03-5.4
			c-2.38-0.55-7.18-0.83-14.37-0.83H296.28z"/>
		<path class="st12" d="M431.79,181.95l19.37,7.56c-2.97,13.3-7.91,23.17-14.81,29.63c-6.91,6.45-15.67,9.68-26.28,9.68
			c-13.14,0-23.93-5.53-32.39-16.58c-8.46-11.05-12.69-26.16-12.69-45.33c0-20.28,4.25-36.02,12.75-47.24s19.68-16.83,33.54-16.83
			c12.1,0,21.93,4.4,29.49,13.21c4.5,5.21,7.87,12.69,10.12,22.44l-19.77,5.82c-1.17-6.32-3.61-11.3-7.32-14.96
			c-3.71-3.66-8.22-5.48-13.53-5.48c-7.33,0-13.28,3.24-17.85,9.72c-4.57,6.48-6.85,16.98-6.85,31.5c0,15.4,2.25,26.37,6.75,32.91
			s10.35,9.81,17.55,9.81c5.31,0,9.88-2.08,13.7-6.23S430.12,190.87,431.79,181.95z"/>
	</g>
	<rect x="240.44" y="91.55" class="st13" width="244.76" height="151.48"/>
</g>
</svg>
