<?xml version="1.0" encoding="utf-8"?>
<!-- Generator: Adobe Illustrator 25.1.0, SVG Export Plug-In . SVG Version: 6.00 Build 0)  -->
<svg version="1.1"  width="16px" height ="16px" id="Layer_1" xmlns="http://www.w3.org/2000/svg" xmlns:xlink="http://www.w3.org/1999/xlink" x="0px" y="0px"
	 viewBox="0 0 300 300"   style="enable-background:new 0 0 300 300;" xml:space="preserve">
<style type="text/css">
	.st0{clip-path:url(#SVGID_2_);}
	.st1{fill:#231F20;}
	.st2{fill:#FF0000;}
	.st3{fill:#FB8538;}
	.st4{fill:#91D050;}
	.st5{fill:#FF8F2A;}
	.st6{fill:#E22024;}
	.st7{fill:#FF2500;}
</style>
<g>
	<defs>
		<rect id="SVGID_1_" x="-257705120" y="-257698064" width="515396064" height="515396064"/>
	</defs>
	<clipPath id="SVGID_2_">
		<use xlink:href="#SVGID_1_"  style="overflow:visible;"/>
	</clipPath>
</g>
<g>
	<circle class="st4" cx="150" cy="150" r="61.65"/>
	<path class="st1" d="M150,215.08c-35.89,0-65.08-29.19-65.08-65.08s29.2-65.08,65.08-65.08s65.08,29.19,65.08,65.08
		S185.89,215.08,150,215.08z M150,91.78c-32.1,0-58.22,26.12-58.22,58.22s26.12,58.22,58.22,58.22s58.22-26.12,58.22-58.22
		S182.1,91.78,150,91.78z"/>
	<g>
		<path d="M116.73,176.47v-52.94h28.91v8.96h-20.4v12.53h17.61v8.96h-17.61v22.5H116.73z"/>
		<path d="M149.01,176.47v-9.64l22.15-34.34h-19.65v-8.96h30.87v8.31l-23.1,35.71h23.99v8.92H149.01z"/>
	</g>
</g>
</svg>
