<?xml version="1.0" encoding="utf-8"?>
<!-- Generator: Adobe Illustrator 25.1.0, SVG Export Plug-In . SVG Version: 6.00 Build 0)  -->
<svg version="1.1"  width="16px" height ="16px" id="Layer_1" xmlns="http://www.w3.org/2000/svg" xmlns:xlink="http://www.w3.org/1999/xlink" x="0px" y="0px"
	 viewBox="0 0 300 300"   style="enable-background:new 0 0 300 300;" xml:space="preserve">
<style type="text/css">
	.st0{clip-path:url(#SVGID_2_);}
	.st1{fill:#231F20;}
	.st2{fill:#FF0000;}
	.st3{fill:#FB8538;}
	.st4{fill:#91D050;}
	.st5{fill:#FF8F2A;}
	.st6{fill:#E22024;}
	.st7{fill:#FF2500;}
	.st8{fill:#FFFFFF;}
	.st9{fill:#006FC0;}
	.st10{fill:#FFFF01;}
	.st11{fill:#231F20;stroke:#231F20;stroke-width:0.25;stroke-miterlimit:10;}
	.st12{fill:#FF29FF;}
	.st13{opacity:0.24;fill:none;stroke:#231F20;stroke-width:0.25;stroke-miterlimit:10;}
	.st14{fill:#D0CECE;}
	.st15{fill:#02A0E3;}
</style>
<g>
	<defs>
		<rect id="SVGID_1_" x="-257694624" y="-257698816" width="515396064" height="515396064"/>
	</defs>
	<clipPath id="SVGID_2_">
		<use xlink:href="#SVGID_1_"  style="overflow:visible;"/>
	</clipPath>
</g>
<g>
	<g>
		<circle class="st9" cx="150" cy="161.58" r="93.78"/>
		<path class="st1" d="M150,259.37c-53.92,0-97.78-43.87-97.78-97.78S96.08,63.8,150,63.8s97.78,43.87,97.78,97.78
			S203.92,259.37,150,259.37z M150,71.8c-49.51,0-89.78,40.28-89.78,89.78s40.28,89.78,89.78,89.78s89.78-40.28,89.78-89.78
			S199.51,71.8,150,71.8z"/>
	</g>
	<path class="st1" d="M181.76,203.57c-2.76-2.76-2.76-7.22,0-9.98l1.99-1.99c2.76-2.76,7.22-2.76,9.98,0l14.01,14.01
		c0.83-2.32,1.37-4.79,1.37-7.4c0-12.17-9.87-22.04-22.04-22.04c-2.23,0-4.35,0.43-6.38,1.05l-44.94-45.3v-0.63
		c0.59-2.78,0.56-4,0.12-6.83c-1.86-12.03-10.76-21.56-22.93-21.56c-2.85,0-5.55,0.58-8.05,1.57c4.75,4.87,8.17,8.29,12.1,12.34
		c4.87,5.02,1.99,8.57-1.3,10.9c-3.3,2.34-7.59,2.67-10.49-0.15l-12.21-11.85c-1.31,2.82-2.09,5.93-2.09,9.24
		c0,12.17,9.87,22.04,22.04,22.04c2.38,0,4.64-0.48,6.79-1.18l46.83,44.46c-0.96,2.47-1.54,5.14-1.54,7.95
		c0,12.17,9.87,22.04,22.04,22.04c3.32,0,6.45-0.79,9.27-2.11L181.76,203.57z"/>
</g>
</svg>
