<?xml version="1.0" encoding="utf-8"?>
<!-- Generator: Adobe Illustrator 25.1.0, SVG Export Plug-In . SVG Version: 6.00 Build 0)  -->
<svg version="1.1"  width="16px" height ="16px" id="Layer_1" xmlns="http://www.w3.org/2000/svg" xmlns:xlink="http://www.w3.org/1999/xlink" x="0px" y="0px"
	 viewBox="0 0 300 300"   style="enable-background:new 0 0 300 300;" xml:space="preserve">
<style type="text/css">
	.st0{clip-path:url(#SVGID_2_);}
	.st1{fill:#231F20;}
	.st2{fill:#FF0000;}
	.st3{fill:#FB8538;}
	.st4{fill:#91D050;}
	.st5{fill:#FF8F2A;}
	.st6{fill:#E22024;}
	.st7{fill:#FF2500;}
</style>
<g>
	<defs>
		<rect id="SVGID_1_" x="-257704800" y="-257698064" width="515396064" height="515396064"/>
	</defs>
	<clipPath id="SVGID_2_">
		<use xlink:href="#SVGID_1_"  style="overflow:visible;"/>
	</clipPath>
</g>
<g>
	<circle class="st3" cx="145.57" cy="152.54" r="61.65"/>
	<path class="st1" d="M145.57,217.62c-35.89,0-65.08-29.19-65.08-65.08s29.2-65.08,65.08-65.08s65.08,29.19,65.08,65.08
		S181.46,217.62,145.57,217.62z M145.57,94.32c-32.1,0-58.22,26.12-58.22,58.22s26.12,58.22,58.22,58.22s58.22-26.12,58.22-58.22
		S177.67,94.32,145.57,94.32z"/>
</g>
<g>
	<g>
		<path d="M109.34,161.45l8.33-0.98c0.5,3.37,1.52,5.85,3.05,7.43c1.53,1.58,3.6,2.37,6.2,2.37c2.76,0,4.84-0.7,6.23-2.11
			s2.1-3.05,2.1-4.93c0-1.21-0.29-2.24-0.88-3.09s-1.62-1.59-3.08-2.21c-1-0.42-3.29-1.16-6.86-2.23c-4.59-1.37-7.81-3.06-9.66-5.06
			c-2.6-2.81-3.91-6.24-3.91-10.29c0-2.6,0.61-5.04,1.84-7.31c1.22-2.27,2.99-3.99,5.29-5.18c2.3-1.19,5.09-1.78,8.35-1.78
			c5.32,0,9.33,1.41,12.02,4.22c2.69,2.81,4.1,6.57,4.24,11.26l-8.56,0.45c-0.37-2.63-1.15-4.52-2.36-5.67s-3.01-1.73-5.42-1.73
			c-2.49,0-4.44,0.62-5.84,1.85c-0.91,0.79-1.36,1.85-1.36,3.17c0,1.21,0.42,2.24,1.27,3.1c1.08,1.09,3.7,2.23,7.87,3.42
			c4.17,1.19,7.25,2.41,9.24,3.68c2,1.27,3.56,3,4.69,5.2c1.13,2.2,1.69,4.91,1.69,8.14c0,2.93-0.67,5.67-2.02,8.23
			c-1.35,2.56-3.26,4.46-5.73,5.7s-5.54,1.87-9.23,1.87c-5.36,0-9.48-1.49-12.35-4.48C111.61,171.52,109.9,167.17,109.34,161.45z"/>
	</g>
	<g>
		<path d="M147.35,178.08v-9.31l22.27-33.17h-19.76v-8.65h31.04v8.02l-23.23,34.49h24.12v8.61H147.35z"/>
	</g>
</g>
</svg>
