<?xml version="1.0" encoding="utf-8"?>
<!-- Generator: Adobe Illustrator 25.1.0, SVG Export Plug-In . SVG Version: 6.00 Build 0)  -->
<svg version="1.1"  width="16px" height ="16px" id="Layer_1" xmlns="http://www.w3.org/2000/svg" xmlns:xlink="http://www.w3.org/1999/xlink" x="0px" y="0px"
	 viewBox="0 0 300 300"   style="enable-background:new 0 0 300 300;" xml:space="preserve">
<style type="text/css">
	.st0{clip-path:url(#SVGID_2_);}
	.st1{fill:#231F20;}
	.st2{fill:#FF0000;}
	.st3{fill:#FB8538;}
	.st4{fill:#91D050;}
	.st5{fill:#FF8F2A;}
	.st6{fill:#E22024;}
	.st7{fill:#FF2500;}
	.st8{fill:#FFFFFF;}
	.st9{fill:#006FC0;}
	.st10{fill:#FFFF01;}
	.st11{fill:url(#);stroke:#231F20;stroke-width:0.25;stroke-miterlimit:10;}
	.st12{fill:#006FC0;stroke:#231F20;stroke-miterlimit:10;}
	.st13{fill:#FF29FF;}
	.st14{opacity:0.24;fill:none;stroke:#231F20;stroke-width:0.25;stroke-miterlimit:10;}
	.st15{fill:#D0CECE;}
	.st16{fill:#02A0E3;}
</style>
<g>
	<defs>
		<rect id="SVGID_1_" x="-257695792" y="-257698816" width="515396064" height="515396064"/>
	</defs>
	<clipPath id="SVGID_2_">
		<use xlink:href="#SVGID_1_"  style="overflow:visible;"/>
	</clipPath>
</g>
<g>
	<g>
		<circle class="st15" cx="150" cy="161.58" r="89.53"/>
		<path class="st1" d="M150,256.44c-52.31,0-94.87-42.56-94.87-94.86S97.69,66.72,150,66.72c52.31,0,94.86,42.56,94.86,94.86
			S202.31,256.44,150,256.44z M150,77.39c-46.43,0-84.2,37.77-84.2,84.2s37.77,84.2,84.2,84.2c46.43,0,84.2-37.77,84.2-84.2
			S196.43,77.39,150,77.39z"/>
	</g>
	<g>
		<path d="M94.49,174.4l11.89-1.4c0.72,4.84,2.17,8.4,4.36,10.67c2.19,2.27,5.14,3.41,8.86,3.41c3.94,0,6.9-1.01,8.9-3.03
			c2-2.02,2.99-4.38,2.99-7.09c0-1.74-0.42-3.21-1.26-4.43c-0.84-1.22-2.31-2.28-4.4-3.18c-1.43-0.6-4.69-1.67-9.79-3.2
			c-6.55-1.97-11.15-4.39-13.79-7.26c-3.72-4.04-5.57-8.96-5.57-14.77c0-3.74,0.87-7.24,2.62-10.49c1.75-3.25,4.27-5.73,7.56-7.44
			c3.29-1.7,7.26-2.55,11.91-2.55c7.6,0,13.32,2.02,17.16,6.06c3.84,4.04,5.86,9.43,6.05,16.17l-12.22,0.65
			c-0.52-3.77-1.64-6.48-3.37-8.14c-1.72-1.65-4.3-2.48-7.74-2.48c-3.55,0-6.33,0.88-8.34,2.65c-1.29,1.14-1.94,2.65-1.94,4.56
			c0,1.74,0.61,3.22,1.82,4.46c1.54,1.57,5.29,3.2,11.23,4.91c5.95,1.7,10.34,3.46,13.19,5.28c2.85,1.82,5.08,4.31,6.69,7.46
			c1.61,3.15,2.42,7.05,2.42,11.69c0,4.21-0.96,8.15-2.89,11.82c-1.93,3.67-4.65,6.4-8.18,8.19c-3.52,1.79-7.91,2.68-13.17,2.68
			c-7.65,0-13.53-2.14-17.63-6.43S95.29,182.61,94.49,174.4z"/>
		<path d="M154.12,198.28v-73.41h11.89l24.78,49.02v-49.02h11.36v73.41h-12.26l-24.41-47.87v47.87H154.12z"/>
	</g>
</g>
</svg>
