<?xml version="1.0" encoding="utf-8"?>
<!-- Generator: Adobe Illustrator 25.1.0, SVG Export Plug-In . SVG Version: 6.00 Build 0)  -->
<svg version="1.1"  width="16px" height ="16px" id="Layer_1" xmlns="http://www.w3.org/2000/svg" xmlns:xlink="http://www.w3.org/1999/xlink" x="0px" y="0px"
	 viewBox="0 0 300 300"   style="enable-background:new 0 0 300 300;" xml:space="preserve">
<style type="text/css">
	.st0{clip-path:url(#SVGID_2_);}
	.st1{fill:#231F20;}
	.st2{fill:#FF0000;}
	.st3{fill:#FB8538;}
	.st4{fill:#91D050;}
	.st5{fill:#FF8F2A;}
	.st6{fill:#E22024;}
	.st7{fill:#FF2500;}
</style>
<g>
	<defs>
		<rect id="SVGID_1_" x="-257706080" y="-257698064" width="515396064" height="515396064"/>
	</defs>
	<clipPath id="SVGID_2_">
		<use xlink:href="#SVGID_1_"  style="overflow:visible;"/>
	</clipPath>
</g>
<g>
	<g>
		<circle class="st6" cx="150" cy="150" r="61.65"/>
		<path class="st1" d="M150,215.08c-35.89,0-65.08-29.19-65.08-65.08s29.2-65.08,65.08-65.08s65.08,29.19,65.08,65.08
			S185.89,215.08,150,215.08z M150,91.78c-32.1,0-58.22,26.12-58.22,58.22s26.12,58.22,58.22,58.22s58.22-26.12,58.22-58.22
			S182.1,91.78,150,91.78z"/>
	</g>
	<g>
		<path d="M101.35,156.91l5.22-0.55c0.31,1.91,0.95,3.32,1.91,4.22c0.96,0.9,2.26,1.35,3.89,1.35c1.73,0,3.03-0.4,3.9-1.2
			c0.88-0.8,1.31-1.73,1.31-2.8c0-0.69-0.18-1.27-0.55-1.75c-0.37-0.48-1.01-0.9-1.93-1.26c-0.63-0.24-2.06-0.66-4.29-1.27
			c-2.87-0.78-4.89-1.74-6.05-2.87c-1.63-1.6-2.45-3.54-2.45-5.84c0-1.48,0.38-2.86,1.15-4.15c0.77-1.29,1.87-2.27,3.32-2.94
			c1.44-0.67,3.19-1.01,5.23-1.01c3.33,0,5.84,0.8,7.53,2.4c1.68,1.6,2.57,3.73,2.65,6.39l-5.36,0.26
			c-0.23-1.49-0.72-2.56-1.48-3.22c-0.75-0.65-1.89-0.98-3.4-0.98c-1.56,0-2.78,0.35-3.66,1.05c-0.57,0.45-0.85,1.05-0.85,1.8
			c0,0.69,0.27,1.27,0.8,1.76c0.68,0.62,2.32,1.27,4.93,1.94s4.54,1.37,5.79,2.09s2.23,1.7,2.93,2.95c0.71,1.25,1.06,2.79,1.06,4.62
			c0,1.66-0.42,3.22-1.27,4.67c-0.85,1.45-2.04,2.53-3.59,3.24s-3.47,1.06-5.78,1.06c-3.36,0-5.94-0.85-7.74-2.54
			C102.78,162.62,101.7,160.15,101.35,156.91z"/>
		<path d="M133.43,166.35v-24.11h-7.88v-4.91h21.1v4.91h-7.86v24.11H133.43z"/>
		<path d="M148.36,152.02c0-2.96,0.4-5.44,1.21-7.44c0.6-1.48,1.43-2.8,2.47-3.98c1.04-1.17,2.19-2.05,3.43-2.61
			c1.65-0.77,3.56-1.15,5.72-1.15c3.91,0,7.04,1.33,9.39,3.98c2.35,2.65,3.52,6.34,3.52,11.07c0,4.69-1.17,8.35-3.5,11
			s-5.45,3.97-9.35,3.97c-3.95,0-7.09-1.32-9.42-3.95S148.36,156.64,148.36,152.02z M153.89,151.82c0,3.29,0.69,5.78,2.08,7.47
			c1.39,1.7,3.15,2.54,5.29,2.54c2.14,0,3.89-0.84,5.26-2.52c1.37-1.68,2.06-4.21,2.06-7.57c0-3.33-0.67-5.81-2-7.44
			c-1.33-1.64-3.11-2.45-5.32-2.45s-3.99,0.83-5.34,2.48C154.56,145.98,153.89,148.48,153.89,151.82z"/>
		<path d="M178.3,166.35v-29.02h8.6c3.26,0,5.39,0.15,6.38,0.44c1.52,0.44,2.8,1.38,3.82,2.84c1.03,1.46,1.54,3.34,1.54,5.65
			c0,1.78-0.3,3.28-0.89,4.49c-0.59,1.21-1.34,2.17-2.26,2.86c-0.91,0.69-1.84,1.15-2.78,1.38c-1.28,0.28-3.13,0.42-5.56,0.42h-3.5
			v10.95H178.3z M183.67,142.24v8.24h2.93c2.11,0,3.53-0.15,4.24-0.46c0.71-0.3,1.27-0.78,1.68-1.43c0.4-0.65,0.61-1.4,0.61-2.26
			c0-1.06-0.28-1.93-0.85-2.61c-0.57-0.69-1.29-1.12-2.16-1.29c-0.64-0.13-1.93-0.2-3.86-0.2H183.67z"/>
	</g>
</g>
</svg>
