<?xml version="1.0" encoding="utf-8"?>
<!-- Generator: Adobe Illustrator 25.1.0, SVG Export Plug-In . SVG Version: 6.00 Build 0)  -->
<svg version="1.1"  width="16px" height ="16px" id="Layer_1" xmlns="http://www.w3.org/2000/svg" xmlns:xlink="http://www.w3.org/1999/xlink" x="0px" y="0px"
	 viewBox="0 0 300 300"   style="enable-background:new 0 0 300 300;" xml:space="preserve">
<style type="text/css">
	.st0{clip-path:url(#SVGID_2_);}
	.st1{fill:#231F20;}
	.st2{fill:#FF0000;}
	.st3{fill:#FB8538;}
	.st4{fill:#91D050;}
	.st5{fill:#FF8F2A;}
	.st6{fill:#E22024;}
	.st7{fill:#FF2500;}
	.st8{fill:#FFFFFF;}
	.st9{fill:#006FC0;}
	.st10{fill:#FFFF01;}
	.st11{fill:#231F20;stroke:#231F20;stroke-width:0.25;stroke-miterlimit:10;}
	.st12{fill:#FF29FF;}
	.st13{opacity:0.24;fill:none;stroke:#231F20;stroke-width:0.25;stroke-miterlimit:10;}
	.st14{fill:#D0CECE;}
	.st15{fill:#02A0E3;}
	.st16{fill:#58585A;}
	.st17{fill:#AEB1B3;}
	.st18{fill:#7F7F7F;}
	.st19{fill:#888888;}
</style>
<g>
	<defs>
		<rect id="SVGID_1_" x="-257701232" y="-257698816" width="515396064" height="515396064"/>
	</defs>
	<clipPath id="SVGID_2_">
		<use xlink:href="#SVGID_1_"  style="overflow:visible;"/>
	</clipPath>
</g>
<g>
	<g>
		<path class="st1" d="M93.55,132.82v6.27H75.52v-4.7h-3.49v4.7h-17.7v-4.7h-3.49v4.7H31.91v-4.7h-3.49v4.7h-6.28v1.75h6.28v7.62
			h-6.28v1.75h6.28v7.96h-6.28v1.75h6.28v15.75h3.49v-15.75h18.92v15.75h3.49v-15.75h17.7v15.75h3.49v-15.75h18.03v15.75h3.49
			v-42.83H93.55z M93.55,140.84v7.62H75.52v-7.62H93.55z M72.02,140.84v7.62h-17.7v-7.62H72.02z M31.91,140.84h18.92v7.62H31.91
			V140.84z M31.91,158.16v-7.96h18.92v7.96H31.91z M54.32,158.16v-7.96h17.7v7.96H54.32z M75.52,158.16v-7.96h18.03v7.96H75.52z"/>
	</g>
	<g>
		<path class="st1" d="M206.45,132.77v6.27h18.03v-4.7h3.49v4.7h17.7v-4.7h3.49v4.7h18.92v-4.7h3.49v4.7h6.28v1.75h-6.28v7.62h6.28
			v1.75h-6.28v7.96h6.28v1.75h-6.28v15.75h-3.49v-15.75h-18.92v15.75h-3.49v-15.75h-17.7v15.75h-3.49v-15.75h-18.03v15.75h-3.49
			v-42.83H206.45z M206.45,140.78v7.62h18.03v-7.62H206.45z M227.98,140.78v7.62h17.7v-7.62H227.98z M268.09,140.78h-18.92v7.62
			h18.92V140.78z M268.09,158.1v-7.96h-18.92v7.96H268.09z M245.68,158.1v-7.96h-17.7v7.96H245.68z M224.48,158.1v-7.96h-18.03v7.96
			H224.48z"/>
	</g>
	<g>
		<g>
			<rect x="104.66" y="164.42" class="st16" width="88.89" height="3.49"/>
		</g>
	</g>
	<g>
		<g>
			<rect x="102.47" y="169.61" class="st19" width="93.54" height="3.49"/>
		</g>
	</g>
	<g>
		<g>
			<rect x="101.54" y="174.8" class="st16" width="95.36" height="3.49"/>
		</g>
	</g>
	<g>
		<g>
			<polygon class="st1" points="171.38,122.79 152.05,100.18 131.12,122.79 147.85,122.79 147.85,199.82 154.65,199.82 
				154.65,122.79 			"/>
		</g>
	</g>
</g>
</svg>
