<?xml version="1.0" encoding="utf-8"?>
<!-- Generator: Adobe Illustrator 25.1.0, SVG Export Plug-In . SVG Version: 6.00 Build 0)  -->
<svg version="1.1"  width="16px" height ="16px" id="Layer_1" xmlns="http://www.w3.org/2000/svg" xmlns:xlink="http://www.w3.org/1999/xlink" x="0px" y="0px"
	 viewBox="0 0 300 300"   style="enable-background:new 0 0 300 300;" xml:space="preserve">
<style type="text/css">
	.st0{clip-path:url(#SVGID_2_);}
	.st1{fill:#231F20;}
	.st2{fill:#FF0000;}
	.st3{fill:#FB8538;}
	.st4{fill:#91D050;}
	.st5{fill:#FF8F2A;}
	.st6{fill:#E22024;}
	.st7{fill:#FF2500;}
	.st8{fill:#FFFFFF;}
	.st9{fill:#006FC0;}
	.st10{fill:#FFFF01;}
	.st11{fill:#231F20;stroke:#231F20;stroke-width:0.25;stroke-miterlimit:10;}
	.st12{fill:#FF29FF;}
	.st13{opacity:0.24;fill:none;stroke:#231F20;stroke-width:0.25;stroke-miterlimit:10;}
	.st14{fill:#D0CECE;}
	.st15{fill:#02A0E3;}
	.st16{fill:#58585A;}
	.st17{fill:#AEB1B3;}
	.st18{fill:#7F7F7F;}
	.st19{fill:#888888;}
</style>
<g>
	<defs>
		<rect id="SVGID_1_" x="-257697392" y="-257698816" width="515396064" height="515396064"/>
	</defs>
	<clipPath id="SVGID_2_">
		<use xlink:href="#SVGID_1_"  style="overflow:visible;"/>
	</clipPath>
</g>
<g>
	<g>
		<path class="st2" d="M195.33,160.54c-7.68,17.56-25.44,28.86-45.48,28.86c-20.04,0-37.79-11.25-45.47-28.75l-69.36,0.1L35,153.1
			l74.54-0.11l0.87,2.5c5.79,15.7,21.64,26.25,39.43,26.25c17.79,0,33.64-10.59,39.37-26.09l0.41-2.76l75.36-0.1l0.01,7.65
			L195.33,160.54z"/>
	</g>
	<g>
		<polygon class="st1" points="155.37,146.55 155.37,121.5 172.21,121.5 172.21,110.6 127.79,110.6 127.79,121.5 144.63,121.5 
			144.63,146.55 122.26,146.55 150,177.79 177.74,146.55 		"/>
	</g>
</g>
</svg>
