<?xml version="1.0" encoding="utf-8"?>
<!-- Generator: Adobe Illustrator 25.1.0, SVG Export Plug-In . SVG Version: 6.00 Build 0)  -->
<svg version="1.1"  width="16px" height ="16px" id="Layer_1" xmlns="http://www.w3.org/2000/svg" xmlns:xlink="http://www.w3.org/1999/xlink" x="0px" y="0px"
	 viewBox="0 0 300 300"   style="enable-background:new 0 0 300 300;" xml:space="preserve">
<style type="text/css">
	.st0{clip-path:url(#SVGID_2_);}
	.st1{fill:#231F20;}
	.st2{fill:#FF0000;}
	.st3{fill:#FB8538;}
	.st4{fill:#91D050;}
	.st5{fill:#FF8F2A;}
	.st6{fill:#E22024;}
	.st7{fill:#FF2500;}
	.st8{fill:#FFFFFF;}
	.st9{fill:#006FC0;}
	.st10{fill:#FFFF01;}
	.st11{fill:#231F20;stroke:#231F20;stroke-width:0.25;stroke-miterlimit:10;}
	.st12{fill:#FF29FF;}
	.st13{opacity:0.24;fill:none;stroke:#231F20;stroke-width:0.25;stroke-miterlimit:10;}
	.st14{fill:#D0CECE;}
	.st15{fill:#02A0E3;}
	.st16{fill:#58585A;}
	.st17{fill:#AEB1B3;}
	.st18{fill:#7F7F7F;}
	.st19{fill:#888888;}
</style>
<g>
	<defs>
		<rect id="SVGID_1_" x="-257702192" y="-257698816" width="515396064" height="515396064"/>
	</defs>
	<clipPath id="SVGID_2_">
		<use xlink:href="#SVGID_1_"  style="overflow:visible;"/>
	</clipPath>
</g>
<g>
	<g>
		<g>
			<polygon class="st1" points="163.9,121.15 147.25,101.69 129.23,121.15 143.63,121.15 143.63,198.31 149.49,198.31 
				149.49,121.15 			"/>
		</g>
	</g>
	<g>
		<g>
			<rect x="120.18" y="129.34" class="st17" width="52.25" height="49.94"/>
		</g>
		<g>
			<path class="st19" d="M173.18,180.04h-53.75v-51.45h53.75V180.04z M120.93,178.53h50.74V130.1h-50.74V178.53z"/>
		</g>
	</g>
	<g>
		<g>
			<g>
				<path class="st9" d="M205.08,151.51c-5.55,0-11.75-5.03-18.31-10.36c-6.3-5.11-12.81-10.39-18.01-10.39c-0.02,0-0.04,0-0.06,0
					c-4.61,0.04-10.84,5.11-16.86,10.02c-6.88,5.6-13.3,10.79-19.07,10.58c-6.74-0.37-13.22-5.95-19.49-11.34
					c-5.81-5-11.3-9.73-16.15-9.73c-6.14,0-12.47,5.48-18.59,10.78c-6.2,5.37-12.06,10.44-18.1,10.44
					c-7.83,0-19.1-14.95-20.35-16.65l2.42-1.79c3.17,4.29,12.57,15.43,17.93,15.43c4.92,0,10.36-4.71,16.13-9.71
					c6.54-5.66,13.3-11.51,20.56-11.51c5.97,0,11.86,5.08,18.11,10.45c5.89,5.07,11.98,10.31,17.69,10.62
					c0.11,0.01,0.21,0.01,0.32,0.01c4.51,0,10.7-5.04,16.69-9.92c6.72-5.47,13.07-10.64,18.74-10.69c0.03,0,0.06,0,0.09,0
					c6.28,0,13.21,5.62,19.91,11.06c5.87,4.76,11.94,9.69,16.42,9.69c4.67,0,10.7-4.94,16.54-9.73c6.49-5.32,13.2-10.82,19.38-10.83
					h0c7.69,0,17.79,14.65,18.92,16.32l-2.49,1.68c-2.82-4.17-11.26-14.99-16.43-14.99c0,0,0,0,0,0c-5.11,0-11.4,5.16-17.47,10.14
					C217,146.45,210.83,151.51,205.08,151.51z"/>
			</g>
		</g>
		<g>
			<g>
				<path class="st9" d="M205.08,165.24c-5.54,0-11.74-5.03-18.31-10.36c-6.3-5.11-12.8-10.39-18.01-10.39c-0.02,0-0.05,0-0.07,0
					c-4.61,0.04-10.84,5.11-16.86,10.02c-6.88,5.6-13.3,10.83-19.07,10.58c-6.73-0.37-13.22-5.95-19.49-11.35
					c-5.81-5-11.3-9.73-16.15-9.73c-6.14,0-12.47,5.48-18.59,10.78c-6.2,5.37-12.06,10.44-18.1,10.44
					c-7.83,0-19.1-14.95-20.35-16.65l2.42-1.79c3.17,4.29,12.57,15.43,17.93,15.43c4.92,0,10.36-4.71,16.13-9.71
					c6.54-5.66,13.3-11.51,20.56-11.51c5.97,0,11.87,5.08,18.12,10.46c5.89,5.07,11.98,10.31,17.69,10.62
					c4.73,0.25,10.88-4.91,17-9.9c6.72-5.47,13.07-10.64,18.74-10.69c0.03,0,0.06,0,0.09,0c6.27,0,13.2,5.62,19.91,11.06
					c5.87,4.76,11.94,9.68,16.41,9.68c4.67,0,10.7-4.94,16.54-9.73c6.49-5.32,13.2-10.82,19.38-10.83
					c7.69,0,17.79,14.65,18.92,16.32l-2.49,1.68c-2.82-4.17-11.26-14.99-16.43-14.99c-5.11,0-11.4,5.16-17.47,10.14
					C217,160.19,210.83,165.24,205.08,165.24z"/>
			</g>
		</g>
		<g>
			<g>
				<path class="st9" d="M205.08,178.55c-5.55,0-11.75-5.03-18.31-10.36c-6.3-5.11-12.81-10.39-18.01-10.39c-0.02,0-0.04,0-0.06,0
					c-4.61,0.04-10.83,5.11-16.85,10.02c-6.88,5.6-13.47,10.73-19.07,10.58c-6.74-0.37-13.22-5.95-19.49-11.34
					c-5.81-5-11.3-9.73-16.15-9.73c-6.14,0-12.47,5.48-18.59,10.78c-6.2,5.37-12.06,10.44-18.1,10.44
					c-7.83,0-19.1-14.95-20.35-16.65l2.42-1.79c3.17,4.29,12.57,15.43,17.93,15.43c4.92,0,10.36-4.71,16.13-9.71
					c6.54-5.66,13.3-11.51,20.56-11.51c5.97,0,11.86,5.08,18.11,10.45c5.89,5.07,11.98,10.31,17.69,10.62
					c4.56,0.37,10.88-4.92,17.01-9.9c6.72-5.47,13.06-10.64,18.73-10.69c0.03,0,0.06,0,0.09,0c6.28,0,13.21,5.62,19.91,11.06
					c5.87,4.76,11.94,9.69,16.42,9.69c4.67,0,10.7-4.94,16.54-9.73c6.49-5.32,13.2-10.82,19.38-10.83
					c7.69,0,17.79,14.65,18.92,16.32l-2.49,1.68c-2.82-4.17-11.26-14.99-16.43-14.99c-5.11,0-11.4,5.16-17.47,10.14
					C217,173.49,210.83,178.55,205.08,178.55z"/>
			</g>
		</g>
		<g>
			<g>
				<path class="st9" d="M205.08,190.87c-5.55,0-11.75-5.03-18.31-10.36c-6.3-5.11-12.81-10.39-18.01-10.39c-0.02,0-0.04,0-0.06,0
					c-4.61,0.04-10.84,5.11-16.86,10.02c-6.68,5.44-13.01,10.59-18.59,10.59c-0.16,0-0.32-0.01-0.48-0.01
					c-6.74-0.37-13.22-5.95-19.49-11.35c-5.81-5-11.3-9.73-16.15-9.73c-6.14,0-12.47,5.48-18.59,10.79
					c-6.2,5.37-12.06,10.44-18.1,10.44c-7.83,0-19.1-14.95-20.35-16.65l2.42-1.79c3.17,4.29,12.57,15.43,17.93,15.43
					c4.92,0,10.36-4.72,16.13-9.71c6.54-5.67,13.3-11.52,20.56-11.52c5.97,0,11.86,5.08,18.11,10.46
					c5.89,5.07,11.98,10.31,17.69,10.62c4.73,0.28,10.88-4.91,17-9.9c6.72-5.47,13.07-10.64,18.74-10.69c0.03,0,0.06,0,0.09,0
					c6.28,0,13.21,5.62,19.91,11.06c5.87,4.76,11.94,9.69,16.42,9.69c4.67,0,10.7-4.94,16.54-9.73c6.49-5.32,13.2-10.82,19.38-10.83
					h0c7.69,0,17.79,14.65,18.92,16.32l-2.49,1.68c-2.82-4.17-11.25-14.99-16.43-14.99c0,0,0,0,0,0c-5.11,0-11.4,5.16-17.47,10.14
					C217,185.82,210.83,190.87,205.08,190.87z"/>
			</g>
		</g>
		<g>
			<g>
				<polygon class="st1" points="165.82,121.15 149.17,101.69 131.15,121.15 145.55,121.15 145.55,198.31 151.41,198.31 
					151.41,121.15 				"/>
			</g>
		</g>
	</g>
</g>
</svg>
