<?xml version="1.0" encoding="utf-8"?>
<!-- Generator: Adobe Illustrator 25.1.0, SVG Export Plug-In . SVG Version: 6.00 Build 0)  -->
<svg version="1.1"  width="16px" height ="16px" id="Layer_1" xmlns="http://www.w3.org/2000/svg" xmlns:xlink="http://www.w3.org/1999/xlink" x="0px" y="0px"
	 viewBox="0 0 300 300"   style="enable-background:new 0 0 300 300;" xml:space="preserve">
<style type="text/css">
	.st0{clip-path:url(#SVGID_2_);}
	.st1{fill:#231F20;}
	.st2{fill:#FF0000;}
	.st3{fill:#FB8538;}
	.st4{fill:#91D050;}
	.st5{fill:#FF8F2A;}
	.st6{fill:#E22024;}
	.st7{fill:#FF2500;}
	.st8{fill:#FFFFFF;}
	.st9{fill:#006FC0;}
	.st10{fill:#FFFF01;}
	.st11{fill:#231F20;stroke:#231F20;stroke-width:0.25;stroke-miterlimit:10;}
	.st12{fill:#FF29FF;}
	.st13{opacity:0.24;fill:none;stroke:#231F20;stroke-width:0.25;stroke-miterlimit:10;}
	.st14{fill:#D0CECE;}
	.st15{fill:#02A0E3;}
	.st16{fill:#58585A;}
	.st17{fill:#AEB1B3;}
	.st18{fill:#7F7F7F;}
	.st19{fill:#888888;}
</style>
<g>
	<defs>
		<rect id="SVGID_1_" x="-257700912" y="-257698816" width="515396064" height="515396064"/>
	</defs>
	<clipPath id="SVGID_2_">
		<use xlink:href="#SVGID_1_"  style="overflow:visible;"/>
	</clipPath>
</g>
<g>
	<g>
		<g>
			<polygon class="st1" points="169.95,124.61 151.91,103.51 132.38,124.61 147.99,124.61 147.99,196.49 154.34,196.49 
				154.34,124.61 			"/>
		</g>
	</g>
	<g>
		<path class="st1" d="M97.32,140.63v5.85H80.5v-4.39h-3.26v4.39H60.72v-4.39h-3.26v4.39H39.8v-4.39h-3.26v4.39h-5.86v1.63h5.86
			v7.11h-5.86v1.63h5.86v7.43h-5.86v1.63h5.86v14.69h3.26v-14.69h17.66v14.69h3.26v-14.69h16.52v14.69h3.26v-14.69h16.82v14.69h3.26
			v-39.97H97.32z M97.32,148.11v7.11H80.5v-7.11H97.32z M77.24,148.11v7.11H60.72v-7.11H77.24z M39.8,148.11h17.66v7.11H39.8V148.11
			z M39.8,164.28v-7.43h17.66v7.43H39.8z M60.72,164.28v-7.43h16.52v7.43H60.72z M80.5,164.28v-7.43h16.82v7.43H80.5z"/>
	</g>
	<g>
		<path class="st1" d="M202.68,140.58v5.85h16.82v-4.39h3.26v4.39h16.52v-4.39h3.26v4.39h17.66v-4.39h3.26v4.39h5.86v1.63h-5.86
			v7.11h5.86v1.63h-5.86v7.43h5.86v1.63h-5.86v14.69h-3.26v-14.69h-17.66v14.69h-3.26v-14.69h-16.52v14.69h-3.26v-14.69h-16.82
			v14.69h-3.26v-39.97H202.68z M202.68,148.06v7.11h16.82v-7.11H202.68z M222.76,148.06v7.11h16.52v-7.11H222.76z M260.2,148.06
			h-17.66v7.11h17.66V148.06z M260.2,164.22v-7.43h-17.66v7.43H260.2z M239.28,164.22v-7.43h-16.52v7.43H239.28z M219.5,164.22
			v-7.43h-16.82v7.43H219.5z"/>
	</g>
</g>
</svg>
