<?xml version="1.0" encoding="utf-8"?>
<!-- Generator: Adobe Illustrator 25.1.0, SVG Export Plug-In . SVG Version: 6.00 Build 0)  -->
<svg version="1.1"  width="16px" height ="16px" id="Layer_1" xmlns="http://www.w3.org/2000/svg" xmlns:xlink="http://www.w3.org/1999/xlink" x="0px" y="0px"
	 viewBox="0 0 300 300"   style="enable-background:new 0 0 300 300;" xml:space="preserve">
<style type="text/css">
	.st0{clip-path:url(#SVGID_2_);}
	.st1{fill:#231F20;}
	.st2{fill:#FF0000;}
	.st3{fill:#FB8538;}
	.st4{fill:#91D050;}
	.st5{fill:#FF8F2A;}
	.st6{fill:#E22024;}
	.st7{fill:#FF2500;}
	.st8{fill:#FFFFFF;}
	.st9{fill:#006FC0;}
	.st10{fill:#FFFF01;}
	.st11{fill:#231F20;stroke:#231F20;stroke-width:0.25;stroke-miterlimit:10;}
	.st12{fill:#FF29FF;}
	.st13{opacity:0.24;fill:none;stroke:#231F20;stroke-width:0.25;stroke-miterlimit:10;}
	.st14{fill:#D0CECE;}
	.st15{fill:#02A0E3;}
	.st16{fill:#58585A;}
	.st17{fill:#AEB1B3;}
	.st18{fill:#7F7F7F;}
	.st19{fill:#888888;}
</style>
<g>
	<defs>
		<rect id="SVGID_1_" x="-257696752" y="-257698816" width="515396064" height="515396064"/>
	</defs>
	<clipPath id="SVGID_2_">
		<use xlink:href="#SVGID_1_"  style="overflow:visible;"/>
	</clipPath>
</g>
<g>
	<g>
		<polygon class="st1" points="173.8,106.38 150.25,78.85 124.76,106.38 145.14,106.38 145.14,216.13 153.42,216.13 153.42,106.38 
					"/>
	</g>
	<g>
		<g>
			<path class="st2" d="M84.13,223.14l-12.34,0.05c-2.55-1.2,0.27-8.26,1.22-10.92c7.41-20.85,14.03-41.6,14.69-62.43
				c0.74-23.1-5.38-46.13-15.82-65.81C69.23,79.05,70.3,75,70.3,75l13.92,0c5.52,9.14,21.28,36.21,21.1,75.02
				c-0.09,20.2-5.4,43.44-16.8,69.28C87.16,221.87,87.41,223.19,84.13,223.14z"/>
		</g>
	</g>
	<g>
		<g>
			<path class="st2" d="M215.87,224.95l12.34,0.05c2.55-1.2-0.27-8.26-1.22-10.92c-7.41-20.85-14.03-41.6-14.69-62.43
				c-0.74-23.1,5.38-46.13,15.82-65.81c2.65-4.99,1.58-9.03,1.58-9.03l-13.92,0c-5.52,9.14-21.28,36.21-21.1,75.02
				c0.09,20.2,5.4,43.44,16.8,69.28C212.84,223.68,212.59,225,215.87,224.95z"/>
		</g>
	</g>
</g>
</svg>
