<?xml version="1.0" encoding="utf-8"?>
<!-- Generator: Adobe Illustrator 25.1.0, SVG Export Plug-In . SVG Version: 6.00 Build 0)  -->
<svg version="1.1"  width="16px" height ="16px" id="Layer_1" xmlns="http://www.w3.org/2000/svg" xmlns:xlink="http://www.w3.org/1999/xlink" x="0px" y="0px"
	 viewBox="0 0 300 300"   style="enable-background:new 0 0 300 300;" xml:space="preserve">
<style type="text/css">
	.st0{clip-path:url(#SVGID_2_);}
	.st1{fill:#231F20;}
	.st2{fill:#FF0000;}
	.st3{fill:#FB8538;}
	.st4{fill:#91D050;}
	.st5{fill:#FF8F2A;}
	.st6{fill:#E22024;}
	.st7{fill:#FF2500;}
	.st8{fill:#FFFFFF;}
	.st9{fill:#006FC0;}
	.st10{fill:#FFFF01;}
	.st11{fill:#231F20;stroke:#231F20;stroke-width:0.25;stroke-miterlimit:10;}
	.st12{fill:#FF29FF;}
	.st13{opacity:0.24;fill:none;stroke:#231F20;stroke-width:0.25;stroke-miterlimit:10;}
	.st14{fill:#D0CECE;}
	.st15{fill:#02A0E3;}
	.st16{fill:#58585A;}
	.st17{fill:#AEB1B3;}
	.st18{fill:#7F7F7F;}
	.st19{fill:#888888;}
</style>
<g>
	<defs>
		<rect id="SVGID_1_" x="-257700272" y="-257698816" width="515396064" height="515396064"/>
	</defs>
	<clipPath id="SVGID_2_">
		<use xlink:href="#SVGID_1_"  style="overflow:visible;"/>
	</clipPath>
</g>
<g>
	<g>
		<path class="st14" d="M30.92,180.27v0.45h238.15v-0.45c0-29.1-53.34-52.76-119.11-52.76C84.26,127.51,30.92,151.16,30.92,180.27z"
			/>
		<path class="st17" d="M269.88,181.52H30.12v-1.25c0-29.53,53.76-53.56,119.84-53.56c66.12,0,119.91,24.03,119.91,53.56V181.52z
			 M31.73,179.91h236.54c-0.43-28.48-53.33-51.6-118.3-51.6C85.03,128.31,32.16,151.43,31.73,179.91z"/>
	</g>
	<g>
		<polygon class="st1" points="153.64,108.49 201.17,108.49 201.17,95 218.47,111.81 201.17,129.45 201.17,115.13 153.64,115.13 
			153.64,205 146.59,205 146.59,115.13 146.59,108.49 		"/>
	</g>
</g>
</svg>
