<?xml version="1.0" encoding="utf-8"?>
<!-- Generator: Adobe Illustrator 25.1.0, SVG Export Plug-In . SVG Version: 6.00 Build 0)  -->
<svg version="1.1"  width="16px" height ="16px" id="Layer_1" xmlns="http://www.w3.org/2000/svg" xmlns:xlink="http://www.w3.org/1999/xlink" x="0px" y="0px"
	 viewBox="0 0 300 300"   style="enable-background:new 0 0 300 300;" xml:space="preserve">
<style type="text/css">
	.st0{clip-path:url(#SVGID_2_);}
	.st1{fill:#231F20;}
	.st2{fill:#FF0000;}
	.st3{fill:#FB8538;}
	.st4{fill:#91D050;}
	.st5{fill:#FF8F2A;}
	.st6{fill:#E22024;}
	.st7{fill:#FF2500;}
	.st8{fill:#FFFFFF;}
	.st9{fill:#006FC0;}
	.st10{fill:#FFFF01;}
	.st11{fill:#231F20;stroke:#231F20;stroke-width:0.25;stroke-miterlimit:10;}
	.st12{fill:#FF29FF;}
	.st13{opacity:0.24;fill:none;stroke:#231F20;stroke-width:0.25;stroke-miterlimit:10;}
	.st14{fill:#D0CECE;}
	.st15{fill:#02A0E3;}
	.st16{fill:#58585A;}
	.st17{fill:#AEB1B3;}
	.st18{fill:#7F7F7F;}
	.st19{fill:#888888;}
</style>
<g>
	<defs>
		<rect id="SVGID_1_" x="-257698352" y="-257698816" width="515396064" height="515396064"/>
	</defs>
	<clipPath id="SVGID_2_">
		<use xlink:href="#SVGID_1_"  style="overflow:visible;"/>
	</clipPath>
</g>
<g>
	<g>
		<rect x="145.28" y="184.86" class="st1" width="8.02" height="32.34"/>
	</g>
	<g>
		<polygon class="st1" points="173.24,102.23 153.39,102.23 153.39,120.43 145.37,120.43 145.37,102.23 125.6,102.23 150.33,75.43 
					"/>
	</g>
	<g>
		<polygon class="st16" points="214.27,219.36 200.21,223.74 181.43,184.78 153.31,184.86 145.28,184.86 119.97,184.95 
			98.14,224.57 84.65,219.36 104.92,182.14 110.38,172.95 145.28,172.79 153.31,172.79 191.69,172.62 		"/>
	</g>
	<g>
		<polygon class="st16" points="215.35,85.85 192.76,132.59 153.39,132.42 145.37,132.42 111.45,132.26 106,123.08 85.73,85.94 
			99.21,80.64 120.97,120.35 145.37,120.43 153.39,120.43 182.51,120.51 201.2,81.55 		"/>
	</g>
</g>
</svg>
