<?xml version="1.0" encoding="utf-8"?>
<!-- Generator: Adobe Illustrator 25.1.0, SVG Export Plug-In . SVG Version: 6.00 Build 0)  -->
<svg version="1.1"  width="16px" height ="16px" id="Layer_1" xmlns="http://www.w3.org/2000/svg" xmlns:xlink="http://www.w3.org/1999/xlink" x="0px" y="0px"
	 viewBox="0 0 300 300"   style="enable-background:new 0 0 300 300;" xml:space="preserve">
<style type="text/css">
	.st0{clip-path:url(#SVGID_2_);}
	.st1{fill:#231F20;}
	.st2{fill:#FF0000;}
	.st3{fill:#FB8538;}
	.st4{fill:#91D050;}
	.st5{fill:#FF8F2A;}
	.st6{fill:#E22024;}
	.st7{fill:#FF2500;}
	.st8{fill:#FFFFFF;}
	.st9{fill:#006FC0;}
	.st10{fill:#FFFF01;}
	.st11{fill:#231F20;stroke:#231F20;stroke-width:0.25;stroke-miterlimit:10;}
	.st12{fill:#FF29FF;}
	.st13{opacity:0.24;fill:none;stroke:#231F20;stroke-width:0.25;stroke-miterlimit:10;}
	.st14{fill:#D0CECE;}
	.st15{fill:#02A0E3;}
	.st16{fill:#58585A;}
	.st17{fill:#AEB1B3;}
	.st18{fill:#7F7F7F;}
	.st19{fill:#888888;}
</style>
<g>
	<defs>
		<rect id="SVGID_1_" x="-257701552" y="-257698816" width="515396064" height="515396064"/>
	</defs>
	<clipPath id="SVGID_2_">
		<use xlink:href="#SVGID_1_"  style="overflow:visible;"/>
	</clipPath>
</g>
<g>
	<g>
		<g>
			<path class="st9" d="M211.6,151.68c-6.2,0-13.14-5.63-20.48-11.58c-7.04-5.71-14.32-11.62-20.15-11.62c-0.02,0-0.05,0-0.07,0
				c-5.15,0.05-12.12,5.71-18.85,11.2c-7.69,6.26-14.87,12.07-21.33,11.83c-7.53-0.41-14.78-6.65-21.8-12.69
				c-6.5-5.59-12.64-10.88-18.06-10.88c-6.87,0-13.95,6.13-20.79,12.06c-6.94,6.01-13.49,11.68-20.24,11.68
				c-8.76,0-21.36-16.72-22.76-18.62l2.71-2c3.55,4.8,14.06,17.26,20.06,17.26c5.5,0,11.59-5.27,18.04-10.86
				c7.31-6.33,14.87-12.88,23-12.88c6.67,0,13.27,5.68,20.26,11.69c6.59,5.67,13.4,11.53,19.79,11.88c0.12,0.01,0.24,0.01,0.35,0.01
				c5.05,0,11.97-5.63,18.66-11.09c7.52-6.12,14.62-11.91,20.95-11.96c0.03,0,0.07,0,0.1,0c7.02,0,14.77,6.29,22.27,12.37
				c6.56,5.32,13.35,10.83,18.36,10.83c5.23,0,11.97-5.53,18.5-10.88c7.25-5.95,14.76-12.1,21.68-12.11h0
				c8.6,0,19.9,16.39,21.16,18.26l-2.79,1.88c-3.15-4.66-12.59-16.77-18.37-16.77c0,0,0,0,0,0c-5.72,0-12.75,5.77-19.54,11.35
				C224.93,146.03,218.04,151.68,211.6,151.68z"/>
		</g>
	</g>
	<g>
		<g>
			<path class="st9" d="M211.6,167.05c-6.2,0-13.13-5.63-20.48-11.58c-7.04-5.71-14.32-11.62-20.14-11.62c-0.03,0-0.05,0-0.08,0
				c-5.16,0.05-12.12,5.71-18.86,11.2c-7.69,6.26-14.87,12.12-21.33,11.83c-7.53-0.41-14.78-6.66-21.8-12.69
				c-6.5-5.59-12.64-10.88-18.06-10.88c-6.87,0-13.95,6.13-20.79,12.06c-6.94,6.01-13.49,11.68-20.24,11.68
				c-8.76,0-21.36-16.72-22.76-18.62l2.71-2c3.55,4.8,14.06,17.26,20.06,17.26c5.5,0,11.59-5.27,18.04-10.86
				c7.31-6.33,14.87-12.88,23-12.88c6.67,0,13.27,5.68,20.26,11.69c6.59,5.67,13.4,11.53,19.78,11.88
				c5.29,0.28,12.16-5.49,19.02-11.08c7.52-6.12,14.62-11.91,20.95-11.96c0.03,0,0.07,0,0.1,0c7.02,0,14.77,6.28,22.27,12.37
				c6.56,5.32,13.35,10.83,18.36,10.83c5.23,0,11.97-5.53,18.5-10.88c7.25-5.95,14.76-12.1,21.68-12.11
				c8.6,0,19.9,16.39,21.16,18.26l-2.79,1.88c-3.15-4.66-12.59-16.77-18.37-16.77c-5.72,0-12.75,5.77-19.54,11.35
				C224.93,161.39,218.04,167.05,211.6,167.05z"/>
		</g>
	</g>
	<g>
		<g>
			<path class="st9" d="M211.6,181.93c-6.2,0-13.14-5.63-20.48-11.58c-7.04-5.71-14.32-11.62-20.15-11.62c-0.02,0-0.05,0-0.07,0
				c-5.15,0.05-12.12,5.72-18.85,11.2c-7.69,6.26-15.06,12-21.33,11.83c-7.53-0.41-14.78-6.65-21.8-12.69
				c-6.5-5.59-12.64-10.88-18.06-10.88c-6.87,0-13.95,6.13-20.79,12.06c-6.94,6.01-13.49,11.68-20.24,11.68
				c-8.76,0-21.36-16.72-22.76-18.62l2.71-2c3.55,4.8,14.06,17.26,20.06,17.26c5.5,0,11.59-5.27,18.04-10.86
				c7.31-6.33,14.87-12.88,23-12.88c6.67,0,13.27,5.68,20.26,11.69c6.59,5.67,13.4,11.53,19.79,11.88
				c5.1,0.41,12.16-5.5,19.02-11.08c7.51-6.12,14.61-11.9,20.94-11.96c0.03,0,0.07,0,0.1,0c7.02,0,14.77,6.29,22.27,12.37
				c6.56,5.32,13.35,10.83,18.36,10.83c5.23,0,11.97-5.53,18.5-10.88c7.25-5.95,14.76-12.1,21.68-12.11
				c8.6,0,19.9,16.39,21.16,18.26l-2.79,1.88c-3.15-4.66-12.59-16.77-18.37-16.77c-5.72,0-12.75,5.77-19.54,11.35
				C224.93,176.28,218.04,181.93,211.6,181.93z"/>
		</g>
	</g>
	<g>
		<g>
			<path class="st9" d="M211.6,195.71c-6.2,0-13.14-5.63-20.48-11.58c-7.04-5.71-14.32-11.62-20.15-11.62c-0.02,0-0.05,0-0.07,0
				c-5.15,0.05-12.12,5.71-18.85,11.2c-7.47,6.09-14.55,11.85-20.79,11.85c-0.18,0-0.36-0.01-0.54-0.01
				c-7.53-0.41-14.78-6.66-21.8-12.69c-6.5-5.59-12.64-10.88-18.06-10.88c-6.87,0-13.95,6.13-20.79,12.06
				c-6.94,6.01-13.49,11.68-20.24,11.68c-8.76,0-21.36-16.72-22.76-18.62l2.71-2c3.55,4.8,14.06,17.26,20.06,17.26
				c5.5,0,11.59-5.28,18.04-10.86c7.31-6.34,14.87-12.88,23-12.88c6.67,0,13.27,5.68,20.26,11.69c6.59,5.67,13.4,11.53,19.79,11.88
				c5.29,0.31,12.16-5.49,19.02-11.08c7.52-6.12,14.62-11.91,20.95-11.96c0.03,0,0.07,0,0.1,0c7.02,0,14.77,6.29,22.27,12.37
				c6.56,5.32,13.35,10.83,18.36,10.83c5.23,0,11.97-5.53,18.5-10.88c7.25-5.95,14.76-12.1,21.68-12.11h0
				c8.6,0,19.9,16.38,21.16,18.25l-2.79,1.88c-3.15-4.66-12.59-16.76-18.37-16.76c0,0,0,0,0,0c-5.72,0-12.75,5.77-19.54,11.35
				C224.93,190.06,218.04,195.71,211.6,195.71z"/>
		</g>
	</g>
	<g>
		<g>
			<polygon class="st1" points="167.69,117.74 149.07,95.97 128.91,117.74 145.03,117.74 145.03,204.03 151.58,204.03 
				151.58,117.74 			"/>
		</g>
	</g>
</g>
</svg>
